<svg width="427" height="580" viewBox="0 0 427 580" fill="none" xmlns="http://www.w3.org/2000/svg">
<mask id="mask0_154_5574" style="mask-type:alpha" maskUnits="userSpaceOnUse" x="0" y="0" width="427" height="580">
<rect width="427" height="580" fill="#D9D9D9"/>
</mask>
<g mask="url(#mask0_154_5574)">
<path d="M642.046 457.279C717.213 449.729 666.968 494.799 742.112 487.25L703.303 224.962C631.383 254.358 621.454 233.446 549.529 262.858C477.609 292.254 487.533 313.183 415.612 342.578C343.692 371.973 333.763 351.061 261.838 380.474C189.918 409.869 199.842 430.799 127.921 460.194C55.996 489.607 46.0493 468.677 -25.876 498.09C-97.8013 527.503 -87.8722 548.415 -159.792 577.81C-84.6253 570.26 -81.3853 546.035 -6.21822 538.485C68.9489 530.936 65.6862 555.161 140.853 547.611C216.02 540.062 219.26 515.836 294.428 508.287C369.595 500.737 373.45 519.904 450.333 501.852C527.216 483.801 561.597 442.728 630.202 421.903L642.046 457.279Z" fill="#FF2523" stroke="#E40200" stroke-width="2" stroke-linecap="round" stroke-linejoin="round"/>
<path d="M587.66 364.36C662.764 345.311 666.282 368.34 741.357 349.309L627.208 111.85C561.634 150.681 545.494 132.844 479.919 171.675C414.345 210.507 430.463 228.344 364.888 267.176C299.314 306.007 283.174 288.17 217.6 327.001C152.026 365.833 168.143 383.67 102.569 422.502C36.9947 461.333 20.8545 443.496 -44.7425 482.328C-110.317 521.159 -94.1992 538.997 -159.773 577.828C-84.6699 558.779 -88.1877 535.75 -13.0842 516.701C62.0193 497.651 65.5371 520.68 140.636 501.649C215.739 482.6 212.221 459.571 287.302 440.522C362.405 421.472 365.923 444.501 440.999 425.47C516.102 406.421 512.585 383.392 587.66 364.36Z" fill="#FF3C3A" stroke="#E40200" stroke-width="2" stroke-linecap="round" stroke-linejoin="round"/>
<path d="M539.622 243.746C610.591 212.46 621.73 232.869 692.699 201.583L497.752 5.6123C443.039 53.2336 420.615 39.9027 365.906 87.5065C311.192 135.128 333.599 148.441 278.885 196.063C224.171 243.684 201.747 230.353 147.039 277.957C92.3252 325.578 114.731 338.892 60.0178 386.513C5.30411 434.135 -17.1198 420.804 -71.8335 468.425C-126.547 516.046 -104.141 529.36 -158.855 576.981C-87.8852 545.695 -99.0242 525.286 -28.0548 494C42.9145 462.714 54.0535 483.123 125.023 451.836C195.992 420.55 184.853 400.141 255.818 368.873C326.787 337.586 337.926 357.995 408.872 326.71C479.842 295.423 468.698 275.032 539.667 243.746L539.622 243.746Z" fill="#FF2523" stroke="#E40200" stroke-width="2" stroke-linecap="round" stroke-linejoin="round"/>
<path d="M427.26 127.13C487.903 83.6272 507.281 99.3498 567.923 55.847L465.157 -2.93507C427.551 51.5355 448.652 -79.7392 411.046 -25.2687C373.44 29.2019 375.666 -2.62819 338.065 51.8249C300.459 106.295 264.668 157.877 194.909 196.658C125.149 235.439 107.396 278.929 69.79 333.399C32.1839 387.87 -55.596 410.556 -93.197 465.009C-130.798 519.462 -122.169 523.357 -159.775 577.828C-99.1322 534.325 -118.51 518.603 -57.8675 475.1C2.77526 431.597 22.1534 447.32 82.7962 403.817C143.439 360.314 124.061 344.592 184.699 301.106C245.341 257.604 264.72 273.326 325.362 229.823C386.005 186.321 366.627 170.598 427.265 127.113L427.26 127.13Z" fill="#FF3C3A" stroke="#E40200" stroke-width="2" stroke-linecap="round" stroke-linejoin="round"/>
<path d="M413.077 -19.6945C468.15 -70.2094 451.061 0.0917155 506.117 -50.4097L346.502 -267.312C304.734 -198.74 286.663 -212.067 244.9 -143.476C203.132 -74.9044 221.209 -61.5587 179.441 7.01318C137.674 75.5851 119.602 62.2583 77.8388 130.849C36.0712 199.421 54.1477 212.767 12.3802 281.339C-29.3827 349.929 -47.477 336.597 -89.2399 405.188C-131.003 473.779 -112.931 487.105 -154.698 555.677C-99.6254 505.162 -109.03 481.168 -53.9568 430.654C1.11625 380.139 10.503 404.146 65.576 353.631C120.649 303.116 111.245 279.122 166.318 228.607C221.391 178.093 233.852 193.351 285.091 132.254C336.331 71.1569 355.602 54.8604 399 -3.96486L413.077 -19.6945Z" fill="#FF2523" stroke="#E40200" stroke-width="2" stroke-linecap="round" stroke-linejoin="round"/>
<path d="M324.747 -72.9504C374.103 -133.925 388.204 -114.945 437.547 -175.888L231.239 -326.402C199.085 -252.9 177.67 -259.815 145.517 -186.312C113.363 -112.81 134.76 -105.881 102.607 -32.3781C70.4532 41.1246 49.0383 34.209 16.8847 107.712C-15.2688 181.214 6.1284 188.143 -26.0252 261.646C-58.1787 335.149 -79.5936 328.233 -111.765 401.749C-143.918 475.252 -122.521 482.181 -154.675 555.684C-105.319 494.709 -119.419 475.729 -70.063 414.753C-20.7069 353.778 -6.60636 372.758 42.7544 311.802C92.1105 250.827 78.01 231.847 127.348 170.885C176.705 109.91 190.805 128.89 240.148 67.9476C289.504 6.97251 275.404 -12.0076 324.747 -72.9504Z" fill="#FF3C3A" stroke="#E40200" stroke-width="2" stroke-linecap="round" stroke-linejoin="round"/>
<path d="M227.729 -155.177C267.821 -224.923 286.591 -212.758 326.683 -282.504L77.6234 -348.255C58.2964 -273.032 34.1874 -272.187 14.8558 -196.982C-4.47121 -121.759 19.6155 -122.609 0.288529 -47.3858C-19.0384 27.8377 -43.1475 28.6826 -62.4791 103.887C-81.8061 179.111 -57.7193 178.26 -77.0463 253.484C-96.3733 328.707 -120.482 329.552 -139.809 404.776C-159.136 479.999 -135.05 479.149 -154.376 554.372C-114.285 484.626 -133.055 472.46 -92.9631 402.714C-52.8712 332.968 -34.1007 345.134 5.9912 275.387C46.0831 205.641 27.3126 193.476 67.4092 123.748C107.501 54.0022 126.272 66.1678 166.346 -3.56498C206.438 -73.3112 187.672 -85.4578 227.764 -155.204L227.729 -155.177Z" fill="#FF2523" stroke="#E40200" stroke-width="2" stroke-linecap="round" stroke-linejoin="round"/>
<path d="M82.3742 -196.421C108.368 -271.326 131.274 -268.22 157.268 -343.125L47.9186 -337.143C45.3481 -265.596 -2.84203 -397.674 -5.41247 -326.126C-7.98291 -254.579 -21.9282 -284.926 -24.5034 -213.398C-27.0738 -141.851 -29.6479 -73.9947 -65.0999 1.89131C-100.552 77.7773 -93.0054 127.779 -95.5759 199.326C-98.1463 270.874 -155.625 342.525 -158.201 414.054C-160.776 485.582 -152.106 484.13 -154.677 555.678C-128.683 480.773 -151.588 477.667 -125.594 402.762C-99.5995 327.857 -76.6941 330.963 -50.6999 256.058C-24.7056 181.153 -47.611 178.047 -21.6121 103.161C4.38213 28.256 27.2875 31.362 53.2817 -43.5429C79.276 -118.448 56.3706 -121.554 82.3695 -196.44L82.3742 -196.421Z" fill="#FF3C3A" stroke="#E40200" stroke-width="2" stroke-linecap="round" stroke-linejoin="round"/>
</g>
</svg>
