<svg width="427" height="580" viewBox="0 0 427 580" fill="none" xmlns="http://www.w3.org/2000/svg">
<mask id="mask0_154_5573" style="mask-type:alpha" maskUnits="userSpaceOnUse" x="0" y="0" width="427" height="580">
<rect width="427" height="580" fill="#D9D9D9"/>
</mask>
<g mask="url(#mask0_154_5573)">
<path d="M638.046 453.279C713.213 445.729 662.968 490.799 738.112 483.25L699.303 220.962C627.383 250.358 617.454 229.446 545.529 258.858C473.609 288.254 483.533 309.183 411.612 338.578C339.692 367.973 329.763 347.061 257.838 376.474C185.918 405.869 195.842 426.799 123.921 456.194C51.996 485.607 42.0493 464.677 -29.876 494.09C-101.801 523.503 -91.8722 544.415 -163.792 573.81C-88.6253 566.26 -85.3853 542.035 -10.2182 534.485C64.9489 526.936 61.6862 551.161 136.853 543.611C212.02 536.062 215.26 511.836 290.428 504.287C365.595 496.737 369.45 515.904 446.333 497.852C523.216 479.801 557.597 438.728 626.202 417.903L638.046 453.279Z" fill="#00A0FF" stroke="#006CAD" stroke-width="2" stroke-linecap="round" stroke-linejoin="round"/>
<path d="M583.66 360.36C658.764 341.311 662.282 364.34 737.357 345.309L623.208 107.85C557.634 146.681 541.494 128.844 475.919 167.675C410.345 206.507 426.463 224.344 360.888 263.176C295.314 302.007 279.174 284.17 213.6 323.001C148.026 361.833 164.143 379.67 98.5689 418.502C32.9947 457.333 16.8545 439.496 -48.7425 478.328C-114.317 517.159 -98.1992 534.997 -163.773 573.828C-88.6699 554.779 -92.1877 531.75 -17.0842 512.701C58.0193 493.651 61.5371 516.68 136.636 497.649C211.739 478.6 208.221 455.571 283.302 436.522C358.405 417.472 361.923 440.501 436.999 421.47C512.102 402.421 508.585 379.392 583.66 360.36Z" fill="#4481C9" stroke="#006CAD" stroke-width="2" stroke-linecap="round" stroke-linejoin="round"/>
<path d="M535.622 239.746C606.591 208.46 617.73 228.869 688.699 197.583L493.752 1.6123C439.039 49.2336 416.615 35.9027 361.906 83.5065C307.192 131.128 329.599 144.441 274.885 192.063C220.171 239.684 197.747 226.353 143.039 273.957C88.3252 321.578 110.731 334.892 56.0178 382.513C1.30411 430.135 -21.1198 416.804 -75.8335 464.425C-130.547 512.046 -108.141 525.36 -162.855 572.981C-91.8852 541.695 -103.024 521.286 -32.0548 490C38.9145 458.714 50.0535 479.123 121.023 447.836C191.992 416.55 180.853 396.141 251.818 364.873C322.787 333.586 333.926 353.995 404.872 322.71C475.842 291.423 464.698 271.032 535.667 239.746L535.622 239.746Z" fill="#00A0FF" stroke="#006CAD" stroke-width="2" stroke-linecap="round" stroke-linejoin="round"/>
<path d="M423.26 123.13C483.903 79.6272 503.281 95.3498 563.923 51.847L461.157 -6.93507C423.551 47.5355 444.652 -83.7392 407.046 -29.2687C369.44 25.2019 371.666 -6.62819 334.065 47.8249C296.459 102.295 260.668 153.877 190.909 192.658C121.149 231.439 103.396 274.929 65.79 329.399C28.1839 383.87 -59.596 406.556 -97.197 461.009C-134.798 515.462 -126.169 519.357 -163.775 573.828C-103.132 530.325 -122.51 514.603 -61.8675 471.1C-1.22474 427.597 18.1534 443.32 78.7962 399.817C139.439 356.314 120.061 340.592 180.699 297.106C241.341 253.604 260.72 269.326 321.362 225.823C382.005 182.321 362.627 166.598 423.265 123.113L423.26 123.13Z" fill="#4481C9" stroke="#006CAD" stroke-width="2" stroke-linecap="round" stroke-linejoin="round"/>
<path d="M409.077 -23.6945C464.15 -74.2094 447.061 -3.90828 502.117 -54.4097L342.502 -271.312C300.734 -202.74 282.663 -216.067 240.9 -147.476C199.132 -78.9044 217.209 -65.5587 175.441 3.01318C133.674 71.5851 115.602 58.2583 73.8388 126.849C32.0712 195.421 50.1477 208.767 8.38016 277.339C-33.3827 345.929 -51.477 332.597 -93.2399 401.188C-135.003 469.779 -116.931 483.105 -158.698 551.677C-103.625 501.162 -113.03 477.168 -57.9568 426.654C-2.88375 376.139 6.50296 400.146 61.576 349.631C116.649 299.116 107.245 275.122 162.318 224.607C217.391 174.093 229.852 189.351 281.091 128.254C332.331 67.1569 351.602 50.8604 395 -7.96486L409.077 -23.6945Z" fill="#00A0FF" stroke="#006CAD" stroke-width="2" stroke-linecap="round" stroke-linejoin="round"/>
<path d="M320.747 -76.9504C370.103 -137.925 384.204 -118.945 433.547 -179.888L227.239 -330.402C195.085 -256.9 173.67 -263.815 141.517 -190.312C109.363 -116.81 130.76 -109.881 98.6067 -36.3781C66.4532 37.1246 45.0383 30.209 12.8847 103.712C-19.2688 177.214 2.1284 184.143 -30.0252 257.646C-62.1787 331.149 -83.5936 324.233 -115.765 397.749C-147.918 471.252 -126.521 478.181 -158.675 551.684C-109.319 490.709 -123.419 471.729 -74.063 410.753C-24.7069 349.778 -10.6064 368.758 38.7544 307.802C88.1105 246.827 74.01 227.847 123.348 166.885C172.705 105.91 186.805 124.89 236.148 63.9476C285.504 2.97251 271.404 -16.0076 320.747 -76.9504Z" fill="#4481C9" stroke="#006CAD" stroke-width="2" stroke-linecap="round" stroke-linejoin="round"/>
<path d="M223.729 -159.177C263.821 -228.923 282.591 -216.758 322.683 -286.504L73.6234 -352.255C54.2964 -277.032 30.1874 -276.187 10.8558 -200.982C-8.47121 -125.759 15.6155 -126.609 -3.71147 -51.3858C-23.0384 23.8377 -47.1475 24.6826 -66.4791 99.8872C-85.8061 175.111 -61.7193 174.26 -81.0463 249.484C-100.373 324.707 -124.482 325.552 -143.809 400.776C-163.136 475.999 -139.05 475.149 -158.376 550.372C-118.285 480.626 -137.055 468.46 -96.9631 398.714C-56.8712 328.968 -38.1007 341.134 1.9912 271.387C42.0831 201.641 23.3126 189.476 63.4092 119.748C103.501 50.0022 122.272 62.1678 162.346 -7.56498C202.438 -77.3112 183.672 -89.4578 223.764 -159.204L223.729 -159.177Z" fill="#00A0FF" stroke="#006CAD" stroke-width="2" stroke-linecap="round" stroke-linejoin="round"/>
<path d="M78.3742 -200.421C104.368 -275.326 127.274 -272.22 153.268 -347.125L43.9186 -341.143C41.3481 -269.596 -6.84203 -401.674 -9.41247 -330.126C-11.9829 -258.579 -25.9282 -288.926 -28.5034 -217.398C-31.0738 -145.851 -33.6479 -77.9947 -69.0999 -2.10869C-104.552 73.7773 -97.0054 123.779 -99.5759 195.326C-102.146 266.874 -159.625 338.525 -162.201 410.054C-164.776 481.582 -156.106 480.13 -158.677 551.678C-132.683 476.773 -155.588 473.667 -129.594 398.762C-103.6 323.857 -80.6941 326.963 -54.6999 252.058C-28.7056 177.153 -51.611 174.047 -25.6121 99.1609C0.382127 24.256 23.2875 27.362 49.2817 -47.5429C75.276 -122.448 52.3706 -125.554 78.3695 -200.44L78.3742 -200.421Z" fill="#4481C9" stroke="#006CAD" stroke-width="2" stroke-linecap="round" stroke-linejoin="round"/>
</g>
</svg>
