<svg width="40" height="39" viewBox="0 0 40 39" fill="none" xmlns="http://www.w3.org/2000/svg">
<path d="M8.75 17.25H13.25V21.2031H8.75V17.25ZM8.75 25.1562H13.25V29.1094H8.75V25.1562ZM17.75 17.25H22.25V21.2031H17.75V17.25ZM17.75 25.1562H22.25V29.1094H17.75V25.1562ZM26.75 17.25H31.25V21.2031H26.75V17.25ZM26.75 25.1562H31.25V29.1094H26.75V25.1562Z" fill="#6F6F6F"/>
<path d="M4.44444 38.8125H35.5556C38.0067 38.8125 40 37.0718 40 34.9312V7.7625C40 5.62199 38.0067 3.88125 35.5556 3.88125H31.1111V0H26.6667V3.88125H13.3333V0H8.88889V3.88125H4.44444C1.99333 3.88125 0 5.62199 0 7.7625V34.9312C0 37.0718 1.99333 38.8125 4.44444 38.8125ZM35.5556 11.6437L35.5578 34.9312H4.44444V11.6437H35.5556Z" fill="#6F6F6F"/>
</svg>
