<svg width="27" height="27" viewBox="0 0 27 27" fill="none" xmlns="http://www.w3.org/2000/svg">
<path d="M16.7237 19.1694C16.3041 18.3045 15.7617 17.6751 14.8252 18.0589L12.9779 18.7446C11.4989 19.4304 10.7621 18.7446 10.0252 17.7161L6.70401 10.1526C6.28951 9.28781 6.50443 8.47416 7.4409 8.09036L10.0252 7.06177C10.9616 6.67797 10.8132 5.86432 10.3936 4.99949L8.1778 0.874925C7.75818 0.0100963 6.89847 -0.199714 5.962 0.184085C4.08906 0.961919 2.5385 2.16961 1.53551 3.96579C0.30735 6.16112 0.921429 9.21105 1.16706 10.4955C1.41269 11.7799 2.2724 14.0265 3.38286 16.3395C4.49332 18.6525 5.46562 20.4692 6.33556 21.4978C7.20551 22.5263 9.28826 25.3409 11.8725 25.9652C13.9911 26.4769 16.2734 26.0471 18.1464 25.2743C19.0828 24.8905 19.0879 24.0769 18.6683 23.2069L16.7237 19.1694ZM21.9536 6.03831H18.9293L22.9618 10.0708H13.8939V12.087H22.9618L18.9344 16.1143H21.9588L26.9993 11.0738L21.9536 6.03831Z" fill="black"/>
</svg>
