<svg width="46" height="36" viewBox="0 0 46 36" fill="none" xmlns="http://www.w3.org/2000/svg">
<path d="M6.14508 36H39.8558C43.9255 36 46 34.0363 46 30.1477V10.3829C46 6.49427 43.9255 4.54994 39.8558 4.54994H35.2776C33.7516 4.54994 33.2824 4.2479 32.4017 3.30392L30.8164 1.60444C29.858 0.567031 28.8604 0 26.8251 0H19.038C17.0227 0 16.0243 0.567031 15.0467 1.60444L13.4614 3.30392C12.6007 4.22857 12.1115 4.54994 10.5855 4.54994H6.14424C2.07452 4.54994 0 6.49427 0 10.3829V30.1477C0 34.0363 2.07535 36 6.14508 36ZM6.20268 32.9603C4.26591 32.9603 3.15059 31.9599 3.15059 29.9962V10.5529C3.15059 8.58922 4.26591 7.58887 6.20268 7.58887H11.3677C13.1291 7.58887 14.0683 7.2683 15.0467 6.21156L16.592 4.54994C17.7073 3.34178 18.2749 3.03973 20.0164 3.03973H25.8467C27.5881 3.03973 28.1558 3.34178 29.2711 4.54994L30.8164 6.21076C31.7948 7.2683 32.734 7.58887 34.4954 7.58887H39.7973C41.7341 7.58887 42.8502 8.58922 42.8502 10.5529V29.9962C42.8502 31.9599 41.7349 32.9603 39.7973 32.9603H6.20268ZM22.9908 29.9592C24.3964 29.963 25.789 29.6984 27.0881 29.1806C28.3872 28.6628 29.5673 27.9021 30.5603 26.9422C31.5533 25.9824 32.3396 24.8424 32.8738 23.588C33.4081 22.3336 33.6797 20.9896 33.6731 19.6334C33.6731 13.8939 28.938 9.30768 22.99 9.30768C17.0812 9.30768 12.3269 13.8939 12.3269 19.6334C12.3269 25.3714 17.0812 29.9592 22.99 29.9592M37.0575 15.0263C38.3882 15.0263 39.4834 13.9889 39.4834 12.705C39.4834 12.0843 39.2278 11.4889 38.7729 11.05C38.3179 10.611 37.7009 10.3644 37.0575 10.3644C36.4141 10.3644 35.797 10.611 35.342 11.05C34.8871 11.4889 34.6315 12.0843 34.6315 12.705C34.6315 13.9889 35.7268 15.0263 37.0575 15.0263ZM22.9908 27.0902C18.7449 27.0902 15.2821 23.7678 15.2821 19.6334C15.2821 15.4991 18.7257 12.1775 22.9908 12.1775C24.006 12.1763 25.0115 12.3684 25.9497 12.7426C26.8879 13.1169 27.7403 13.666 28.4583 14.3586C29.1762 15.0512 29.7454 15.8736 30.1334 16.7787C30.5215 17.6838 30.7206 18.6539 30.7195 19.6334C30.7207 20.613 30.5217 21.5832 30.1337 22.4884C29.7457 23.3936 29.1765 24.2161 28.4585 24.9088C27.7406 25.6014 26.8881 26.1506 25.9499 26.525C25.0117 26.8993 24.0061 27.0914 22.9908 27.0902Z" fill="#6F6F6F"/>
</svg>
