<svg width="42" height="42" viewBox="0 0 42 42" fill="none" xmlns="http://www.w3.org/2000/svg">
<path d="M21 42C9.4017 42 0 32.5983 0 21C0 9.4017 9.4017 0 21 0C32.5983 0 42 9.4017 42 21C42 32.5983 32.5983 42 21 42ZM21 37.8C25.4556 37.8 29.7288 36.03 32.8794 32.8794C36.03 29.7288 37.8 25.4556 37.8 21C37.8 16.5444 36.03 12.2712 32.8794 9.12061C29.7288 5.97 25.4556 4.2 21 4.2C16.5444 4.2 12.2712 5.97 9.12061 9.12061C5.97 12.2712 4.2 16.5444 4.2 21C4.2 25.4556 5.97 29.7288 9.12061 32.8794C12.2712 36.03 16.5444 37.8 21 37.8ZM23.1 21H31.5V25.2H18.9V10.5H23.1V21Z" fill="#6F6F6F"/>
</svg>
