<svg width="45" height="46" viewBox="0 0 45 46" fill="none" xmlns="http://www.w3.org/2000/svg">
<path d="M40.1772 33.0897V12.9103C41.2739 12.6231 42.2766 12.0443 43.0836 11.2328C43.8907 10.4212 44.4733 9.40584 44.7722 8.28971C45.0712 7.17358 45.0759 5.99645 44.7859 4.87785C44.4959 3.75925 43.9215 2.73901 43.121 1.92073C42.3205 1.10246 41.3225 0.515283 40.2282 0.218832C39.1339 -0.0776191 37.9824 -0.0727886 36.8905 0.232833C35.7986 0.538454 34.8053 1.13398 34.0114 1.95895C33.2175 2.78391 32.6513 3.80893 32.3703 4.92993H12.6297C12.3487 3.80893 11.7825 2.78391 10.9886 1.95895C10.1947 1.13398 9.20136 0.538454 8.1095 0.232833C7.01763 -0.0727886 5.86609 -0.0776191 4.77181 0.218832C3.67752 0.515283 2.67947 1.10246 1.87898 1.92073C1.07849 2.73901 0.504081 3.75925 0.214075 4.87785C-0.0759317 5.99645 -0.0712062 7.17358 0.227771 8.28971C0.526749 9.40584 1.10933 10.4212 1.91636 11.2328C2.72339 12.0443 3.72613 12.6231 4.82276 12.9103V33.0897C3.72613 33.3769 2.72339 33.9557 1.91636 34.7672C1.10933 35.5788 0.526749 36.5942 0.227771 37.7103C-0.0712062 38.8264 -0.0759317 40.0036 0.214075 41.1222C0.504081 42.2408 1.07849 43.261 1.87898 44.0793C2.67947 44.8975 3.67752 45.4847 4.77181 45.7812C5.86609 46.0776 7.01763 46.0728 8.1095 45.7672C9.20136 45.4615 10.1947 44.866 10.9886 44.0411C11.7825 43.2161 12.3487 42.1911 12.6297 41.0701H32.3703C32.6513 42.1911 33.2175 43.2161 34.0114 44.0411C34.8053 44.866 35.7986 45.4615 36.8905 45.7672C37.9824 46.0728 39.1339 46.0776 40.2282 45.7812C41.3225 45.4847 42.3205 44.8975 43.121 44.0793C43.9215 43.261 44.4959 42.2408 44.7859 41.1222C45.0759 40.0036 45.0712 38.8264 44.7722 37.7103C44.4733 36.5942 43.8907 35.5788 43.0836 34.7672C42.2766 33.9557 41.2739 33.3769 40.1772 33.0897ZM38.5702 3.28719C39.2059 3.28719 39.8273 3.47988 40.3559 3.8409C40.8844 4.20191 41.2963 4.71503 41.5396 5.31537C41.7829 5.91571 41.8465 6.57631 41.7225 7.21362C41.5985 7.85094 41.2924 8.43636 40.8429 8.89584C40.3934 9.35532 39.8207 9.66823 39.1973 9.795C38.5738 9.92177 37.9275 9.85671 37.3403 9.60804C36.753 9.35937 36.251 8.93826 35.8978 8.39797C35.5447 7.85768 35.3562 7.22247 35.3562 6.57266C35.3562 5.7013 35.6948 4.86563 36.2976 4.24949C36.9003 3.63334 37.7178 3.28719 38.5702 3.28719ZM3.21573 6.57266C3.21573 5.92286 3.40423 5.28765 3.7574 4.74735C4.11056 4.20706 4.61253 3.78595 5.19982 3.53729C5.78711 3.28862 6.43334 3.22355 7.05681 3.35032C7.68027 3.47709 8.25296 3.79 8.70245 4.24949C9.15194 4.70897 9.45805 5.29438 9.58207 5.9317C9.70608 6.56902 9.64243 7.22962 9.39917 7.82996C9.1559 8.4303 8.74395 8.94342 8.2154 9.30443C7.68686 9.66544 7.06546 9.85813 6.42978 9.85813C5.57736 9.85813 4.75986 9.51198 4.1571 8.89584C3.55435 8.27969 3.21573 7.44402 3.21573 6.57266ZM6.42978 42.7128C5.7941 42.7128 5.1727 42.5201 4.64415 42.1591C4.1156 41.7981 3.70365 41.285 3.46039 40.6846C3.21712 40.0843 3.15348 39.4237 3.27749 38.7864C3.4015 38.1491 3.70761 37.5636 4.1571 37.1042C4.6066 36.6447 5.17929 36.3318 5.80275 36.205C6.42621 36.0782 7.07245 36.1433 7.65974 36.392C8.24703 36.6406 8.74899 37.0617 9.10216 37.602C9.45532 38.1423 9.64382 38.7775 9.64382 39.4273C9.64382 40.2987 9.3052 41.1344 8.70245 41.7505C8.0997 42.3667 7.2822 42.7128 6.42978 42.7128ZM32.3703 37.7846H12.6297C12.3409 36.6556 11.7632 35.6257 10.956 34.8005C10.1488 33.9754 9.14122 33.3849 8.0368 33.0897V12.9103C9.14122 12.6151 10.1488 12.0246 10.956 11.1995C11.7632 10.3743 12.3409 9.34436 12.6297 8.2154H32.3703C32.6591 9.34436 33.2368 10.3743 34.044 11.1995C34.8512 12.0246 35.8588 12.6151 36.9632 12.9103V33.0897C35.858 33.3833 34.8496 33.9733 34.0422 34.7987C33.2347 35.6241 32.6576 36.6549 32.3703 37.7846ZM38.5702 42.7128C37.9345 42.7128 37.3131 42.5201 36.7846 42.1591C36.256 41.7981 35.8441 41.285 35.6008 40.6846C35.3576 40.0843 35.2939 39.4237 35.4179 38.7864C35.5419 38.1491 35.8481 37.5636 36.2976 37.1042C36.747 36.6447 37.3197 36.3318 37.9432 36.205C38.5667 36.0782 39.2129 36.1433 39.8002 36.392C40.3875 36.6406 40.8894 37.0617 41.2426 37.602C41.5958 38.1423 41.7843 38.7775 41.7843 39.4273C41.783 40.2983 41.444 41.1332 40.8415 41.7491C40.239 42.3649 39.4222 42.7115 38.5702 42.7128Z" fill="#6F6F6F"/>
</svg>
