<svg width="762" height="762" viewBox="0 0 762 762" fill="none" xmlns="http://www.w3.org/2000/svg">
<path d="M762 351.854C762 351.854 381.695 380.718 381.233 380.75C393.295 377.961 742.694 257.867 742.876 258.287L719.997 204.669L381.159 380.657C391.901 373.054 670.695 131.877 671.021 132.203L629.802 90.9838C629.802 90.9838 381.294 380.312 380.991 380.662C387.549 370.162 549.687 38.1781 550.116 38.346L496.023 16.6099L380.869 380.653C383.09 367.681 409.691 0 410.148 0H351.852C351.852 0 380.715 380.307 380.748 380.769C377.959 368.707 257.865 19.306 258.285 19.124L204.668 42.0029L380.655 380.844C373.052 370.097 131.876 91.3057 132.202 90.9792L90.9833 132.198C90.9833 132.198 380.31 380.708 380.659 381.012C370.16 374.453 38.1779 212.314 38.3458 211.885L16.6098 265.978L380.65 381.133C367.674 378.913 0 352.312 0 351.854V410.15C0 410.15 380.305 381.287 380.767 381.254C368.705 384.044 19.3058 504.138 19.1239 503.718L42.0027 557.335L380.841 381.347C370.095 388.95 91.3051 630.128 90.9786 629.802L132.198 671.021L381.009 381.343C374.451 391.842 212.313 723.826 211.884 723.659L265.977 745.395L381.131 381.352C378.91 394.333 352.309 762 351.852 762H410.148L381.252 381.231C384.036 393.288 504.135 742.694 503.715 742.876L557.332 719.997L381.345 381.156C388.948 391.898 630.124 670.694 629.798 671.021L671.017 629.802C671.017 629.802 381.69 381.292 381.34 380.988C391.84 387.546 723.822 549.686 723.654 550.115L745.39 496.022L381.35 380.867C394.326 383.087 761.995 409.688 761.995 410.146V351.85L762 351.854ZM381.182 381.105C381.182 381.105 381.149 381.138 381.131 381.166C381.112 381.17 381.089 381.184 381.056 381.203C381.037 381.203 381.009 381.203 380.972 381.212C380.953 381.203 380.93 381.194 380.893 381.189C380.879 381.175 380.86 381.156 380.827 381.138C380.823 381.119 380.809 381.096 380.79 381.063C380.79 381.044 380.79 381.016 380.781 380.979C380.79 380.96 380.799 380.937 380.804 380.9C380.818 380.886 380.837 380.867 380.855 380.834C380.874 380.83 380.897 380.816 380.93 380.797C380.949 380.797 380.977 380.797 381.014 380.788C381.033 380.797 381.056 380.806 381.093 380.811C381.107 380.825 381.126 380.844 381.159 380.862C381.163 380.881 381.177 380.904 381.196 380.937C381.196 380.956 381.196 380.984 381.205 381.021C381.196 381.04 381.187 381.063 381.177 381.1L381.182 381.105Z" fill="black"/>
</svg>
