<svg width="31" height="32" viewBox="0 0 31 32" fill="none" xmlns="http://www.w3.org/2000/svg">
<path d="M31 16.098C31 7.2071 24.0607 0 15.5019 0C6.93926 0.00199975 0 7.2071 0 16.1C0 24.133 5.66842 30.7922 13.0765 32L13.0765 20.7514L9.14386 20.7514L9.14386 16.1L13.0804 16.1V12.5504C13.0804 8.51694 15.3954 6.28921 18.9348 6.28921C20.6318 6.28921 22.4044 6.60318 22.4044 6.60318V10.5627H20.4497C18.526 10.5627 17.9254 11.8045 17.9254 13.0784V16.098H22.2223L21.5365 20.7494H17.9235V31.998C25.3316 30.7902 31 24.131 31 16.098Z" fill="#FFCA00"/>
</svg>
