<svg width="30" height="30" viewBox="0 0 30 30" fill="none" xmlns="http://www.w3.org/2000/svg">
<path d="M16.542 0C18.2294 0.0044999 19.0859 0.0134997 19.8253 0.0344992L20.1163 0.0449989C20.4523 0.0569986 20.7838 0.0719982 21.1843 0.0899978C22.7802 0.164996 23.8691 0.41699 24.8246 0.787482C25.8145 1.16847 26.6485 1.68446 27.4825 2.51694C28.2452 3.26677 28.8353 4.17379 29.2119 5.17488C29.5824 6.13036 29.8343 7.21933 29.9093 8.81679C29.9273 9.21578 29.9423 9.54728 29.9543 9.88477L29.9633 10.1758C29.9858 10.9137 29.9948 11.7702 29.9978 13.4577L29.9993 14.5767V16.5416C30.003 17.6357 29.9915 18.7298 29.9648 19.8235L29.9558 20.1145C29.9438 20.452 29.9288 20.7835 29.9108 21.1825C29.8358 22.78 29.5809 23.8674 29.2119 24.8244C28.8364 25.8261 28.2461 26.7333 27.4825 27.4824C26.7324 28.2448 25.8255 28.835 24.8246 29.2118C23.8691 29.5823 22.7802 29.8343 21.1843 29.9093C20.8284 29.9261 20.4724 29.9411 20.1163 29.9543L19.8253 29.9633C19.0859 29.9843 18.2294 29.9948 16.542 29.9978L15.4231 29.9993H13.4597C12.3651 30.0031 11.2706 29.9916 10.1763 29.9648L9.88536 29.9558C9.52929 29.9423 9.17331 29.9268 8.81741 29.9093C7.2215 29.8343 6.13255 29.5823 5.1756 29.2118C4.17466 28.8359 3.26802 28.2456 2.51924 27.4824C1.75584 26.7328 1.16514 25.8257 0.788325 24.8244C0.417844 23.8689 0.165857 22.78 0.0908608 21.1825C0.0741498 20.8266 0.0591505 20.4706 0.0458631 20.1145L0.0383637 19.8235C0.0107232 18.7298 -0.00177754 17.6357 0.000865457 16.5416L0.000865457 13.4577C-0.00332078 12.3636 0.00767983 11.2695 0.0338639 10.1758L0.0443633 9.88477C0.0563627 9.54728 0.0713619 9.21578 0.0893609 8.81679C0.164357 7.21933 0.416344 6.13186 0.786825 5.17488C1.16348 4.17276 1.75536 3.26546 2.52074 2.51694C3.26934 1.75417 4.17537 1.16395 5.1756 0.787482C6.13255 0.41699 7.22 0.164996 8.81741 0.0899978C9.21639 0.0719982 9.54938 0.0569986 9.88536 0.0449989L10.1763 0.0359991C11.2701 0.00934884 12.3641 -0.002152 13.4582 0.00149986L16.542 0ZM15.0001 7.49982C13.0111 7.49983 11.1035 8.28998 9.69707 9.69647C8.29062 11.103 7.50048 13.0106 7.50048 14.9996C7.50048 16.9887 8.29062 18.8963 9.69707 20.3028C11.1035 21.7093 13.0111 22.4995 15.0001 22.4995C16.9891 22.4995 18.8967 21.7093 20.3031 20.3028C21.7096 18.8963 22.4997 16.9887 22.4997 14.9996C22.4997 13.0106 21.7096 11.103 20.3031 9.69647C18.8967 8.28998 16.9891 7.49982 15.0001 7.49982ZM15.0001 10.4998C15.591 10.4997 16.1762 10.616 16.7221 10.842C17.2681 11.0681 17.7642 11.3994 18.1821 11.8172C18.6 12.235 18.9316 12.731 19.1578 13.2769C19.384 13.8228 19.5005 14.408 19.5006 14.9989C19.5007 15.5898 19.3844 16.175 19.1584 16.721C18.9323 17.267 18.601 17.7631 18.1832 18.181C17.7654 18.5989 17.2694 18.9305 16.7235 19.1567C16.1776 19.383 15.5925 19.4994 15.0016 19.4995C13.8082 19.4995 12.6637 19.0254 11.8198 18.1816C10.9759 17.3377 10.5018 16.1931 10.5018 14.9996C10.5018 13.8062 10.9759 12.6616 11.8198 11.8177C12.6637 10.9738 13.8082 10.4998 15.0016 10.4998M22.8762 5.24988C22.3789 5.24988 21.9021 5.44742 21.5504 5.79904C21.1988 6.15066 21.0013 6.62756 21.0013 7.12483C21.0013 7.6221 21.1988 8.09901 21.5504 8.45063C21.9021 8.80225 22.3789 8.99979 22.8762 8.99979C23.3734 8.99979 23.8503 8.80225 24.202 8.45063C24.5536 8.09901 24.7511 7.6221 24.7511 7.12483C24.7511 6.62756 24.5536 6.15066 24.202 5.79904C23.8503 5.44742 23.3734 5.24988 22.8762 5.24988Z" fill="#FFCA00"/>
</svg>
