<svg width="243" height="243" viewBox="0 0 243 243" fill="none" xmlns="http://www.w3.org/2000/svg">
<path d="M2.16895 60.6005C2.31964 55.871 4.48847 51.9932 9.06293 50.2832L180.635 2.54834C195.409 0.752465 197.201 20.9186 182.361 22.4395L210.504 123.592C219.07 119.513 229.199 126.689 225.352 136.19C224.821 137.5 222.373 140.645 221.136 140.989L163.892 156.916L189.612 187.41C194.617 193.457 192.552 201.866 185.796 205.51L182.088 206.542C178.031 206.508 175.163 205.493 172.282 202.615L139.734 164.026C139.339 163.736 138.949 163.888 138.525 163.952C136.331 164.291 130.546 165.905 128.482 166.746C127.969 166.953 127.516 167.052 127.404 167.702L119.543 217.288C118.563 221.24 116.63 223.591 113.173 225.715L109.466 226.747C101.803 227.092 95.6445 221.02 96.8497 213.218L103.125 173.823L45.8863 189.748C45.713 189.796 43.7352 189.434 43.304 189.341C40.0885 188.651 38.5089 186.846 36.5981 184.348L35.5667 180.641C35.5942 174.031 39.9117 170.708 45.9446 169.141L17.8626 68.2065C11.9857 70.6788 6.82207 69.6196 3.19903 64.3029L2.16758 60.5955L2.16895 60.6005ZM185.81 13.7688C187.207 11.007 184.502 8.1865 181.648 9.04462L10.3049 56.913C7.79924 58.986 8.7033 62.5422 11.9093 62.9674L184.753 14.8786C185.095 14.5542 185.607 14.1718 185.815 13.7674L185.81 13.7688ZM176.065 24.1912L24.1586 66.4548L52.2999 167.602L204.207 125.339L176.065 24.1912ZM44.3466 176.7C40.595 178.511 42.2872 183.923 46.3463 182.852L217.186 135.321C221.828 133.662 219.168 127.762 214.682 129.197L44.3515 176.698L44.3466 176.7ZM120.543 168.977L110.356 171.811L103.263 215.279C103.655 220.828 110.62 221.925 112.812 216.921L120.543 168.977ZM156.666 158.926L146.479 161.76C157.205 174.359 167.511 187.442 178.832 199.475C183.41 201.172 187.467 196.929 185.195 192.484L156.671 158.925L156.666 158.926Z" fill="#181818"/>
<path d="M143.012 45.5062C143.279 45.0642 144.421 43.8399 144.835 43.5647C146.775 42.2782 159.691 38.8448 162.635 38.2922C166.396 37.5872 169.378 38.9495 170.806 42.6264C172.234 46.3033 174.966 55.777 175.564 59.6691C175.978 62.3855 173.744 65.6842 171.19 66.5655C166.632 68.143 162.574 63.3737 158.559 62.2244L139.919 95.1305C136.461 100.871 130.381 104.226 123.617 103.527C111.515 102.276 105.487 86.4932 94.3148 103.419L77.9799 130.138C77.8869 130.628 80.1379 133.409 80.5528 134.44C85.5445 146.842 70.9097 157.916 60.3449 149.768C48.6654 140.757 58.5613 122.752 72.4603 126.687L89.1705 99.2667C93.3157 91.586 101.042 87.3085 109.715 89.999C117.535 92.4204 124.921 102.482 133.036 93.4299L152.548 58.8304C149.478 55.9784 143.324 54.9815 142.308 50.2566C142.04 49.0084 142.361 46.6154 143.024 45.5084L143.012 45.5062ZM164.566 44.5598L149.004 48.8895L168.896 60.1217L164.566 44.5598ZM66.5033 133.069C57.9948 135.629 62.2672 148.263 70.3403 145.787C78.3739 143.323 74.7954 130.576 66.5033 133.069Z" fill="#181818"/>
<path d="M142.462 111.937C152.865 108.883 159.734 123.301 150.872 129.419C138.085 138.257 127.907 116.205 142.462 111.937ZM143.205 118.844C140.073 120.542 142.736 126.206 146.501 124.46C150.26 122.716 147.95 116.271 143.205 118.844Z" fill="#181818"/>
<path d="M160.944 76.393C174.305 70.1158 181.154 89.6537 169.372 94.265C157.589 98.8764 150.455 81.3218 160.944 76.393ZM163.798 82.377C160.313 84.2477 163.593 89.9214 167.199 88.0649C170.805 86.2084 168.568 79.818 163.798 82.377Z" fill="#181818"/>
<path d="M115.151 112.681C116.649 112.104 118.703 112.972 119.336 114.46C120.5 117.208 117.267 120.001 116.415 122.478C116.563 123.988 124.856 125.158 122.834 129.832C120.987 134.1 115.485 129.637 113.034 128.362C111.254 130.665 110.152 136.31 106.365 135.177C100.252 133.347 107.704 126.341 107.1 125.069C104.71 123.132 99.3825 122.326 100.657 118.244C102.094 113.652 108.214 118.13 110.557 119.457C111.853 117.774 113.191 113.439 115.151 112.681Z" fill="#181818"/>
<path d="M177.228 102.304C179.233 101.688 181.109 103.086 181.4 105.106C181.69 107.127 177.831 111.448 178.262 112.347C180.63 114.264 186.01 115.124 184.705 119.172C183.16 123.969 177.231 119.22 174.806 117.959C173.025 120.262 171.924 125.906 168.137 124.773C162.023 122.944 169.476 115.938 168.871 114.666C166.636 112.861 160.986 111.74 162.416 107.833C164.081 103.296 169.907 107.712 172.327 109.049C173.694 107.197 174.902 103.01 177.227 102.3L177.228 102.304Z" fill="#181818"/>
<path d="M51.7516 82.8075C54.6579 81.2737 57.413 84.6401 60.0728 85.5746C61.4789 85.4341 63.245 76.4475 67.6579 79.294C71.4266 81.7225 67.2106 86.2925 65.9521 88.9571C68.311 90.4393 74.7946 92.6777 72.2677 96.5911C69.9027 100.262 65.5735 95.8192 62.9269 94.817C61.4735 94.9601 59.7865 104.154 55.092 100.986C51.3557 98.463 55.9352 94.2025 57.0426 91.4359C56.9283 91.0251 51.6161 88.914 50.8455 87.4859C49.987 85.8956 50.0268 83.7194 51.7467 82.8089L51.7516 82.8075Z" fill="#181818"/>
<path d="M101.966 55.2657C104.873 53.7318 107.628 57.0983 110.288 58.0328C111.581 57.9077 113.898 48.1811 118.349 52.0088C121.398 54.6271 117.326 58.7782 116.167 61.4153C118.528 62.9448 125.226 65.1289 122.489 69.0529C120.049 72.5526 115.766 68.3315 113.143 67.2801C111.726 67.4185 110.01 76.3751 105.554 73.5671C101.578 71.063 106.03 66.7099 107.259 63.899C107.144 63.4882 101.832 61.3772 101.062 59.949C100.203 58.3587 100.243 56.1825 101.963 55.272L101.966 55.2657Z" fill="#181818"/>
</svg>
