<svg width="242" height="213" viewBox="0 0 242 213" fill="none" xmlns="http://www.w3.org/2000/svg">
<path d="M188.664 51.9779L208.166 56.0152C208.99 56.1858 210.963 58.6471 210.295 59.7979L199.207 113.359C209.258 127.996 203.804 148.112 186.647 153.965C185.103 154.505 183.397 154.677 181.835 155.07C181.33 155.204 181.059 154.67 181.051 155.862C199.485 160.442 213.275 172.702 210.461 192.982C210.018 196.042 207.687 208.688 206.545 210.743C206.304 211.218 205.142 212.219 204.646 212.307L122.105 195.458C121.342 195.682 119.727 193.104 119.765 192.921L122.646 179.004L29.0281 159.623C28.4787 159.509 26.6999 156.801 26.8136 156.252L30.2255 139.772L10.3116 135.649C9.3502 135.45 8.07658 132.608 8.67975 131.54L35.7626 2.56397C36.6309 1.59796 37.5987 0.84349 38.9895 1.27462L188.962 32.3224C190.539 32.3147 192.285 34.4902 192 35.8636L188.674 51.9321L188.664 51.9779ZM184.281 38.5621L41.2207 8.94546L34.833 39.8006L50.2606 42.9945L53.5871 26.926C53.7008 26.3766 56.4084 24.5978 56.9578 24.7116L181.797 50.5563L184.281 38.5621ZM202.67 62.0386L59.6105 32.4219L53.2228 63.2771L196.283 92.8937L202.67 62.0386ZM48.8484 49.8156L33.4209 46.6217L16.2195 129.711L31.6471 132.905L48.8484 49.8156ZM194.87 99.7148L51.8107 70.0982L34.5145 153.645L123.83 172.135C125.347 170.11 126.006 167.621 127.488 165.302C128.971 162.983 131.085 160.843 133.069 158.867L85.7338 149.067C83.399 148.584 83.0667 142.118 87.6037 142.341L141.989 153.6C147.505 152.784 152.464 151.662 158.139 151.692C159.239 151.681 165.23 152.491 165.344 151.942C156.045 146.818 150.464 135.494 152.598 124.955L94.138 112.853C90.8546 111.648 90.4968 107.611 93.7616 106.139L154.166 118.071C154.754 118.002 157.361 113.481 158.248 112.423C166.734 102.101 182.243 100.061 193.22 107.919L194.907 99.7701L194.87 99.7148ZM179.691 110.083C154.144 107.802 151.531 148.557 178.589 148.382C201.961 148.255 204.166 112.238 179.691 110.083ZM200.847 204.598L203.814 190.269C209.235 164.084 156.616 151.901 139.589 162.89C136.614 164.804 131.458 170.802 130.747 174.236L127.6 189.434L138.725 191.737L141.521 178.233C141.682 177.454 144.501 176.749 145.535 177.059C146.789 177.461 148.369 179.746 148.122 180.936L145.592 193.159L182.856 200.874L185.472 188.239C186.258 184.439 193.011 186.41 192.424 189.248L189.723 202.295L200.847 204.598Z" fill="#141414"/>
<path d="M65.177 119.456C84.545 121.604 81.1931 150.939 62.8007 149.614C41.8698 148.098 44.9755 117.184 65.177 119.456ZM64.1769 126.362C53.4108 125.327 51.9043 142.059 63.3525 142.567C72.9489 143.026 74.6226 127.331 64.1769 126.362Z" fill="#141414"/>
<path d="M71.8525 82.8281C92.4172 84.2687 89.0178 115.217 69.4762 112.986C49.9346 110.755 52.8365 81.5171 71.8525 82.8281ZM71.255 89.8656C60.8976 89.3923 59.8743 105.174 70.4305 106.07C80.9867 106.966 82.2816 90.3342 71.255 89.8656Z" fill="#141414"/>
<path d="M97.8375 93.1341C100.029 93.1581 111.885 95.6127 113.796 96.5333C117.104 98.0776 116.128 102.793 112.604 103.209C107.93 101.573 100.283 101.613 96.0055 99.6773C92.8611 98.2625 93.7394 93.0973 97.847 93.0883L97.8375 93.1341Z" fill="#141414"/>
<path d="M90.7189 129.612C93.2857 129.666 103.485 131.825 105.807 132.831C109.089 134.274 109.033 138.464 106.019 139.415C103.162 140.304 91.7742 136.275 88.0076 136.021C85.1285 133.324 86.7771 129.512 90.6731 129.602L90.7189 129.612Z" fill="#141414"/>
<path d="M127.244 59.027C128.776 59.0098 136.787 60.6683 138.186 61.2921C141.238 62.6879 140.158 67.9068 135.942 67.75C134.044 67.6913 128.093 66.4593 126.393 65.6776C122.947 64.1049 123.806 59.0313 127.254 58.9812L127.244 59.027Z" fill="#141414"/>
<path d="M68.5565 46.8683C69.9962 46.8321 78.6943 48.6328 79.7992 49.2912C82.4022 50.7849 81.2871 55.7101 77.2537 55.5912C75.3562 55.5326 68.9929 54.2153 67.4033 53.361C64.3157 51.6715 65.2098 46.8915 68.5565 46.8683Z" fill="#141414"/>
<path d="M108.884 61.2328C107.144 62.2571 99.1329 60.5986 97.1582 59.7601C93.346 58.1115 94.7658 52.8675 98.0478 52.9263C99.2396 52.9343 108.157 54.8282 109.062 55.3019C111.044 56.333 110.891 60.0727 108.875 61.2786L108.884 61.2328Z" fill="#141414"/>
</svg>
