<svg width="209" height="226" viewBox="0 0 209 226" fill="none" xmlns="http://www.w3.org/2000/svg">
<path d="M168.494 196.636C176.365 191.559 169.919 182.546 169.277 175.309C179.097 170.595 189.776 167.307 199.154 161.841C201.042 159.606 201.53 156.886 200.399 154.126L183.728 115.289C181.52 111.68 176.423 114.284 177.919 118.273L194.568 157.392L168.58 168.639L167.61 168.377L140.536 52.9135C140.508 52.7906 139.406 51.3862 139.157 51.1027L108.668 29.9273C108.074 29.1055 111.27 28.303 111.791 28.3106L146.228 44.321L172.97 105.542C175.691 106.885 178.569 105.078 178.053 101.998C168.82 81.3276 160.657 60.0702 150.873 39.7177C138.607 33.119 125.644 27.6449 112.86 22.0341C109.112 20.9084 105.842 24.3637 102.446 25.0421C100.745 25.382 99.3137 24.6091 97.5422 24.824C95.3411 25.0925 85.7236 28.0551 84.7119 27.6379C82.6651 23.46 79.7091 20.0434 74.7863 21.0387C69.8635 22.034 71.8643 22.0334 68.5967 22.7789C65.3292 23.5245 65.6311 23.6541 61.9014 24.3488C58.1717 25.0436 59.3503 24.824 55.5425 25.7691C51.7347 26.7142 49.2117 31.5341 50.0383 35.9392C45.0086 37.773 36.7356 37.5431 33.0935 41.6988C26.9951 53.4586 19.4372 64.9533 13.4973 76.7348C12.4705 78.768 11.3632 80.7846 10.9986 83.0516L32.7109 176.63C33.7991 181.045 39.8981 179.597 39.0124 175.141L17.523 83.1668L37.997 45.8142C38.2721 45.3782 38.7067 45.2704 39.1562 45.1002C41.0996 44.3615 50.231 42.1673 52.1467 42.0896C53.6709 42.027 57.4267 45.5978 59.9961 44.7123L60.9208 48.4046C48.3111 51.1785 50.6754 71.1186 62.74 72.2813C66.921 72.6865 84.7911 68.4845 88.5625 66.4387C99.8008 60.3308 93.1031 40.6934 80.1641 43.8983L79.3417 40.1644C82.066 39.9147 83.7787 34.9732 85.2152 34.3357C87.1591 33.4731 95.4146 31.667 97.7764 31.355C98.2745 31.2912 98.7509 31.0852 99.2635 31.2598L134.559 55.6357L166.047 189.922L165.568 190.695L49.6852 217.867L48.9125 217.388L42.3406 189.36C42.279 189.097 40.5958 187.753 40.1752 187.669C37.6624 187.161 35.5237 189.154 36.2265 191.649C39.1505 200.196 39.7128 211.42 42.8628 219.649C43.9706 222.538 46.8771 223.92 49.6925 224.486L168.492 196.63L168.494 196.636ZM75.639 27.8432C79.4685 27.8061 80.2688 33.0546 75.5442 34.7815C72.4813 35.9006 64.1938 37.8969 60.9881 38.2064C56.0019 38.6916 54.7574 33.2584 58.1709 31.8743C60.4106 30.9659 73.44 27.8695 75.639 27.8432ZM66.4077 43.5922L73.103 42.0223L74.8197 49.3435C75.4683 52.1099 68.8923 54.1884 68.0261 50.4943L66.4077 43.5922ZM80.869 50.425C84.7439 48.8207 87.2688 51.9195 87.7511 55.5858C88.2334 59.252 85.9521 60.8128 82.835 61.8267C78.7217 63.1686 69.924 65.3022 65.7023 65.7792C58.0859 66.6394 56.0549 55.9663 63.1807 54.5725C67.8698 62.1991 80.1206 59.4032 80.869 50.425Z" fill="#151515"/>
<path d="M88.6204 100.302C52.5098 105.468 33.7474 145.267 53.776 176.094C74.6269 208.191 123.473 204.331 139.341 169.438C155.084 134.817 126.253 94.9157 88.6204 100.302ZM89.6784 106.676C119.504 102.642 143.734 131.599 135.815 160.46C127.159 192.017 86.5346 202.397 64.0091 178.624C39.6395 152.894 54.8067 111.391 89.6728 106.677L89.6784 106.676Z" fill="#151515"/>
<path d="M104.405 76.2991C103.646 75.8285 102.077 75.9015 101.174 76.0248C86.6649 78.0649 71.0422 84.1573 56.3969 86.5477C52.1149 87.5222 52.3548 93.5743 57.0259 93.0273L105.079 81.3355C106.399 79.7995 106.116 77.3601 104.403 76.2935L104.405 76.2991Z" fill="#151515"/>
<path d="M91.5404 148.916C86.9351 145.067 80.1615 145.046 76.3511 150.043C74.9797 151.838 69.1629 168.898 68.8092 171.463C68.2592 175.454 71.1263 178.478 75.1568 177.94C91.2231 175.776 108.726 168.801 124.98 166.257C128.422 165.344 130.034 161.482 128.413 158.365C121.424 149.957 115.282 140.36 108.267 132.041C107.009 130.549 105.632 128.449 103.772 127.759C92.753 123.662 93.2491 142.726 91.5417 148.922L91.5404 148.916ZM121.603 160.404L94.4141 166.78L101.46 133.79L121.609 160.403L121.603 160.404ZM76.0048 171.096L81.1722 154.461C84.0942 150.226 87.5565 153.777 89.7387 156.697L87.7188 168.35L76.0048 171.096Z" fill="#151515"/>
<path d="M76.4422 119.899C62.0256 122.46 67.6068 145.785 82.8038 139.385C93.1658 135.022 88.4075 117.771 76.4422 119.899ZM77.5627 126.287C82.6236 125.366 84.2726 133.505 78.1314 133.942C73.614 134.264 72.989 127.123 77.5627 126.287Z" fill="#151515"/>
</svg>
