<svg width="234" height="221" viewBox="0 0 234 221" fill="none" xmlns="http://www.w3.org/2000/svg">
<path d="M222.477 159.454L205.765 55.8105C205.656 55.1342 204.101 52.2744 203.628 51.4689C199.265 44.0287 190.361 40.0965 181.889 41.9076C179.924 33.3173 179.694 23.484 177.571 15.0294C176.101 9.17603 170.927 5.59749 164.93 6.2502L38.7757 26.5915C33.139 27.9372 29.7199 32.0235 29.4806 37.8056L33.8839 65.7721C25.2718 66.7157 18.0547 73.2474 16.2511 81.6819C16.0555 82.5952 15.4781 85.7988 15.5871 86.4752L32.2987 190.118C29.1097 190.29 27.2938 191.003 25.9841 193.994L27.5237 203.543C30.977 212.428 38.7248 218.048 48.3917 217.723L215.112 190.869C224.778 188.535 230.754 180.436 231.229 170.697L229.69 161.148C227.506 158.72 225.558 158.614 222.477 159.454ZM37.5102 37.6293C37.5354 35.9884 39.2428 34.6027 40.8498 34.4171L165.421 14.3311C166.75 13.8678 169.388 15.01 169.601 16.3309L172.519 34.4336L40.4291 55.7321L37.5102 37.6293ZM41.7122 63.6893L173.802 42.3909L183.688 103.701C185.01 112.457 186.901 121.145 187.897 129.728C188.108 131.543 187.441 132.748 185.736 133.44L60.1018 153.816C58.7723 154.279 56.1348 153.137 55.9218 151.816L41.7122 63.6893ZM23.6727 85.9878C23.5931 85.4945 24.288 82.3862 24.5302 81.6859C26.0388 77.2952 30.5749 74.086 35.1663 73.7253L48.157 154.292C48.8075 158.327 55.7085 162.721 59.8134 162.002L187.871 141.313C192.737 139.744 196.258 135.176 196.047 129.993C195.734 122.357 192.108 105.287 192.079 105.108L183.171 49.8608C187.643 48.7601 192.958 50.3809 195.77 54.0749C196.22 54.6636 197.857 57.3959 197.936 57.8893L214.52 160.737L40.2559 188.835L23.6727 85.9878ZM213.029 183.037L47.901 209.642C40.9133 210.001 35.268 204.837 34.7753 197.883L222.566 167.603C224.362 174.613 220.205 181.614 213.029 183.037Z" fill="#181818"/>
<path d="M120.528 77.2037C122.371 76.5556 126.725 75.9392 128.77 75.7851C152.831 73.9504 158.602 109.742 135.183 115.559C130.818 116.643 123.536 118.695 122.636 112.504C121.903 102.772 118.234 91.8119 117.774 82.2483C117.667 80.0694 118.3 77.9917 120.529 77.2077L120.528 77.2037ZM130.125 108.215C148.657 107.198 144.214 79.4914 126.276 84.3432L130.125 108.215Z" fill="#181818"/>
<path d="M103.407 115.032L91.7816 116.906L91.378 117.314C91.8025 124.251 82.7434 125.789 82.9442 118.25C83.2146 108.079 88.031 95.2149 88.5728 84.702C89.6479 81.3691 93.6301 80.5474 95.8251 83.4265C99.8999 93.3052 108.353 104.033 111.811 113.885C112.504 115.855 112.604 117.97 110.568 119.217C107.114 121.337 104.473 118.02 103.406 115.024L103.407 115.032ZM98.9238 107.125L94.4637 98.4516L92.9559 108.088L98.9238 107.125Z" fill="#181818"/>
<path d="M121.07 186.918C122.887 186.237 135.354 184.194 137.206 184.308C141.465 184.573 142.305 190.846 138.133 192.213C135.892 192.945 124.574 194.778 122.323 194.692C118.121 194.529 117.14 188.393 121.07 186.918Z" fill="#181818"/>
<path d="M110.04 29.9044L154.103 22.6976C159.18 22.4667 160.384 29.2448 155.389 30.6747L112.002 37.6705C107.13 37.9336 105.628 31.9098 110.036 29.9091L110.04 29.9044Z" fill="#181818"/>
<path d="M50.7682 39.4493C56.0822 37.621 58.344 45.9021 53.0756 47.1516C48.2475 48.2975 46.2236 41.0108 50.7682 39.4493Z" fill="#181818"/>
<path d="M68.6711 36.557C73.9529 34.9093 75.967 42.9446 70.991 44.2613C66.015 45.578 63.8949 38.0496 68.6711 36.557Z" fill="#181818"/>
<path d="M86.5751 33.6671C90.6308 32.4906 93.7034 38.053 89.9593 40.7059C84.9503 44.2485 80.8387 35.3309 86.5751 33.6671Z" fill="#181818"/>
</svg>
