<svg width="233" height="232" viewBox="0 0 233 232" fill="none" xmlns="http://www.w3.org/2000/svg">
<path d="M22.4317 19.9808C25.6036 9.5553 34.7382 2.37282 45.7059 2.58052L211.084 22.4291C222.203 24.693 230.011 34.5678 229.821 45.9388L215.072 168.675C213.651 178.25 201.729 188.315 192.096 187.157L112.047 177.538L107.846 212.493L148.174 217.339C148.586 217.389 149.726 218.754 149.887 219.297C150.738 222.128 148.454 224.261 145.719 224.051L65.0469 214.376C61.9844 214.147 59.5443 211.727 61.3354 208.655C61.6199 208.171 63.0563 207.11 63.4686 207.16L101.366 211.714L105.567 176.759L25.5128 167.139C15.9524 165.99 7.43309 154.007 7.43656 144.765L22.4317 19.9808ZM210.895 145.292L223.032 44.289C223.705 38.6902 216.311 30.1137 210.63 29.4014L45.6597 9.55736C39.7386 8.34251 29.9911 15.2194 29.2955 21.008L17.1582 122.01L210.895 145.292ZM210.064 152.204L16.3276 128.923L14.3495 145.383C13.6556 151.157 21.5313 160.103 27.535 160.385L192.51 180.19C198.198 180.849 207.413 174.263 208.086 168.665L210.064 152.204Z" fill="#181818"/>
<path d="M182.822 60.6953C187.615 60.7383 192.37 62.5285 193.291 67.7169L195.992 115.265C195.81 122.961 189.933 127.762 182.422 127.456C165.749 126.775 147.789 122.312 130.984 121.216C124.923 119.565 120.689 114.343 121.195 107.92L135.528 60.5486C137.884 55.9317 142.484 55.3692 147.156 56.4093C147.175 40.6902 164.764 31.173 177.255 41.7141C180.096 44.1133 184.028 50.6651 183.579 54.396L182.822 60.6953ZM176.337 59.916C180.138 41.1033 154.297 38.0129 154.044 57.237L176.337 59.916ZM146.326 63.3167C144.473 63.3012 142.04 61.8838 141.452 64.3643C138.417 78.4825 131.061 93.6704 128.306 107.59C127.552 111.408 129.194 113.712 132.961 114.505C148.802 117.85 167.161 117.485 183.257 120.549C185.876 120.746 188.536 118.958 189.062 116.342L186.186 68.0819L181.993 67.5978L181.089 75.118C181.017 75.7163 178.394 76.9949 177.454 76.8277C176.659 76.6877 174.548 74.85 174.609 74.3392L175.513 66.819L153.219 64.1401L152.413 70.848C152.147 73.0661 148.425 73.9857 146.652 72.4403C146.367 72.1938 145.451 70.6429 145.476 70.4289L146.331 63.3172L146.326 63.3167Z" fill="#181818"/>
<path d="M72.5884 36.433C109.894 36.8647 107.053 92.2788 71.7052 90.6267C36.4893 88.9805 38.7368 36.0463 72.5884 36.433ZM71.7449 43.3288C47.2745 43.6993 45.7695 83.3305 72.8994 83.7187C98.6099 84.0844 100.381 42.8963 71.7449 43.3288Z" fill="#181818"/>
<path d="M45.17 93.3169L91.2911 98.7605C95.2332 99.4513 95.9118 103.959 92.215 105.568L44.6512 100.173C40.3665 99.1398 40.8642 93.5643 45.1706 93.312L45.17 93.3169Z" fill="#181818"/>
<path d="M72.691 117.437C72.1904 117.836 70.7492 118.077 70.0656 118.074C61.517 118.004 51.5998 115.115 42.8927 114.808C38.6225 113.777 39.1029 108.387 43.3481 107.866C51.9453 109.619 62.5444 109.127 70.8985 111.142C73.8347 111.85 75.0782 115.548 72.691 117.437Z" fill="#181818"/>
<path d="M69.0209 63.5027C69.748 64.1674 80.1158 56.4275 82.0318 55.9619C83.9477 55.4964 86.002 56.9917 86.235 58.9836C86.468 60.9756 84.7926 61.9783 83.4662 62.9835C79.3067 66.15 73.7929 68.7935 69.3649 71.6959C68.2267 71.791 67.1708 71.7332 66.2314 71.0331C65.7663 70.6861 61.0658 63.7359 60.6688 62.9036C59.9226 61.3336 60.0956 59.8938 61.3555 58.6635C64.693 55.4179 67.9421 60.7281 69.0209 63.5027Z" fill="#181818"/>
</svg>
