<svg width="246" height="220" viewBox="0 0 246 220" fill="none" xmlns="http://www.w3.org/2000/svg">
<path d="M29.2443 16.1653C32.2924 8.22722 39.7367 2.84784 48.365 3.55338L135.015 18.7046C137.215 19.0892 139.01 20.695 139.627 22.8438C140.123 24.5643 140.454 26.2394 140.731 26.3617L229.944 41.6903C237.567 43.6343 242.476 49.8155 241.997 57.7255L215.99 208.752C215.063 213.63 210.995 217.032 206.192 217.703L9.96899 184.204C5.33803 182.609 2.67431 178.553 2.09366 173.829L29.2443 16.1653ZM142.272 50.6619L133.814 25.7156C133.498 24.7834 132.698 24.1005 131.728 23.9335L46.5706 9.30899C42.293 9.06007 35.6963 13.6158 34.9766 17.795L32.57 31.7704L142.272 50.6619ZM234.45 66.5354L236.21 56.3158C236.378 55.3406 235.035 51.9766 234.348 51.0378C233.72 50.1838 231.036 47.9086 230.173 47.7599L143.205 32.7836L148.948 51.8115L234.456 66.5364L234.45 66.5354ZM233.444 72.3752L31.5643 37.6102L8.11195 173.798C7.83751 175.392 10.7065 178.789 12.6258 178.672L203.695 211.575C205.561 212.505 209.689 210.324 209.992 208.563L233.444 72.3752Z" fill="#151515"/>
<path d="M53.3232 57.7891L205.08 83.7906C210.131 85.2112 213.399 89.1879 214.009 94.342C211.514 110.264 209.926 128.282 206.109 143.92C204.437 150.764 200.674 155.354 193.208 155.227L41.7635 129.148C35.9381 127.525 32.5861 122.168 33.0614 116.243C36.7801 100.646 37.4211 82.7632 41.4442 67.4309C42.9646 61.6338 47.3059 57.9807 53.3222 57.7947L53.3232 57.7891ZM52.7262 63.6878C49.717 64.0704 47.7432 66.3698 47.14 69.2724C45.5351 84.5563 40.3782 100.875 39.09 116.019C38.9194 118.009 38.971 120.175 40.5687 121.592L88.1016 88.3579C94.9229 84.5639 102.484 86.0668 107.67 91.768C110.121 94.4621 121.25 112.065 122.449 112.501C129.623 108.722 135.826 102.521 142.844 98.4217C150.032 94.2262 157.805 95.0712 163.377 101.527L196.338 148.25L197.179 148.395C198.865 147.234 199.625 145.689 200.131 143.745C204.006 128.91 204.633 111.673 208.239 96.5959C208.292 93.9598 207.522 91.3659 205.084 90.0281L52.7318 63.6888L52.7262 63.6878ZM48.0044 124.192L94.929 132.273L117.656 116.214L103.322 95.9305C99.7971 92.076 95.745 91.0512 91.062 93.5898L48.0054 124.187L48.0044 124.192ZM188.99 148.471L158.648 105.234C155.734 101.496 150.567 100.75 146.545 103.15L103.488 133.747L188.996 148.472L188.99 148.471Z" fill="#151515"/>
<path d="M39.2185 142.096L190.577 168.046C194.404 169.709 192.805 174.495 188.728 173.781L38.9497 147.988C35.9727 147.217 36.1529 142.24 39.2185 142.096Z" fill="#151515"/>
<path d="M35.5582 160.784L187.761 186.891C190.153 187.561 190.044 190.428 188.365 191.947L185.985 192.208L36.2064 166.415C32.8435 166.02 32.5777 162.032 35.5637 160.785L35.5582 160.784Z" fill="#151515"/>
<path d="M75.6738 17.826C82.064 18.1346 85.5414 24.0293 83.4675 29.9089C82.5254 32.581 79.1928 35.3406 76.3084 35.3316C62.5052 35.2898 64.913 17.3098 75.6738 17.826ZM75.4885 23.7669C72.2631 23.7049 71.4537 28.8384 74.8492 29.4116C78.9579 30.1077 78.988 23.8359 75.4885 23.7669Z" fill="#151515"/>
<path d="M54.3984 14.1643C60.4865 14.4611 64.0156 20.0892 62.2538 25.8217C61.3502 28.7701 58.186 31.685 55.0264 31.6745C41.2354 31.6291 43.6608 13.6463 54.3919 14.1689L54.3984 14.1643ZM54.2186 20.1061C50.9933 20.0442 50.1839 25.1776 53.5793 25.7508C57.6881 26.4469 57.7181 20.1752 54.2186 20.1061Z" fill="#151515"/>
<path d="M97.3768 21.5692C108.532 22.4919 107.12 39.1229 97.2243 39.0139C84.0473 38.8676 86.04 20.6325 97.3768 21.5692ZM98.4389 32.6937C100.928 30.833 98.5359 25.8999 95.2639 27.9413C91.9919 29.9827 95.4298 34.941 98.4389 32.6937Z" fill="#151515"/>
<path d="M127.116 80.803C140.764 81.9427 138.504 102.932 125.14 101.405C112.035 99.9056 113.982 79.706 127.116 80.803ZM126.496 86.6978C121.488 86.3288 120.033 94.7132 125.71 95.4614C131.388 96.2096 132.479 87.1428 126.496 86.6978Z" fill="#151515"/>
<path d="M49.6552 85.291C48.6246 82.1128 49.6918 80.2138 53.1859 80.4139C57.7469 80.683 70.9937 82.8896 75.2457 84.2529C79.2267 85.5237 78.2812 90.2149 75.5293 90.2688C67.923 88.4598 59.2135 88.1591 51.7418 86.2012C50.9955 86.0038 50.22 85.876 49.6542 85.2966L49.6552 85.291Z" fill="#151515"/>
<path d="M176.027 100.802L200.534 104.959C203.88 106.086 202.524 110.729 199.119 110.677C195.714 110.624 179.118 107.806 175.81 106.663C172.826 105.632 173.194 101.725 176.027 100.802Z" fill="#151515"/>
<path d="M68.6342 71.1681C73.1486 71.2742 86.1736 73.5689 90.5942 74.8867C94.5887 76.0794 94.7746 79.6975 90.8863 80.8868L66.7331 76.7103C63.5124 75.6221 64.2741 71.0656 68.6342 71.1681Z" fill="#151515"/>
<path d="M157.236 87.6826L182.184 91.9043C184.746 92.856 184.419 97.8201 179.938 97.519C172.752 97.0331 164.72 94.3647 157.446 93.6228C154.599 92.6621 154.36 88.7882 157.241 87.6835L157.236 87.6826Z" fill="#151515"/>
</svg>
