<svg width="238" height="240" viewBox="0 0 238 240" fill="none" xmlns="http://www.w3.org/2000/svg">
<path d="M42.5549 147.167L58.615 209.502L139.649 188.624L131.569 157.261C131.132 155.565 133.963 153.803 135.737 154.117C136.133 154.187 137.736 155.412 137.799 155.656L145.879 187.019L153.087 185.161C156.017 184.406 157.726 193.623 158.033 195.675C159.197 203.467 154.178 211.132 146.681 213.419C119.46 218.895 91.5498 229.604 64.4448 234.606C56.4765 236.077 48.5581 231.99 45.8014 224.219C45.099 222.247 42.3041 213.704 45.177 212.964L52.3852 211.107L35.2711 144.682C35.0056 143.651 36.6465 142.157 37.6318 141.781C46.4714 138.372 58.0968 137.352 67.2327 134.188C69.6476 134.104 71.6248 136.07 70.6541 138.485C70.5017 138.862 69.4778 140.231 69.2436 140.291L42.5549 147.167ZM150.603 192.45L50.8741 218.145C51.596 222.455 53.274 226.146 57.5551 227.812C58.2898 228.1 61.1377 228.793 61.6842 228.652L69.6731 226.594C65.9966 218.528 75.2307 216.154 75.9081 224.987L132.008 210.534C128.331 202.468 137.565 200.094 138.243 208.927L146.231 206.869C146.773 206.729 148.93 204.742 149.441 204.138C152.384 200.611 152.069 196.568 150.619 192.446L150.603 192.45Z" fill="#181818"/>
<path d="M114.103 100.947L83.0925 142.531L83.4097 143.676L94.6238 154.911C96.8528 157.983 93.6256 161.656 90.4327 159.776C88.3395 158.545 82.1868 151.639 80.033 149.419C79.5642 148.935 79.0796 148.432 78.8455 147.782C74.9192 152.49 64.5608 157.695 68.5896 164.888C69.3304 166.212 76.7496 173.769 78.1867 174.93C86.2788 181.437 92.4523 168.003 98.4508 164.143L144.207 132.185L124.039 111.225C122.394 108.568 124.945 105.608 127.847 106.469C128.7 106.721 131.118 109.34 131.952 110.146C138.722 116.688 144.903 123.875 151.73 130.364C152.757 131.548 152.614 132.955 151.809 134.201L108.924 164.553C108.693 165.123 116.438 172.196 117.388 173.428C123.418 181.259 116.949 191.306 107.479 189.101C102.625 187.97 98.2324 180.377 94.159 177.492C89.5583 182.856 83.0352 185.197 76.5093 181.69C74.2886 183.216 73.3753 185.1 70.6513 186.052C58.4236 190.334 52.2453 174.432 62.8181 168.056C60.5552 163.151 60.4701 158.017 63.6968 153.544C82.4684 136.404 95.0335 113.936 110.54 93.9897C111.757 92.7882 112.711 92.0318 114.494 92.7047C115.281 93.0015 120.246 97.8827 120.588 98.6272C122.81 103.483 116.419 105.346 114.088 100.951L114.103 100.947ZM67.4169 172.766C65.2512 173.773 62.6438 176.449 64.2315 178.992C66.2913 182.291 69.6026 179.073 71.5596 177.493L67.4169 172.766ZM98.9778 172.543C98.9454 173.106 99.3078 173.479 99.6184 173.888C100.487 175.018 107.392 182.002 108.362 182.579C111.664 184.559 114.722 180.769 112.554 177.714C110.577 176.592 105.261 169.42 103.845 168.947C102.43 168.473 100.296 172.037 98.9778 172.543Z" fill="#181818"/>
<path d="M139.894 15.8358C152.799 13.4046 167.126 7.27674 179.902 5.4226C184.241 4.79312 188.893 7.53493 190.434 11.6391C194.921 23.5642 196.349 38.7362 200.572 50.9904C201.016 55.7491 198.523 60.01 193.98 61.6355C181.91 65.9496 167.325 67.5651 154.999 71.662C150.698 72.2873 145.988 69.4938 144.468 65.4455C142.777 60.9526 140.214 50.7461 139.428 45.9482C138.683 41.4225 143.841 40.3934 145.32 43.2923C147.635 49.3893 148.193 57.1152 150.492 63.0663C151.279 65.1059 152.517 65.475 154.547 65.1463C166.703 63.1689 179.704 57.7545 191.97 55.4934C193.432 55.0723 194.365 53.6942 194.197 52.1833C190.274 40.2294 188.682 26.0818 184.504 14.3879C183.98 12.9134 183.421 12.0141 181.754 11.7719L142.249 21.8504C138.511 23.7569 142.978 30.0652 142.493 33.2259C142.071 35.982 137.794 36.7231 136.492 34.1671C135.708 32.6319 134.362 26.8683 134.245 25.0559C134.016 21.5406 136.651 17.2265 139.881 15.8281L139.894 15.8358Z" fill="#181818"/>
<path d="M164.787 112.451C177.692 110.02 192.019 103.892 204.795 102.038C209.134 101.409 213.786 104.151 215.326 108.255C217.017 112.748 219.58 122.954 220.366 127.752C221.111 132.278 215.953 133.307 214.474 130.408C212.159 124.311 211.601 116.585 209.301 110.634C208.515 108.594 207.277 108.225 205.247 108.554C193.091 110.531 180.09 115.946 167.824 118.207C166.233 118.667 165.288 120.253 165.656 121.879C169.604 133.71 171.147 147.715 175.289 159.307C175.813 160.782 176.372 161.681 178.038 161.923L217.544 151.845C222.345 149.392 212.995 138.864 220.247 137.951C223.854 137.498 225.071 144.827 225.475 147.603C226.15 152.225 223.207 156.701 218.883 158.249C206.813 162.563 192.228 164.178 179.902 168.275C175.465 168.824 171.023 166.189 169.371 162.059C167.328 149.37 160.701 134.805 159.177 122.344C158.699 118.421 161.293 114.162 164.791 112.445L164.787 112.451Z" fill="#181818"/>
<path d="M10.7517 79.0065L50.5574 68.9728C52.0512 69.3205 52.5227 70.1814 53.0056 71.5388C58.4826 86.8942 60.5342 105.391 65.7631 121.054C66.3112 123.311 65.4005 124.472 63.3059 125.217C51.8133 129.316 37.9755 130.839 26.2601 134.762C24.0037 135.31 22.8423 134.399 22.0973 132.305C16.5804 116.838 14.5016 98.1924 9.25365 82.4116C8.94279 81.0543 9.55219 79.6929 10.7569 79.0051L10.7517 79.0065ZM47.5088 76.0963L16.3442 84.1257L27.5864 127.76L58.751 119.731L47.5088 76.0963Z" fill="#181818"/>
<path d="M75.6106 29.0937C112.279 15.8445 131.105 71.6388 94.9777 83.7996C58.8502 95.9603 40.4451 41.8003 75.6106 29.0937ZM77.6073 35.2281C50.6637 45.1004 64.8365 87.1198 92.9823 77.6703C120.893 68.2982 106.469 24.6565 77.6073 35.2281Z" fill="#181818"/>
<path d="M187.117 123.319C203.514 116.458 212.704 141.141 197.256 147.142C181.127 153.406 172.209 129.563 187.117 123.319ZM189.491 129.345C182.239 132.518 186.881 144.614 195.194 140.969C202.39 137.816 197.885 125.673 189.491 129.345Z" fill="#181818"/>
<path d="M162.024 43.2658C153.963 46.941 151.574 37.7109 160.419 37.036C158.206 32.0672 159.39 25.3077 164.632 22.8415C166.221 22.0936 172.819 20.2382 174.321 20.4673C177.077 20.8894 177.818 25.1662 175.262 26.4685C170.485 28.9092 163.077 26.5886 166.647 35.4257C174.717 31.7426 177.091 40.9768 168.252 41.6555L170.913 51.9813C171.613 54.698 165.378 56.3045 164.678 53.5877L162.017 43.262L162.024 43.2658Z" fill="#181818"/>
<path d="M149.512 108.676C147.457 107.335 147.521 104.438 149.529 103.121C151.684 101.706 163.049 96.1414 165.325 95.5606C169.137 94.5895 171.254 99.1445 167.974 101.449C165.79 102.989 155.516 107.939 152.92 108.763C151.812 109.115 150.552 109.351 149.512 108.676Z" fill="#181818"/>
<path d="M130.888 67.9969C133.603 66.6256 136.174 68.5885 135.752 71.5388L129.172 87.4697C127.059 90.4673 122.587 88.6002 123.222 84.9458C125.754 80.6194 127.12 73.2576 129.671 69.2648C130.012 68.7331 130.297 68.2879 130.891 67.9903L130.888 67.9969Z" fill="#181818"/>
<path d="M147.367 80.3657C150.427 78.8003 153.284 81.6384 151.936 84.7219L141.168 98.18C138.268 100.498 134.486 97.4928 136.083 94.1899L147.366 80.3605L147.367 80.3657Z" fill="#181818"/>
<path d="M29.644 100.732C31.1012 99.9907 42.2597 97.1158 43.894 97.0611C47.1312 96.9596 48.3762 101.878 45.1443 103.271C43.2756 104.075 33.0776 106.735 31.2114 106.794C28.0575 106.897 26.8282 102.168 29.6479 100.726L29.644 100.732Z" fill="#181818"/>
<path d="M32.8559 113.197C34.3132 112.456 45.4716 109.581 47.1059 109.526C50.3431 109.424 51.5881 114.343 48.3562 115.736C46.4875 116.539 36.2895 119.2 34.4233 119.259C31.2695 119.361 30.0402 114.633 32.8598 113.191L32.8559 113.197Z" fill="#181818"/>
<path d="M32.6668 86.6574C33.8045 86.0757 39.7924 84.5441 41.0025 84.6097C44.0122 84.7666 45.0302 89.4716 41.9283 90.8092C40.6652 91.3566 35.1484 92.778 33.9057 92.7152C30.9807 92.5641 29.9654 88.0416 32.6629 86.664L32.6668 86.6574Z" fill="#181818"/>
<path d="M75.3069 45.7513C76.2304 45.2858 76.7351 45.3278 77.7027 45.3782C80.5795 45.5362 96.4145 48.9433 99.093 49.9903C101.771 51.0374 102.007 53.5463 100.249 55.5312C95.8328 60.515 88.4107 64.9026 83.7304 69.8935C81.6719 71.1454 79.595 70.5372 78.7223 68.2701C77.2213 64.3833 74.3652 53.2977 73.7998 49.1644C73.6126 47.7918 73.9899 46.4125 75.3069 45.7513ZM81.397 52.8236L83.6055 61.3954C85.6667 59.4435 88.0309 57.7632 90.062 55.7803C90.4205 55.4271 91.0199 55.5779 90.6338 54.8116L81.397 52.8236Z" fill="#181818"/>
</svg>
