<svg width="228" height="233" viewBox="0 0 228 233" fill="none" xmlns="http://www.w3.org/2000/svg">
<path d="M8.1282 199.247C2.99316 196.497 1.39802 192.461 1.99362 186.785L25.4045 57.7965C26.9109 50.4878 31.1504 47.2464 38.5464 48.0243C54.8238 49.7349 71.9841 55.0571 88.3645 57.0811C92.7099 57.8797 92.877 63.7291 88.3402 63.8747C71.7981 61.9163 54.1423 56.2144 37.7366 54.6603C36.6561 54.5591 33.1444 54.7809 32.9242 55.9946L29.6655 73.949L83.5239 83.7241C86.1738 84.2051 85.2101 90.8081 81.5593 90.1455L28.4794 80.5117L8.54303 190.356C8.36311 191.347 10.7317 193.186 11.8002 193.16L182.104 224.069C183.095 224.469 185.959 223.576 186.138 222.589L206.075 112.745L152.985 103.109C149.334 102.446 150.753 95.9259 153.402 96.4068L207.261 106.182L210.52 88.2275C210.74 87.0138 207.525 85.5712 206.483 85.2871C190.577 80.9817 172.043 80.1153 155.869 76.1308C151.672 74.4002 153.89 68.9787 158.233 69.762C174.285 73.6244 192.216 74.6711 208.057 78.7898C215.254 80.6606 218.084 85.1899 216.926 92.557L193.515 221.545C192.078 227.069 189.167 230.286 183.393 231.057L8.1282 199.247Z" fill="#141414"/>
<path d="M119.723 151.306C119.198 151.616 122.608 160.511 122.551 161.679C122.494 162.848 121.318 164.567 120.07 164.696L91.0062 159.546C86.1777 155.822 94.3992 150.841 95.7826 146.961C89.9357 147.858 91.7987 138.117 90.1133 136.532C89.7211 136.161 89.4719 136.296 89.0781 136.539L68.2365 145.473C66.1586 145.501 65.3419 144.029 64.7756 142.278C63.0205 136.839 62.6292 129.776 61.2125 124.124L62.5594 121.656L87.5152 97.7051L88.7617 84.4803C92.7607 60.0521 107.522 33.1268 128.014 18.7996C131.161 16.5986 132.409 16.8202 134.586 19.9923C136.94 23.4216 139.47 28.7757 141.187 32.6337C152.017 56.9561 152.904 82.9455 144.817 108.405L159.603 139.03C160.206 140.717 160.482 141.232 159.72 143.007C158.56 145.713 152.349 155.355 150.4 157.813C149.37 159.11 148.143 160.231 146.353 159.716L128.959 143.408C125.692 146.081 125.352 153.402 119.724 151.302L119.723 151.306ZM120.09 144.525C134.2 121.767 144.867 96.5413 143.448 69.2167C142.778 56.2882 138.85 42.4039 132.969 30.9074C132.59 30.1642 130.381 25.9024 129.921 25.9337C119.842 34.4887 110.945 44.7317 104.909 56.5827C94.8788 76.2601 92.6782 97.1637 94.6099 118.912C95.2509 126.141 96.5296 133.351 97.8281 140.48L120.096 144.521L120.09 144.525ZM70.4462 137.178L89.0112 129.119L87.3767 107.55L68.2399 125.474L70.4414 137.177L70.4462 137.178ZM146.882 151.051L153.056 140.868L141.438 117.362L132.328 136.981L146.877 151.05L146.882 151.051ZM98.8373 154.294L114.282 157.097L112.314 150.027L103.689 148.366L103.036 148.523L98.8421 154.295L98.8373 154.294Z" fill="#141414"/>
<path d="M101.628 175.624C103.3 175.438 104.983 176.213 105.496 177.869C106.084 179.774 104.62 187.485 103.836 189.521C102.196 193.768 96.93 192.593 97.2168 187.655C97.3672 185.065 98.5494 175.964 101.628 175.624Z" fill="#141414"/>
<path d="M88.2305 167.244C89.8274 165.93 93.4296 166.998 93.6558 169.192C93.7757 170.348 92.0406 179.688 91.5601 181.069C90.5535 183.973 86.4707 183.682 85.4531 180.95C84.7475 179.059 86.6515 168.54 88.2305 167.244Z" fill="#141414"/>
<path d="M119.661 172.95C120.678 174.718 118.765 185.234 117.444 186.758C115.531 188.958 111.611 187.797 111.685 184.724C111.72 183.262 113.373 173.907 113.896 172.868C114.884 170.894 118.632 171.16 119.661 172.95Z" fill="#141414"/>
<path d="M44.1329 63.9243C45.9277 67.0522 41.9609 70.8276 38.9076 68.0557C35.1126 64.6098 41.7887 59.8327 44.1329 63.9243Z" fill="#141414"/>
<path d="M53.939 64.8754C59.314 64.6522 58.532 71.7128 54.1256 71.3876C50.0986 71.0913 50.2458 65.0243 53.939 64.8754Z" fill="#141414"/>
<path d="M67.0632 67.2603C72.4132 67.0375 71.731 74.1812 67.2376 73.7852C63.3244 73.4396 63.2988 67.4162 67.0632 67.2603Z" fill="#141414"/>
<path d="M121.44 59.9999C144.024 60.977 141.662 94.8528 120.001 93.4938C97.9203 92.1086 100.139 59.0808 121.44 59.9999ZM121.018 66.7012C108.661 66.2317 106.91 85.8384 120.42 86.7819C133.155 87.6698 135.011 67.2332 121.018 66.7012Z" fill="#141414"/>
</svg>
