<?xml version="1.0" encoding="UTF-8"?>
<svg id="Capa_1" xmlns="http://www.w3.org/2000/svg" version="1.1" viewBox="0 0 1343.5 788.1">
  <!-- Generator: Adobe Illustrator 29.2.1, SVG Export Plug-In . SVG Version: 2.1.0 Build 116)  -->
  <defs>
    <style>
      .st0 {
        fill: #00a0ff;
      }

      .st1 {
        fill: #4481c9;
      }
    </style>
  </defs>
  <g>
    <path class="st0" d="M1341.3,387s0,0,0,0c0,0,0,0-.1,0,0,0,0,0-.1,0h0c-.9,0-1.8-.2-2.7-.2,0,0,0,0,0,0-145.4-12.1-148.4,25.6-295.8,12.8-148.5-12.9-146.5-51.2-295-64.1-148.5-12.9-150.5,25.5-299,12.6-148.5-12.9-146.5-51.2-294.9-64.1-76.9-6.7-114.5.4-153.5,7V9.5c74.2-1.2,146.1-6.6,238.2,14.4,146.6,33.3,135.9,64.4,270.2,111.8,134.3,47.4,161.6,14.5,295.9,61.8,134.3,47.4,106.9,80.3,241.2,127.7,134.2,47.4,161.6,14.5,295.6,61.8,0,0,0,0,0,0,0,0,0,0,0,0,0,0,0,0,0,0,0,0,0,0,0,0,0,0,0,0,0,0,0,0,0,0,0,0Z"/>
    <path d="M1099.2,403.2c-16.5,0-35.2-.8-57-2.7-74.4-6.5-111.7-19.5-147.7-32.1-35.9-12.6-73.1-25.6-147.2-32-74.1-6.4-112.3,0-149.2,6.3-37.1,6.3-75.4,12.7-149.7,6.3-74.4-6.4-111.7-19.5-147.7-32.1-35.9-12.6-73.1-25.6-147.2-32-74.2-6.4-112.4,0-149.3,6.3l-3.9.7c-.3,0-.6,0-.8-.2s-.4-.5-.4-.8V9.5c0-.5.4-1,1-1,10.1-.2,20.3-.4,30.2-.7,63.2-1.5,128.6-3.1,208.3,15,83.6,19,116,37.2,153.5,58.3,27.7,15.5,59,33.2,116.8,53.5,67,23.7,108,27.3,147.7,30.9,39.8,3.6,80.9,7.2,148.2,31,67.3,23.7,94.5,44.2,120.8,64,26.2,19.7,53.3,40.1,120.3,63.7,67,23.7,108,27.3,147.7,30.9,39.7,3.6,80.8,7.2,147.9,30.9,0,0,0,0,.1,0,0,0,0,0,0,0,0,0,0,0,.1,0,0,0,0,0,.1,0,.4.2.6.7.5,1.1s-.5.8-1,.8,0,0-.1,0c0,0,0,0-.1,0,0,0,0,0-.1,0-.9,0-1.8-.2-2.7-.2,0,0,0,0-.1,0h0c-72-6-109.7.4-146.1,6.5-26.2,4.4-53,9-92.8,9ZM690.5,331.8c16.5,0,35.2.8,57,2.7,74.4,6.5,111.7,19.5,147.7,32.1,35.9,12.6,73.1,25.6,147.2,32,74.1,6.4,112.3,0,149.2-6.3,35.7-6,72.7-12.3,141.9-6.9-62.6-21.3-102.1-24.9-140.2-28.3-39.8-3.6-80.9-7.2-148.2-31-67.3-23.7-94.5-44.2-120.8-64-26.2-19.7-53.3-40.1-120.3-63.7-67-23.7-108-27.3-147.7-30.9-39.8-3.6-80.9-7.2-148.2-31-57.9-20.4-89.3-38.1-117.1-53.7-37.4-21-69.6-39.1-153-58.1C158.5,6.7,93.3,8.3,30.2,9.8c-9.6.2-19.4.5-29.2.6v279.2l2.7-.5c37.1-6.3,75.4-12.8,149.8-6.3,74.3,6.5,111.6,19.5,147.7,32.1,35.9,12.6,73.1,25.6,147.3,32,74.1,6.4,112.3,0,149.2-6.3,26.2-4.4,53-9,92.7-9Z"/>
  </g>
  <g>
    <path class="st1" d="M1341.3,387h0c0,0-.1,0-.2,0h0c-145.9,5.9-134.8,44.5-280.9,50.3-146.2,5.8-157.5-32.8-303.7-27-146.2,5.8-135,44.5-281.2,50.3-146.2,5.8-157.5-32.8-303.7-27-94.7,3.8-123.3,21.3-171.5,34.8V131.4c53.8-.3,93.2-8,185.2,11.4,144.5,30.5,129.7,66.9,274.2,97.5,144.5,30.5,159.3-5.9,303.8,24.6,144.5,30.5,129.7,67,274.2,97.5,144.4,30.5,159.3-5.9,303.6,24.5,0,0,0,0,0,0h0s0,0,0,0c0,0,0,0,.1,0Z"/>
    <path d="M0,469.5c-.2,0-.4,0-.6-.2-.2-.2-.4-.5-.4-.8V131.4c0-.6.4-1,1-1,11.5,0,22.6-.5,33.3-.9,39.2-1.5,79.8-3,152.1,12.3,72.4,15.3,105.4,32.3,137.3,48.8,31.8,16.4,64.7,33.4,136.9,48.6,72.1,15.2,112.5,13.7,151.6,12.3,39.2-1.5,79.8-3,152.2,12.3,72.4,15.3,105.4,32.3,137.3,48.8,31.8,16.4,64.7,33.4,136.9,48.7,72.1,15.2,112.6,13.7,151.7,12.3,39.2-1.5,79.7-3,151.9,12.3,0,0,0,0,.1,0,0,0,.1,0,.2,0,.5.1.8.6.8,1.1s-.5.9-1,.9h0c0,0-.2,0-.3,0-72.7,2.9-106.9,14.2-140,25.1-33.2,11-67.6,22.3-140.9,25.2-73.2,2.9-113.3-5.4-152.1-13.5-38.7-8.1-78.6-16.4-151.6-13.5-73,2.9-107.2,14.2-140.3,25.1-33.2,11-67.6,22.3-140.9,25.2-73.2,2.9-113.3-5.4-152.1-13.5-38.7-8.1-78.6-16.4-151.6-13.5-73,2.9-107.2,14.2-140.3,25.1-9.8,3.2-19.9,6.6-30.9,9.6,0,0-.2,0-.3,0ZM1,132.4v334.7c10.5-3,20.2-6.2,29.6-9.3,33.2-11,67.6-22.3,140.9-25.2,73.2-2.9,113.3,5.4,152.1,13.5,38.7,8.1,78.6,16.4,151.6,13.5,73-2.9,107.2-14.2,140.3-25.1,33.2-11,67.6-22.3,140.9-25.2,73.2-2.9,113.3,5.4,152.1,13.5,38.7,8.1,78.6,16.4,151.6,13.5,73-2.9,107.2-14.2,140.3-25.1,32-10.5,65.1-21.4,132.8-24.8-67.3-13.5-106.2-12.1-143.8-10.7-39.2,1.5-79.8,3-152.2-12.3-72.4-15.3-105.4-32.3-137.4-48.8-31.8-16.4-64.7-33.4-136.8-48.6-72.2-15.2-112.6-13.7-151.7-12.3-39.2,1.5-79.8,3-152.1-12.3-72.4-15.3-105.4-32.3-137.4-48.8-31.8-16.4-64.7-33.4-136.8-48.6-72.1-15.2-112.6-13.7-151.7-12.3-10.4.4-21.1.8-32.3.9ZM1341.4,386s0,0,0,0c0,0,0,0,0,0Z"/>
  </g>
  <g>
    <path class="st0" d="M1341.2,386.9s0,0,0,0h0s0,0-.1,0h0c0,0-.2,0-.2,0-135.2,27.1-109.4,64-245,91.1-135.7,27.2-161.7-9.8-297.4,17.4-135.7,27.2-109.8,64.1-245.5,91.2-135.7,27.1-161.7-9.8-297.4,17.3-135.7,27.1-109.7,64-245.5,91.2-3.4.7-6.7,1.3-10,1.9v-374.6c38.6-7.6,75.5-15.6,152.8-10.8,148.5,9.4,149,47.9,297.6,57.3,148.5,9.4,148.1-29.1,296.6-19.7,148.6,9.4,149,47.9,297.6,57.3,147.5,9.3,148.1-28.6,293.6-19.9,0,0,0,0,0,0,.9,0,1.9.1,2.8.2h0s0,0,0,0Z"/>
    <path d="M0,698.1c-.2,0-.5,0-.6-.2-.2-.2-.4-.5-.4-.8v-374.6c0-.5.3-.9.8-1l4.6-.9c36.4-7.2,74.1-14.6,148.5-9.9,74.4,4.7,112.3,16.9,149,28.7,36.6,11.8,74.4,23.9,148.5,28.6,74.1,4.7,111.7-2.7,148-9.8,36.5-7.2,74.2-14.6,148.6-9.9,74.4,4.7,112.3,16.9,149,28.7,36.6,11.8,74.4,23.9,148.6,28.6,74.2,4.7,111.7-2.7,148.1-9.9,36-7.1,73.1-14.4,145.5-10.1,0,0,0,0,.1,0l2.8.2s0,0,0,0c.5,0,1,.5,1,1s-.3.8-.7,1c0,0-.2,0-.2,0h0s0,0,0,0c-.1,0-.2,0-.3,0-67.3,13.5-95,29.7-121.9,45.4-27,15.8-55,32.1-123,45.7-68,13.6-109.2,11.1-149,8.7-39.7-2.4-80.7-4.9-148.5,8.7-67.7,13.5-95.5,29.8-122.4,45.5-27,15.8-55,32.1-123,45.7-68,13.6-109.1,11.1-148.9,8.7-39.7-2.4-80.7-4.9-148.5,8.7-67.7,13.5-95.5,29.8-122.4,45.5-27,15.8-55,32.1-123,45.7-3,.6-6.2,1.2-10,1.9,0,0-.1,0-.2,0ZM1,323.4v372.6c3.3-.6,6.1-1.2,8.8-1.7,67.7-13.5,95.5-29.8,122.4-45.5,27-15.8,55-32.1,123-45.7,68-13.6,109.2-11.1,149-8.7,39.7,2.4,80.7,4.9,148.4-8.6,67.7-13.5,95.5-29.8,122.4-45.5,27-15.8,55-32.1,123-45.7,68-13.6,109.2-11.1,149-8.7,39.7,2.4,80.7,4.9,148.5-8.7,67.7-13.5,95.5-29.8,122.4-45.5,26-15.2,52.9-30.9,115.6-44.2-69.1-3.7-105.4,3.4-140.5,10.3-36.5,7.2-74.2,14.6-148.6,9.9-74.4-4.7-112.3-16.9-149-28.7-36.6-11.8-74.4-23.9-148.6-28.6-74.1-4.7-111.7,2.7-148,9.9-36.5,7.2-74.2,14.6-148.6,9.9-74.4-4.7-112.3-16.9-149-28.7-36.6-11.8-74.4-23.9-148.5-28.6-74.1-4.7-111.7,2.7-148,9.8l-3.8.7ZM1341.2,385.9h0,0Z"/>
  </g>
  <g>
    <path class="st1" d="M1341.3,387s0,0,0,0t0,0c-112.8,50.5-101.7,62.9-214.6,113.3-112.9,50.4-282.2,15.4-395.1,65.9-112.9,50.5-182.2,100.3-335.5,102.8-153.3,2.5-260.5,50.2-373.4,100.7-8.3,3.7-15.9,6.9-22.7,9.7v-199.4c79.8-18.7,87.2-47.2,204.8-60.9,142.1-16.5,160.8,21.6,302.8,5,142-16.5,123.4-54.6,265.4-71.1,142.1-16.5,160.7,21.5,302.8,5,141.9-16.5,123.4-54.5,264.9-71,.1,0,.2,0,.4,0,0,0,0,0,.1,0s0,0,0,0Z"/>
    <path d="M0,780.3c-.2,0-.4,0-.6-.2-.3-.2-.4-.5-.4-.8v-199.4c0-.5.3-.9.8-1,31.5-7.4,52.1-16.5,71.9-25.3,30.4-13.4,61.8-27.3,133-35.6,71.2-8.3,112.1-2.8,151.7,2.5,39.5,5.3,80.2,10.8,151.2,2.5,70.9-8.2,102.2-22.1,132.4-35.5,30.4-13.4,61.8-27.4,133-35.6,71.2-8.3,112.1-2.8,151.7,2.5,39.4,5.3,80.2,10.8,151.1,2.5,70.9-8.2,102.2-22.1,132.4-35.5,30.3-13.4,61.7-27.3,132.5-35.6.1,0,.2,0,.3,0,0,0,0,0,.1,0,0,0,0,0,0,0,0,0,.1,0,.2,0,.5,0,.9.3,1,.8.1.4,0,.9-.5,1.1,0,0-.1,0-.2,0-56.3,25.2-82.1,41.1-107.1,56.6-25,15.5-50.9,31.5-107.4,56.7-56.6,25.3-128.4,29.2-197.9,33-69.3,3.8-140.9,7.7-197.2,32.9-21.2,9.5-40.9,18.9-59.9,28.1-81.2,39.1-151.3,72.8-276,74.8-153.7,2.5-260.2,50.1-373,100.6-7.9,3.5-15.6,6.8-22.8,9.7-.1,0-.2,0-.4,0ZM1,580.7v197.1c6.8-2.8,14-5.8,21.3-9.1,113-50.5,219.7-98.2,373.8-100.7,124.2-2,194.2-35.7,275.1-74.6,19-9.2,38.7-18.6,59.9-28.1,56.6-25.3,128.5-29.2,197.9-33,69.3-3.8,140.9-7.7,197.1-32.8,56.4-25.2,82.2-41.2,107.2-56.6,24.1-14.9,49.1-30.3,101.5-54-66.3,8.3-96.6,21.7-125.9,34.7-30.4,13.4-61.8,27.4-133,35.6-71.2,8.3-112.1,2.8-151.6-2.5-39.5-5.3-80.2-10.8-151.2-2.5-70.9,8.2-102.2,22.1-132.4,35.5-30.4,13.4-61.8,27.3-133,35.6-71.2,8.3-112.1,2.8-151.6-2.5-39.5-5.3-80.3-10.8-151.2-2.5-70.9,8.2-102.2,22.1-132.4,35.5-19.8,8.8-40.2,17.8-71.5,25.2Z"/>
  </g>
</svg>