<?xml version="1.0" encoding="UTF-8"?>
<svg id="Capa_1" xmlns="http://www.w3.org/2000/svg" version="1.1" viewBox="0 0 1343.5 788.1">
  <!-- Generator: Adobe Illustrator 29.2.1, SVG Export Plug-In . SVG Version: 2.1.0 Build 116)  -->
  <defs>
    <style>
      .st0 {
        fill: #ff2523;
      }

      .st1 {
        fill: #ff3c3a;
      }

      .st2 {
        fill: #e40200;
      }
    </style>
  </defs>
  <g>
    <path class="st0" d="M0,387H0c134-47.3,161.4-14.4,295.6-61.8,134.3-47.4,106.9-80.3,241.2-127.7,134.3-47.3,161.6-14.4,295.9-61.8,134.3-47.4,123.6-78.5,270.2-111.8,92.1-21,164-15.6,238.2-14.4v281.5c-39-6.6-76.6-13.7-153.5-7-148.4,12.9-146.4,51.2-294.9,64.1-148.5,12.9-150.5-25.5-299-12.6-148.5,12.9-146.5,51.2-295,64.1-147.4,12.8-150.4-24.9-295.8-12.8h0c-.9,0-1.8.2-2.7.2H0Z"/>
    <path class="st2" d="M242,403.2c-39.8,0-66.6-4.6-92.8-9-36.4-6.1-74.1-12.5-146.1-6.5h0c-.9,0-1.8.2-2.7.2h-.2c0,0,.4,0,0,0s-.9-.4-1-.8,0-.9.5-1.1H-.2c67.1-23.7,108.2-27.3,147.9-30.9s80.7-7.2,147.7-30.9c67-23.6,94.1-44,120.3-63.7,26.3-19.8,53.5-40.3,120.8-64,67.3-23.8,108.4-27.4,148.2-31,39.7-3.6,80.7-7.2,147.7-30.9,57.8-20.3,89.1-38,116.8-53.5,37.5-21.1,69.9-39.3,153.5-58.3,79.7-18.1,145.1-16.5,208.3-15,9.9.3,20.1.5,30.2.7.6,0,1,.5,1,1v281.4c0,.3-.2.6-.4.8s-.5.2-.8.2l-3.9-.7c-36.9-6.3-75.1-12.7-149.3-6.3-74.1,6.4-111.3,19.4-147.2,32-36,12.6-73.3,25.7-147.7,32.1-74.3,6.4-112.6,0-149.7-6.3-36.9-6.3-75.1-12.7-149.2-6.3-74.1,6.4-111.3,19.4-147.2,32-36,12.6-73.3,25.6-147.7,32.1-21.8,1.9-40.5,2.7-57,2.7h0ZM650.9,331.6c39.7,0,66.5,4.6,92.7,9,36.9,6.3,75.1,12.7,149.2,6.3,74.2-6.4,111.4-19.4,147.3-32,36.1-12.6,73.4-25.6,147.7-32.1,74.4-6.5,112.7,0,149.8,6.3l2.7.5V10.4c-9.8-.1-19.6-.4-29.2-.6-63.1-1.5-128.3-3.1-207.8,14.9-83.4,19-115.6,37.1-153,58.1-27.8,15.6-59.2,33.3-117.1,53.7-67.3,23.8-108.4,27.4-148.2,31-39.7,3.6-80.7,7.2-147.7,30.9-67,23.6-94.1,44-120.3,63.7-26.3,19.8-53.5,40.3-120.8,64-67.3,23.8-108.4,27.4-148.2,31-38.1,3.4-77.6,7-140.2,28.3,69.2-5.4,106.2.9,141.9,6.9,36.9,6.3,75.1,12.7,149.2,6.3,74.1-6.4,111.3-19.4,147.2-32,36-12.6,73.3-25.6,147.7-32.1,21.8-1.9,40.5-2.7,57-2.7v-.2Z"/>
  </g>
  <g>
    <path class="st1" d="M.1,386.9h0c144.3-30.4,159.2,6,303.6-24.5,144.5-30.5,129.7-67,274.2-97.5,144.5-30.5,159.3,5.9,303.8-24.6,144.5-30.6,129.7-67,274.2-97.5,92-19.4,131.4-11.7,185.2-11.4v337c-48.2-13.5-76.8-31-171.5-34.8-146.2-5.8-157.5,32.8-303.7,27-146.2-5.8-135-44.5-281.2-50.3s-157.5,32.8-303.7,27c-146.1-5.8-135-44.4-280.9-50.3H0h.1Z"/>
    <path class="st2" d="M1341.3,469.2h-.3c-11-3-21.1-6.4-30.9-9.6-33.1-10.9-67.3-22.2-140.3-25.1s-112.9,5.4-151.6,13.5c-38.8,8.1-78.9,16.4-152.1,13.5-73.3-2.9-107.7-14.2-140.9-25.2-33.1-10.9-67.3-22.2-140.3-25.1s-112.9,5.4-151.6,13.5c-38.8,8.1-78.9,16.4-152.1,13.5-73.3-2.9-107.7-14.2-140.9-25.2-33.1-10.9-67.3-22.2-140-25.1H0c-.5,0-1-.4-1-.9s.3-1,.8-1.1H.1c72.2-15.3,112.7-13.8,151.9-12.3,39.1,1.4,79.6,2.9,151.7-12.3,72.2-15.3,105.1-32.3,136.9-48.7,31.9-16.5,64.9-33.5,137.3-48.8,72.4-15.3,113-13.8,152.2-12.3,39.1,1.4,79.5,2.9,151.6-12.3,72.2-15.2,105.1-32.2,136.9-48.6,31.9-16.5,64.9-33.5,137.3-48.8,72.3-15.3,112.9-13.8,152.1-12.3,10.7.4,21.8.9,33.3.9s1,.4,1,1v337.1c0,.3-.2.6-.4.8-.2.2-.4.2-.6.2v-.3ZM1340.3,132.6c-11.2,0-21.9-.5-32.3-.9-39.1-1.4-79.6-2.9-151.7,12.3-72.1,15.2-105,32.2-136.8,48.6-32,16.5-65,33.5-137.4,48.8-72.3,15.3-112.9,13.8-152.1,12.3-39.1-1.4-79.5-2.9-151.7,12.3-72.1,15.2-105,32.2-136.8,48.6-32,16.5-65,33.5-137.4,48.8-72.4,15.3-113,13.8-152.2,12.3-37.6-1.4-76.5-2.8-143.8,10.7,67.7,3.4,100.8,14.3,132.8,24.8,33.1,10.9,67.3,22.2,140.3,25.1s112.9-5.4,151.6-13.5c38.8-8.1,78.9-16.4,152.1-13.5,73.3,2.9,107.7,14.2,140.9,25.2,33.1,10.9,67.3,22.2,140.3,25.1s112.9-5.4,151.6-13.5c38.8-8.1,78.9-16.4,152.1-13.5,73.3,2.9,107.7,14.2,140.9,25.2,9.4,3.1,19.1,6.3,29.6,9.3V132.4s0,.2,0,.2ZM0,386H0Z"/>
  </g>
  <g>
    <path class="st0" d="M.2,386.8H.2c.9-.1,1.9-.2,2.8-.2h0c145.5-8.7,146.1,29.2,293.6,19.9,148.6-9.4,149-47.9,297.6-57.3,148.5-9.4,148.1,29.1,296.6,19.7,148.6-9.4,149.1-47.9,297.6-57.3,77.3-4.8,114.2,3.2,152.8,10.8v374.6c-3.3-.6-6.6-1.2-10-1.9-135.8-27.2-109.8-64.1-245.5-91.2-135.7-27.1-161.7,9.8-297.4-17.3-135.7-27.1-109.8-64-245.5-91.2-135.7-27.2-161.7,9.8-297.4-17.4C109.8,450.9,135.6,414,.4,386.9H.1h0Z"/>
    <path class="st2" d="M1341.2,698h-.2c-3.8-.7-7-1.3-10-1.9-68-13.6-96-29.9-123-45.7-26.9-15.7-54.7-32-122.4-45.5-67.8-13.6-108.8-11.1-148.5-8.7-39.8,2.4-80.9,4.9-148.9-8.7-68-13.6-96-29.9-123-45.7-26.9-15.7-54.7-32-122.4-45.5-67.8-13.6-108.8-11.1-148.5-8.7-39.8,2.4-81,4.9-149-8.7s-96-29.9-123-45.7c-26.9-15.7-54.6-31.9-121.9-45.4H0c-.4-.2-.7-.5-.7-1s.5-1,1-1H.2l2.8-.2h0c72.4-4.3,109.5,3,145.5,10.1,36.4,7.2,73.9,14.6,148.1,9.9,74.2-4.7,112-16.8,148.6-28.6,36.7-11.8,74.6-24,149-28.7,74.4-4.7,112.1,2.7,148.6,9.9,36.3,7.1,73.9,14.5,148,9.8,74.1-4.7,111.9-16.8,148.5-28.6,36.7-11.8,74.6-24,149-28.7,74.4-4.7,112.1,2.7,148.5,9.9l4.6.9c.5.1.8.5.8,1v374.6c0,.3-.2.6-.4.8-.1.2-.4.2-.6.2h0ZM1340.4,323.4l-3.8-.7c-36.3-7.1-73.9-14.5-148-9.8-74.1,4.7-111.9,16.8-148.5,28.6-36.7,11.8-74.6,24-149,28.7-74.4,4.7-112.1-2.7-148.6-9.9-36.3-7.2-73.9-14.6-148-9.9-74.2,4.7-112,16.8-148.6,28.6-36.7,11.8-74.6,24-149,28.7s-112.1-2.7-148.6-9.9c-35.1-6.9-71.4-14-140.5-10.3,62.7,13.3,89.6,29,115.6,44.2,26.9,15.7,54.7,32,122.4,45.5,67.8,13.6,108.8,11.1,148.5,8.7,39.8-2.4,81-4.9,149,8.7,68,13.6,96,29.9,123,45.7,26.9,15.7,54.7,32,122.4,45.5,67.7,13.5,108.7,11,148.4,8.6,39.8-2.4,81-4.9,149,8.7,68,13.6,96,29.9,123,45.7,26.9,15.7,54.7,32,122.4,45.5,2.7.5,5.5,1.1,8.8,1.7v-372.6h0ZM.1,385.9H.1Z"/>
  </g>
  <g>
    <path class="st1" d="M.1,387s0,0,0,0h.5c141.5,16.5,123,54.5,264.9,71,142.1,16.5,160.7-21.5,302.8-5,142,16.5,123.4,54.6,265.4,71.1,142,16.6,160.7-21.5,302.8-5,117.6,13.7,125,42.2,204.8,60.9v199.4c-6.8-2.8-14.4-6-22.7-9.7-112.9-50.5-220.1-98.2-373.4-100.7-153.3-2.5-222.6-52.3-335.5-102.8-112.9-50.5-282.2-15.5-395.1-65.9C101.7,449.9,112.8,437.5,0,387h0Z"/>
    <path class="st2" d="M1341.4,780.1h-.4c-7.2-2.9-14.9-6.2-22.8-9.7-112.8-50.5-219.3-98.1-373-100.6-124.7-2-194.8-35.7-276-74.8-19-9.2-38.7-18.6-59.9-28.1-56.3-25.2-127.9-29.1-197.2-32.9-69.5-3.8-141.3-7.7-197.9-33-56.5-25.2-82.4-41.2-107.4-56.7-25-15.5-50.8-31.4-107.1-56.6h-.2c-.5-.2-.6-.7-.5-1.1,0-.5.5-.8,1-.8h.6c70.8,8.3,102.2,22.2,132.5,35.6,30.2,13.4,61.5,27.3,132.4,35.5,70.9,8.3,111.7,2.8,151.1-2.5,39.6-5.3,80.5-10.8,151.7-2.5,71.2,8.2,102.6,22.2,133,35.6,30.2,13.4,61.5,27.3,132.4,35.5,71,8.3,111.7,2.8,151.2-2.5,39.6-5.3,80.5-10.8,151.7-2.5,71.2,8.3,102.6,22.2,133,35.6,19.8,8.8,40.4,17.9,71.9,25.3.5,0,.8.5.8,1v199.4c0,.3,0,.6-.4.8-.2.2-.4.2-.6.2v-.2ZM1340.3,581c-31.3-7.4-51.7-16.4-71.5-25.2-30.2-13.4-61.5-27.3-132.4-35.5-70.9-8.3-111.7-2.8-151.2,2.5-39.5,5.3-80.4,10.8-151.6,2.5-71.2-8.3-102.6-22.2-133-35.6-30.2-13.4-61.5-27.3-132.4-35.5-71-8.3-111.7-2.8-151.2,2.5-39.5,5.3-80.4,10.8-151.6,2.5-71.2-8.2-102.6-22.2-133-35.6-29.3-13-59.6-26.4-125.9-34.7,52.4,23.7,77.4,39.1,101.5,54,25,15.4,50.8,31.4,107.2,56.6,56.2,25.1,127.8,29,197.1,32.8,69.4,3.8,141.3,7.7,197.9,33,21.2,9.5,40.9,18.9,59.9,28.1,80.9,38.9,150.9,72.6,275.1,74.6,154.1,2.5,260.8,50.2,373.8,100.7,7.3,3.3,14.5,6.3,21.3,9.1v-197.1s0,.3,0,.3Z"/>
  </g>
</svg>