<svg width="1255" height="1500" viewBox="0 0 1255 1500" fill="none" xmlns="http://www.w3.org/2000/svg">
<mask id="mask0_150_5549" style="mask-type:alpha" maskUnits="userSpaceOnUse" x="0" y="0" width="1255" height="1500">
<rect width="1255" height="1500" fill="#D9D9D9"/>
</mask>
<g mask="url(#mask0_150_5549)">
<path d="M1336.11 -126.868C1411.66 -275.429 1452.96 -135.531 1528.48 -284.05L878.908 -477.318C857.478 -312.687 797.244 -315.284 775.848 -150.625C754.418 14.0058 814.686 16.63 793.255 181.261C771.825 345.892 711.592 343.295 690.195 507.954C668.765 672.585 729.033 675.209 707.603 839.84C686.207 1004.5 625.911 1001.92 604.515 1166.58C583.119 1331.23 643.353 1333.83 621.923 1498.46C752.215 1331.65 720.621 1308.32 798.111 1171.17C873.661 1022.61 901.642 1053.15 977.192 904.585C1052.74 756.024 998.95 694.061 1074.5 545.5C1150.05 396.939 1117.42 431.429 1171 269C1224.58 106.571 1238.01 -0.899583 1275 -150.625L1336.11 -126.868Z" fill="#00A0FF" stroke="#006CAD" stroke-width="2" stroke-linecap="round" stroke-linejoin="round"/>
<path d="M1055.78 -119.151C1104.87 -279.256 1162.04 -262.494 1211.14 -422.529L525.436 -449.386C533.49 -287.08 472.635 -274.916 480.69 -112.61C488.745 49.6957 549.572 37.5739 557.627 199.88C565.682 362.185 504.827 374.35 512.882 536.655C520.936 698.961 581.764 686.839 589.819 849.145C597.874 1011.45 537.018 1023.62 545.046 1185.96C553.101 1348.27 613.929 1336.15 621.983 1498.45C688.101 1321.25 651.546 1321.82 700.641 1161.71C749.735 1001.61 806.904 1018.37 856.032 858.291C905.127 698.186 810.319 681.192 859.386 521.13C908.48 361.025 965.65 377.787 1014.75 217.752C1063.84 57.6464 1006.68 40.8842 1055.78 -119.151Z" fill="#4481C9" stroke="#006CAD" stroke-width="2" stroke-linecap="round" stroke-linejoin="round"/>
<path d="M719.767 -151.441C735.685 -316.208 796.26 -316.389 812.178 -481.155L121.815 -314.475C163.45 -163.613 105.167 -135.099 146.768 15.7361C188.403 166.598 246.623 138.099 288.258 288.961C329.893 439.823 271.611 468.337 313.211 619.172C354.846 770.034 413.067 741.535 454.701 892.397C496.336 1043.26 438.054 1071.77 479.689 1222.64C521.323 1373.5 579.544 1345 621.179 1495.86C637.097 1331.09 586.182 1331.33 602.1 1166.57C618.018 1001.8 655.131 1001.48 671.049 836.709C686.966 671.943 640.192 672.209 656.144 507.469C672.062 342.703 732.637 342.522 748.528 177.798C764.446 13.0314 703.904 13.2399 719.822 -151.527L719.767 -151.441Z" fill="#00A0FF" stroke="#006CAD" stroke-width="2" stroke-linecap="round" stroke-linejoin="round"/>
<path d="M313.462 -59.0858C288.6 -216.885 348.605 -237.264 323.743 -395.063L61.9451 -262.041C140.426 -136.302 -134.618 -308.997 -56.1368 -183.258C22.3446 -57.518 -47.9162 -93.9734 30.5312 31.7389C109.013 157.478 183.11 276.884 185.878 446.984C188.647 617.085 194.664 694.031 273.146 819.77C351.627 945.51 367.017 1133.51 445.464 1259.22C523.912 1384.93 543.509 1372.71 621.99 1498.45C597.128 1340.65 537.123 1361.03 512.26 1203.23C487.398 1045.43 515.775 1024.85 490.913 867.055C466.05 709.256 437.673 729.829 412.844 572.057C387.982 414.258 447.987 393.879 423.125 236.079C398.262 78.2802 338.257 98.6591 313.428 -59.113L313.462 -59.0858Z" fill="#4481C9" stroke="#006CAD" stroke-width="2" stroke-linecap="round" stroke-linejoin="round"/>
</g>
</svg>
