<svg width="185" height="227" viewBox="0 0 185 227" fill="none" xmlns="http://www.w3.org/2000/svg">
<path d="M33.7789 204.626C31.2519 204.106 31.3895 202.37 30.6952 202.37C30.42 202.37 25.0783 207.058 25.0095 207.127C24.0713 207.961 21.6819 208.45 20.5372 206.118C19.255 203.548 21.7507 200.351 23.5896 197.994C26.8109 193.757 30.9392 194.935 31.3207 197.299C31.427 197.819 31.5271 197.888 32.015 197.819C34.5795 197.474 34.1604 201.674 34.9611 202.301C36.9689 203.862 34.6859 204.802 33.7852 204.626H33.7789ZM30.2386 198.653C30.2386 198.615 30.0635 198.546 29.8258 198.446C26.6045 197.405 23.3082 204.281 23.796 204.281C23.8336 204.281 24.0025 204.175 24.2151 204.075C24.3215 204.006 30.2449 198.797 30.2449 198.659L30.2386 198.653Z" fill="#1A1525"/>
<path d="M45.4194 199.35C43.374 199.175 43.0613 199.244 42.8173 199.908C40.2528 206.853 41.3286 207.443 40.0777 208.032C38.001 209.041 37.2004 206.922 37.6507 205.669C39.5898 200.391 39.0393 193.859 43.2301 195.633C44.2685 196.084 46.833 196.429 49.2224 196.398C53.2067 196.36 54.3201 196.429 54.489 196.711C56.0152 199.143 48.2528 199.595 45.4069 199.35H45.4194Z" fill="#1A1525"/>
<path d="M68.7127 198.267C66.805 199.138 63.8965 199.414 63.8589 199.414C63.4774 200.179 59.6681 207.576 59.493 209.588C59.3867 210.873 58.4859 211.355 57.5852 210.804C55.1959 209.343 59.1802 203.269 60.5688 200.003C60.5688 199.934 59.7745 199.934 58.7674 199.934C56.7596 200.003 56.7221 200.003 56.1654 199.138C54.5016 196.43 58.9738 196.844 62.1263 196.706C63.8214 194.155 63.4586 192.782 64.6408 192.989C66.8675 192.989 65.7354 194.381 65.21 196.424C65.1725 196.669 68.8128 196.7 69.2632 197.151C69.5759 197.465 69.2632 198.023 68.7065 198.261L68.7127 198.267Z" fill="#1A1525"/>
<path d="M89.5731 197.23C89.2979 197.926 88.4284 198.271 87.7341 197.889C86.5582 197.299 82.2611 199.694 84.9632 202.471C85.5887 203.098 86.4206 204.796 86.4894 205.53C86.7646 208.52 83.093 210.287 80.91 209.04C80.0093 208.551 78.971 206.884 79.1774 206.332C79.6278 205.116 82.505 207.51 83.0617 205.95C83.3745 205.116 81.5355 203.449 81.0851 202.584C79.0773 198.66 82.9929 194.942 86.039 194.284C88.8475 193.657 90.1298 195.607 89.5731 197.237V197.23Z" fill="#1A1525"/>
<path d="M93.9387 208.17C93.0005 207.299 92.3813 210.84 89.7479 216.538C86.6267 223.346 87.909 225.427 87.0083 226.474C86.07 227.583 84.4125 226.787 84.131 225.465C83.7182 223.277 86.3828 216.607 87.2835 214.558C95.8465 195.214 91.4743 192.988 95.1147 192.988C95.7026 192.988 96.8097 193.715 97.0224 194.273C97.1976 194.831 98.999 193.891 101.976 195.803C108.425 199.934 97.0912 211.154 93.9387 208.17ZM99.9685 198.028C97.4728 196.743 96.1905 198.862 95.5337 201.225C95.3273 201.921 94.214 205.638 94.214 205.638C94.214 205.776 94.7018 206.02 94.9395 206.02C95.0083 206.02 95.5963 205.744 96.1905 205.393C98.8238 203.795 102.464 199.313 99.9685 198.028Z" fill="#1A1525"/>
<path d="M118.789 204.626C116.262 204.106 116.4 202.37 115.705 202.37C115.43 202.37 110.089 207.058 110.02 207.127C109.082 207.961 106.692 208.45 105.547 206.118C104.265 203.548 106.761 200.351 108.6 197.994C111.821 193.757 115.949 194.935 116.331 197.299C116.437 197.819 116.537 197.888 117.025 197.819C119.59 197.474 119.171 201.674 119.971 202.301C121.979 203.862 119.696 204.802 118.795 204.626H118.789ZM115.255 198.653C115.255 198.615 115.08 198.546 114.842 198.446C111.621 197.405 108.325 204.281 108.813 204.281C108.85 204.281 109.019 204.175 109.232 204.075C109.338 204.006 115.261 198.797 115.261 198.659L115.255 198.653Z" fill="#1A1525"/>
<path d="M136.184 203.234C136.184 204.519 130.048 208.618 126.132 207.678C118.683 205.835 125.576 192.603 132.437 196.006C135.002 197.26 133.513 199.097 132.125 198.539C128.415 196.978 123.53 204.895 128.003 204.757C131.956 204.65 136.184 201.353 136.184 203.227V203.234Z" fill="#1A1525"/>
<path d="M151.853 205.418C151.853 206.772 145.717 209.932 141.558 207.606C139.031 206.183 137.748 203.268 138.612 200.767C139.756 197.364 147.381 192.431 150.258 196.774C151.472 198.58 147.9 203.688 143.397 203.444C142.633 203.406 142.008 203.406 141.977 203.444C141.733 203.651 142.602 205.701 146.03 205.594C148.25 205.525 151.853 204.24 151.853 205.418ZM143.809 200.21C144.366 200.492 144.917 200.385 145.786 199.865C146.931 199.169 147.9 198.091 147.656 197.815C147.381 197.539 142.077 199.344 143.809 200.21Z" fill="#1A1525"/>
<path d="M184.391 152.981C183.959 151.959 183.096 151.219 182.002 150.943C181.633 150.856 181.245 150.818 180.769 150.812C180.744 150.812 180.701 150.799 180.638 150.78C179.937 150.605 179.199 150.68 178.555 150.987C178.493 151.006 178.386 151.031 178.217 151.069C177.154 151.294 176.235 151.752 175.484 152.429C175.446 152.46 175.409 152.498 175.378 152.529C174.102 153.802 172.769 155.256 171.425 156.848C170.111 158.396 168.81 160.001 167.546 161.606C166.295 163.192 165.088 164.734 163.912 166.226C163.518 166.727 163.13 167.216 162.761 167.68L163.381 164.182C163.637 162.722 163.75 161.318 163.718 160.026C163.693 159.142 163.299 158.315 162.63 157.738C162.048 157.237 161.348 156.823 160.547 156.497C159.765 156.177 158.933 155.983 158.083 155.914C157.138 155.839 156.206 155.952 155.318 156.246C154.248 156.597 153.323 157.249 152.566 158.183C151.784 159.105 151.058 160.152 150.42 161.286C150.114 161.832 149.789 162.383 149.457 162.928C149.501 162.446 149.501 161.957 149.457 161.468C149.338 160.277 148.944 159.136 148.281 158.077C147.568 156.942 146.586 156.065 145.373 155.475C144.259 154.918 143.159 154.554 142.101 154.397C141.151 154.253 140.206 154.209 139.299 154.266C138.53 154.31 137.742 154.391 136.947 154.498C136.716 154.529 136.478 154.56 136.228 154.579C135.484 153.99 134.752 153.639 133.989 153.495C132.631 153.238 131.305 153.582 130.255 154.46C129.704 154.918 129.198 155.482 128.703 156.19C128.553 156.409 128.366 156.597 128.14 156.767C128.128 156.779 128.115 156.786 128.103 156.798C128.034 156.842 127.828 156.961 127.346 157.199C126.639 157.544 125.87 157.939 125.007 158.403C124.106 158.885 123.23 159.412 122.405 159.964C122.117 160.158 121.854 160.346 121.604 160.54C121.254 159.97 120.86 159.443 120.416 158.973C119.371 157.864 118.133 157.086 116.725 156.66C115.887 156.409 115.03 156.309 114.179 156.372C114.117 156.309 114.061 156.253 113.998 156.196C113.51 155.739 112.953 155.375 112.34 155.112C111.69 154.836 110.627 154.598 109.294 155.005C109.213 155.03 109.132 155.062 109.05 155.093C106.993 155.921 105.116 157.174 103.465 158.823C102.014 160.277 100.475 162.089 98.8861 164.207C98.8549 164.251 98.8173 164.295 98.7861 164.339C99.1989 163.493 99.4491 162.615 99.5367 161.719C99.6492 160.503 99.3865 159.299 98.761 158.152C98.0042 156.729 96.9596 155.732 95.6586 155.181C94.5202 154.698 93.2817 154.541 91.9807 154.711C90.9049 154.849 89.7977 155.187 88.6844 155.72C87.7649 156.159 86.8392 156.66 85.9322 157.218C85.0503 157.757 84.1871 158.328 83.3677 158.91C82.6046 159.45 81.9165 159.945 81.3036 160.396C79.4333 161.675 77.6132 163.004 75.9056 164.351C75.4615 164.696 75.0361 165.047 74.617 165.404C74.9173 165.022 75.1737 164.633 75.3864 164.251C75.7867 163.53 75.9869 162.753 75.9869 161.938C75.9869 161.882 75.9869 161.832 75.9869 161.775C75.9306 160.678 75.574 159.631 74.9235 158.66C74.3668 157.826 73.6788 157.118 72.8594 156.56C72.0025 155.971 71.0642 155.588 70.0697 155.413C69.2441 155.269 68.4184 155.306 67.6303 155.519C67.649 155.03 67.6115 154.473 67.3926 153.89C66.9985 152.849 66.1604 152.078 65.097 151.771C64.7343 151.664 64.3277 151.602 63.8648 151.589C63.8398 151.589 63.796 151.57 63.7335 151.558C63.0392 151.357 62.3011 151.401 61.6443 151.683C61.5818 151.696 61.4754 151.721 61.3003 151.752C60.2307 151.94 59.2925 152.36 58.5231 153.006C58.4856 153.037 58.4481 153.075 58.4105 153.106C57.0845 154.328 55.7021 155.732 54.301 157.268C52.9375 158.76 51.5739 160.308 50.2416 161.869C48.9343 163.405 47.6646 164.897 46.4386 166.351C46.0258 166.84 45.6255 167.31 45.2314 167.761L45.982 164.289C46.2947 162.834 46.4636 161.443 46.4761 160.145C46.4886 159.262 46.1259 158.415 45.4753 157.82C44.9124 157.3 44.2306 156.854 43.4425 156.497C42.6731 156.146 41.8537 155.92 41.0031 155.82C40.0648 155.707 39.1266 155.783 38.2259 156.046C37.1438 156.353 36.193 156.967 35.3987 157.876C35.0672 158.234 34.7544 158.622 34.4417 159.017C34.4792 158.929 34.5105 158.835 34.5417 158.741C34.7356 158.102 35.3236 156.152 34.229 154.485C33.2845 153.05 31.6144 152.448 29.8693 152.924C28.9811 153.162 28.0992 153.658 27.1734 154.435C26.5792 154.936 26.0163 155.538 25.4971 156.228C24.8341 156.572 24.3024 157.074 23.9396 157.688C23.6206 158.052 23.3642 158.459 23.1828 158.885C23.0827 158.986 22.9889 159.092 22.9013 159.205L20.0616 162.866C20.0178 162.922 19.9803 162.979 19.9427 163.035C19.7238 163.361 19.5612 163.624 19.4298 163.869C19.2735 164.17 19.1546 164.433 19.0733 164.696C18.5854 165.53 17.985 166.382 17.2969 167.235C16.4337 168.3 15.7082 169.354 15.1327 170.363C15.0764 170.425 15.0201 170.494 14.9576 170.557C15.2641 169.817 15.5643 169.04 15.8458 168.238C15.877 168.144 15.9083 168.05 15.9333 167.956C15.9458 167.924 15.9771 167.83 16.0584 167.655C16.1523 167.435 16.2586 167.222 16.3712 167.022C16.6151 166.652 16.7778 166.42 16.8778 166.288C17.3907 165.611 17.7097 164.865 17.8286 164.063C17.8473 163.919 17.8599 163.781 17.8661 163.637C17.8786 162.734 17.5784 161.01 15.4267 159.656C14.4759 159.061 13.4126 158.622 12.2742 158.359C10.9857 158.064 9.71594 158.071 8.49623 158.384C6.82617 158.816 5.58769 159.995 5.0873 161.6C4.34922 162.841 3.69245 164.176 3.12951 165.574C2.51653 167.097 2.02864 168.708 1.67837 170.363C1.50948 170.964 1.36562 171.641 1.24678 172.438C1.12793 173.209 1.04036 174.011 0.971559 174.813C0.902755 175.647 0.87148 176.474 0.877735 177.264C0.88399 178.186 0.965304 178.957 1.11542 179.621C1.47821 181.351 2.36015 182.856 3.74249 184.09C4.95595 185.181 6.36956 185.983 7.93329 186.479C9.15926 186.867 10.4478 187.062 11.7676 187.062C12.0803 187.062 12.3931 187.049 12.7121 187.03C14.5322 186.905 16.1835 186.328 17.6159 185.319C18.4603 184.749 19.2172 184.04 19.8865 183.213C19.9427 184.517 20.4494 185.683 21.3438 186.585C21.9818 187.225 22.7512 187.739 23.6332 188.096C24.415 188.416 25.2469 188.616 26.1038 188.691C26.3728 188.716 26.6355 188.729 26.8857 188.729C27.4799 188.729 28.0241 188.666 28.5433 188.535C29.3064 188.34 29.9631 187.864 30.3885 187.199C31.1703 185.983 31.9397 184.655 32.6778 183.257C33.2532 182.166 33.8287 181.094 34.4041 180.054C34.7481 180.825 35.161 181.545 35.6363 182.21C36.4432 183.344 37.3752 184.235 38.4073 184.861C39.6395 185.607 40.9843 185.933 42.4042 185.827C43.8866 185.714 45.2814 185.056 46.5637 183.865C46.5762 183.852 46.595 183.84 46.6075 183.821C48.19 182.291 49.785 180.474 51.3487 178.424C52.7748 176.556 54.4449 174.5 56.3214 172.325C56.409 172.224 56.4903 172.112 56.5653 171.999C56.8656 171.541 57.1533 171.109 57.4348 170.701C56.7655 171.999 56.1275 173.334 55.527 174.707C54.5888 176.838 53.7569 179.232 53.0501 181.834C52.6497 183.301 53.3628 184.836 54.7389 185.476C55.8398 185.99 56.8405 186.24 57.785 186.24C57.9727 186.24 58.1541 186.228 58.3355 186.209C59.4801 186.09 60.5372 185.639 61.3879 184.918C62.0196 184.379 62.5888 183.689 63.0704 182.881C63.3394 182.423 63.6459 181.953 63.9712 181.476C64.0024 181.433 64.0275 181.395 64.0525 181.351C64.3777 180.825 64.703 180.392 65.0157 180.066C65.1658 179.909 65.3097 179.753 65.4536 179.609C65.6412 180.774 66.0916 181.99 66.8359 183.288C66.8484 183.313 66.8609 183.338 66.8797 183.363C67.7992 184.874 68.9876 185.996 70.395 186.692C71.6585 187.312 73.0095 187.663 74.4169 187.72C74.6045 187.726 74.7922 187.732 74.9861 187.732C76.0619 187.732 77.1565 187.607 78.2574 187.35C79.3833 187.093 80.5029 186.773 81.5913 186.397C83.0049 185.908 84.5123 185.338 86.0636 184.705C87.6023 184.084 89.1597 183.42 90.6922 182.73C91.4303 182.398 92.1496 182.066 92.8501 181.727C92.9565 181.959 93.0628 182.185 93.1879 182.398C93.9385 183.689 94.9393 184.661 96.1527 185.281C97.2411 185.839 98.4733 186.146 99.8119 186.184C99.9495 186.184 100.081 186.19 100.218 186.19C101.232 186.19 102.258 186.071 103.277 185.833C104.334 185.582 105.372 185.25 106.355 184.836C107.343 184.423 108.225 183.971 108.982 183.495C109.995 182.874 111.064 182.185 112.165 181.445C112.941 180.925 113.698 180.38 114.43 179.828C114.367 180.749 114.448 181.614 114.68 182.41C114.955 183.332 115.937 185.526 119.177 185.952C119.315 185.971 119.446 185.977 119.584 185.977C120.459 185.977 121.298 185.607 121.892 184.949C122.455 184.322 123.043 183.601 123.637 182.805C124.175 182.091 124.719 181.37 125.269 180.655C125.795 179.972 126.333 179.308 126.864 178.681C126.939 178.593 127.015 178.505 127.09 178.424C127.352 178.524 127.659 178.643 127.997 178.794C129.129 179.295 130.292 179.859 131.456 180.467C132.65 181.094 133.807 181.715 134.877 182.316C136.084 182.993 137.066 183.476 137.886 183.808C137.929 183.827 137.973 183.846 138.017 183.865C138.017 183.946 138.017 184.021 138.029 184.103C138.13 185.419 138.68 186.573 139.618 187.444C140.281 188.064 141.069 188.541 141.964 188.867C142.758 189.161 143.596 189.331 144.46 189.368C144.616 189.375 144.772 189.381 144.922 189.381C145.642 189.381 146.292 189.293 146.893 189.118C147.643 188.892 148.288 188.39 148.688 187.713C149.42 186.466 150.139 185.112 150.821 183.689C151.352 182.58 151.89 181.483 152.428 180.423C152.804 181.182 153.241 181.884 153.742 182.536C154.592 183.639 155.556 184.498 156.613 185.081C157.876 185.783 159.227 186.052 160.647 185.889C162.123 185.72 163.493 185.006 164.725 183.771C164.738 183.758 164.751 183.739 164.769 183.727C166.295 182.135 167.822 180.26 169.298 178.154C170.649 176.23 172.244 174.117 174.039 171.867C174.127 171.761 174.202 171.648 174.271 171.535C175.096 170.162 175.834 169.015 176.466 168.119C177.104 167.216 177.692 166.432 178.217 165.793C178.787 165.097 179.306 164.464 179.769 163.906C180.288 163.28 180.807 162.609 181.301 161.907C181.814 161.186 182.333 160.365 182.84 159.462C183.346 158.566 183.884 157.469 184.447 156.19C184.585 155.877 184.672 155.544 184.697 155.206C184.747 154.61 184.766 153.827 184.428 153.025L184.391 152.981ZM145.041 169.73C144.153 171.19 143.246 172.657 142.339 174.111C141.908 173.798 141.451 173.484 140.969 173.183C140.6 172.952 140.231 172.726 139.862 172.507C140.3 172.287 140.769 172.043 141.245 171.786C141.926 171.416 142.596 171.015 143.234 170.601C143.84 170.206 144.441 169.805 145.016 169.41C145.148 169.316 145.279 169.228 145.404 169.134C145.279 169.335 145.16 169.529 145.035 169.73H145.041ZM93.5069 171.159C93.6695 170.99 93.8259 170.814 93.9885 170.626C94.1574 170.432 94.3263 170.225 94.4952 170.024C94.27 170.382 94.0573 170.751 93.8572 171.121C93.7446 171.134 93.6257 171.146 93.5132 171.159H93.5069ZM87.5147 172.701C87.0581 172.839 86.6077 172.964 86.1699 173.071C86.1386 173.077 86.1073 173.089 86.0761 173.096C84.9189 173.415 83.768 173.785 82.6358 174.205C83.743 173.29 84.9001 172.419 86.1011 171.591C86.2449 171.761 86.3951 171.911 86.5577 172.049C86.8579 172.312 87.1832 172.532 87.521 172.701H87.5147Z" fill="#191919"/>
<path d="M64.4337 153.003C64.3837 152.878 64.2961 152.796 64.171 152.758C64.0459 152.721 63.8708 152.702 63.6456 152.696C63.4204 152.696 63.1389 152.639 62.8012 152.539C62.6886 152.602 62.4759 152.671 62.1757 152.733C62.0568 152.758 61.9192 152.784 61.7691 152.809C61.2437 152.896 60.7996 153.091 60.4556 153.385C59.1921 154.551 57.8785 155.88 56.5337 157.353C55.1827 158.832 53.8566 160.337 52.5494 161.873C51.2421 163.408 49.9786 164.894 48.7526 166.342C47.5266 167.79 46.4133 169.056 45.4125 170.147C44.4054 171.231 43.5485 172.077 42.8355 172.679C42.1224 173.281 41.6095 173.519 41.2967 173.388C41.1591 172.084 41.1842 170.761 41.3718 169.426C41.5532 168.091 41.7909 166.768 42.0724 165.458C42.3538 164.148 42.6353 162.863 42.9043 161.609C43.1732 160.356 43.3171 159.183 43.3296 158.093C43.0106 157.798 42.6103 157.541 42.1286 157.322C41.647 157.102 41.1341 156.964 40.6087 156.902C40.5837 156.902 40.5524 156.902 40.5274 156.896C40.0207 156.845 39.5266 156.896 39.045 157.027C38.5321 157.171 38.0817 157.479 37.6814 157.942C36.9871 158.701 36.3428 159.553 35.7549 160.512C35.1669 161.471 34.5414 162.43 33.8784 163.377C32.6024 165.051 31.3139 166.868 30.0191 168.837C28.7181 170.805 27.4171 172.736 26.1286 174.635C25.8408 175.067 25.5031 175.563 25.1215 176.121C24.74 176.678 24.3834 177.249 24.0582 177.819C23.7329 178.39 23.464 178.96 23.2513 179.53C23.0386 180.095 22.9385 180.602 22.9573 181.054C22.9823 181.58 23.1637 182.025 23.514 182.37C23.6141 182.47 23.7267 182.571 23.8455 182.658C24.1207 182.878 24.4335 183.053 24.7837 183.197C25.2841 183.398 25.8033 183.53 26.3475 183.574C26.8917 183.624 27.3608 183.599 27.7423 183.498C28.4804 182.351 29.1935 181.116 29.894 179.787C30.5946 178.459 31.3014 177.149 32.0207 175.864C32.7338 174.579 33.4781 173.375 34.2412 172.253C35.0043 171.137 35.8174 170.209 36.6806 169.476C36.3616 170.498 36.2177 171.551 36.2615 172.635C36.3053 173.726 36.4867 174.76 36.7995 175.738C37.1185 176.716 37.5563 177.606 38.1192 178.39C38.6822 179.179 39.2952 179.775 39.9707 180.182C40.64 180.59 41.3593 180.759 42.1224 180.703C42.8855 180.646 43.6486 180.264 44.3992 179.562C45.8753 178.133 47.3515 176.453 48.8214 174.522C50.2913 172.591 51.9864 170.51 53.9067 168.279C54.8261 166.875 55.6455 165.703 56.3586 164.769C57.0717 163.835 57.7347 163.026 58.3352 162.343C58.9356 161.659 59.4861 161.045 59.9802 160.494C60.4743 159.942 60.9622 159.359 61.4376 158.738C61.913 158.118 62.3946 157.416 62.8825 156.626C63.3704 155.842 63.8958 154.858 64.465 153.692C64.5025 153.354 64.5025 153.122 64.4587 153.003H64.4337Z" fill="#FFCA00"/>
<path d="M72.2713 158.382C71.9336 157.881 71.5208 157.461 71.0391 157.129C70.5512 156.796 70.0258 156.577 69.4691 156.477C69.4504 156.477 69.4254 156.471 69.4066 156.464C68.8749 156.383 68.362 156.464 67.8804 156.702C66.6544 158.852 65.4785 160.852 64.3463 162.695C63.2205 164.538 62.1446 166.374 61.1251 168.205C60.1055 170.035 59.161 171.947 58.2791 173.94C57.4034 175.94 56.6278 178.165 55.9585 180.622C56.3901 180.823 56.7841 180.961 57.1407 181.03C57.4284 181.093 57.6911 181.105 57.9225 181.08C58.448 181.024 58.9046 180.836 59.2799 180.516C59.6552 180.196 59.9992 179.776 60.3057 179.262C60.6122 178.748 60.9437 178.222 61.3127 177.689C61.7568 176.962 62.2197 176.354 62.695 175.865C63.1704 175.376 63.5582 174.937 63.8647 174.548C64.3088 173.934 64.6716 173.401 64.9531 172.956C65.2345 172.511 65.5035 172.047 65.7725 171.571C66.0352 171.095 66.3292 170.574 66.6482 169.998C66.9672 169.427 67.3925 168.719 67.9242 167.885C68.3683 167.158 68.7999 166.437 69.2189 165.729C69.638 165.014 70.1259 164.212 70.6826 163.322C70.8765 162.958 71.1079 162.632 71.3706 162.338C71.6333 162.043 71.871 161.767 72.0837 161.498C72.2901 161.234 72.4652 160.977 72.6091 160.727C72.7467 160.476 72.8155 160.213 72.8155 159.931C72.7842 159.404 72.6091 158.884 72.2713 158.382Z" fill="#FFCA00"/>
<path d="M97.0407 173.388C97.0282 173.35 97.0095 173.312 96.9907 173.275C96.9532 173.206 96.9094 173.143 96.8531 173.093C96.7655 173.011 96.6967 172.924 96.6467 172.823C96.5904 172.723 96.6029 172.566 96.6905 172.341C95.8523 172.171 95.0204 172.134 94.1822 172.215C93.3503 172.303 92.5247 172.447 91.7178 172.654C90.9109 172.861 90.0978 173.112 89.2721 173.388C88.4527 173.67 87.6333 173.901 86.8264 174.102C85.7131 174.409 84.6122 174.767 83.5238 175.174C82.4355 175.581 81.3534 175.945 80.2838 176.265C79.2079 176.584 78.1383 176.835 77.0625 177.017C75.9867 177.199 74.9233 177.236 73.86 177.123C75.7552 174.441 77.8381 172.134 80.1149 170.209C82.3854 168.279 84.8311 166.549 87.4519 165.013C87.7334 166.436 88.0837 167.339 88.5153 167.715C88.9469 168.091 89.4222 168.166 89.9351 167.947C90.448 167.721 90.986 167.282 91.5427 166.624C92.0993 165.972 92.6435 165.308 93.1752 164.631C93.6756 164.041 94.1635 163.465 94.6388 162.894C95.1142 162.324 95.502 161.753 95.8085 161.177C95.9899 160.845 96.1275 160.506 96.2151 160.168C96.2839 159.923 96.3277 159.685 96.3527 159.44C96.409 158.851 96.2651 158.256 95.9336 157.635C95.5145 156.852 94.9891 156.331 94.3636 156.062C93.7381 155.799 93.0438 155.717 92.2932 155.811C91.5427 155.911 90.7545 156.156 89.9289 156.544C89.1095 156.939 88.2838 157.384 87.4644 157.886C86.645 158.387 85.8507 158.914 85.0813 159.459C84.312 160.005 83.6239 160.5 83.0109 160.945C81.172 162.199 79.4144 163.49 77.7443 164.8C76.0742 166.116 74.6043 167.451 73.3533 168.824C72.6278 169.608 71.8772 170.366 71.0953 171.106C70.3134 171.845 69.6754 172.635 69.1688 173.475C68.6684 174.315 68.3994 175.237 68.3556 176.24C68.3119 177.243 68.6684 178.402 69.4252 179.719C69.4565 179.769 69.4878 179.819 69.5253 179.869C70.1195 180.797 70.8326 181.467 71.6645 181.875C72.5402 182.307 73.4659 182.546 74.4417 182.589C75.4175 182.633 76.4182 182.533 77.4503 182.295C78.4824 182.057 79.4832 181.768 80.4589 181.436C81.8225 180.96 83.2674 180.414 84.7873 179.8C86.3073 179.186 87.8085 178.54 89.3034 177.869C90.7921 177.199 92.1994 176.522 93.5255 175.838C94.8515 175.155 95.9836 174.491 96.9344 173.851C97.047 173.657 97.0845 173.507 97.0407 173.394V173.388Z" fill="#FFCA00"/>
<path d="M146.23 159.791C146.198 159.447 146.123 159.114 146.011 158.788C145.892 158.437 145.729 158.093 145.517 157.76C145.11 157.121 144.56 156.632 143.865 156.294C143.027 155.874 142.239 155.61 141.501 155.498C140.763 155.385 140.044 155.353 139.349 155.391C138.649 155.435 137.948 155.504 137.235 155.598C136.522 155.698 135.765 155.761 134.958 155.786C134.289 155.059 133.732 154.658 133.288 154.57C132.844 154.482 132.45 154.582 132.119 154.864C131.787 155.147 131.449 155.523 131.118 155.993C130.78 156.469 130.38 156.889 129.904 157.253C129.71 157.422 129.266 157.673 128.585 158.005C127.903 158.343 127.158 158.726 126.352 159.158C125.545 159.591 124.763 160.061 124.012 160.562C123.262 161.064 122.717 161.553 122.38 162.029C122.048 162.506 121.998 162.951 122.23 163.371C122.467 163.791 123.187 164.154 124.381 164.461C124.131 164.856 123.693 165.508 123.068 166.43C122.442 167.351 121.773 168.398 121.06 169.57C120.347 170.742 119.665 171.964 119.008 173.237C118.358 174.509 117.889 175.682 117.607 176.753C117.332 177.832 117.301 178.747 117.526 179.499C117.745 180.251 118.389 180.703 119.452 180.84C119.621 180.652 119.79 180.458 119.959 180.251C120.303 179.844 120.66 179.392 121.016 178.91C121.56 178.183 122.111 177.462 122.667 176.735C123.224 176.008 123.793 175.312 124.362 174.641C124.932 173.97 125.495 173.4 126.051 172.924C126.889 173.061 127.903 173.4 129.104 173.933C130.305 174.466 131.518 175.048 132.744 175.688C133.97 176.334 135.133 176.96 136.234 177.575C137.335 178.189 138.23 178.64 138.93 178.916C139.18 179.029 139.474 179.123 139.806 179.186C140.137 179.261 140.494 179.286 140.875 179.273C141.251 179.261 141.626 179.211 142.001 179.129C142.114 179.104 142.22 179.073 142.327 179.041C142.577 178.96 142.808 178.853 143.027 178.715C143.221 178.183 143.152 177.637 142.821 177.079C142.489 176.522 142.008 175.97 141.376 175.425C140.75 174.879 140.025 174.346 139.205 173.832C138.386 173.318 137.567 172.836 136.76 172.384C135.953 171.939 135.215 171.526 134.545 171.15C133.876 170.773 133.388 170.448 133.082 170.165C133.976 169.72 134.802 169.332 135.571 169.012C136.341 168.692 137.129 168.335 137.936 167.946C138.467 167.696 139.037 167.401 139.65 167.063C140.262 166.73 140.863 166.373 141.445 165.997C142.033 165.621 142.596 165.245 143.14 164.869C143.684 164.493 144.166 164.117 144.585 163.759C145.223 163.258 145.679 162.65 145.942 161.935C146.205 161.221 146.305 160.512 146.236 159.798L146.23 159.791ZM130.236 164.612C130.936 163.565 131.743 162.669 132.663 161.929C133.582 161.189 134.689 160.638 135.984 160.274C137.279 159.91 138.93 159.816 140.938 159.979C141.132 159.954 141.245 159.986 141.27 160.086C141.295 160.167 141.307 160.262 141.307 160.374C141.307 160.399 141.307 160.418 141.307 160.443C140.106 161.252 139.005 161.998 138.004 162.681C136.997 163.364 135.984 164.01 134.952 164.612C133.92 165.213 132.844 165.79 131.731 166.348C130.617 166.906 129.348 167.476 127.928 168.066C128.766 166.812 129.529 165.659 130.23 164.612H130.236Z" fill="#FFCA00"/>
<path d="M31.4207 154.511C31.2956 154.317 31.1142 154.21 30.8828 154.191C30.7577 154.179 30.6201 154.198 30.4699 154.241C30.0258 154.361 29.5254 154.661 28.9625 155.132C28.3996 155.608 27.8679 156.216 27.3738 156.968C27.2361 157.056 27.0422 157.156 26.7795 157.269C26.5231 157.382 26.3667 157.564 26.3292 157.814C26.0852 157.996 25.9226 158.197 25.835 158.422C25.7475 158.654 25.6849 158.867 25.6349 159.062C25.5848 159.262 25.5411 159.4 25.4848 159.488C25.4347 159.576 25.3221 159.551 25.147 159.419L22.3073 163.08C22.1509 163.312 22.0383 163.5 21.957 163.644C21.8819 163.788 21.8319 163.901 21.8069 163.989C21.7819 164.076 21.7693 164.145 21.7568 164.202C21.7443 164.258 21.713 164.315 21.6568 164.371C21.0625 165.405 20.3495 166.446 19.5051 167.493C18.6606 168.54 17.9851 169.536 17.4722 170.483C16.8342 171.185 16.2588 171.874 15.7333 172.558C15.2079 173.241 14.6637 173.886 14.1133 174.501C13.5566 175.115 12.9436 175.698 12.2681 176.243C11.5988 176.795 10.7982 177.284 9.87248 177.723C9.87248 177.61 9.83495 177.541 9.77865 177.516C9.72236 177.491 9.67857 177.453 9.6473 177.397C9.53471 176.231 9.55973 175.14 9.72236 174.143C9.88499 173.14 10.1289 172.181 10.4479 171.26C10.7669 170.339 11.136 169.411 11.5488 168.483C11.9679 167.555 12.3557 166.565 12.7247 165.512C12.7748 165.318 12.8686 165.042 13.0187 164.703C13.1688 164.359 13.3377 164.033 13.5128 163.713C13.7693 163.305 14.0007 162.973 14.2009 162.716C14.3948 162.453 14.5199 162.183 14.5574 161.901C14.5637 161.456 14.2384 161.024 13.5754 160.604C12.9124 160.19 12.1805 159.889 11.3799 159.701C11.0609 159.626 10.7482 159.582 10.4354 159.57C9.97256 159.544 9.51595 159.595 9.07185 159.707C8.34002 159.895 7.90843 160.372 7.77708 161.13C7.02649 162.34 6.36972 163.644 5.80678 165.042C5.24383 166.44 4.80599 167.9 4.48699 169.43C4.34312 169.912 4.21803 170.502 4.11169 171.21C4.00536 171.912 3.92404 172.639 3.86149 173.385C3.79895 174.131 3.77393 174.852 3.77393 175.548C3.77393 176.25 3.83648 176.814 3.93655 177.259C4.15548 178.337 4.70591 179.277 5.60036 180.073C6.45103 180.838 7.42055 181.402 8.5089 181.766C8.55894 181.778 8.60898 181.797 8.65277 181.816C9.80367 182.179 11.0046 182.317 12.2744 182.23C13.5379 182.142 14.6575 181.753 15.627 181.064C16.3025 180.612 16.903 180.029 17.4284 179.321C17.9538 178.606 18.4918 177.936 19.0485 177.296C19.6302 176.626 20.2056 175.98 20.7748 175.366C21.344 174.751 21.8444 174.156 22.2572 173.573C22.8827 172.677 23.4832 171.743 24.0461 170.759C24.6091 169.781 25.172 168.803 25.7225 167.825C26.2729 166.847 26.8421 165.875 27.4238 164.91C28.0055 163.945 28.6247 163.017 29.2815 162.114C29.1877 161.895 29.1689 161.669 29.2252 161.425C29.2815 161.187 29.3691 160.936 29.4817 160.679C29.5943 160.422 29.7256 160.171 29.8632 159.927C30.0008 159.682 30.1134 159.432 30.1822 159.175C30.5387 158.485 30.7639 157.896 30.8515 157.401C30.9391 156.912 31.1017 156.486 31.3331 156.141C31.5771 155.345 31.5958 154.799 31.4019 154.505L31.4207 154.511Z" fill="#FFCA00"/>
<path d="M8.51476 181.763C7.42641 181.399 6.45689 180.829 5.60622 180.07C4.71802 179.274 4.16134 178.34 3.94241 177.256C3.83608 176.811 3.78604 176.247 3.77979 175.545C3.77979 174.843 3.8048 174.122 3.86735 173.382C3.9299 172.636 4.01747 171.915 4.11755 171.207C4.22388 170.505 4.34898 169.909 4.49285 169.427C4.81185 167.904 5.24969 166.443 5.81264 165.039C6.37558 163.641 7.02609 162.337 7.78294 161.128C7.91429 160.369 8.34588 159.893 9.07771 159.705C9.52181 159.592 9.97216 159.548 10.4413 159.567C9.53432 160.745 6.65705 164.863 6.00654 170.348C5.43734 175.162 6.09411 178.823 8.52102 181.763H8.51476Z" fill="#FFFF00"/>
<path d="M30.8828 154.199C30.3887 154.619 29.9509 155.033 29.6256 155.422C27.9868 157.384 20.0931 169.024 16.2463 173.512C12.3995 178 9.87256 177.737 9.87256 177.737C10.7983 177.298 11.5989 176.809 12.2682 176.257C12.9437 175.706 13.5567 175.129 14.1134 174.515C14.6701 173.901 15.208 173.255 15.7334 172.572C16.2588 171.888 16.8405 171.199 17.4723 170.497C17.9852 169.55 18.6607 168.554 19.5051 167.507C20.3496 166.46 21.0626 165.42 21.6568 164.385C21.7131 164.323 21.7444 164.266 21.7569 164.216C21.7694 164.16 21.7882 164.091 21.807 164.003C21.832 163.915 21.882 163.802 21.9571 163.658C22.0321 163.514 22.151 163.326 22.3073 163.094L25.1471 159.433C25.316 159.565 25.4286 159.59 25.4848 159.502C25.5349 159.414 25.5849 159.277 25.635 159.076C25.685 158.882 25.7476 158.669 25.8351 158.437C25.9227 158.211 26.0853 158.004 26.3293 157.829C26.373 157.572 26.5232 157.396 26.7796 157.283C27.0423 157.17 27.2362 157.076 27.3738 156.982C27.868 156.23 28.3996 155.616 28.9626 155.146C29.5255 154.669 30.0259 154.375 30.47 154.256C30.6201 154.218 30.764 154.199 30.8828 154.205V154.199Z" fill="#FFFF00"/>
<path d="M40.5155 156.905C37.9259 160.403 27.1737 175.102 23.8211 182.662C23.7022 182.574 23.5959 182.474 23.4896 182.373C23.1393 182.029 22.9579 181.584 22.9329 181.057C22.9141 180.612 23.0142 180.104 23.2269 179.534C23.4395 178.963 23.7148 178.393 24.0338 177.823C24.359 177.252 24.7155 176.682 25.0971 176.124C25.4786 175.566 25.8164 175.065 26.1041 174.638C27.3927 172.739 28.6937 170.808 29.9947 168.84C31.2957 166.878 32.5842 165.054 33.854 163.38C34.5108 162.434 35.1362 161.481 35.7305 160.516C36.3184 159.557 36.9627 158.698 37.657 157.946C38.0573 157.482 38.5139 157.181 39.0206 157.031C39.5084 156.893 40.0026 156.849 40.503 156.899L40.5155 156.905Z" fill="#FFFF00"/>
<path d="M62.1767 152.746C58.5363 156.965 50.2736 166.505 47.1649 170.034C43.1179 174.61 41.2915 173.413 41.2915 173.413C41.6043 173.544 42.1172 173.3 42.8302 172.704C43.5433 172.103 44.4065 171.256 45.4072 170.172C46.408 169.081 47.5214 167.815 48.7474 166.367C49.9733 164.919 51.2368 163.434 52.5441 161.898C53.8514 160.362 55.1774 158.858 56.5285 157.378C57.8796 155.899 59.1868 154.576 60.4503 153.411C60.8006 153.116 61.2385 152.922 61.7639 152.834C61.914 152.809 62.0516 152.784 62.1704 152.759L62.1767 152.746Z" fill="#FFFF00"/>
<path d="M69.4067 156.474C67.8617 158.981 61.5442 169.399 59.2987 175.316C58.3855 177.73 57.6787 179.616 57.147 181.045C56.7905 180.97 56.3964 180.839 55.9648 180.638C56.6341 178.181 57.4097 175.956 58.2854 173.956C59.1674 171.963 60.1119 170.045 61.1314 168.22C62.151 166.39 63.2206 164.553 64.3527 162.711C65.4786 160.868 66.6608 158.868 67.8867 156.718C68.3684 156.48 68.8813 156.398 69.4129 156.48L69.4067 156.474Z" fill="#FFFF00"/>
<path d="M96.3532 159.431C96.3282 159.676 96.2844 159.92 96.2156 160.159C96.2156 160.159 93.0631 155.426 87.146 159.895C81.2351 164.365 75.5243 167.775 71.8965 173.541C70.3953 175.936 69.7573 178.117 69.5259 179.86C69.4883 179.81 69.4633 179.76 69.4258 179.709C68.6752 178.399 68.3187 177.24 68.3562 176.231C68.4 175.221 68.6689 174.3 69.1693 173.466C69.6697 172.633 70.314 171.843 71.0959 171.097C71.8777 170.357 72.6283 169.599 73.3539 168.815C74.6049 167.449 76.0748 166.107 77.7448 164.791C79.4149 163.481 81.1725 162.196 83.0115 160.936C83.6245 160.491 84.3125 159.996 85.0819 159.45C85.8512 158.905 86.6393 158.385 87.465 157.877C88.2844 157.375 89.11 156.93 89.9294 156.535C90.7488 156.147 91.5369 155.902 92.2938 155.802C93.0444 155.702 93.7387 155.79 94.3642 156.053C94.9897 156.322 95.5151 156.843 95.9342 157.626C96.2657 158.24 96.4095 158.842 96.3532 159.431Z" fill="#FFFF00"/>
<path d="M96.9907 173.28C96.3652 173.449 95.8898 173.55 95.8898 173.55C95.8898 173.55 90.8421 173.38 83.38 176.496C75.9178 179.611 73.8662 177.116 73.8662 177.116C74.9233 177.229 75.9929 177.192 77.0687 177.01C78.1383 176.828 79.2142 176.577 80.29 176.258C81.3596 175.938 82.4417 175.574 83.5301 175.167C84.6184 174.759 85.7193 174.402 86.8327 174.095C87.6396 173.901 88.459 173.662 89.2784 173.38C90.0977 173.098 90.9171 172.854 91.724 172.647C92.5309 172.44 93.3566 172.29 94.1885 172.208C95.0266 172.12 95.8585 172.164 96.6967 172.334C96.6091 172.559 96.5966 172.716 96.6529 172.816C96.7092 172.916 96.778 173.004 96.8593 173.086C96.9156 173.142 96.9594 173.205 96.9969 173.268L96.9907 173.28Z" fill="#FFFF00"/>
<path d="M119.59 161.807C119.227 160.729 118.714 159.839 118.045 159.124C117.376 158.41 116.6 157.921 115.725 157.657C114.843 157.394 113.973 157.426 113.11 157.764C113.11 157.764 113.104 157.764 113.098 157.758C113.091 157.758 113.073 157.745 113.06 157.733C112.829 157.595 112.616 157.413 112.422 157.175C112.216 156.924 111.997 156.692 111.771 156.485C111.553 156.278 111.309 156.115 111.04 156.003C110.777 155.89 110.464 155.89 110.101 156.003C108.431 156.673 106.918 157.689 105.567 159.043C104.216 160.397 102.783 162.077 101.282 164.089C100.613 164.985 99.8996 165.881 99.1491 166.79C98.3985 167.699 97.7167 168.633 97.1037 169.599C96.4907 170.564 95.9903 171.554 95.5963 172.576C95.2084 173.598 95.0271 174.651 95.0521 175.735C95.0771 177.02 95.321 178.048 95.7651 178.813C96.2092 179.584 96.7784 180.142 97.4602 180.493C97.6416 180.587 97.8355 180.668 98.0357 180.737C98.5736 180.932 99.1616 181.038 99.7996 181.057C100.682 181.082 101.563 180.994 102.458 180.788C103.352 180.581 104.209 180.299 105.047 179.948C105.886 179.603 106.605 179.233 107.218 178.838C108.225 178.224 109.251 177.559 110.314 176.851C111.371 176.136 112.384 175.403 113.341 174.632C114.298 173.861 115.193 173.09 116.019 172.307C116.838 171.523 117.501 170.758 118.001 170C118.395 169.385 118.771 168.627 119.152 167.712C119.528 166.803 119.772 166.019 119.884 165.349C120.053 164.064 119.953 162.885 119.59 161.807ZM101.832 175.228C101.832 175.228 101.807 175.228 101.789 175.228C101.101 175.184 100.6 174.375 101.032 173.704C102.289 171.78 103.571 169.899 104.891 168.075C106.743 165.505 108.825 163.186 111.146 161.124C111.365 161.099 111.528 161.124 111.621 161.212C111.721 161.293 111.797 161.406 111.853 161.544C111.909 161.682 111.959 161.826 111.997 161.964C112.04 162.102 112.128 162.183 112.266 162.214C112.547 162.246 112.81 162.315 113.06 162.421C113.31 162.534 113.548 162.653 113.773 162.779C113.998 162.904 114.23 163.023 114.461 163.136C114.699 163.249 114.955 163.318 115.237 163.343C114.987 164.321 114.636 165.173 114.192 165.9C113.748 166.627 113.254 167.279 112.71 167.869C112.166 168.458 111.571 169.009 110.933 169.523C110.289 170.037 109.651 170.564 109.007 171.097C107.612 172.156 106.123 173.134 104.535 174.03C103.784 174.457 103.015 174.833 102.22 175.159C102.101 175.209 101.983 175.234 101.864 175.234C101.845 175.234 101.832 175.234 101.82 175.234L101.832 175.228Z" fill="#FFCA00"/>
<path d="M113.06 157.727C112.841 157.633 111.884 157.439 108.763 158.968C105.104 160.774 100.55 168.471 98.0293 172.163C95.5023 175.861 98.0293 180.726 98.0293 180.726C97.8292 180.657 97.6415 180.575 97.4539 180.481C96.7721 180.13 96.2029 179.572 95.7588 178.801C95.3147 178.037 95.077 177.009 95.0457 175.724C95.0207 174.633 95.2021 173.58 95.5899 172.564C95.984 171.543 96.4844 170.552 97.0973 169.587C97.7103 168.628 98.3921 167.688 99.1427 166.779C99.8933 165.87 100.606 164.973 101.276 164.077C102.783 162.065 104.209 160.385 105.56 159.031C106.911 157.677 108.425 156.662 110.095 155.991C110.458 155.878 110.771 155.878 111.033 155.991C111.302 156.104 111.546 156.26 111.765 156.474C111.984 156.68 112.203 156.912 112.416 157.163C112.61 157.395 112.822 157.583 113.054 157.721L113.06 157.727Z" fill="#FFFF00"/>
<path d="M146.011 158.787C142.214 155.646 140.275 156.06 134.771 156.749C132.525 154.838 131.787 156.706 131.162 157.477C130.536 158.248 126.458 159.984 124.531 161.1C121.248 162.999 125.77 163.983 125.77 163.983C122.311 169.18 119.415 173.837 118.42 176.401C117.088 179.861 119.959 180.256 119.959 180.256C119.79 180.463 119.615 180.657 119.452 180.845C118.395 180.707 117.751 180.256 117.526 179.504C117.301 178.751 117.332 177.836 117.607 176.758C117.889 175.686 118.358 174.508 119.008 173.241C119.665 171.969 120.347 170.747 121.06 169.574C121.773 168.402 122.436 167.355 123.068 166.434C123.693 165.513 124.137 164.854 124.381 164.466C123.18 164.159 122.467 163.795 122.23 163.375C121.992 162.955 122.042 162.51 122.38 162.034C122.711 161.557 123.255 161.068 124.012 160.567C124.763 160.065 125.545 159.595 126.352 159.163C127.158 158.73 127.903 158.348 128.585 158.009C129.266 157.677 129.71 157.426 129.904 157.257C130.38 156.894 130.78 156.474 131.118 155.997C131.449 155.521 131.787 155.145 132.119 154.869C132.45 154.593 132.844 154.493 133.288 154.574C133.732 154.656 134.295 155.063 134.958 155.79C135.765 155.765 136.528 155.703 137.235 155.602C137.948 155.502 138.649 155.433 139.349 155.395C140.044 155.352 140.763 155.389 141.501 155.502C142.239 155.615 143.027 155.878 143.865 156.298C144.56 156.63 145.11 157.119 145.517 157.765C145.723 158.097 145.892 158.442 146.011 158.793V158.787Z" fill="#FFFF00"/>
<path d="M142.333 179.033C142.227 179.071 142.12 179.096 142.008 179.121C141.632 179.209 141.257 179.259 140.882 179.265C140.506 179.278 140.15 179.253 139.812 179.177C139.481 179.108 139.187 179.014 138.937 178.908C138.236 178.632 137.342 178.181 136.241 177.566C135.14 176.952 133.976 176.325 132.75 175.68C131.524 175.04 130.311 174.451 129.11 173.924C127.909 173.398 126.896 173.059 126.058 172.915C126.058 172.915 127.59 172.025 131.424 174.194C135.259 176.363 137.942 177.924 139.868 178.406C141.057 178.707 142.245 178.764 142.333 179.027V179.033Z" fill="#FFFF00"/>
<path d="M142.333 160.472C142.214 160.979 135.396 165.511 132.625 166.872C129.854 168.232 127.94 168.063 127.94 168.063C129.36 167.473 130.63 166.903 131.743 166.345C132.856 165.787 133.932 165.21 134.964 164.609C135.996 164.007 137.01 163.368 138.017 162.678C139.017 161.995 140.118 161.249 141.319 160.44C141.319 160.415 141.319 160.39 141.319 160.371C141.901 160.277 142.389 160.258 142.339 160.478L142.333 160.472Z" fill="#FFFF00"/>
<path d="M179.731 151.84C180.075 151.928 180.356 151.965 180.581 151.965C180.807 151.965 180.982 151.978 181.107 152.009C181.238 152.04 181.326 152.116 181.376 152.241C181.426 152.36 181.438 152.592 181.407 152.931C180.882 154.122 180.394 155.118 179.943 155.927C179.487 156.735 179.036 157.456 178.58 158.089C178.123 158.729 177.66 159.33 177.191 159.901C176.716 160.471 176.197 161.104 175.621 161.813C175.046 162.515 174.42 163.348 173.738 164.314C173.057 165.279 172.287 166.483 171.418 167.918C169.585 170.219 167.971 172.362 166.57 174.349C165.175 176.336 163.762 178.073 162.342 179.552C161.616 180.279 160.872 180.687 160.109 180.774C159.346 180.862 158.62 180.718 157.938 180.336C157.25 179.953 156.612 179.383 156.024 178.618C155.437 177.853 154.961 176.988 154.605 176.017C154.248 175.051 154.029 174.023 153.948 172.939C153.867 171.855 153.96 170.795 154.248 169.767C153.41 170.532 152.634 171.491 151.915 172.638C151.196 173.785 150.501 175.02 149.832 176.33C149.163 177.64 148.506 178.975 147.856 180.329C147.205 181.683 146.536 182.95 145.841 184.122C145.46 184.235 144.997 184.278 144.447 184.253C143.896 184.228 143.377 184.122 142.87 183.934C142.37 183.752 141.932 183.489 141.576 183.15C141.213 182.818 141.013 182.379 140.969 181.853C140.931 181.408 141.013 180.9 141.207 180.323C141.4 179.746 141.651 179.17 141.951 178.587C142.257 178.004 142.589 177.421 142.945 176.85C143.308 176.274 143.621 175.766 143.896 175.327C145.116 173.384 146.336 171.403 147.568 169.391C148.794 167.379 150.013 165.511 151.221 163.787C151.846 162.816 152.434 161.838 152.985 160.854C153.535 159.87 154.148 158.992 154.811 158.208C155.193 157.732 155.637 157.406 156.143 157.243C156.65 157.08 157.169 157.017 157.701 157.061C158.232 157.105 158.745 157.224 159.24 157.425C159.727 157.626 160.14 157.864 160.472 158.146C160.503 159.236 160.403 160.415 160.178 161.675C159.953 162.941 159.727 164.232 159.496 165.555C159.265 166.878 159.077 168.206 158.946 169.548C158.814 170.889 158.839 172.212 159.021 173.516C159.34 173.635 159.84 173.378 160.534 172.745C161.229 172.118 162.054 171.24 163.011 170.112C163.974 168.984 165.038 167.68 166.207 166.188C167.377 164.696 168.584 163.16 169.835 161.575C171.08 159.995 172.35 158.434 173.645 156.905C174.939 155.375 176.19 154.002 177.41 152.786C177.748 152.479 178.179 152.272 178.705 152.16C179.224 152.047 179.568 151.946 179.731 151.846V151.84Z" fill="#FFCA00"/>
<path d="M157.802 156.905C155.212 160.403 144.46 175.102 141.107 182.662C140.988 182.574 140.882 182.474 140.776 182.373C140.425 182.029 140.244 181.584 140.219 181.057C140.2 180.612 140.3 180.104 140.513 179.534C140.726 178.963 141.001 178.393 141.32 177.823C141.645 177.252 142.002 176.682 142.383 176.124C142.765 175.566 143.103 175.065 143.39 174.638C144.679 172.739 145.98 170.808 147.281 168.84C148.582 166.878 149.87 165.054 151.14 163.38C151.797 162.434 152.422 161.481 153.017 160.516C153.605 159.557 154.249 158.698 154.943 157.946C155.343 157.482 155.8 157.181 156.307 157.031C156.795 156.893 157.289 156.849 157.789 156.899L157.802 156.905Z" fill="#FFFF00"/>
<path d="M178.736 152.031C175.29 156.407 167.465 166.317 164.519 169.977C160.684 174.735 158.802 173.613 158.802 173.613C159.121 173.726 159.621 173.469 160.309 172.836C160.997 172.203 161.817 171.319 162.774 170.184C163.724 169.05 164.781 167.733 165.939 166.235C167.096 164.737 168.297 163.189 169.529 161.597C170.761 160.005 172.025 158.444 173.307 156.902C174.589 155.366 175.834 153.981 177.047 152.758C177.385 152.451 177.81 152.238 178.336 152.125C178.486 152.094 178.617 152.063 178.736 152.031Z" fill="#FFFF00"/>
<path d="M115.756 165.726C115.13 167.456 113.241 169.079 109.426 172.17C105.948 174.984 102.47 175.203 101.876 175.216C101.989 175.216 102.107 175.191 102.233 175.141C103.021 174.809 103.79 174.432 104.547 174.012C106.136 173.122 107.624 172.145 109.019 171.079C109.657 170.552 110.301 170.026 110.946 169.506C111.584 168.992 112.178 168.434 112.722 167.851C113.266 167.268 113.76 166.61 114.204 165.882C114.649 165.155 114.999 164.303 115.249 163.325C116.362 163.181 116.387 163.989 115.762 165.719L115.756 165.726Z" fill="#FFFF00"/>
<path d="M117.814 98.1943C117.814 98.1943 140.245 85.8562 140.245 78.245C140.245 73.4254 132.356 75.1919 109.991 77.5526C109.991 77.5526 121.231 86.9793 117.814 98.1888V98.1943Z" fill="#010101"/>
<path d="M93.0387 79.9976C92.7231 80.2102 73.6326 99.3417 73.6326 99.3417L66.2935 97.9623L86.7006 79.207L93.0387 79.9976Z" fill="#4481C9"/>
<path d="M110.676 78.6836C110.361 78.8962 96.0686 94.74 96.0686 94.74L91.7217 92.1557L104.344 78.7654L110.682 78.6836H110.676Z" fill="#FFCA00"/>
<path d="M125.115 78.6836C124.8 78.8962 107.456 98.8291 107.456 98.8291L101.194 99.0745L116.449 78.7981L125.115 78.689V78.6836Z" fill="#FFCA00"/>
<path d="M77.4138 78.4844C77.0982 78.697 58.6279 95.8003 58.6279 95.8003L53.7642 93.6303L68.7471 78.5989L77.4138 78.4898V78.4844Z" fill="#4481C9"/>
<path d="M133.358 75.48C133.358 75.48 128.483 73.1738 128.054 73.0484C127.624 72.923 120.459 70.1533 119.392 71.3855C118.326 72.6177 124.392 76.6904 124.392 76.6904C124.392 76.6904 128.054 76.505 128.239 76.6904C128.423 76.8757 133.358 75.48 133.358 75.48Z" fill="#010101"/>
<path d="M56.283 94.812L70.08 81.4489L73.0069 78.7501L68.8504 78.2812L54.5366 92.9092L56.283 94.812Z" fill="#00A0FF"/>
<path d="M69.895 98.8237L87.9247 81.4478L90.3565 79.207L86.3469 79.2288L66.2935 97.9623L69.895 98.8237Z" fill="#00A0FF"/>
<path d="M92.5488 94.7346L104.181 81.4478L106.612 79.207L102.603 79.2288L88.9473 93.8786L92.5488 94.7346Z" fill="#FFFF00"/>
<path d="M103.484 99.6143L117.793 81.4478L120.225 79.207L116.215 79.2288L99.8828 98.7528L103.484 99.6143Z" fill="#FFFF00"/>
<path d="M88.3708 24.9843L91.7167 26.6636H96.7872L100.041 24.4609L101.281 30.0166L101.711 34.5746L97.217 36.1666L92.0975 37.1098L87.4623 36.3956L85.9771 34.4274L87.0053 29.2533L88.3708 24.9843Z" fill="#4481C9"/>
<path d="M101.71 34.8555L102.238 43.726L98.7449 45.3998L94.4904 47.0791L88.4135 46.8883L83.2505 45.5907L84.344 40.9673L86.2155 34.8555L89.6104 36.4366L96.498 36.7746L100.083 35.1444L101.71 34.8555Z" fill="#FFCA00"/>
<path d="M99.2239 16.114H95.1326L90.8564 15.3943L92.1948 10.4111L95.0401 0.488281L95.9269 1.20796L98.7451 9.98039L99.2239 16.114Z" fill="#4481C9"/>
<path d="M99.2737 15.3945L100.041 24.4505L98.3271 25.7099L95.6885 26.6586L91.9509 26.3205L88.3711 25.4591C88.3711 25.4591 89.0403 22.2478 89.1382 22.0079C89.2361 21.768 90.8574 15.3945 90.8574 15.3945L93.3926 16.883L96.7875 16.5722L97.8864 15.9234L99.2737 15.3945Z" fill="#FFCA00"/>
<path d="M102.587 43.5664L103.528 54.1762L100.378 55.5065L95.5636 57.2294H91.0861L86.4182 56.1935L81.3042 54.1762L82.3379 48.5551L83.5185 45.4038L87.8436 47.0285L92.1851 46.7831L96.7931 46.3415L100.83 45.0003L102.587 43.5664Z" fill="#4481C9"/>
<path d="M103.207 54.3711L103.979 62.5547L102.559 64.3539L100.231 66.0768L95.5138 68.9009H89.1213L83.5666 67.418L80.5145 65.03L79.3013 62.7946L80.2969 57.8604L80.8572 54.3711L84.0072 56.203L87.2008 56.6828L91.749 57.4025L95.0187 57.288L97.9239 56.6828L100.329 56.0885L102.2 55.1725L103.207 54.3711Z" fill="#FFCA00"/>
<path d="M84.9488 68.2358L87.6853 56.312L81.6247 54.3711L78.8936 63.5688L84.9488 68.2358Z" fill="#FFFF00"/>
<path d="M85.1388 56.0279L87.1028 46.6939L82.7341 44.9492L80.7646 54.0379L85.1388 56.0279Z" fill="#00A0FF"/>
<path d="M89.8126 36.4318L91.5372 27.0978L87.7071 25.3477L85.9771 34.4363L89.8126 36.4318Z" fill="#00A0FF"/>
<path d="M93.8056 16.114L96.2266 2.97444L95.0406 0.488281L90.748 14.5274L93.8056 16.114Z" fill="#00A0FF"/>
<path d="M89.9492 46.7066L91.5976 37.1054L85.9777 35.5625L83.7852 45.3381L89.9492 46.7066Z" fill="#FFFF00"/>
<path d="M93.3763 26.4566L95.1227 16.8718L91.4014 15.3125L87.9521 24.8973L93.3763 26.4566Z" fill="#FFFF00"/>
<path d="M61.3208 77.5626L84.323 79.4491L122.482 77.9061C122.482 77.9061 115.948 53.6333 111.003 49.457C108.217 54.5602 107.467 65.6116 103.958 69.9787C79.4973 75.2618 77.8489 67.6016 75.7108 60.7047C74.0841 55.4543 75.9991 48.9336 72.1473 51.9105C68.241 54.9309 63.4698 69.2809 63.4698 69.2809L61.3262 77.5626H61.3208Z" fill="#FF4543"/>
<path d="M69.4327 77.9736L72.6861 65.6464C72.6861 65.6464 74.291 59.1802 74.5848 58.7441C74.8731 58.3079 76.5869 50.9421 76.5869 50.9421L75.2648 50.4023L68.2031 56.3179L62.6865 77.652L69.4327 77.9791V77.9736Z" fill="#FF0000"/>
<path d="M79.5679 139.134L87.8754 138.044L97.5377 134.533L106.101 131.082L108.44 130.215L105.872 134.784L96.9338 143.998L92.761 146.5L85.362 145.584L78.9531 140.508L79.5679 139.134Z" fill="#FFCA00"/>
<path d="M108.016 130.086L109.55 109.946L114.104 98.8074L102.87 100.067L97.6358 96.5884L91.7819 91.2617L81.1622 100.737L62.5396 97.2536L68.9702 105.437L72.8982 132.91L77.3865 137.73C77.3865 137.73 78.9588 140.663 87.8811 138.041L108.022 130.081L108.016 130.086Z" fill="#4481C9"/>
<path d="M85.1605 138.849L78.0498 139.285L74.2197 133.686L71.6573 118.294L70.0143 109.146L68.6106 105.918L63.8394 98.9122L64.1821 98.3125H69.5899L72.4244 102.723C73.8987 105.013 75.0031 107.521 75.6995 110.16L77.7451 117.875L78.9638 125.715C79.6275 129.995 81.3848 134.035 84.056 137.442L85.155 138.843L85.1605 138.849Z" fill="#00A0FF"/>
<path d="M104.764 135.84L95.1069 145.555L90.847 146.504L82.1477 144.225L78.2959 139.645L80.064 139.166C80.064 139.166 85.6024 139.416 86.0485 139.547L88.2628 140.883C89.8677 141.854 94.454 141.674 96.0426 140.67C96.1134 140.627 100.226 138.648 100.297 138.599L104.769 135.84H104.764Z" fill="#FFFF00"/>
<path d="M83.9364 42.3047L77.9846 65.318L75.0413 58.1594C75.0413 58.1594 74.5517 52.1948 74.6931 51.9167C74.8346 51.6387 77.4242 46.0448 77.4242 46.0448L82.3642 42.6918L83.9364 42.3047Z" fill="#010101"/>
<path d="M104.833 66.5814L102.831 41.8125L105.709 42.6903L110.469 45.738C110.469 45.738 112.151 48.5458 112.08 48.8948C112.009 49.2437 110.747 52.684 110.747 52.684L109.909 54.3687L109.349 56.0534L108.571 56.1297L108.435 61.958L107.037 66.0035L105.704 67.4865L104.828 66.5705L104.833 66.5814Z" fill="#010101"/>
<path d="M125.806 79.9966C125.61 79.6477 125.523 79.2442 125.382 78.8626C125.289 78.6663 125.262 78.4537 125.164 78.252C124.707 77.3524 124.212 76.4637 123.891 75.4986C123.848 75.3623 123.673 75.2533 123.483 75.2097C123.483 75.2097 123.483 75.2097 123.478 75.2097C123.418 75.1933 123.303 75.1879 123.303 75.1879C123.216 75.1879 122.754 74.7353 122.732 74.4409C122.683 73.8412 122.58 73.2197 122.411 72.6199C122.406 72.5927 122.4 72.5654 122.389 72.5436C122.02 71.9766 121.976 71.306 121.829 70.6681C121.541 69.4195 121.307 68.1601 121.051 66.9007C120.61 66.181 120.425 65.3523 119.99 64.6217C119.588 63.9511 119.43 63.1496 118.995 62.4899C118.973 62.4572 118.951 62.4245 118.929 62.3972C118.929 62.3972 118.913 62.37 118.902 62.3591C118.875 62.2936 118.837 62.2391 118.799 62.1846C118.799 62.1846 118.799 62.1846 118.799 62.1792C118.788 62.1573 118.782 62.1355 118.772 62.1137C118.772 62.1137 118.772 62.1137 118.772 62.1083C118.646 61.8193 118.521 61.5413 118.391 61.2577C118.374 61.2305 118.364 61.2032 118.358 61.176C118.026 60.4617 117.678 59.7639 117.324 59.066C116.944 58.3191 116.633 57.5503 116.231 56.8143C115.447 55.3749 114.903 53.8102 114.087 52.3763C114.071 52.3545 114.06 52.3327 114.049 52.3054C114.049 52.2999 114.049 52.2945 114.049 52.289C114 52.0219 113.696 51.8474 113.777 51.5148C113.799 51.4222 113.641 51.4603 113.554 51.444C113.554 51.444 113.549 51.444 113.543 51.444C113.451 51.3404 113.38 51.2313 113.309 51.1114C113.19 50.9097 113.097 50.6861 112.983 50.4844C112.967 50.4571 112.95 50.4244 112.939 50.3917C112.939 50.3863 112.939 50.3808 112.934 50.3699C112.934 50.3644 112.934 50.359 112.934 50.3535C112.934 50.3535 112.934 50.3481 112.934 50.3426C112.918 50.2718 112.929 50.2009 112.999 50.1409C113.13 50.0264 113.211 49.901 113.271 49.7647C113.288 49.7265 113.299 49.6884 113.315 49.6448C113.315 49.6393 113.315 49.6339 113.315 49.6284C113.326 49.5957 113.331 49.563 113.337 49.5303C113.364 49.3831 113.38 49.2359 113.386 49.0887C113.386 49.0232 113.391 48.9633 113.396 48.8978C113.396 48.7888 113.402 48.6688 113.347 48.5762C112.749 47.5566 112.167 46.5207 111.264 45.7193C111.139 45.6048 110.975 45.5502 110.839 45.4357C109.517 44.2472 108.13 43.1404 106.503 42.3826C106.498 42.3826 106.487 42.3771 106.482 42.3717C106.014 42.1917 105.524 42.0827 105.062 41.881C105.04 41.8755 105.024 41.8646 105.007 41.8537C104.975 41.8374 104.937 41.8265 104.904 41.8101C104.762 41.8046 104.626 41.7447 104.48 41.7556C104.414 41.7556 104.354 41.7556 104.289 41.7501C104.197 41.7392 104.104 41.7283 104.012 41.7338C103.952 41.7338 103.892 41.7447 103.832 41.7556C103.729 41.7828 103.636 41.8319 103.587 41.9518C103.517 42.1263 103.636 42.2517 103.74 42.3662C103.963 42.6116 104.229 42.8078 104.507 42.9768C106.014 43.9092 107.417 44.9778 108.788 46.09C108.81 46.1064 108.832 46.1227 108.854 46.1391C108.897 46.199 108.946 46.2645 108.979 46.3244C108.984 46.3353 108.995 46.3462 109.001 46.3517C109.066 46.4444 109.126 46.5371 109.18 46.6298C109.196 46.657 109.213 46.6843 109.229 46.7115C109.229 46.7115 109.229 46.717 109.235 46.7224C109.458 47.0986 109.648 47.4912 109.838 47.8892C109.909 48.0364 109.974 48.1782 110.045 48.3254C110.045 48.3254 110.045 48.3308 110.051 48.3363C110.138 48.5216 110.23 48.7125 110.328 48.8924C110.388 49.0069 110.421 49.1214 110.355 49.225C110.355 49.2304 110.35 49.2359 110.344 49.2413C110.344 49.2413 110.339 49.2468 110.333 49.2577C110.317 49.274 110.301 49.2958 110.279 49.3122C110.236 49.3394 110.192 49.3558 110.143 49.3613C109.931 49.3994 109.67 49.3285 109.561 49.623C109.387 50.0918 109.273 50.588 109.262 51.0732C109.251 51.3731 109.305 51.6566 109.398 51.9347C109.409 51.9619 109.419 51.9837 109.425 52.011C109.463 52.1255 109.512 52.24 109.566 52.3545C109.572 52.3654 109.577 52.3763 109.583 52.3872C109.708 52.6543 109.855 52.9106 109.996 53.1614C110.143 53.4122 110.323 53.5703 110.513 53.6412C110.633 53.6848 110.752 53.6902 110.878 53.6684H110.883C111.117 53.6139 111.34 53.4394 111.519 53.145C111.563 53.0687 111.607 53.0305 111.656 53.0196C111.704 53.0087 111.753 53.0196 111.819 53.0578C111.851 53.0741 111.879 53.0959 111.906 53.1178C111.987 53.1886 112.047 53.2704 112.118 53.3467C112.667 53.6194 112.967 54.1046 113.206 54.6498C113.527 55.364 113.864 56.0728 114.174 56.7925C115.165 59.0606 116.166 61.3286 117.161 63.5967C117.635 64.6708 118.053 65.7721 118.614 66.808C119.43 68.3237 119.996 69.9048 120.121 71.6549C120.186 72.5545 120.257 73.465 120.398 74.3592C120.507 75.0298 120.649 75.684 120.844 76.3274C120.926 76.5945 120.85 76.6872 120.572 76.7145C118.957 76.8835 117.33 76.9107 115.714 77.0579C113.902 77.2215 112.074 77.1125 110.252 77.2433C108.277 77.3851 106.28 77.2706 104.3 77.3633C103.081 77.4178 101.863 77.2978 100.644 77.456C99.7028 77.5759 98.7616 77.7504 97.8204 77.8103C95.8619 77.9303 93.8924 77.8976 91.923 77.9848C88.7077 78.132 85.4761 78.0284 82.2499 78.0284C82.0323 78.0284 81.8038 78.0611 81.597 77.9903C81.14 77.8376 80.6776 77.8703 80.2043 77.854C79.3121 77.8321 78.409 77.9466 77.533 77.794C76.5701 77.625 75.6071 77.6522 74.6442 77.5595C73.6322 77.4614 72.6094 77.4669 71.6084 77.3251C70.096 77.1125 68.5617 77.1016 67.0493 76.8235C65.9884 76.6272 64.9112 76.5291 63.8775 76.2129C63.4423 76.0766 63.3988 75.9839 63.4967 75.5368C63.7415 74.381 64.2801 73.3287 64.5902 72.1947C65.292 69.6104 66.0483 67.037 66.7827 64.4581C67.3485 62.4681 67.9035 60.4781 68.4693 58.4826C68.7467 57.4958 69.1602 56.6017 69.9436 55.8602C71.0317 54.8297 72.0708 53.7393 73.0773 52.6271C73.3548 52.3218 73.5778 51.9674 73.9641 51.7111C73.9532 51.9019 73.9151 52.0382 73.8716 52.1745C73.3874 53.8265 73.1752 55.5112 73.2351 57.2395C73.2514 57.6376 73.284 58.0192 73.469 58.379C73.518 58.4608 73.5615 58.5481 73.5996 58.6353C73.6758 58.7934 73.7519 58.957 73.8607 59.0824C73.8988 59.126 73.9478 59.1696 73.9967 59.2023C74.1001 59.2732 74.1817 59.355 74.2361 59.4422C74.2851 59.5131 74.3177 59.584 74.3395 59.6603C74.383 59.8075 74.3885 59.9656 74.3776 60.1401C74.3667 60.3254 74.3776 60.5163 74.3776 60.7016C74.3776 60.718 74.3776 60.7343 74.3776 60.7507C74.3776 60.887 74.383 60.996 74.4048 61.0724C74.432 61.1923 74.4809 61.2577 74.5789 61.2796C74.6115 61.2905 74.6496 61.2959 74.6931 61.2959C74.7802 61.3014 74.8944 61.2959 75.0359 61.2796C75.3133 61.2468 75.4058 61.3559 75.4058 61.6121C75.4058 61.9066 75.4058 62.2064 75.4385 62.5063C75.5418 63.3623 75.7975 64.191 75.9771 65.0306C75.988 65.0742 75.9988 65.1178 76.0043 65.1615C76.0206 65.2269 76.0315 65.2869 76.0532 65.3523C76.1076 65.5322 76.2001 65.7067 76.3416 65.8375C76.3416 65.8375 76.3416 65.8375 76.3416 65.843C76.3797 65.8757 76.4177 65.9138 76.4667 65.9411C76.5483 65.9956 76.6245 66.0611 76.6898 66.1265C77.0216 66.4427 77.1794 66.8734 77.2447 67.3314C77.2991 67.7239 77.4623 68.0511 77.7126 68.34C78.0336 68.6999 78.3926 69.027 78.7898 69.3105C79.3284 69.7031 79.9486 69.9648 80.509 70.3246C80.6558 70.4173 80.8027 70.5209 80.9442 70.6354C81.1673 70.7771 81.3849 70.9298 81.6297 71.0443C83.2129 71.7749 84.894 72.1892 86.5859 72.56C88.1745 72.9143 89.8067 72.9907 91.4171 73.1706C92.9458 73.3451 94.5072 73.2796 96.0523 73.176C96.9445 73.1161 97.8531 73.0179 98.729 72.8053C99.3383 72.6581 99.964 72.6417 100.562 72.4455C102.091 71.9548 103.538 71.3278 104.839 70.3519C105.491 69.8666 106.019 69.3323 106.128 68.4872C106.15 68.3346 106.215 68.1819 106.302 68.0511C107.015 67.0315 107.352 65.8539 107.733 64.698C107.738 64.6381 107.749 64.5835 107.76 64.5236C107.864 63.8911 108.092 63.2859 108.244 62.6589C108.457 61.7975 108.652 60.9415 108.767 60.0692C108.767 60.0528 108.767 60.0365 108.772 60.0256C108.783 59.9383 108.794 59.8457 108.805 59.7584C108.805 59.7475 108.805 59.7366 108.805 59.7257C108.865 59.2132 108.892 58.7007 108.881 58.1773C108.87 57.7684 108.848 57.3649 108.794 56.9669C108.777 56.8306 108.778 56.7216 108.881 56.7052C108.892 56.7052 108.903 56.7052 108.914 56.7052C108.957 56.7052 109.006 56.7161 109.066 56.738C109.735 56.9615 110.197 56.6398 110.279 55.9365C110.295 55.8275 110.295 55.7184 110.328 55.6148V55.5767C110.328 55.5439 110.328 55.5058 110.328 55.4731V55.4676C110.306 54.7861 110.192 54.1264 109.909 53.5103C109.909 53.5103 109.909 53.5049 109.909 53.4994C109.849 53.3631 109.779 53.2323 109.702 53.1069C109.675 53.0687 109.637 53.036 109.599 53.0142C109.599 53.0142 109.588 53.0142 109.583 53.0142C109.36 53.085 109.158 53.0087 108.952 52.9269C108.919 52.9542 108.897 52.9869 108.875 53.0251C108.826 53.2977 108.821 53.5757 108.68 53.8211C108.68 53.832 108.674 53.8429 108.674 53.8538V53.8592V53.8647C108.674 53.8756 108.669 53.8811 108.669 53.892C108.669 53.892 108.663 53.941 108.658 53.9574C108.625 54.5189 108.68 55.0805 108.62 55.6421C108.598 55.8493 108.544 56.0019 108.31 56.0455C108.005 56.1001 107.896 56.3345 107.804 56.5962C107.64 57.0869 107.564 57.5994 107.461 58.0955C107.396 58.3954 107.336 58.6898 107.265 58.9897C107.058 59.9492 106.852 60.9088 106.639 61.8684C106.563 62.201 106.563 62.5663 106.411 62.8879C106.411 62.8879 106.411 62.8934 106.405 62.8988C106.405 62.9043 106.4 62.9152 106.395 62.9206C106.384 62.9425 106.373 62.9643 106.357 62.9861C106.264 63.2641 106.177 63.5422 106.09 63.8257C106.09 63.842 106.079 63.8639 106.074 63.8802C105.91 64.4254 105.736 64.9815 105.491 65.5322C105.307 64.8561 105.16 64.2401 105.29 63.5912C105.312 63.4822 105.274 63.3732 105.214 63.2805C105.089 63.0733 105.067 62.8443 105.056 62.6044C105.024 61.9556 104.942 61.3068 104.904 60.6526C104.871 60.0746 104.741 59.4858 104.686 58.897C104.686 58.7552 104.681 58.608 104.665 58.4663C104.648 58.33 104.626 58.1991 104.605 58.0628V58.0519C104.594 58.0028 104.583 57.9538 104.577 57.9102C104.572 57.8829 104.567 57.8556 104.561 57.8284C104.529 57.6376 104.496 57.4467 104.48 57.2559V57.245C104.474 57.1523 104.469 57.0596 104.474 56.9615C104.474 56.8797 104.48 56.8034 104.49 56.7216C104.485 56.6671 104.474 56.6126 104.458 56.558C104.458 56.5144 104.452 56.4763 104.447 56.4326C104.436 56.3236 104.425 56.22 104.42 56.1164C104.376 55.5821 104.338 55.0478 104.327 54.508C104.3 53.543 104.044 52.5889 104.213 51.6184C104.235 51.4985 104.213 51.3622 104.169 51.2477C104.055 50.9642 104.072 50.6643 104.023 50.3754C103.925 49.7974 104.001 49.2195 103.919 48.647C103.794 47.7856 103.832 46.9078 103.663 46.0518C103.56 45.5284 103.751 44.9832 103.593 44.4653C103.451 44.0018 103.419 43.5221 103.495 43.0695C103.571 42.617 103.517 42.219 103.348 41.8265C103.332 41.7883 103.315 41.7501 103.294 41.7065C103.294 41.7065 103.294 41.7011 103.294 41.6956C103.223 41.3576 103.283 41.0032 103.168 40.6761C103.043 40.3707 103.103 40.0545 103.098 39.7437C103.098 39.6074 103.098 39.4766 103.065 39.3457C103.07 39.2367 103.065 39.1277 103.054 39.0186V39.0077C103.032 38.8223 102.994 38.637 102.956 38.4516C102.956 38.4461 102.956 38.4407 102.956 38.4352C102.913 38.2117 102.869 37.9827 102.864 37.7537C102.766 37.5793 102.777 37.4048 102.837 37.2085C102.907 36.9904 102.973 36.756 102.858 36.5216C102.744 36.2871 102.76 36.0363 102.722 35.7855C102.662 35.3057 102.619 34.8314 102.586 34.3516C102.543 33.7137 102.456 33.0813 102.363 32.4488C102.336 32.2526 102.32 32.0617 102.314 31.8655C102.309 31.7564 102.309 31.6474 102.303 31.5383C102.298 31.173 102.282 30.8023 102.2 30.4316C102.086 29.93 102.037 29.4175 101.999 28.905C101.993 28.8177 101.982 28.7305 101.982 28.6378C101.955 28.2725 101.933 27.9072 101.895 27.5474C101.895 27.5147 101.89 27.482 101.884 27.4547C101.874 27.3511 101.857 27.253 101.846 27.1548C101.846 27.1494 101.846 27.1385 101.846 27.133C101.846 27.133 101.846 27.1221 101.846 27.1167C101.846 27.1167 101.846 27.1003 101.846 27.0949C101.835 26.9477 101.819 26.795 101.803 26.6423C101.781 26.4134 101.754 26.1844 101.721 25.9608C101.721 25.9608 101.721 25.9608 101.721 25.9554C101.705 25.8136 101.689 25.6719 101.667 25.5356C101.656 25.4538 101.645 25.372 101.634 25.2902C101.612 25.143 101.596 24.9958 101.574 24.8486C101.547 24.6523 101.52 24.4615 101.498 24.2707C101.476 24.1017 101.455 23.9381 101.433 23.7745C101.378 23.3929 101.33 23.0112 101.286 22.635C101.281 22.5914 101.275 22.5478 101.27 22.4987C101.27 22.4715 101.275 22.4388 101.275 22.4061C101.275 22.3843 101.275 22.3624 101.275 22.3406C101.275 22.3079 101.275 22.2807 101.27 22.2534C101.248 22.0844 101.139 21.9372 101.123 21.7573C101.106 21.5501 101.085 21.3429 101.063 21.1357C101.063 21.1357 101.063 21.1303 101.063 21.1248C101.063 21.0812 101.058 21.043 101.047 20.9994C100.867 19.4238 100.546 17.8754 100.318 16.3161C100.263 15.9344 99.7681 13.6282 99.7627 13.1593C99.7627 13.0121 99.7192 12.854 99.6865 12.7013C99.6865 12.6795 99.6811 12.6631 99.6702 12.6468C99.6702 12.6359 99.6648 12.625 99.6593 12.6141C99.6539 12.5977 99.6484 12.5814 99.643 12.565C99.643 12.5487 99.643 12.5378 99.6376 12.5214C99.6376 12.4832 99.6267 12.4505 99.6212 12.4124C99.5995 12.2815 99.5777 12.1507 99.556 12.0198C99.5233 11.8235 99.4852 11.6218 99.4417 11.4255C99.4417 11.4255 99.4417 11.4255 99.4417 11.4201C99.4254 11.3219 99.4036 11.2292 99.3819 11.1311C99.3383 10.913 99.2948 10.7004 99.2458 10.4878C99.2458 10.4878 99.2458 10.4823 99.2458 10.4714C99.2186 10.3351 99.186 10.1988 99.1588 10.0625C99.1098 9.82806 99.0609 9.59907 99.0173 9.36463L98.9521 9.0266C98.9521 9.0266 98.9412 8.97753 98.9357 8.95572C98.9357 8.95027 98.9303 8.94482 98.9303 8.93936C98.8541 8.7649 98.9249 8.59588 98.9466 8.42141C98.9466 8.41596 98.9466 8.40506 98.9466 8.39961C98.9466 8.38325 98.9466 8.37234 98.9521 8.35599C98.7943 8.11064 98.6474 7.84894 98.6148 7.54908C98.5712 7.2274 98.544 6.90028 98.408 6.60041C98.3155 6.39868 98.2883 6.19696 98.3645 5.98978C98.3645 5.98432 98.3645 5.97887 98.3699 5.96797C98.3699 5.96252 98.3754 5.95161 98.3808 5.94071C98 5.12289 97.7878 4.25055 97.5974 3.37277C97.5974 3.37277 97.5974 3.37277 97.5974 3.36731C97.5919 3.35096 97.592 3.34005 97.5865 3.3237C97.5484 3.15468 97.5158 2.99112 97.4777 2.83301C97.4015 2.48952 97.3254 2.1624 97.0969 1.88979C96.9881 1.75349 96.9173 1.60083 96.8629 1.43727C96.8575 1.42091 96.8521 1.40456 96.8466 1.3882C96.8466 1.37184 96.8357 1.35549 96.8303 1.33913C96.6181 0.952032 96.5147 0.494055 96.1067 0.226902C95.4865 -0.182006 94.9098 0.0306261 94.3277 0.32504C94.1536 0.597645 93.8652 0.761208 93.7292 1.08833C93.2777 2.16785 93.0111 3.30734 92.6956 4.42502C92.3038 5.81531 91.9937 7.23285 91.6455 8.63405C91.0743 10.9076 90.4323 13.1647 89.8937 15.4546C89.415 17.4828 88.8437 19.4892 88.2888 21.501C87.6033 23.9708 86.9559 26.4461 86.3411 28.9377C86.0745 30.0226 85.7916 31.1076 85.5359 32.1926C85.166 33.7682 84.7634 35.333 84.339 36.8923C84.0017 38.1408 83.7025 39.3948 83.3978 40.6542C83.338 40.8941 83.2509 41.1177 82.9898 41.1722C81.9942 41.3848 81.1781 41.9573 80.3185 42.4589C78.6374 43.4512 77.5058 44.9723 76.4014 46.5262C75.9172 47.2131 75.6561 48.0473 74.9053 48.5707C74.2579 49.0178 73.6866 49.5793 73.0991 50.1027C72.3701 50.7515 71.6084 51.3785 70.9229 52.0764C70.0143 52.9978 69.1112 53.9247 68.2353 54.8788C67.5933 55.5821 67.12 56.3454 66.8317 57.2232C66.4889 58.2918 66.2332 59.3931 65.8796 60.4617C65.0635 62.9424 64.1931 65.4068 63.513 67.9366C63.2029 69.0761 62.871 70.221 62.2182 71.2515C61.9625 71.0552 61.7938 70.8098 61.3695 70.9898C61.0811 71.1152 60.7329 71.1315 60.5425 71.415C60.3902 71.6386 60.2107 71.8239 60.0366 72.0257C59.9495 72.2983 59.721 72.4618 59.5524 72.669C59.5197 72.7017 59.4871 72.7344 59.4599 72.7671C59.1552 73.3233 58.6656 73.7376 58.3392 74.2774C58.2467 74.3646 58.1433 74.4409 58.0726 74.5391C57.7461 74.9861 57.4252 75.4332 57.1042 75.8857C39.6676 73.5741 37.7144 75.3678 38.3455 78.59C40.081 87.4387 57.8441 96.7237 57.8441 96.7237C57.9148 96.7728 57.9964 96.8164 58.0943 96.8436C58.856 97.0617 59.6122 97.2962 60.3793 97.5088C60.8418 97.6396 61.3151 97.7487 61.783 97.8523C62.3433 97.9777 62.5501 98.5719 63.056 98.7846C63.3552 98.91 63.5565 99.1935 63.7687 99.4443C64.5685 100.387 65.02 101.554 65.7926 102.514C66.7011 103.637 67.2941 104.989 68.2843 106.063C68.3877 106.178 68.4693 106.308 68.5019 106.472C68.6597 107.186 68.8827 107.884 68.9915 108.598C69.1548 109.689 69.4105 110.768 69.6226 111.853C69.9599 113.56 70.2646 115.272 70.5965 116.984C70.9175 118.652 71.1242 120.342 71.3581 122.032C71.505 123.085 71.641 124.137 71.7553 125.195C71.9566 126.994 72.2177 128.788 72.5006 130.576C72.6747 131.661 72.7454 132.784 73.2296 133.787C73.654 134.67 74.2633 135.445 74.8618 136.224C75.6452 137.255 76.3307 138.356 77.1522 139.354C78.496 140.995 79.8343 142.641 81.2869 144.19C81.695 144.62 82.0268 145.193 82.6797 145.318C85.4543 145.853 88.0984 146.943 90.9165 147.303C91.6238 147.396 93.2124 147.014 93.3212 147.085L94.7412 146.758C95.3668 146.251 95.9381 145.662 96.5365 145.122C98.2938 143.546 99.9313 141.851 101.596 140.188C103.288 138.503 104.991 136.824 106.672 135.134C107.026 134.779 107.483 134.463 107.619 133.989C107.776 133.449 108.043 132.986 108.429 132.648C109.055 132.091 109.224 131.366 109.273 130.636C109.316 129.998 109.436 129.376 109.479 128.738C109.594 127.206 109.817 125.68 109.974 124.153C110.067 123.221 110.04 122.267 110.214 121.351C110.399 120.386 110.333 119.404 110.518 118.434C110.693 117.502 110.72 116.537 110.807 115.588C110.888 114.727 110.932 113.86 111.052 112.998C111.193 111.951 111.09 110.888 111.454 109.852C112.754 106.156 114.338 102.568 115.834 98.9481C115.992 98.561 116.198 98.4138 116.601 98.3702C118.064 98.2012 118.064 98.1903 118.679 96.8709C118.706 96.8164 118.744 96.7673 118.772 96.7073C119.354 95.5351 120.121 94.4611 120.649 93.2616C121.563 91.1789 122.433 89.0744 123.342 86.9862C124.147 85.1434 124.974 83.3115 125.795 81.4742C126.029 80.9562 126.105 80.471 125.806 79.9421V79.9966ZM102.646 55.4785C102.76 55.5494 102.76 55.7021 102.755 55.8329C102.711 57.1905 102.978 58.5208 102.989 59.8729C102.989 60.5926 103.114 61.7484 103.168 62.4681C103.19 62.7244 102.167 63.9347 101.901 64.2455C101.183 65.0797 100.22 66.3064 97.8477 67.2605C96.123 67.9529 93.6966 68.1928 91.9284 68.2146C90.8893 68.231 89.8448 68.2692 88.8274 68.0947C87.5054 67.8657 86.1833 67.5495 84.9266 66.9388C84.5294 66.748 84.0997 66.6444 83.7134 66.3936C83.6699 66.3391 83.6372 66.2519 83.5882 66.2301C82.8266 65.9138 82.1792 65.3686 81.5535 64.7853C81.1292 64.3927 80.7266 63.9184 80.5035 63.3405C80.2152 62.5826 80.188 61.7648 80.4818 60.947C80.6395 60.4999 80.6831 59.9929 80.7755 59.5131C81.0095 58.33 81.2597 57.1578 81.4665 55.9692C81.5426 55.533 81.695 55.6203 81.9072 55.762C82.6199 56.1927 83.3652 56.509 84.1269 56.7816C85.0245 57.0978 85.9004 57.534 86.809 57.7248C88.0168 57.981 89.2137 58.2918 90.4378 58.4663C91.7761 58.6571 93.109 58.728 94.4474 58.6844C96.3787 58.6189 98.2557 58.2046 100.04 57.2777C100.873 56.847 101.661 56.3181 102.363 55.6148C102.445 55.5385 102.516 55.3967 102.646 55.4785ZM91.9665 14.0316C92.2984 12.8322 92.6139 11.6273 92.924 10.4223C93.3865 8.61224 93.8217 6.79669 94.295 4.98659C94.5235 4.11425 94.7956 3.25827 95.0567 2.39684C95.0893 2.28234 95.1873 2.19511 95.2906 2.0261C95.7259 3.3455 96.0741 4.61585 96.5365 5.85893C96.7596 6.4532 96.8521 7.12381 96.9826 7.76171C97.2492 9.07021 97.5321 10.3733 97.7878 11.6818C97.9728 12.6304 98.1034 13.59 98.2883 14.5387C98.3427 14.8222 98.2448 14.9421 98.0054 15.0239C96.9119 15.4001 95.8075 15.5855 94.6323 15.5473C93.7401 15.5201 93.0165 15.1439 92.2494 14.8276C91.9176 14.6913 91.874 14.386 91.972 14.0316H91.9665ZM89.4204 23.7963C89.6489 23.5837 89.6435 23.3166 89.6108 23.044C90.0297 21.4683 90.4486 19.8926 90.8676 18.317C91.0036 17.8045 91.1505 17.2974 91.2919 16.7904C91.379 16.4796 91.4878 16.4578 91.7816 16.6268C92.8969 17.2647 94.0992 17.4774 95.394 17.401C96.2373 17.3465 97.0533 17.1775 97.8749 17.0194C97.951 17.0139 98.0381 17.0303 98.0979 16.9976C98.4515 16.8013 98.6093 16.8504 98.6583 17.2974C98.7617 18.148 98.9412 18.9876 99.0663 19.8381C99.2404 21.0103 99.3982 22.188 99.5614 23.3656C99.594 23.6219 99.507 23.7854 99.2894 23.9545C98.8269 24.3143 98.272 24.4997 97.7878 24.8104C96.9228 25.3611 95.9598 25.6283 94.9588 25.6555C94.1808 25.6773 93.3974 25.6828 92.6031 25.5519C91.7979 25.4211 91.0417 25.203 90.2854 24.9467C90.008 24.8541 89.9209 24.4997 89.6326 24.4561C89.0722 24.3743 89.5945 23.9872 89.4313 23.8018L89.4204 23.7963ZM87.0429 33.5011C87.1844 33.1467 87.2932 32.7596 87.2605 32.3616C87.3585 31.571 87.6142 30.8132 87.7992 30.0445C88.0766 28.8941 88.3922 27.7546 88.6696 26.6042C88.7349 26.3261 88.8274 26.3316 89.0396 26.457C90.4269 27.2366 91.9393 27.5419 93.5116 27.5801C94.714 27.6074 95.9109 27.5747 97.0751 27.1767C97.9782 26.8659 98.8487 26.5169 99.556 25.8463C99.7899 25.6228 99.9313 25.5574 99.9749 25.9717C100.073 26.855 100.187 27.7328 100.29 28.616C100.437 29.8536 100.584 31.0913 100.726 32.3234C100.764 32.6833 100.775 33.0431 100.796 33.3975C100.807 33.5556 100.747 33.6483 100.595 33.7192C99.8062 34.1063 99.0282 34.5097 98.2448 34.9077C98.0761 34.8641 97.951 34.9514 97.8096 35.0168C96.9826 35.4148 96.1448 35.7419 95.2199 35.8673C94.85 35.9164 94.4746 35.8891 94.1155 35.9927C93.1798 36.2544 92.2658 36.0363 91.3518 35.8891C90.5575 35.7637 89.7904 35.5729 89.0178 35.3166C88.3323 35.0877 87.7502 34.7442 87.217 34.3026C86.9885 34.1117 86.9069 33.8446 87.0429 33.5011ZM84.3717 43.8655C84.7634 42.0227 85.253 40.2072 85.7372 38.3862C85.895 37.7864 86.0038 37.1704 86.167 36.5706C86.2867 36.1236 86.3629 36.1236 86.7655 36.3634C87.6142 36.8705 88.5173 37.2576 89.4857 37.5029C90.6989 37.8083 91.9176 38.059 93.1689 38.01C95.122 37.9391 97.0098 37.5956 98.7562 36.6579C99.3982 36.3144 100.116 36.1126 100.698 35.6547C100.954 35.4529 101.019 35.6438 101.041 35.8509C101.155 36.9414 101.204 38.0318 101.351 39.1168C101.493 40.1363 101.553 41.1667 101.672 42.1972C101.721 42.6334 101.651 42.8842 101.21 43.1622C99.6593 44.149 98 44.8742 96.2482 45.3812C95.5735 45.5775 94.8717 45.7792 94.1536 45.7738C93.343 45.7738 92.5595 46.0791 91.7435 45.981C90.6173 45.8992 89.4911 45.7901 88.365 45.6647C87.1898 45.5284 86.0745 45.174 84.9429 44.8796C84.3662 44.7324 84.2465 44.498 84.3826 43.871L84.3717 43.8655ZM83.0442 49.5248C83.2237 48.6634 83.4958 47.8238 83.6971 46.9678C83.8004 46.548 83.9038 46.4935 84.2955 46.6516C85.4543 47.1204 86.6621 47.4258 87.8971 47.6002C88.7893 47.7256 89.687 47.8238 90.5847 47.8728C91.2103 47.9055 91.8468 47.9873 92.4725 47.8565C92.5487 47.8401 92.6303 47.8238 92.7119 47.7965C93.7891 47.6275 94.8717 47.5348 95.9381 47.2895C97.5865 46.9133 99.1479 46.3299 100.639 45.5448C100.954 45.3758 101.275 45.2122 101.58 45.0268C101.797 44.8905 101.879 44.9232 101.901 45.1795C101.966 46.0028 102.042 46.826 102.108 47.6548C102.254 49.443 102.396 51.2313 102.548 53.0196C102.586 53.4612 102.472 53.7448 102.037 53.941C101.259 54.2954 100.524 54.7261 99.7518 55.0914C98.9466 55.4731 98.1142 55.7729 97.2274 55.9419C95.7694 56.2146 94.3059 56.3836 92.8316 56.2745C91.8686 56.1982 90.9002 56.0946 89.9373 55.9801C89.0559 55.8765 88.2017 55.6693 87.3422 55.5167C86.5479 55.3695 85.759 55.1296 84.9864 54.8624C84.2465 54.6062 83.4849 54.4099 82.7613 54.0991C82.6851 53.9029 82.4893 53.8211 82.3315 53.7611C82.0867 53.6739 82.0649 53.5212 82.1085 53.3249C82.4077 52.0491 82.7831 50.8006 83.0496 49.5139L83.0442 49.5248ZM75.2481 56.7543C75.3242 56.1328 75.2372 55.5058 75.3242 54.8897C75.5582 53.2759 75.9716 51.7166 76.6245 50.2227C76.7006 50.0591 76.8095 49.8956 76.7496 49.6938C76.8856 49.6993 76.9237 49.5902 76.9563 49.4921C77.2012 48.7888 77.5983 48.1618 78.0499 47.5839C78.8061 46.6079 79.459 45.5393 80.547 44.8687C80.9823 44.5961 81.4121 44.3072 81.7983 43.9637C81.9833 43.8001 82.1901 43.6638 82.5491 43.5221C80.8299 50.2609 79.2957 56.9397 77.6201 63.5803C77.495 63.3623 77.6854 63.1006 77.4514 62.9261C77.4514 62.9261 77.4514 62.9261 77.446 62.9261C77.8377 62.3809 77.8105 61.7539 77.7724 61.1269C77.767 61.0124 77.6745 60.9252 77.5602 60.9034C77.2066 60.8325 77.2393 60.5762 77.2719 60.32C77.2882 60.1782 77.3753 60.0528 77.3861 59.9165C77.4079 59.6058 77.4623 59.2841 77.0706 59.1369C76.5864 58.9515 76.483 58.777 76.5266 58.2209C76.5483 57.9156 76.4232 57.8175 76.1403 57.8938C76.1131 57.8993 76.0859 57.9102 76.0641 57.9156C75.9879 57.7193 75.9335 57.4849 75.6724 57.5558C75.6561 57.5503 75.6452 57.5449 75.6289 57.5394C75.5854 57.5449 75.5473 57.5612 75.5146 57.5939V57.6048C75.4439 57.6212 75.3732 57.643 75.3623 57.5067C75.3405 57.3377 75.3188 57.1632 75.2481 57.0051C75.2644 56.9288 75.2589 56.8415 75.2644 56.7652L75.2481 56.7543ZM93.5443 91.795C94.6976 90.5846 95.7259 89.2707 96.7759 87.9785C97.8259 86.6809 98.8541 85.367 99.8933 84.0584C100.998 82.6682 102.097 81.2724 103.201 79.8821C103.326 79.724 103.462 79.615 103.702 79.5877C105.138 79.4351 106.574 79.5223 108.01 79.4514C108.054 79.4514 108.097 79.4732 108.223 79.5059C107.499 80.3074 106.808 81.0598 106.128 81.8231C105.132 82.9353 104.137 84.053 103.141 85.1707C101.923 86.5283 100.688 87.864 99.4961 89.2434C98.2502 90.6937 96.8901 92.0567 95.9489 93.7468C95.8456 93.9322 95.7531 93.9049 95.6171 93.8177C94.9261 93.3488 94.2298 92.8963 93.5497 92.4111C93.3103 92.2421 93.3593 92.0131 93.5551 91.8059L93.5443 91.795ZM77.9683 88.6818C79.2196 87.5096 80.4382 86.2993 81.7331 85.1761C82.5763 84.4455 83.338 83.6059 84.1813 82.8753C85.03 82.1448 85.7481 81.2561 86.6839 80.6291C86.7111 80.6127 86.7437 80.5909 86.7491 80.5637C86.9613 79.8549 87.5435 80.0239 88.0494 80.0239C89.0668 80.0239 90.0787 80.0184 91.1015 80.0239C91.2647 80.0239 91.5095 79.9312 91.5803 80.1002C91.6564 80.291 91.4279 80.4219 91.2974 80.5418C90.6336 81.147 89.9481 81.7413 89.2844 82.3465C87.8862 83.6277 86.488 84.9144 85.1007 86.212C83.8276 87.3951 82.5382 88.5673 81.3141 89.7995C79.9921 91.1298 78.5885 92.3783 77.261 93.7032C76.3198 94.6519 75.3297 95.5515 74.5136 96.6201C74.1328 97.1162 73.6322 97.5579 73.6105 98.2612C73.605 98.4956 73.4146 98.4575 73.2569 98.4629C72.7727 98.4793 72.3048 98.3539 71.8369 98.2666C70.7542 98.0594 69.6716 97.8523 68.5944 97.6069C68.3659 97.5524 68.0884 97.6505 67.7946 97.3343C68.3496 97.3779 68.7739 97.2471 69.1221 96.969C69.6498 96.5329 70.1884 96.1021 70.6781 95.6224C71.7662 94.5537 72.8869 93.5178 74.0076 92.4819C75.346 91.2443 76.619 89.9358 77.9574 88.6927L77.9683 88.6818ZM62.9037 90.3393C62.0278 91.0971 61.2171 91.9476 60.3956 92.7654C59.7537 93.4034 59.1226 94.0413 58.6438 94.8154C58.6003 94.8863 58.5568 95.0063 58.4425 94.9627C58.3392 94.9299 57.5176 94.9736 56.6907 94.4283C56.1847 94.0958 56.2337 94.3084 55.5591 93.7032C55.1347 93.327 55.6461 92.8091 56.027 92.4656C57.2511 91.3588 60.7057 88.1475 61.9026 87.0135C63.4205 85.585 64.933 84.1402 66.4291 82.69C67.5335 81.6159 68.6162 80.5146 69.7042 79.4242C70.1123 79.1243 70.5965 79.2497 71.0045 79.3151C71.5105 79.3969 72.0273 79.4024 72.5278 79.4405C73.197 79.4896 73.8553 79.6313 74.5245 79.615C74.6442 79.615 74.8128 79.5877 74.8563 79.7186C74.8563 79.724 74.8563 79.7349 74.8618 79.7404C74.8944 79.8876 74.7475 79.9803 74.6442 80.0511C73.5615 80.7654 72.6638 81.6977 71.6791 82.5319C70.0198 83.8949 68.4693 85.3779 66.8317 86.7627C65.477 87.9131 64.2475 89.1889 62.9037 90.3502V90.3393ZM107.292 131.557C107.178 131.824 106.667 132.511 106.618 132.593C104.529 136.153 100.562 137.991 99.2785 139.926C98.6093 140.935 97.3526 141.747 96.8847 142.194C95.53 143.486 94.6922 143.786 93.1254 145.035C92.8424 145.258 91.7326 145.585 91.4225 145.558C90.9437 145.515 90.4813 145.356 90.0134 145.335C89.3823 145.302 88.8111 145.078 88.2126 144.948C86.9124 144.659 85.6175 144.315 84.3499 143.895C83.8766 143.683 83.387 143.492 82.93 143.246C82.5002 143.012 82.0323 142.876 81.7004 142.418C81.4338 142.047 78.6864 140.002 80.2696 139.861C81.9561 139.708 82.7069 140.264 86.1725 139.692C88.4955 139.305 90.5248 137.887 92.7554 137.129C93.1525 136.993 93.5987 136.966 93.9305 136.655C95.1166 136.224 96.9826 135.717 98.1578 135.259C99.0772 134.899 102.439 133.378 103.201 133.062C103.805 132.817 105.785 131.792 106.302 131.383C106.732 131.045 107.912 130.074 107.292 131.568V131.557ZM112.749 101.342C111.612 103.533 110.616 105.791 109.724 108.091C109.534 108.582 109.3 109.122 109.583 109.683C109.615 109.754 109.588 109.874 109.55 109.95C109.028 111.03 108.979 112.202 108.859 113.364C108.69 115.054 108.587 116.749 108.505 118.45C108.446 119.726 108.386 121.007 108.31 122.283C108.223 123.717 108.141 125.44 107.853 126.356C107.591 127.201 106.797 128.111 106.166 128.744C105.328 129.584 103.957 130.249 103.375 130.499C102.439 130.892 100.943 131.595 100.073 132.004C98.2013 132.893 96.3842 133.564 94.5181 134.43C93.0764 135.101 91.5367 135.477 90.0733 136.072C88.8165 136.404 87.9188 137.124 86.7219 137.609C86.1833 137.827 84.2357 138.35 81.9996 138.345C80.46 138.345 78.5939 138.072 78.4361 137.903C77.9737 137.413 77.6146 136.835 77.2066 136.306C76.7278 135.679 76.2817 135.019 75.803 134.392C75.4766 133.727 74.9216 133.182 74.7911 132.413C74.6768 131.721 74.5408 131.028 74.4157 130.336C74.1273 130.107 74.3395 129.758 74.2144 129.491C74.2633 128.646 73.8934 127.855 73.9043 127.01C73.9097 126.459 73.7791 125.909 73.703 125.358C73.5942 124.611 73.4581 123.864 73.382 123.117C73.3385 122.687 73.3548 122.256 73.2623 121.82C73.2405 121.711 73.2188 121.602 73.197 121.487C73.1807 121.389 73.1644 121.296 73.148 121.198C73.1154 120.958 73.0828 120.724 73.0501 120.484C73.0338 120.375 73.0229 120.266 73.0066 120.157C73.0066 120.157 73.0066 120.151 73.0066 120.146C73.0011 120.097 72.9903 120.042 72.9848 119.993C72.925 120.184 73.0338 120.413 72.9467 120.598C72.925 120.419 72.9032 120.239 72.8923 120.059C72.6203 119.334 72.6258 118.559 72.4897 117.807C72.3483 117.027 72.1633 116.248 72.0545 115.457C71.8587 114.05 71.5485 112.666 71.2711 111.275C71.048 110.179 70.8631 109.078 70.5529 107.988C70.3734 107.366 70.1939 106.685 70.1939 106.003C70.1721 105.921 70.1504 105.845 70.134 105.763C70.0959 105.6 70.0742 105.442 70.1123 105.273C70.1558 105.087 70.0796 104.973 69.8675 104.978C69.8566 104.978 69.8511 104.978 69.8457 104.978C69.8185 104.973 69.7967 104.956 69.7804 104.935C69.7804 104.935 69.775 104.929 69.7695 104.918C69.7695 104.913 69.7695 104.907 69.7641 104.902C69.7042 104.782 69.5845 104.711 69.4921 104.624C69.3071 104.449 69.2037 104.547 69.1493 104.755C69.133 104.755 69.1167 104.755 69.1004 104.755C68.9099 104.755 68.7902 104.646 68.7413 104.46C68.5781 103.85 68.2897 103.326 67.8599 102.846C67.6695 102.639 67.6042 102.312 67.2778 102.203C67.2669 102.067 67.2778 101.936 67.1908 101.805C66.8643 101.342 66.5923 100.845 66.3094 100.36C66.1244 100.039 65.8905 99.8205 65.4825 99.9023C65.4063 99.9186 65.3247 99.9023 65.2485 99.9023C65.0744 99.9023 64.933 99.8641 64.8187 99.8041C64.8187 99.8041 64.8024 99.7987 64.7915 99.7878C64.7915 99.7878 64.7752 99.7769 64.7698 99.7714C64.5576 99.6078 64.5032 99.3189 64.6501 98.9645C64.748 98.7192 64.9493 98.7464 65.1234 98.7955C66.6685 99.2098 68.2353 99.5261 69.8022 99.8259C70.6998 99.9949 71.5975 100.186 72.5006 100.322C73.605 100.491 74.7203 100.567 75.8084 100.845C76.124 100.922 76.4613 100.845 76.7877 100.884C77.7126 100.998 78.6429 101.069 79.5623 101.173C80.052 101.233 80.596 101.145 81.053 101.434C81.1509 101.5 81.2652 101.434 81.3577 101.374C82.152 100.933 82.9844 100.551 83.659 99.9077C84.3554 99.2371 85.0844 98.6047 85.7971 97.9504C87.3694 96.5056 88.9362 95.0499 90.5139 93.6105C91.2538 92.9345 91.2484 92.9672 92.0699 93.5451C93.7347 94.7173 95.3559 95.9604 97.0642 97.0726C97.7932 97.547 98.5277 98.0322 99.1697 98.6156C99.4743 98.8882 99.8715 99.1608 100.236 99.4388L100.862 99.8641L102.488 100.96L114.115 98.8336C113.641 99.706 113.19 100.529 112.76 101.363L112.749 101.342ZM121.617 79.5714C120.725 80.5691 117.95 84.4946 117.107 85.5305C116.138 86.7191 115.154 87.8967 114.191 89.0907C113.44 90.0176 112.722 90.9717 111.971 91.8986C110.965 93.1471 109.909 94.3575 108.952 95.6387C108.31 96.5001 107.591 97.3016 106.977 98.1794L103.533 98.7464L102.331 98.0049C102.467 97.8305 102.608 97.6505 102.76 97.4706C104.18 95.775 105.6 94.0794 107.004 92.3729C108.587 90.4538 110.17 88.5292 111.737 86.5882C112.787 85.2906 115.883 81.1961 116.884 79.8658C117.156 79.5005 117.531 79.5332 117.847 79.5114C119.027 79.4187 120.197 79.2061 121.367 79.0425C121.481 79.0262 121.633 78.9553 121.693 79.1188C121.748 79.2715 121.726 79.4351 121.612 79.5605L121.617 79.5714Z" fill="#010101"/>
<path d="M103.191 118.808C103.191 118.808 102.739 116.339 100.308 116.639C98.7516 116.829 96.4721 118.22 95.7485 119.932C95.0249 121.644 94.2687 125.018 94.3503 125.869C94.4319 126.719 96.7604 121.965 96.7604 121.965L98.5449 119.921L102.348 118.808H103.191Z" fill="#00A0FF"/>
<path d="M102.004 117.888C101.167 117.839 100.372 117.991 99.6323 118.384C98.9142 118.766 98.2613 119.251 97.6139 119.731C97.3201 119.949 96.9556 120.08 96.7434 120.401C96.3191 120.837 96.2429 121.443 95.9926 121.961C95.3887 123.236 94.7957 124.512 94.3605 125.859C94.181 126.415 94.502 126.998 94.9862 127.282C95.2908 127.462 95.8077 127.184 96.0797 126.726C96.1776 126.568 96.2211 126.388 96.2919 126.219C96.5802 125.543 96.3952 124.747 96.8359 124.114C96.8794 124.07 96.9338 124.038 96.961 123.989C97.554 122.822 98.2504 121.759 99.4636 121.137C99.6867 121.023 99.8717 120.826 100.073 120.668C100.236 120.581 100.399 120.483 100.584 120.45C100.563 120.745 100.378 120.957 100.307 121.214C100.291 121.208 100.274 121.214 100.258 121.246C100.089 121.655 99.9424 122.064 99.6432 122.413C99.4963 122.588 99.4419 122.86 99.4038 123.1C99.3548 123.405 99.6214 123.629 99.8934 123.503C100.786 123.089 101.634 122.615 102.2 121.759C102.227 121.732 102.26 121.699 102.287 121.672C102.701 121.034 103.141 120.439 103.288 119.649C103.441 118.815 102.875 117.948 102.015 117.899L102.004 117.888Z" fill="#010101"/>
<path d="M77.5546 123.621C77.5546 123.621 76.3414 120.017 80.264 120.535C82.451 120.824 86.9666 124.723 89.7032 127.727C92.4343 130.736 80.8624 124.188 80.8624 124.188L77.5546 123.621Z" fill="#00A0FF"/>
<path d="M90.2585 128.17C89.5785 127.766 88.9419 127.346 88.2673 126.998C86.5482 126.103 84.9269 125.04 83.322 123.95C83.0173 123.743 82.7018 123.432 82.359 123.437C81.4885 123.448 80.765 122.99 79.9707 122.783C79.3504 122.619 78.8173 122.696 78.2896 122.848C77.4354 123.094 77.1144 124.135 77.4789 125.089C77.6095 125.427 77.9033 125.651 78.0447 125.978C78.4093 126.801 79.0675 127.286 79.8619 127.646C80.3243 127.859 80.7486 128.142 81.2927 127.903C81.4722 127.826 81.7116 127.864 81.7606 127.608C81.815 127.363 81.7334 127.128 81.5266 126.998C80.9445 126.632 80.6398 126.038 80.259 125.504C80.1937 125.411 80.1284 125.307 80.1937 125.209C80.259 125.106 80.395 125.127 80.4929 125.166C81.2655 125.433 82.0217 125.793 82.5603 126.392C83.3383 127.259 84.2196 127.984 85.1717 128.639C85.2805 128.868 85.5199 128.862 85.7212 128.933C86.472 129.195 86.6787 129.031 86.559 128.246C86.7059 128.164 86.8093 128.333 86.9507 128.311C87.5655 128.682 88.1748 129.058 88.8005 129.413C89.1269 129.598 89.4697 129.538 89.7635 129.336C90.0409 129.146 90.1769 128.797 90.0518 128.524C89.9158 128.224 90.2259 128.284 90.2585 128.17Z" fill="#010101"/>
<path d="M133.81 78.7709L126.514 89.9913C126.177 90.5093 125.72 90.9345 125.176 91.2235L123.495 92.1285L120.802 93.5788C120.47 93.7587 120.121 93.3771 120.328 93.0608L129.773 78.7055C129.952 78.4328 130.246 78.2638 130.567 78.242L131.633 78.1657L133.385 78.0403C133.777 78.013 134.027 78.4437 133.815 78.7709H133.81Z" fill="#FFCA00"/>
<path d="M57.4686 79.0974L49.1882 88.1697C48.8781 88.5077 48.3667 88.5731 47.9859 88.3169L46.789 87.4936L45.6519 86.714C45.3744 86.5286 45.3255 86.136 45.5485 85.8907L52.6918 77.9742C52.9149 77.7398 53.2359 77.6253 53.5623 77.6635L55.5046 78.007L57.1857 78.3068C57.5719 78.3504 57.746 78.8193 57.474 79.1028L57.4686 79.0974Z" fill="#4481C9"/>
<path d="M131.628 78.168L123.495 92.1363L120.802 93.5865C120.47 93.7664 120.121 93.3848 120.328 93.0686L129.773 78.7132C129.952 78.4406 130.246 78.2716 130.567 78.2498L131.633 78.1734L131.628 78.168Z" fill="#FFFF00"/>
<path d="M55.4997 77.9976C53.737 79.884 48.4053 85.7178 46.7841 87.4897L45.647 86.7101C45.3696 86.5247 45.3206 86.1321 45.5437 85.8868L52.687 77.9703C52.91 77.7359 53.231 77.6214 53.5574 77.6596L55.4997 78.0031V77.9976Z" fill="#00A0FF"/>
<path d="M49.3081 75.2144C49.3081 75.2144 54.1827 72.9081 54.6125 72.7827C55.0423 72.6574 62.2074 69.8877 63.2737 71.1199C64.3401 72.352 58.274 76.4248 58.274 76.4248C58.274 76.4248 54.6125 76.2394 54.4276 76.4248C54.2426 76.6101 49.3081 75.2144 49.3081 75.2144Z" fill="#010101"/>
</svg>
