<svg width="115" height="152" viewBox="0 0 115 152" fill="none" xmlns="http://www.w3.org/2000/svg">
<g clip-path="url(#clip0_93_5968)">
<path d="M20.6005 138.113C19.0198 137.79 19.1059 136.712 18.6715 136.712C18.4994 136.712 15.1579 139.623 15.1148 139.666C14.5279 140.183 13.0333 140.487 12.3172 139.039C11.5151 137.444 13.0763 135.46 14.2266 133.997C16.2417 131.366 18.8241 132.098 19.0628 133.565C19.1293 133.888 19.1919 133.93 19.4971 133.888C21.1014 133.674 20.8392 136.28 21.34 136.67C22.596 137.638 21.1679 138.222 20.6045 138.113H20.6005ZM18.3859 134.405C18.3859 134.382 18.2764 134.339 18.1277 134.277C16.1126 133.631 14.0506 137.899 14.3558 137.899C14.3792 137.899 14.4849 137.833 14.6179 137.771C14.6844 137.728 18.3898 134.495 18.3898 134.409L18.3859 134.405Z" fill="white"/>
<path d="M27.8822 134.835C26.6027 134.726 26.407 134.769 26.2544 135.182C24.6502 139.493 25.3232 139.858 24.5407 140.224C23.2416 140.851 22.7408 139.536 23.0225 138.757C24.2355 135.481 23.8911 131.427 26.5127 132.528C27.1622 132.808 28.7664 133.022 30.2611 133.003C32.7535 132.979 33.45 133.022 33.5557 133.197C34.5104 134.707 29.6546 134.987 27.8743 134.835H27.8822Z" fill="white"/>
<path d="M42.4534 134.168C41.26 134.709 39.4406 134.88 39.4171 134.88C39.1784 135.354 36.7956 139.946 36.686 141.195C36.6195 141.992 36.056 142.292 35.4926 141.949C33.9979 141.043 36.4904 137.273 37.359 135.245C37.359 135.203 36.8621 135.203 36.2321 135.203C34.9761 135.245 34.9526 135.245 34.6044 134.709C33.5636 133.028 36.3612 133.284 38.3333 133.199C39.3936 131.615 39.1667 130.763 39.9062 130.892C41.2991 130.892 40.5909 131.755 40.2623 133.024C40.2388 133.176 42.516 133.195 42.7977 133.475C42.9934 133.67 42.7977 134.016 42.4495 134.164L42.4534 134.168Z" fill="white"/>
<path d="M55.5023 133.521C55.3301 133.952 54.7862 134.166 54.3519 133.929C53.6163 133.563 50.9282 135.05 52.6186 136.773C53.0098 137.162 53.5302 138.217 53.5733 138.672C53.7454 140.528 51.4486 141.625 50.0831 140.851C49.5197 140.547 48.8701 139.512 48.9993 139.17C49.281 138.415 51.0808 139.902 51.4291 138.933C51.6247 138.415 50.4744 137.38 50.1926 136.843C48.9366 134.408 51.386 132.1 53.2916 131.692C55.0484 131.303 55.8505 132.513 55.5023 133.524V133.521Z" fill="white"/>
<path d="M58.2335 140.31C57.6466 139.77 57.2592 141.968 55.6119 145.505C53.6595 149.73 54.4616 151.022 53.8981 151.672C53.3112 152.36 52.2743 151.866 52.0983 151.045C51.84 149.687 53.5069 145.547 54.0703 144.275C59.4269 132.268 56.6919 130.887 58.9691 130.887C59.3369 130.887 60.0294 131.338 60.1625 131.684C60.272 132.031 61.3989 131.447 63.2614 132.634C67.2954 135.198 60.2055 142.162 58.2335 140.31ZM62.0054 134.015C60.4442 133.217 59.6421 134.532 59.2312 135.999C59.1021 136.431 58.4056 138.738 58.4056 138.738C58.4056 138.824 58.7108 138.976 58.8595 138.976C58.9026 138.976 59.2704 138.805 59.6421 138.587C61.2893 137.595 63.5666 134.813 62.0054 134.015Z" fill="white"/>
<path d="M73.779 138.113C72.1982 137.79 72.2843 136.712 71.85 136.712C71.6779 136.712 68.3363 139.623 68.2933 139.666C67.7064 140.183 66.2117 140.487 65.4957 139.039C64.6936 137.444 66.2548 135.46 67.4051 133.997C69.4202 131.366 72.0026 132.098 72.2413 133.565C72.3078 133.888 72.3704 133.93 72.6756 133.888C74.2798 133.674 74.0177 136.28 74.5185 136.67C75.7745 137.638 74.3464 138.222 73.7829 138.113H73.779ZM71.5683 134.405C71.5683 134.382 71.4587 134.339 71.3101 134.277C69.295 133.631 67.233 137.899 67.5381 137.899C67.5616 137.899 67.6673 137.833 67.8003 137.771C67.8668 137.728 71.5722 134.495 71.5722 134.409L71.5683 134.405Z" fill="white"/>
<path d="M84.6603 137.254C84.6603 138.051 80.8219 140.596 78.3725 140.012C73.7124 138.868 78.0243 130.655 82.3166 132.768C83.9208 133.546 82.9896 134.686 82.1209 134.34C79.8007 133.371 76.7448 138.285 79.5424 138.199C82.0153 138.133 84.6603 136.087 84.6603 137.25V137.254Z" fill="white"/>
<path d="M94.4617 138.611C94.4617 139.451 90.6232 141.412 88.0212 139.969C86.4405 139.085 85.6384 137.276 86.1783 135.724C86.8944 133.611 91.664 130.549 93.4639 133.245C94.223 134.366 91.9888 137.537 89.1716 137.385C88.6942 137.362 88.303 137.362 88.2834 137.385C88.1308 137.514 88.6747 138.786 90.8189 138.72C92.2079 138.677 94.4617 137.879 94.4617 138.611ZM89.4298 135.374C89.7781 135.549 90.1224 135.483 90.6663 135.16C91.3823 134.728 91.9888 134.058 91.8362 133.887C91.664 133.716 88.346 134.837 89.4298 135.374Z" fill="white"/>
<path d="M70.6449 112.131C70.5079 112.053 70.3592 111.979 70.1988 111.909C70.0423 111.839 69.878 111.796 69.7019 111.78C69.6158 111.765 69.5571 111.71 69.5337 111.625C69.5102 111.539 69.4789 111.45 69.4437 111.364C69.4084 111.278 69.3615 111.208 69.2989 111.158C69.2363 111.103 69.1385 111.088 68.9976 111.103C67.5499 112.387 66.2469 113.827 65.0848 115.418C64.2592 116.554 63.4571 117.718 62.6707 118.912C62.3968 119.329 62.7098 119.831 63.1441 119.858C63.1519 119.858 63.1598 119.858 63.1715 119.858C63.1793 119.858 63.1872 119.858 63.1989 119.858C63.2693 119.858 63.3437 119.842 63.4219 119.811C63.9149 119.605 64.3962 119.371 64.8696 119.111C65.8635 118.558 66.7947 117.951 67.6673 117.29C68.0664 116.963 68.4694 116.636 68.8724 116.313C69.2715 115.994 69.6432 115.648 69.9836 115.286C70.324 114.92 70.6331 114.516 70.9109 114.064C71.1887 113.613 71.4079 113.084 71.5644 112.477C71.3883 112.461 71.2279 112.415 71.0792 112.348C70.9305 112.278 70.7896 112.204 70.6488 112.127L70.6449 112.131Z" fill="white"/>
<path d="M114.816 106.06C114.546 105.426 114.006 104.967 113.321 104.796C113.091 104.741 112.848 104.718 112.551 104.714C112.535 104.714 112.508 104.706 112.468 104.694C112.03 104.585 111.568 104.632 111.165 104.823C111.126 104.835 111.06 104.85 110.954 104.873C110.289 105.013 109.714 105.298 109.244 105.718C109.221 105.737 109.197 105.761 109.178 105.78C108.38 106.57 107.546 107.472 106.705 108.461C105.883 109.422 105.069 110.418 104.279 111.414C103.496 112.398 102.741 113.355 102.006 114.281C101.759 114.593 101.517 114.896 101.286 115.184L101.673 113.013C101.834 112.106 101.904 111.235 101.884 110.433C101.869 109.885 101.622 109.371 101.204 109.013C100.84 108.702 100.401 108.445 99.9006 108.243C99.4115 108.044 98.8911 107.924 98.359 107.881C97.7682 107.834 97.1852 107.904 96.6295 108.087C95.9605 108.305 95.3814 108.71 94.9079 109.29C94.4188 109.861 93.965 110.511 93.5658 111.215C93.3741 111.554 93.1707 111.896 92.9633 112.235C92.9907 111.935 92.9907 111.632 92.9633 111.328C92.8889 110.589 92.6424 109.881 92.2277 109.223C91.7816 108.519 91.1673 107.974 90.4082 107.609C89.7118 107.262 89.0231 107.037 88.3619 106.939C87.7671 106.85 87.1763 106.823 86.609 106.858C86.1277 106.885 85.6347 106.936 85.1378 107.002C84.993 107.021 84.8443 107.041 84.6878 107.052C84.2222 106.687 83.7644 106.469 83.287 106.379C82.438 106.22 81.6085 106.434 80.9511 106.978C80.6068 107.262 80.2898 107.613 79.9807 108.052C79.8868 108.188 79.7694 108.305 79.6286 108.41C79.6208 108.418 79.6129 108.422 79.6051 108.43C79.5621 108.457 79.433 108.531 79.1317 108.679C78.6895 108.893 78.2083 109.138 77.6683 109.426C77.1049 109.725 76.5571 110.052 76.0406 110.395C75.8606 110.515 75.6963 110.632 75.5398 110.752C75.3206 110.398 75.0741 110.072 74.7963 109.78C74.1429 109.091 73.3682 108.609 72.4878 108.344C71.9635 108.188 71.4274 108.126 70.8953 108.165C70.8562 108.126 70.821 108.091 70.7818 108.056C70.4766 107.772 70.1284 107.546 69.7449 107.383C69.338 107.212 68.6729 107.064 67.8394 107.317C67.7886 107.332 67.7377 107.352 67.6868 107.371C66.3995 107.885 65.2257 108.663 64.1927 109.686C63.285 110.589 62.3224 111.714 61.3286 113.029C61.309 113.056 61.2856 113.083 61.266 113.11C61.5242 112.585 61.6807 112.04 61.7355 111.484C61.806 110.729 61.6416 109.982 61.2503 109.27C60.7769 108.387 60.1235 107.768 59.3096 107.426C58.5975 107.126 57.8228 107.029 57.0089 107.134C56.3359 107.22 55.6434 107.43 54.9469 107.76C54.3717 108.033 53.7926 108.344 53.2253 108.69C52.6736 109.025 52.1336 109.379 51.621 109.741C51.1437 110.075 50.7133 110.383 50.3298 110.663C49.1599 111.457 48.0213 112.282 46.9531 113.118C46.6753 113.332 46.4092 113.55 46.1471 113.772C46.3349 113.534 46.4953 113.293 46.6284 113.056C46.8788 112.608 47.004 112.126 47.004 111.62C47.004 111.585 47.004 111.554 47.004 111.519C46.9688 110.838 46.7457 110.188 46.3388 109.585C45.9906 109.068 45.5602 108.628 45.0476 108.282C44.5155 107.916 43.9246 107.679 43.3025 107.57C42.786 107.48 42.2695 107.504 41.7765 107.636C41.7883 107.332 41.7648 106.986 41.6278 106.624C41.3813 105.978 40.857 105.5 40.1919 105.309C39.9649 105.243 39.7106 105.204 39.421 105.196C39.4054 105.196 39.378 105.185 39.3389 105.177C38.9046 105.052 38.4429 105.08 38.032 105.255C37.9929 105.262 37.9264 105.278 37.8168 105.298C37.1477 105.414 36.5608 105.675 36.0795 106.076C36.0561 106.095 36.0326 106.118 36.0091 106.138C35.1796 106.897 34.3149 107.768 33.4384 108.721C32.5854 109.647 31.7325 110.609 30.899 111.577C30.0813 112.531 29.287 113.457 28.5201 114.359C28.2618 114.663 28.0114 114.955 27.7649 115.235L28.2345 113.079C28.4301 112.177 28.5357 111.313 28.5436 110.507C28.5514 109.959 28.3244 109.433 27.9175 109.064C27.5654 108.741 27.1389 108.465 26.6459 108.243C26.1646 108.025 25.652 107.885 25.1199 107.823C24.533 107.753 23.9461 107.799 23.3826 107.963C22.7057 108.153 22.111 108.535 21.6141 109.099C21.4067 109.321 21.211 109.562 21.0154 109.807C21.0389 109.753 21.0584 109.694 21.078 109.636C21.1993 109.239 21.5671 108.029 20.8824 106.994C20.2915 106.103 19.2468 105.729 18.1552 106.025C17.5996 106.173 17.0479 106.48 16.4688 106.963C16.0971 107.274 15.7449 107.648 15.4202 108.076C15.0054 108.29 14.6728 108.601 14.4459 108.982C14.2463 109.208 14.0859 109.461 13.9724 109.725C13.9098 109.788 13.8511 109.854 13.7964 109.924L12.02 112.196C11.9926 112.231 11.9691 112.266 11.9456 112.301C11.8087 112.503 11.7069 112.667 11.6248 112.819C11.527 113.005 11.4526 113.169 11.4018 113.332C11.0966 113.85 10.7209 114.379 10.2905 114.908C9.75057 115.569 9.29669 116.223 8.93671 116.849C8.9015 116.888 8.86628 116.931 8.82715 116.97C9.01888 116.511 9.20669 116.028 9.38277 115.53C9.40233 115.472 9.42189 115.414 9.43754 115.355C9.44537 115.336 9.46493 115.278 9.5158 115.169C9.57449 115.032 9.64101 114.9 9.71144 114.776C9.86404 114.546 9.96577 114.402 10.0284 114.32C10.3492 113.9 10.5488 113.437 10.6231 112.939C10.6348 112.85 10.6427 112.764 10.6466 112.675C10.6544 112.114 10.4666 111.044 9.12061 110.204C8.52587 109.834 7.8607 109.562 7.14858 109.398C6.34255 109.216 5.54826 109.219 4.78918 109.414C3.74448 109.682 2.96975 110.414 2.65673 111.41C2.19502 112.18 1.78418 113.009 1.43203 113.877C1.04858 114.822 0.743387 115.822 0.524272 116.849C0.418627 117.223 0.328634 117.643 0.254291 118.137C0.179949 118.616 0.12517 119.114 0.0821297 119.612C0.0390894 120.129 0.0195256 120.643 0.0234383 121.133C0.0273511 121.705 0.078217 122.184 0.172123 122.596C0.399063 123.67 0.950763 124.604 1.81548 125.37C2.57456 126.047 3.45884 126.545 4.43703 126.853C5.20394 127.094 6.00996 127.215 6.83556 127.215C7.0312 127.215 7.22683 127.207 7.42638 127.195C8.565 127.117 9.59797 126.759 10.494 126.133C11.0222 125.779 11.4957 125.339 11.9143 124.826C11.9495 125.635 12.2665 126.359 12.826 126.919C13.2251 127.316 13.7064 127.635 14.2581 127.857C14.7472 128.055 15.2676 128.18 15.8036 128.226C15.9719 128.242 16.1362 128.25 16.2927 128.25C16.6644 128.25 17.0048 128.211 17.3296 128.129C17.8069 128.008 18.2178 127.713 18.4839 127.3C18.9729 126.545 19.4542 125.721 19.9159 124.853C20.2759 124.176 20.6359 123.511 20.9958 122.865C21.211 123.343 21.4693 123.791 21.7667 124.203C22.2714 124.907 22.8544 125.46 23.5 125.849C24.2708 126.312 25.1121 126.514 26.0003 126.448C26.9276 126.378 27.8001 125.97 28.6023 125.23C28.6101 125.223 28.6218 125.215 28.6296 125.203C29.6196 124.254 30.6173 123.125 31.5955 121.853C32.4876 120.694 33.5323 119.417 34.7062 118.067C34.7609 118.005 34.8118 117.935 34.8588 117.865C35.0466 117.581 35.2266 117.312 35.4026 117.06C34.984 117.865 34.5849 118.694 34.2092 119.546C33.6223 120.869 33.1019 122.355 32.6598 123.97C32.4094 124.88 32.8554 125.833 33.7162 126.23C34.4049 126.549 35.0309 126.705 35.6218 126.705C35.7391 126.705 35.8526 126.697 35.9661 126.686C36.6821 126.612 37.3434 126.331 37.8755 125.884C38.2707 125.549 38.6268 125.121 38.928 124.619C39.0963 124.335 39.288 124.044 39.4915 123.748C39.511 123.721 39.5267 123.697 39.5423 123.67C39.7458 123.343 39.9493 123.075 40.1449 122.872C40.2388 122.775 40.3288 122.678 40.4188 122.588C40.5362 123.312 40.8179 124.067 41.2835 124.872C41.2913 124.888 41.2992 124.904 41.3109 124.919C41.8861 125.857 42.6295 126.553 43.5099 126.985C44.3003 127.37 45.1454 127.588 46.0258 127.623C46.1432 127.627 46.2606 127.631 46.3818 127.631C47.0548 127.631 47.7396 127.553 48.4282 127.394C49.1325 127.234 49.8329 127.036 50.5137 126.802C51.398 126.499 52.341 126.145 53.3114 125.752C54.2739 125.367 55.2482 124.954 56.2068 124.526C56.6685 124.32 57.1185 124.114 57.5567 123.904C57.6232 124.048 57.6897 124.188 57.768 124.32C58.2375 125.121 58.8636 125.724 59.6226 126.11C60.3035 126.456 61.0743 126.647 61.9116 126.67C61.9977 126.67 62.0799 126.674 62.1659 126.674C62.7998 126.674 63.4415 126.6 64.0793 126.452C64.7405 126.296 65.3901 126.09 66.0044 125.833C66.6226 125.577 67.1743 125.296 67.6477 125.001C68.2816 124.616 68.9507 124.188 69.6393 123.728C70.1245 123.406 70.5979 123.067 71.0557 122.725C71.0166 123.297 71.0675 123.834 71.2122 124.328C71.3844 124.9 71.9987 126.261 74.0255 126.526C74.1116 126.538 74.1938 126.542 74.2798 126.542C74.8276 126.542 75.3519 126.312 75.7237 125.903C76.0758 125.514 76.4436 125.067 76.8153 124.573C77.1518 124.129 77.4922 123.682 77.8365 123.238C78.1652 122.814 78.5017 122.402 78.8343 122.013C78.8812 121.958 78.9282 121.904 78.9752 121.853C79.1434 121.915 79.3312 121.989 79.5425 122.083C80.2507 122.394 80.9785 122.744 81.7063 123.122C82.4536 123.511 83.1775 123.896 83.8465 124.269C84.6017 124.69 85.216 124.989 85.7286 125.195C85.756 125.207 85.7834 125.219 85.8108 125.23C85.8108 125.281 85.8108 125.328 85.8186 125.378C85.8812 126.195 86.2255 126.911 86.8124 127.452C87.2272 127.833 87.7202 128.133 88.2797 128.335C88.7766 128.518 89.3009 128.623 89.8409 128.647C89.9387 128.65 90.0365 128.654 90.1304 128.654C90.5804 128.654 90.9873 128.6 91.363 128.491C91.8325 128.351 92.2355 128.04 92.4859 127.619C92.9437 126.845 93.3937 126.005 93.8202 125.121C94.1528 124.433 94.4893 123.752 94.8258 123.094C95.0566 123.565 95.3344 124.001 95.6474 124.405C96.1796 125.09 96.7821 125.623 97.4434 125.985C98.2338 126.421 99.0789 126.588 99.9671 126.487C100.891 126.382 101.747 125.938 102.518 125.172C102.526 125.164 102.534 125.153 102.546 125.145C103.5 124.156 104.455 122.993 105.378 121.686C106.224 120.491 107.221 119.18 108.344 117.783C108.399 117.717 108.446 117.647 108.489 117.577C109.006 116.725 109.467 116.013 109.863 115.457C110.262 114.896 110.629 114.41 110.958 114.013C111.314 113.581 111.639 113.188 111.928 112.842C112.253 112.453 112.578 112.036 112.887 111.601C113.208 111.153 113.533 110.644 113.85 110.083C114.167 109.527 114.503 108.846 114.855 108.052C114.941 107.858 114.992 107.651 115.012 107.441C115.043 107.072 115.055 106.585 114.843 106.087L114.816 106.06ZM12.4699 119.95C12.1139 120.332 11.7539 120.733 11.39 121.149C11.0457 121.546 10.7053 121.966 10.3766 122.406C10.0479 122.845 9.67231 123.207 9.24973 123.487C8.64325 123.915 7.94287 124.156 7.15249 124.211C6.36211 124.265 5.60695 124.18 4.887 123.954C4.8557 123.946 4.8244 123.935 4.79701 123.923C4.11619 123.697 3.50971 123.343 2.97757 122.872C2.42196 122.378 2.07373 121.799 1.93678 121.125C1.87026 120.849 1.83896 120.499 1.83505 120.063C1.83505 119.628 1.8507 119.18 1.88983 118.721C1.92895 118.258 1.98373 117.81 2.04634 117.371C2.11285 116.935 2.19111 116.565 2.2811 116.266C2.48065 115.32 2.75455 114.414 3.10669 113.542C3.45884 112.675 3.86577 111.865 4.33922 111.114C4.42138 110.644 4.69136 110.348 5.14916 110.231C5.42696 110.161 5.70868 110.134 6.00214 110.146C6.19386 110.153 6.39342 110.181 6.59297 110.227C7.0938 110.34 7.55159 110.531 7.96635 110.787C8.3811 111.048 8.58456 111.313 8.58065 111.593C8.55326 111.768 8.47892 111.935 8.35762 112.099C8.23633 112.258 8.09155 112.464 7.92722 112.717C7.81375 112.916 7.71202 113.118 7.61811 113.332C7.5242 113.546 7.4616 113.713 7.43421 113.834C7.20336 114.488 6.95685 115.102 6.69861 115.678C6.43646 116.254 6.20952 116.83 6.00996 117.402C5.81041 117.974 5.65782 118.573 5.55608 119.192C5.45827 119.81 5.4387 120.487 5.50913 121.211C5.5287 121.246 5.55608 121.269 5.5913 121.285C5.62651 121.301 5.64608 121.343 5.64999 121.413C6.22908 121.141 6.72991 120.838 7.14858 120.495C7.57116 120.153 7.95461 119.795 8.30284 119.414C8.65108 119.032 8.98758 118.631 9.31625 118.207C9.64492 117.783 10.0088 117.355 10.404 116.919C10.7248 116.332 11.1474 115.713 11.6756 115.064C12.2039 114.414 12.6499 113.768 13.0216 113.126C13.0568 113.087 13.0764 113.052 13.0842 113.021C13.0921 112.986 13.1038 112.943 13.1155 112.889C13.1312 112.834 13.1625 112.764 13.2094 112.675C13.2564 112.585 13.3307 112.468 13.4286 112.324L15.205 110.052C15.3106 110.134 15.381 110.149 15.4162 110.095C15.4475 110.04 15.4789 109.955 15.5062 109.83C15.5375 109.71 15.5767 109.577 15.6314 109.433C15.6862 109.293 15.788 109.165 15.9406 109.056C15.9679 108.897 16.0619 108.788 16.2223 108.718C16.3866 108.648 16.5079 108.589 16.594 108.531C16.9031 108.064 17.2357 107.683 17.5878 107.391C17.94 107.095 18.253 106.912 18.5308 106.838C18.6247 106.815 18.7147 106.803 18.789 106.807C18.9338 106.819 19.0473 106.881 19.1255 107.006C19.2468 107.192 19.2351 107.531 19.0825 108.021C18.9377 108.235 18.836 108.5 18.7812 108.803C18.7264 109.111 18.5856 109.476 18.3626 109.904C18.3195 110.064 18.253 110.216 18.163 110.371C18.073 110.523 17.9948 110.679 17.9243 110.838C17.8539 110.998 17.7991 111.153 17.7639 111.301C17.7287 111.453 17.7404 111.593 17.7991 111.729C17.3883 112.285 17.0009 112.865 16.637 113.464C16.2731 114.064 15.9171 114.667 15.5728 115.274C15.2284 115.881 14.8763 116.488 14.5202 117.095C14.1642 117.702 13.7924 118.285 13.4012 118.842C13.139 119.2 12.8299 119.573 12.4738 119.954L12.4699 119.95ZM34.7179 113.379C34.2679 113.959 33.7593 114.686 33.1841 115.558C31.9829 116.943 30.9225 118.235 30.003 119.433C29.0835 120.631 28.1601 121.674 27.2367 122.561C26.7672 122.997 26.2898 123.23 25.8125 123.269C25.3351 123.304 24.8851 123.199 24.4665 122.946C24.0439 122.694 23.6604 122.324 23.3083 121.834C22.9561 121.347 22.6822 120.795 22.4827 120.188C22.2831 119.581 22.1736 118.939 22.1462 118.262C22.1188 117.585 22.2088 116.931 22.4084 116.301C21.8684 116.756 21.3597 117.332 20.8824 118.024C20.405 118.721 19.9394 119.468 19.4933 120.266C19.0434 121.063 18.6012 121.876 18.163 122.701C17.7248 123.526 17.2748 124.293 16.817 125.005C16.5744 125.067 16.2849 125.082 15.9445 125.051C15.6041 125.02 15.2754 124.942 14.9663 124.818C14.7511 124.728 14.5515 124.616 14.3794 124.483C14.305 124.429 14.2385 124.367 14.172 124.304C13.9529 124.09 13.8394 123.814 13.8238 123.487C13.812 123.211 13.8746 122.896 14.0077 122.542C14.1407 122.188 14.3128 121.834 14.5124 121.48C14.7159 121.125 14.9389 120.771 15.1776 120.425C15.4162 120.079 15.6275 119.768 15.8075 119.503C16.6136 118.324 17.4274 117.126 18.2413 115.904C19.0551 114.682 19.8611 113.554 20.6554 112.515C21.0663 111.928 21.4576 111.336 21.8293 110.737C22.1971 110.142 22.6001 109.609 23.0344 109.142C23.2848 108.854 23.5704 108.667 23.8874 108.574C24.1926 108.488 24.5017 108.461 24.8147 108.492C24.8304 108.492 24.846 108.492 24.8656 108.496C25.1982 108.535 25.5151 108.624 25.8164 108.756C26.1177 108.893 26.3681 109.052 26.5676 109.235C26.5598 109.912 26.4698 110.64 26.3016 111.418C26.1333 112.196 25.9572 112.994 25.7812 113.807C25.6051 114.62 25.4603 115.441 25.3429 116.27C25.2295 117.098 25.2138 117.919 25.296 118.729C25.4916 118.81 25.8125 118.659 26.2585 118.289C26.7046 117.916 27.2445 117.39 27.8706 116.717C28.4966 116.04 29.1931 115.254 29.96 114.355C30.7269 113.457 31.5173 112.534 32.335 111.581C33.1528 110.628 33.9823 109.694 34.8275 108.776C35.6726 107.858 36.4904 107.037 37.2808 106.313C37.4999 106.13 37.7738 106.01 38.1024 105.955C38.1964 105.94 38.2824 105.924 38.3568 105.908C38.5485 105.869 38.6776 105.827 38.748 105.788C38.9593 105.85 39.1354 105.881 39.2763 105.885C39.4132 105.885 39.5228 105.901 39.6049 105.924C39.6832 105.947 39.738 105.998 39.7693 106.076C39.8006 106.153 39.8006 106.297 39.7732 106.504C39.4171 107.227 39.0885 107.838 38.7833 108.325C38.482 108.815 38.1807 109.251 37.8794 109.636C37.582 110.021 37.2769 110.383 36.9677 110.725C36.6586 111.068 36.3143 111.449 35.9387 111.873C35.5631 112.297 35.1522 112.799 34.7023 113.379H34.7179ZM41.1622 116.628C40.9627 116.986 40.7788 117.309 40.6144 117.604C40.4462 117.9 40.2779 118.184 40.1019 118.464C39.9297 118.74 39.7028 119.071 39.421 119.452C39.2293 119.694 38.9867 119.966 38.6894 120.269C38.392 120.573 38.1064 120.95 37.8246 121.402C37.5977 121.729 37.3864 122.055 37.1947 122.378C37.003 122.697 36.7878 122.958 36.553 123.157C36.3182 123.355 36.0326 123.472 35.7039 123.507C35.5552 123.522 35.3909 123.511 35.2148 123.476C34.9918 123.429 34.7453 123.347 34.4753 123.223C34.894 121.697 35.3792 120.316 35.9269 119.075C36.4786 117.838 37.0695 116.647 37.7073 115.515C38.345 114.379 39.0141 113.239 39.7223 112.095C40.4266 110.951 41.1661 109.71 41.933 108.375C42.2343 108.227 42.5552 108.177 42.8878 108.227C42.8995 108.227 42.9151 108.231 42.9269 108.235C43.2751 108.297 43.6038 108.43 43.909 108.64C44.2142 108.846 44.4685 109.107 44.6798 109.418C44.8872 109.729 45.0006 110.052 45.0202 110.379C45.0202 110.554 44.9772 110.717 44.8911 110.873C44.805 111.029 44.6954 111.188 44.5624 111.352C44.4333 111.519 44.2846 111.69 44.1164 111.873C43.9481 112.056 43.8073 112.258 43.686 112.484C43.3377 113.04 43.0325 113.538 42.7704 113.978C42.5082 114.422 42.2382 114.865 41.9604 115.316C41.6278 115.838 41.3618 116.274 41.1622 116.628ZM72.0417 118.048C71.5292 118.534 70.9696 119.013 70.3671 119.491C69.7645 119.97 69.1346 120.429 68.4733 120.869C67.812 121.312 67.1664 121.721 66.5365 122.102C66.153 122.347 65.6992 122.577 65.1788 122.791C64.6544 123.009 64.1145 123.18 63.5589 123.312C62.9994 123.441 62.4477 123.499 61.896 123.479C61.4968 123.468 61.1251 123.402 60.7925 123.281C60.6673 123.238 60.55 123.188 60.4326 123.129C60.0061 122.911 59.65 122.565 59.3722 122.087C59.0944 121.612 58.9457 120.974 58.9262 120.176C58.9262 120.024 58.9262 119.873 58.9379 119.725C58.6366 119.896 58.3197 120.067 57.9793 120.242C57.1498 120.666 56.2694 121.087 55.3382 121.503C54.403 121.919 53.464 122.32 52.5131 122.701C51.5623 123.083 50.6585 123.421 49.8055 123.717C49.1951 123.923 48.5691 124.102 47.9235 124.25C47.2779 124.398 46.6518 124.456 46.0414 124.433C45.431 124.409 44.852 124.262 44.3042 123.989C43.7838 123.736 43.3377 123.32 42.966 122.744C42.9425 122.713 42.9269 122.682 42.9034 122.651C42.4339 121.838 42.2108 121.118 42.2343 120.491C42.2617 119.865 42.43 119.293 42.743 118.775C43.056 118.258 43.459 117.768 43.9481 117.305C44.4372 116.846 44.9067 116.375 45.3606 115.888C46.1432 115.04 47.0627 114.208 48.1074 113.39C49.1521 112.577 50.2516 111.78 51.4019 110.998C51.7854 110.721 52.2158 110.414 52.697 110.075C53.1783 109.737 53.6713 109.414 54.1878 109.099C54.7004 108.788 55.2169 108.511 55.7294 108.266C56.242 108.025 56.735 107.873 57.2085 107.811C57.678 107.749 58.1123 107.803 58.5036 107.967C58.8949 108.134 59.2235 108.457 59.4857 108.943C59.6931 109.325 59.7831 109.698 59.7478 110.064C59.7322 110.216 59.7048 110.367 59.6618 110.515C59.6031 110.725 59.517 110.935 59.4074 111.142C59.2157 111.5 58.9731 111.854 58.6758 112.208C58.3784 112.562 58.0732 112.924 57.7602 113.285C57.4315 113.702 57.0911 114.114 56.7389 114.523C56.3907 114.931 56.0542 115.204 55.7334 115.344C55.4125 115.48 55.1151 115.433 54.8452 115.2C54.5752 114.966 54.3521 114.406 54.18 113.523C52.5405 114.476 51.0106 115.55 49.5903 116.748C48.17 117.943 46.867 119.375 45.6776 121.04C46.3388 121.11 47.0079 121.087 47.677 120.974C48.3461 120.861 49.0191 120.705 49.692 120.507C50.3611 120.308 51.038 120.083 51.7189 119.83C52.3997 119.577 53.0883 119.355 53.7848 119.164C54.2895 119.044 54.8021 118.896 55.3147 118.721C55.8273 118.546 56.3398 118.394 56.8446 118.266C57.3493 118.137 57.8658 118.044 58.3862 117.993C58.711 117.962 59.0396 117.962 59.3644 117.993C59.5952 117.437 59.8731 116.896 60.2135 116.371C60.5969 115.776 61.0234 115.192 61.4929 114.628C61.9625 114.064 62.4085 113.507 62.8272 112.951C63.7702 111.702 64.6623 110.659 65.5074 109.819C66.3526 108.978 67.2995 108.348 68.3442 107.932C68.5711 107.862 68.7668 107.862 68.9311 107.932C69.0993 108.002 69.2519 108.099 69.3889 108.231C69.5258 108.36 69.6628 108.504 69.7958 108.659C69.9171 108.803 70.0501 108.92 70.1949 109.005C70.2067 109.013 70.2145 109.017 70.2184 109.021C70.2184 109.021 70.2223 109.021 70.2262 109.021C70.7662 108.815 71.3101 108.791 71.8618 108.959C72.4095 109.122 72.8947 109.426 73.3134 109.869C73.7321 110.313 74.0529 110.865 74.2798 111.535C74.5068 112.204 74.5694 112.935 74.4637 113.733C74.3933 114.149 74.2407 114.639 74.006 115.2C73.7712 115.764 73.5325 116.239 73.286 116.62C72.973 117.087 72.5582 117.565 72.0457 118.052L72.0417 118.048ZM58.5818 116.635C58.441 116.857 58.3079 117.087 58.1827 117.316C58.1123 117.324 58.038 117.332 57.9675 117.34C58.0693 117.235 58.1671 117.126 58.2688 117.009C58.3745 116.888 58.4801 116.76 58.5858 116.635H58.5818ZM54.2152 118.297C53.9296 118.382 53.6479 118.46 53.374 118.526C53.3544 118.53 53.3348 118.538 53.3153 118.542C52.5914 118.74 51.8715 118.97 51.1632 119.231C51.8558 118.663 52.5797 118.122 53.3309 117.608C53.4209 117.713 53.5148 117.807 53.6165 117.892C53.8044 118.056 54.0078 118.192 54.2191 118.297H54.2152ZM112.954 106.021C112.625 106.76 112.32 107.379 112.038 107.881C111.752 108.383 111.471 108.83 111.185 109.223C110.899 109.62 110.61 109.994 110.316 110.348C110.019 110.702 109.694 111.095 109.334 111.531C108.974 111.966 108.583 112.484 108.157 113.083C107.73 113.682 107.249 114.429 106.705 115.32C105.558 116.748 104.549 118.079 103.673 119.312C102.8 120.546 101.916 121.624 101.027 122.542C100.574 122.993 100.108 123.246 99.6306 123.3C99.1533 123.355 98.6994 123.265 98.2729 123.028C97.8425 122.791 97.4434 122.437 97.0756 121.962C96.7078 121.487 96.4104 120.95 96.1874 120.347C95.9644 119.748 95.8274 119.11 95.7766 118.437C95.7218 117.764 95.7844 117.106 95.9644 116.468C95.4401 116.943 94.9549 117.538 94.5049 118.25C94.0549 118.962 93.6206 119.729 93.202 120.542C92.7833 121.355 92.3725 122.184 91.9655 123.024C91.5586 123.865 91.1399 124.651 90.7056 125.378C90.4669 125.448 90.1774 125.475 89.8331 125.46C89.4888 125.444 89.1601 125.378 88.8471 125.261C88.534 125.149 88.2601 124.985 88.0371 124.775C87.8102 124.569 87.685 124.297 87.6576 123.97C87.6341 123.693 87.685 123.378 87.8063 123.02C87.8845 122.787 87.9823 122.553 88.0919 122.32C87.9276 122.347 87.7632 122.367 87.5989 122.374C87.3641 122.382 87.1411 122.367 86.9298 122.32C86.7224 122.277 86.5385 122.219 86.382 122.153C85.9438 121.981 85.3843 121.701 84.6956 121.32C84.007 120.939 83.2792 120.55 82.5123 120.149C81.7454 119.752 80.9863 119.386 80.2351 119.059C79.4838 118.733 78.8499 118.523 78.3256 118.433C77.9774 118.729 77.6253 119.083 77.2653 119.499C76.9092 119.915 76.5532 120.347 76.2049 120.799C75.8567 121.25 75.5124 121.701 75.172 122.149C74.945 122.448 74.7259 122.729 74.5107 122.981C74.4051 123.11 74.2955 123.23 74.1938 123.347C73.5325 123.262 73.1295 122.981 72.9886 122.515C72.8478 122.048 72.8673 121.48 73.0395 120.81C73.2156 120.145 73.509 119.414 73.916 118.628C74.3268 117.838 74.7533 117.079 75.1993 116.351C75.6454 115.624 76.0602 114.974 76.4553 114.402C76.8466 113.83 77.1244 113.422 77.277 113.18C76.5258 112.99 76.0797 112.764 75.931 112.503C75.7823 112.243 75.8137 111.966 76.0249 111.671C76.2323 111.375 76.5727 111.072 77.0462 110.76C77.5157 110.449 78.0048 110.157 78.5095 109.889C79.0143 109.62 79.4799 109.383 79.9064 109.173C80.3329 108.967 80.6107 108.811 80.732 108.706C81.0294 108.48 81.2798 108.22 81.4911 107.924C81.6984 107.628 81.9097 107.395 82.1171 107.223C82.3245 107.052 82.571 106.99 82.8488 107.041C83.1266 107.091 83.4788 107.344 83.8935 107.795C84.3982 107.78 84.8756 107.741 85.3177 107.679C85.7638 107.616 86.202 107.574 86.6403 107.55C87.0746 107.523 87.5245 107.546 87.9863 107.616C88.448 107.686 88.941 107.85 89.4653 108.111C89.8996 108.317 90.2439 108.62 90.4982 109.021C90.6274 109.227 90.733 109.441 90.8074 109.659C90.8778 109.861 90.9208 110.072 90.9443 110.282C90.9873 110.725 90.9286 111.165 90.7604 111.608C90.5961 112.052 90.3104 112.429 89.9113 112.741C89.6492 112.966 89.3479 113.196 89.0075 113.429C88.6671 113.663 88.3149 113.896 87.9471 114.13C87.5832 114.363 87.2076 114.585 86.8242 114.791C86.4407 115.001 86.0846 115.18 85.7521 115.34C85.2473 115.585 84.7543 115.803 84.273 116.001C83.7918 116.2 83.2753 116.437 82.7158 116.717C82.9075 116.892 83.2127 117.095 83.6313 117.328C84.05 117.561 84.5117 117.818 85.0165 118.095C85.5212 118.371 86.0338 118.67 86.5464 118.993C87.0589 119.312 87.5128 119.643 87.9041 119.982C88.2954 120.316 88.5927 120.659 88.804 121.001C88.8314 120.954 88.8588 120.908 88.8901 120.857C89.117 120.499 89.3127 120.184 89.4848 119.912C90.2478 118.705 91.0108 117.476 91.7816 116.227C92.5485 114.978 93.3115 113.818 94.0667 112.748C94.458 112.145 94.8258 111.538 95.1701 110.928C95.5144 110.317 95.8979 109.772 96.3126 109.286C96.5513 108.99 96.8291 108.788 97.146 108.686C97.463 108.585 97.7877 108.546 98.1203 108.574C98.4529 108.601 98.7737 108.675 99.0828 108.799C99.388 108.924 99.6463 109.072 99.8537 109.247C99.8732 109.924 99.8106 110.655 99.6698 111.437C99.5289 112.223 99.388 113.025 99.2433 113.846C99.0985 114.667 98.9811 115.492 98.8989 116.324C98.8168 117.157 98.8324 117.978 98.9459 118.787C99.1455 118.861 99.4585 118.701 99.8928 118.309C100.327 117.919 100.844 117.375 101.442 116.674C102.045 115.974 102.71 115.165 103.442 114.239C104.173 113.313 104.929 112.359 105.711 111.375C106.49 110.395 107.284 109.426 108.094 108.476C108.904 107.527 109.686 106.675 110.449 105.92C110.661 105.729 110.931 105.601 111.259 105.531C111.584 105.461 111.799 105.399 111.901 105.336C112.116 105.391 112.292 105.414 112.433 105.414C112.574 105.414 112.684 105.422 112.762 105.441C112.844 105.461 112.899 105.508 112.93 105.585C112.961 105.659 112.969 105.803 112.95 106.013L112.954 106.021ZM90.4317 116.083C90.3535 116.207 90.2791 116.328 90.2009 116.453C89.6453 117.359 89.0779 118.27 88.5106 119.172C88.2406 118.978 87.9549 118.783 87.6537 118.596C87.4228 118.452 87.192 118.312 86.9611 118.176C87.235 118.04 87.5285 117.888 87.8258 117.729C88.2523 117.499 88.671 117.25 89.0701 116.993C89.4496 116.748 89.8252 116.499 90.1852 116.254C90.2674 116.196 90.3496 116.141 90.4278 116.083H90.4317Z" fill="white"/>
<path d="M85.8069 112.078C86.4329 111.654 87.1216 111.191 87.8728 110.689C87.8728 110.674 87.8728 110.658 87.8728 110.646C87.8728 110.576 87.8611 110.518 87.8493 110.467C87.8337 110.405 87.7633 110.386 87.642 110.401C86.386 110.296 85.353 110.358 84.5431 110.584C83.7331 110.81 83.0405 111.152 82.4654 111.611C81.8902 112.07 81.3855 112.627 80.9472 113.277C80.509 113.926 80.0316 114.642 79.5073 115.42C80.3955 115.055 81.1898 114.701 81.8863 114.354C82.5828 114.008 83.2557 113.65 83.9014 113.277C84.547 112.903 85.1808 112.506 85.8108 112.078H85.8069Z" fill="white"/>
<path d="M87.0433 53.6533C86.1395 53.2292 83.8466 52.1593 83.5962 52.0892C83.3888 52.027 80.9864 51.1126 79.2021 50.7897C79.1748 50.6574 79.1513 50.5251 79.12 50.3967C78.9126 49.5057 78.7483 48.6069 78.5644 47.7081C78.2435 47.1984 78.1144 46.6031 77.8014 46.0818C77.5118 45.6032 77.3984 45.0312 77.0814 44.5604C77.0658 44.5371 77.0501 44.5137 77.0345 44.4943C77.0306 44.4826 77.0227 44.4748 77.0188 44.4671C76.9993 44.4243 76.9719 44.3815 76.9445 44.3425H76.9406C76.9406 44.3425 76.9288 44.3075 76.921 44.292C76.8349 44.0819 76.741 43.8834 76.6471 43.6811C76.6354 43.6616 76.6275 43.6422 76.6236 43.6227C76.385 43.1169 76.1345 42.615 75.8763 42.117C75.6024 41.5839 75.3794 41.0353 75.0898 40.5062C74.5303 39.479 74.1351 38.3623 73.5482 37.3429C73.5404 37.3234 73.5326 37.3079 73.5208 37.2923V37.2806C73.4856 37.09 73.2665 36.9655 73.3213 36.732C73.3408 36.6659 73.2234 36.6892 73.1648 36.6815C73.1608 36.6815 73.1569 36.6776 73.153 36.6776C73.0904 36.6075 73.0356 36.5258 72.9887 36.4441C72.9026 36.2963 72.8361 36.1406 72.7539 35.9967C72.7422 35.9733 72.7304 35.9539 72.7226 35.9305C72.7226 35.9266 72.7187 35.9227 72.7187 35.915V35.9033C72.7187 35.9033 72.7187 35.8994 72.7187 35.8955C72.707 35.8488 72.7148 35.7982 72.7696 35.7515C72.8596 35.6737 72.9222 35.5803 72.9613 35.487C72.973 35.4558 72.9848 35.4286 72.9926 35.4014C72.9926 35.3975 72.9965 35.3936 72.9965 35.3897C73.0043 35.3663 73.0082 35.343 73.0122 35.3197C73.0356 35.2146 73.0435 35.1096 73.0513 35.0045C73.0513 34.9578 73.0552 34.915 73.0591 34.8683C73.0591 34.7905 73.063 34.7049 73.0239 34.6388C72.5935 33.9112 72.1709 33.1719 71.5253 32.6C71.4353 32.5182 71.3179 32.4832 71.2201 32.3976C70.2693 31.5494 69.2755 30.7596 68.1016 30.2188C68.1016 30.2149 68.0938 30.2149 68.086 30.211C67.7495 30.0865 67.3973 30.0048 67.0648 29.8647C67.0491 29.8569 67.0374 29.853 67.0256 29.8452C66.9982 29.8336 66.9748 29.8258 66.9513 29.8141C66.8496 29.8063 66.7517 29.7635 66.6461 29.7752C66.6031 29.7752 66.5561 29.7713 66.5131 29.7674H66.5091C66.4426 29.7596 66.38 29.7519 66.3096 29.7596C66.2666 29.7596 66.2235 29.7596 66.1805 29.7752C66.1022 29.7946 66.0357 29.8297 66.0005 29.9153C65.9927 29.9308 65.9887 29.9425 65.9887 29.9581L65.8518 29.9153C65.844 29.8919 65.8322 29.8686 65.8244 29.8452C65.8127 29.818 65.8009 29.7908 65.7853 29.7596C65.7344 29.5145 65.7775 29.2616 65.6953 29.0243C65.6053 28.8103 65.6483 28.5846 65.6444 28.3628C65.6483 28.2655 65.6444 28.1722 65.6209 28.0749C65.6249 27.9971 65.6209 27.9193 65.6131 27.8414V27.8337C65.5975 27.7014 65.5701 27.5691 65.5427 27.4368C65.5427 27.4329 65.5388 27.429 65.5388 27.4251C65.5075 27.2656 65.4762 27.1061 65.4723 26.9388C65.4018 26.8143 65.4097 26.6936 65.4527 26.5536C65.4996 26.3979 65.5466 26.2306 65.4644 26.0633C65.3862 25.8999 65.394 25.717 65.3705 25.5381C65.3275 25.1996 65.2923 24.8572 65.2727 24.5148C65.2414 24.0595 65.1788 23.6082 65.1084 23.1569C65.0888 23.0168 65.081 22.8806 65.0771 22.7405C65.0771 22.6588 65.0692 22.581 65.0692 22.5032C65.0692 22.2425 65.0536 21.9818 64.9949 21.7134C64.9127 21.3554 64.8775 20.9897 64.8501 20.6239C64.8462 20.5617 64.8423 20.4994 64.8384 20.4333C64.8188 20.1726 64.8032 19.9119 64.7758 19.6551C64.7758 19.6317 64.7758 19.6084 64.768 19.5851C64.7601 19.5111 64.7523 19.445 64.7406 19.3711V19.3555C64.7406 19.3555 64.7406 19.3555 64.7367 19.3477V19.3322C64.7288 19.2271 64.7171 19.1182 64.7054 19.0131C64.6897 18.8497 64.6701 18.6863 64.6467 18.5229C64.6349 18.4217 64.6232 18.3205 64.6075 18.2194C64.6036 18.161 64.5958 18.1026 64.588 18.0443C64.5723 17.9392 64.5567 17.8342 64.5449 17.7291C64.5254 17.5891 64.5058 17.4529 64.4862 17.3167C64.4706 17.1961 64.4549 17.0793 64.4393 16.9626C64.4002 16.6903 64.3649 16.4218 64.3376 16.1494C64.3297 16.1183 64.3297 16.0872 64.3258 16.0561C64.3258 16.0327 64.3297 16.0094 64.3297 15.9899V15.9432C64.3336 15.9199 64.3297 15.9004 64.3258 15.881C64.3102 15.7565 64.2319 15.6514 64.2241 15.523C64.2084 15.3752 64.1967 15.2273 64.181 15.0795C64.181 15.0795 64.1797 15.0769 64.1771 15.0717C64.1771 15.0444 64.1732 15.0133 64.1693 14.9822C64.0402 13.8577 63.8093 12.7527 63.645 11.636C63.602 11.3676 63.2498 9.71786 63.2459 9.38714C63.242 9.27819 63.2146 9.16925 63.1911 9.05641C63.1872 9.04474 63.1833 9.03307 63.1794 9.0175C63.1794 9.00972 63.1755 9.00194 63.1716 8.99027C63.1676 8.9786 63.1637 8.96692 63.1598 8.95525C63.1598 8.94747 63.1598 8.9358 63.1559 8.92412C63.152 8.89689 63.1481 8.87354 63.1442 8.84631C63.1285 8.75293 63.1129 8.65955 63.0933 8.56617C63.0698 8.4261 63.0424 8.28213 63.0111 8.14595C62.9994 8.07203 62.9837 8.00199 62.9681 7.93585C62.9368 7.78021 62.9055 7.62847 62.8742 7.47673C62.8742 7.47673 62.8729 7.47413 62.8703 7.46895C62.8507 7.36778 62.8312 7.2744 62.8077 7.17324C62.7725 7.00593 62.7372 6.84252 62.7059 6.67521L62.659 6.43398C62.659 6.43398 62.6512 6.39896 62.6472 6.3834C62.6472 6.37951 62.6472 6.37562 62.6472 6.37173C62.6316 6.32893 62.6238 6.29002 62.6238 6.25111C62.6238 6.16551 62.6512 6.0838 62.6629 6.00209V5.99042C62.6629 5.99042 62.6668 5.96708 62.6668 5.9593C62.5533 5.78032 62.4477 5.59356 62.4242 5.38345C62.3929 5.15 62.3734 4.92044 62.2716 4.70644C62.2051 4.56248 62.1855 4.41852 62.2442 4.27067C62.2442 4.26677 62.2481 4.26288 62.2481 4.2551C62.2481 4.2551 62.2481 4.24343 62.256 4.23954C61.9821 3.65202 61.8295 3.02948 61.6925 2.40695C61.6925 2.40695 61.6847 2.3836 61.6808 2.37193C61.6573 2.25131 61.6299 2.13848 61.6065 2.02175C61.5517 1.77663 61.493 1.54318 61.3326 1.34864C61.2543 1.25137 61.2034 1.14242 61.1643 1.0257C61.1604 1.01402 61.1604 1.00235 61.1565 0.990678C61.1526 0.979006 61.1487 0.967333 61.1447 0.959551C60.9921 0.67941 60.9178 0.356469 60.6244 0.161927C60.1783 -0.129887 59.7635 0.0218561 59.3488 0.231962C59.2197 0.426505 59.0162 0.547121 58.9184 0.776681C58.5936 1.55096 58.4058 2.36026 58.1789 3.15788C57.8932 4.15005 57.6741 5.16167 57.4198 6.16162C57.0129 7.788 56.5472 9.39881 56.1638 11.0291C55.8195 12.4765 55.4086 13.9083 55.0095 15.344C54.5165 17.1066 54.047 18.8769 53.6088 20.6512C53.417 21.4254 53.2136 22.1997 53.0297 22.974C52.7636 24.0984 52.4741 25.2151 52.1689 26.3279C51.9224 27.2189 51.7111 28.1138 51.488 29.0126C51.4489 29.1838 51.3824 29.3433 51.1946 29.3822C50.4786 29.534 49.8916 29.9425 49.2773 30.3005C48.0683 31.0125 47.2544 32.098 46.4601 33.203C46.108 33.6933 45.9202 34.2886 45.3802 34.6621C44.9185 34.9812 44.5038 35.378 44.0812 35.7554C43.553 36.2184 43.0091 36.6659 42.5161 37.1639C41.8627 37.8215 41.2092 38.4829 40.5832 39.1638C40.1254 39.6657 39.7811 40.2105 39.5737 40.8408C39.3272 41.6034 39.1433 42.3893 38.889 43.1519C38.302 44.9223 37.6799 46.6809 37.1908 48.4824C37.003 49.1711 36.7995 49.8598 36.4591 50.5018C34.8979 50.3539 31.0556 51.8285 30.7895 51.9025C30.5196 51.9803 27.8511 53.2254 27.1468 53.5561C19.6186 52.9608 18.7108 54.1708 19.0865 56.0812C20.3346 62.3961 33.1098 69.0222 33.1098 69.0222C33.1646 69.0611 33.2233 69.0923 33.2898 69.1117C33.8415 69.2635 34.3854 69.4346 34.9332 69.5864C35.2657 69.6798 35.6061 69.7576 35.9426 69.8315C36.3457 69.921 36.4943 70.3451 36.8582 70.4968C37.0734 70.5863 37.2182 70.7887 37.3708 70.9676C37.946 71.6408 38.2707 72.4734 38.8264 73.1582C39.4837 73.9636 39.9102 74.9246 40.6184 75.695C40.6927 75.7767 40.7514 75.8701 40.7749 75.9829C40.8923 76.4926 41.0488 76.9907 41.1271 77.5043C41.2484 78.2824 41.4283 79.0528 41.5848 79.8232C41.8274 81.0411 42.0466 82.2667 42.2813 83.4845C42.3204 83.6713 42.3517 83.8503 42.3831 84.037C42.3831 84.0448 42.3831 84.0487 42.3831 84.0565C42.3831 84.0642 42.387 84.0759 42.387 84.0837L42.9113 87.7216C42.9152 87.7528 42.9191 87.7839 42.923 87.815C42.9934 88.3247 43.056 88.8305 43.1108 89.3402C43.2556 90.6242 43.4434 91.9043 43.6508 93.1805C43.7369 93.7058 43.7877 94.2466 43.9247 94.7602C43.9247 94.7602 43.9286 94.7719 43.9286 94.7758V94.8147L43.9364 94.8186C43.9951 95.0442 44.0734 95.2621 44.1751 95.4722C44.4764 96.1064 44.9185 96.6589 45.345 97.2153C45.9084 97.9468 46.4054 98.7366 46.9923 99.4487C47.9587 100.62 48.9213 101.795 49.966 102.9C50.2594 103.207 50.4981 103.616 50.9676 103.705C52.9671 104.087 54.8648 104.865 56.8916 105.122C57.4041 105.184 58.5428 104.915 58.6249 104.966L59.6462 104.732C60.0961 104.371 60.5031 103.95 60.9374 103.565C62.2012 102.441 63.3789 101.231 64.5802 100.044C65.7931 98.8417 67.0178 97.6472 68.2308 96.4372C68.4812 96.1881 68.8098 95.9586 68.9116 95.6201C69.0211 95.2349 69.2168 94.9042 69.4907 94.6629C69.9446 94.2661 70.0619 93.7486 70.0971 93.2272C70.1284 92.772 70.2145 92.3284 70.2458 91.8732C70.3319 90.7799 70.4923 89.6943 70.6019 88.601C70.6723 87.9356 70.6488 87.2547 70.7741 86.6011C70.9071 85.9124 70.864 85.212 70.9932 84.5195C71.1223 83.8541 71.1379 83.1693 71.2005 82.4923C71.2592 81.8737 71.2905 81.2589 71.3766 80.6442C71.4784 79.8971 71.404 79.1384 71.6662 78.3992C72.6052 75.7612 73.7438 73.201 74.8159 70.6175C74.9333 70.3412 75.082 70.2362 75.3716 70.2011C75.8059 70.1544 76.0602 70.1233 76.2402 70.0377C76.2793 70.0183 76.3145 69.9988 76.3458 69.9755C77.7427 69.2051 92.3725 60.972 92.3725 55.8011C92.3725 54.0074 90.8231 53.4938 87.0472 53.6533H87.0433ZM75.3481 61.4584C74.7768 62.151 74.1977 62.8435 73.6265 63.54C73.0865 64.2014 72.57 64.8823 72.0301 65.5477C71.3101 66.4387 70.5471 67.2986 69.8624 68.2168C69.4007 68.8316 68.8803 69.4035 68.4381 70.0299L65.9614 70.4346L65.1006 69.9054C65.1984 69.7809 65.3001 69.6525 65.4097 69.5241C66.427 68.3141 67.4482 67.104 68.4616 65.8862C69.6002 64.5166 70.7388 63.1431 71.8657 61.7619C72.2805 61.2522 73.1413 60.1394 73.9512 59.085C74.6164 58.2212 75.2424 57.3925 75.5711 56.9645C75.7667 56.7038 76.0367 56.731 76.2637 56.7116C77.1127 56.6454 77.9501 56.4937 78.7952 56.3769C78.8774 56.3653 78.9869 56.3147 79.03 56.4314C79.0652 56.5404 79.0535 56.6532 78.9713 56.7466C78.3296 57.4586 76.3341 60.26 75.7276 60.9993C75.6024 61.151 75.4733 61.3067 75.3481 61.4584ZM33.5324 67.7305C33.458 67.7032 32.8672 67.7343 32.2725 67.3453C31.9086 67.1079 31.9438 67.2597 31.4586 66.8278C31.1495 66.5593 31.5173 66.1936 31.7951 65.9445C32.6755 65.1586 35.1562 62.863 36.0209 62.0537C37.1126 61.0343 38.2003 60.0071 39.2763 58.9683C40.0745 58.2018 40.8492 57.4119 41.6357 56.6337C41.9292 56.4236 42.2735 56.5092 42.5709 56.5598C42.9348 56.6143 43.3065 56.6221 43.6664 56.6493C44.1438 56.6804 44.6211 56.7855 45.1024 56.7738C45.1924 56.7699 45.3098 56.7505 45.3411 56.8477C45.345 56.8555 45.345 56.8594 45.345 56.8633C45.3685 56.9684 45.2628 57.0345 45.1885 57.0851C44.4099 57.5948 43.7643 58.2601 43.056 58.8515C41.8627 59.8281 40.7475 60.8864 39.5698 61.8708C38.5916 62.6918 37.7073 63.6023 36.7448 64.431C36.1148 64.9718 35.5318 65.5788 34.9371 66.1624C34.4754 66.6177 34.0215 67.069 33.6772 67.6215C33.6459 67.6721 33.6185 67.7577 33.5324 67.7305ZM37.9499 51.5017C38.4585 49.6574 38.9985 47.821 39.5267 45.9806C39.9337 44.5643 40.3328 43.1403 40.7397 41.7201C40.9392 41.0159 41.2366 40.3778 41.8001 39.8486C42.5826 39.1132 43.3299 38.3351 44.0538 37.5413C44.2533 37.3234 44.4138 37.0667 44.6916 36.8838C44.6838 37.0239 44.6564 37.1172 44.6251 37.2145C44.2807 38.3973 44.1242 39.5996 44.1673 40.8291C44.179 41.1131 44.2064 41.3855 44.3355 41.6423C44.3707 41.7007 44.402 41.7629 44.4294 41.8252C44.4842 41.938 44.539 42.0508 44.6172 42.1442C44.6446 42.1753 44.6798 42.2065 44.7151 42.2298C44.7894 42.2804 44.8481 42.3388 44.8872 42.401C44.9224 42.4477 44.9498 42.5022 44.9655 42.5566C44.989 42.6306 44.9968 42.7123 44.9968 42.7979C44.9968 42.829 44.9968 42.864 44.9929 42.899C44.985 43.0313 44.989 43.1675 44.9929 43.2998V43.3348C44.9968 43.4321 45.0007 43.5099 45.0124 43.5683C45.032 43.65 45.0672 43.6967 45.1376 43.7161C45.1611 43.7239 45.1885 43.7278 45.2198 43.7278C45.2824 43.7317 45.3646 43.7278 45.4663 43.7161C45.6659 43.6928 45.7324 43.7706 45.7324 43.9535C45.7363 44.1636 45.7324 44.3776 45.7559 44.5877C45.8302 45.2024 46.0141 45.7899 46.1471 46.3891C46.155 46.4203 46.1589 46.4553 46.1667 46.4825C46.1784 46.5292 46.1863 46.5759 46.2019 46.6187C46.2449 46.751 46.3076 46.8716 46.4132 46.9689C46.4132 46.9689 46.4132 46.9728 46.4171 46.9728C46.4406 46.9961 46.4719 47.0233 46.5071 47.0428C46.5658 47.0856 46.6206 47.1284 46.6675 47.1751C46.9062 47.4008 47.0197 47.7081 47.0666 48.0311C47.1097 48.3151 47.2231 48.5486 47.4031 48.7509C47.6379 49.0077 47.8922 49.2411 48.1779 49.4435C48.5652 49.7275 49.0113 49.9142 49.4143 50.1671C49.4182 50.1671 49.4182 50.171 49.4182 50.171C49.5238 50.2372 49.6295 50.3072 49.7273 50.3889C49.8877 50.4901 50.0482 50.599 50.2242 50.6807C51.3628 51.1982 52.568 51.4978 53.7888 51.7624C54.9313 52.0153 56.1012 52.0698 57.2594 52.1982C58.3628 52.3227 59.4857 52.276 60.593 52.2021C61.2347 52.1593 61.8921 52.0892 62.522 51.9375C62.9564 51.8324 63.4102 51.8208 63.8406 51.6807C64.9401 51.3344 65.9809 50.8831 66.9161 50.1905C67.3856 49.8442 67.7612 49.4629 67.8434 48.8559C67.8551 48.747 67.9021 48.638 67.9686 48.5486C68.4812 47.821 68.7238 46.9805 68.9977 46.1518C68.9977 46.1129 69.0094 46.0701 69.0133 46.0273C69.0916 45.5759 69.2559 45.1441 69.3655 44.6966C69.4046 44.5449 69.4398 44.3892 69.475 44.2375C69.475 44.2375 69.475 44.2349 69.475 44.2297L69.4946 44.1791V44.1441C69.5963 43.7161 69.6824 43.2842 69.7411 42.8485C69.7411 42.8407 69.745 42.829 69.745 42.8173C69.7528 42.7551 69.7606 42.6889 69.7685 42.6267C69.7724 42.6189 69.7724 42.6111 69.7724 42.6033C69.8154 42.2376 69.835 41.868 69.8272 41.4983C69.8193 41.2065 69.7998 40.9186 69.7606 40.6346C69.7528 40.5373 69.7489 40.4595 69.8233 40.4478C69.8311 40.4439 69.8389 40.4439 69.8467 40.4439H69.8506C69.878 40.4439 69.9132 40.4517 69.9602 40.4673C70.4454 40.6268 70.778 40.3972 70.8327 39.8953C70.8445 39.8175 70.8445 39.7397 70.868 39.6618V39.6346C70.868 39.6113 70.868 39.5879 70.864 39.5607C70.8523 39.1872 70.8054 38.8292 70.6919 38.4829L70.8406 38.1872C70.8875 38.2183 70.9345 38.2456 70.9814 38.2611C71.0675 38.2923 71.1536 38.3001 71.2436 38.2806H71.2475C71.4157 38.2417 71.5762 38.1172 71.7053 37.9071C71.7366 37.8526 71.7679 37.8254 71.8031 37.8176C71.8344 37.8098 71.8696 37.8215 71.9166 37.8487C71.9401 37.8604 71.9596 37.8721 71.9792 37.8876C72.0379 37.9382 72.0809 38.0005 72.1318 38.0549C72.5309 38.2495 72.7461 38.5958 72.9182 38.981C73.1491 39.4907 73.3917 39.9965 73.6147 40.5101C74.3268 42.1287 75.0507 43.7434 75.7628 45.3619C76.0993 46.1323 76.4045 46.9144 76.8075 47.6575C77.3279 48.6147 77.7075 49.6108 77.8483 50.6963C77.6292 50.7274 77.4649 50.7936 77.3671 50.9025C77.1049 51.2021 77.4375 51.7352 77.9931 52.3071C78.0205 52.5522 78.0518 52.8013 78.0909 53.0464C78.1692 53.525 78.2709 53.9919 78.4118 54.451C78.4118 54.4549 78.4118 54.4588 78.4157 54.4588C76.8154 54.6338 75.0546 54.8323 73.1256 55.0424C72.3509 55.0541 71.5723 55.0502 70.7936 55.1046C69.3733 55.2058 67.9373 55.1241 66.5091 55.1902C65.6327 55.233 64.7562 55.1474 63.8798 55.2603C63.2029 55.3459 62.522 55.4704 61.849 55.5132C60.4365 55.5988 59.024 55.5715 57.6076 55.6377C55.2952 55.7427 52.971 55.6649 50.6507 55.6649C50.4942 55.6649 50.3338 55.6883 50.1812 55.6377C49.8525 55.5287 49.5199 55.5521 49.1834 55.5443C48.5417 55.5287 47.8922 55.6104 47.2623 55.5015C46.5697 55.377 45.8732 55.3965 45.1846 55.3303C44.4568 55.2603 43.7212 55.2642 42.9974 55.1669C41.9096 55.0113 40.8062 55.0074 39.7224 54.8089C38.9594 54.6689 38.1847 54.5988 37.4412 54.3732C37.1282 54.2759 37.093 54.2097 37.1634 53.8868C37.3434 53.0658 37.7308 52.311 37.9499 51.5017ZM55.8156 16.9432C55.9799 16.7953 55.9799 16.6047 55.9525 16.4062C56.2538 15.2818 56.5512 14.1573 56.8564 13.0329C56.9542 12.6671 57.0598 12.3053 57.1576 11.9434C57.2202 11.7216 57.2985 11.7061 57.5098 11.8228C58.3119 12.278 59.1805 12.4337 60.1079 12.3753C60.7143 12.3364 61.2973 12.2158 61.8921 12.103C61.9469 12.0991 62.0095 12.1107 62.0525 12.0874C62.3029 11.9434 62.4164 11.9823 62.4555 12.3014C62.5299 12.9084 62.659 13.5075 62.749 14.1145C62.8742 14.9511 62.9877 15.7915 63.105 16.628C63.1324 16.8148 63.0659 16.9276 62.9133 17.0521C62.5768 17.3089 62.1777 17.4412 61.8295 17.6591C61.2074 18.0521 60.5148 18.2466 59.7948 18.2661C59.2353 18.2816 58.6719 18.2816 58.1006 18.1921C57.5215 18.0988 56.9777 17.9392 56.4338 17.7602C56.2342 17.6902 56.1716 17.4373 55.9642 17.4101C55.5573 17.3517 55.9369 17.0755 55.8156 16.9432ZM57.6467 9.97076C57.8854 9.11478 58.1124 8.2549 58.3315 7.39502C58.6641 6.10326 58.981 4.8076 59.3175 3.51584C59.4818 2.8972 59.6775 2.28244 59.8653 1.66769C59.8887 1.58987 59.9592 1.52372 60.0335 1.407C60.3465 2.34469 60.597 3.25515 60.9295 4.14227C61.09 4.56248 61.1565 5.04105 61.2504 5.49628C61.446 6.43009 61.6495 7.36 61.8295 8.2977C61.9625 8.97471 62.0564 9.6595 62.1895 10.3365C62.2286 10.5388 62.1581 10.6244 61.986 10.6828C61.1995 10.9513 60.4052 11.0835 59.5601 11.0563C58.9184 11.033 58.398 10.7684 57.8463 10.5427C57.6076 10.4454 57.5763 10.2237 57.6467 9.97076ZM54.2622 23.0518C54.3326 22.4876 54.5165 21.9507 54.6496 21.3982C54.8491 20.5811 55.0761 19.764 55.2795 18.947C55.3265 18.7446 55.393 18.7524 55.5456 18.838C56.5433 19.3983 57.6311 19.6162 58.7619 19.6395C59.6266 19.659 60.4874 19.6356 61.3247 19.3516C61.9703 19.1259 62.6003 18.8808 63.105 18.3983C63.2733 18.2388 63.375 18.1921 63.4063 18.4878C63.4768 19.1182 63.5589 19.7446 63.6333 20.3749C63.7389 21.2581 63.8485 22.1413 63.9463 23.0246C63.9737 23.2775 63.9815 23.5343 63.9972 23.7911C64.0089 23.9039 63.9619 23.9662 63.8524 24.0206C63.2889 24.2969 62.7294 24.5848 62.166 24.8688C62.0447 24.8377 61.9508 24.9 61.849 24.9466C61.2582 25.2307 60.6517 25.4641 59.9905 25.5575C59.7244 25.5925 59.4505 25.5731 59.1923 25.6431C58.5193 25.8338 57.8659 25.6742 57.2046 25.5692C56.6333 25.4797 56.0816 25.3435 55.526 25.1645C55.0369 25.0011 54.6143 24.756 54.2309 24.4369C54.0666 24.3008 54.0079 24.1101 54.1057 23.865C54.2074 23.6121 54.2857 23.3397 54.2622 23.0518ZM53.9374 41.1598C54.8022 41.3427 55.6669 41.5645 56.5473 41.689C57.5098 41.8252 58.4684 41.8757 59.431 41.8446C60.82 41.794 62.1699 41.4983 63.4533 40.8369C64.0558 40.5295 64.6193 40.1521 65.124 39.6502C65.1827 39.5957 65.2375 39.4945 65.3275 39.5529C65.4097 39.6035 65.4097 39.7124 65.4057 39.8058C65.3744 40.7746 65.5662 41.724 65.574 42.6889C65.574 43.2025 65.6601 44.0274 65.7031 44.541C65.7188 44.7239 64.9832 45.5876 64.7914 45.8094C64.275 46.4086 63.5824 47.2801 61.8764 47.961C60.6361 48.4591 58.8871 48.6264 57.6193 48.6458C56.872 48.6575 56.1208 48.6847 55.3852 48.5563C54.4344 48.3929 53.4836 48.1673 52.5797 47.7315C52.2941 47.5953 51.985 47.5214 51.7072 47.3424C51.6798 47.3035 51.6524 47.2412 51.6172 47.2257C51.0733 47.0039 50.6038 46.6109 50.1538 46.1946C49.8486 45.9144 49.5591 45.5759 49.3986 45.1635C49.1913 44.6227 49.1756 44.0391 49.383 43.4554C49.5004 43.1364 49.5278 42.7745 49.5943 42.4321C49.7625 41.5917 49.9425 40.7513 50.0951 39.907C50.1499 39.5957 50.2594 39.658 50.4081 39.7591C50.9207 40.0665 51.4607 40.2922 52.0084 40.4867C52.6501 40.7124 53.2801 41.0236 53.9374 41.1598ZM64.8932 38.4557C64.3336 38.7086 63.8015 39.0199 63.2498 39.2805C62.6707 39.5529 62.0682 39.7669 61.4304 39.8875C60.3857 40.0782 59.3292 40.2027 58.2689 40.121C57.5763 40.0704 56.8798 39.9926 56.1873 39.9109C55.5573 39.8369 54.9391 39.6891 54.3209 39.5801C53.7457 39.4751 53.1823 39.3039 52.6228 39.1132C52.0906 38.9304 51.5428 38.7903 51.0224 38.5685C50.9716 38.4284 50.8307 38.3701 50.7133 38.3312C50.5412 38.2689 50.5216 38.16 50.5529 38.0199C50.7681 37.1095 51.0381 36.2184 51.2298 35.3002C51.3589 34.6893 51.5507 34.0863 51.6993 33.4793C51.7737 33.1758 51.848 33.1369 52.1297 33.2536C52.9632 33.5843 53.8318 33.8022 54.72 33.9267C55.3617 34.0162 56.0073 34.0863 56.6529 34.1213C57.1029 34.1446 57.5607 34.203 58.0106 34.1135C58.0654 34.1018 58.1241 34.0863 58.1789 34.0707C58.9536 33.9501 59.7362 33.8839 60.5031 33.7088C61.6886 33.4404 62.8116 33.028 63.8837 32.4638C64.1145 32.347 64.3415 32.2303 64.5606 32.0941C64.7171 31.9969 64.7758 32.0202 64.7914 32.2031C64.8384 32.7945 64.8932 33.382 64.9401 33.9695C65.0458 35.2457 65.1475 36.5219 65.261 37.7981C65.2884 38.1133 65.2062 38.3156 64.8932 38.4557ZM53.1627 27.3551C53.2801 26.9271 53.3584 26.4874 53.4718 26.0594C53.5579 25.7404 53.6127 25.7365 53.9022 25.9077C54.5165 26.2695 55.1621 26.5458 55.8586 26.7209C56.7311 26.9427 57.6076 27.1177 58.5075 27.0827C59.9122 27.036 61.2739 26.787 62.526 26.1178C62.9877 25.8727 63.5041 25.7287 63.9228 25.4019C64.1106 25.2579 64.1537 25.3941 64.1693 25.542C64.2515 26.3201 64.2867 27.0983 64.3923 27.8726C64.4941 28.604 64.541 29.3355 64.6232 30.0709C64.6584 30.3783 64.6075 30.5573 64.2906 30.7596C63.1755 31.4638 61.9782 31.9813 60.7183 32.3393C60.2331 32.4793 59.7322 32.6233 59.2118 32.6233C58.6288 32.6194 58.0693 32.8373 57.4785 32.7712C56.6685 32.7128 55.8586 32.635 55.0487 32.5455C54.2035 32.4482 53.4014 32.1914 52.5875 31.9852C52.1728 31.8801 52.0867 31.7128 52.1845 31.2654C52.4662 29.9503 52.8145 28.6546 53.1627 27.3551ZM44.1947 70.2284C43.8464 70.2362 43.5138 70.1506 43.1734 70.0844C42.3948 69.9366 41.6161 69.7887 40.8453 69.6136C40.681 69.5747 40.4814 69.6448 40.2702 69.4191C40.6693 69.4502 40.9745 69.3607 41.2249 69.1584C41.6083 68.8471 41.9918 68.5397 42.3439 68.1973C43.1265 67.4309 43.9325 66.6916 44.7385 65.9523C45.7011 65.0691 46.6167 64.1353 47.5792 63.2482C48.4791 62.4155 49.3517 61.5518 50.2829 60.7464C50.8933 60.225 51.4372 59.6297 52.0476 59.1083C52.658 58.5831 53.1705 57.9527 53.8474 57.5014C53.867 57.4897 53.8905 57.4742 53.8944 57.4547C54.0509 56.9489 54.4696 57.0695 54.8335 57.0695C55.5612 57.0656 56.2929 57.0617 57.0246 57.0656C57.142 57.0656 57.3181 56.9995 57.3689 57.1201C57.4237 57.2563 57.2594 57.3536 57.1655 57.4392C56.6881 57.871 56.1951 58.2912 55.7177 58.727C54.7122 59.6414 53.7066 60.5596 52.7088 61.4856C51.7972 62.3299 50.8698 63.1626 49.9895 64.0458C49.0387 64.9952 48.0292 65.8823 47.0745 66.8317C46.3936 67.5087 45.6854 68.1507 45.0985 68.9094C44.8246 69.2673 44.4646 69.5786 44.449 70.0805C44.449 70.2478 44.3081 70.2245 44.1947 70.2284ZM58.7814 65.4699C59.6109 64.6061 60.3505 63.6684 61.1056 62.7463C61.8608 61.8203 62.6003 60.8826 63.3476 59.9487C64.0363 59.0811 64.7328 58.2134 65.4253 57.3458C65.527 57.2213 65.6249 57.0929 65.7266 56.9684C65.7892 56.8866 65.8596 56.8244 65.9535 56.7894C65.9887 56.7738 66.0318 56.7621 66.0827 56.7583C67.1156 56.6493 68.1486 56.7116 69.1816 56.661C69.2129 56.661 69.2442 56.6765 69.3302 56.6999C68.8098 57.268 68.3168 57.8088 67.8238 58.3496C67.1078 59.1433 66.3957 59.941 65.6757 60.7386C64.8032 61.7074 63.9111 62.6568 63.0542 63.6412C62.1581 64.6761 61.18 65.6488 60.5031 66.855C60.4287 66.9834 60.3583 66.9678 60.2605 66.9056C59.7675 66.571 59.2666 66.2441 58.7775 65.9018C58.6015 65.7772 58.6406 65.6177 58.7814 65.4699ZM26.0121 62.9836L25.1512 62.3961L24.3335 61.8397C24.1339 61.7074 24.0987 61.4273 24.2591 61.2483L29.3966 55.5988C29.5609 55.4315 29.7879 55.3498 30.0226 55.377L31.4195 55.6221L32.6246 55.8361C32.9063 55.8672 33.0276 56.2019 32.832 56.4042L26.8768 62.8786C26.6537 63.1198 26.2859 63.1665 26.0121 62.9836ZM68.669 93.8458C68.5868 94.0365 68.219 94.5229 68.1838 94.5812C66.6813 97.1219 63.8328 98.4332 62.9055 99.8144C62.4242 100.53 61.5204 101.114 61.1839 101.433C60.2096 102.355 59.607 102.569 58.4762 103.46C58.2728 103.624 57.4785 103.853 57.2555 103.834C56.9111 103.803 56.5786 103.69 56.2421 103.674C55.7882 103.651 55.3734 103.487 54.943 103.394C54.0079 103.188 53.0805 102.943 52.1689 102.647C51.8245 102.491 51.4763 102.359 51.1476 102.18C50.8346 102.017 50.502 101.915 50.2634 101.589C50.0716 101.324 48.0957 99.865 49.2343 99.7599C50.4473 99.6549 50.9872 100.048 53.4836 99.6393C55.1543 99.3631 56.6138 98.3553 58.218 97.8106C58.5036 97.7134 58.8245 97.69 59.0592 97.4721C59.9161 97.1647 61.2582 96.8029 62.0995 96.4761C62.7607 96.2193 65.1788 95.1337 65.7266 94.9119C66.1609 94.733 67.5852 94.0054 67.9569 93.7136C68.266 93.4684 69.115 92.7798 68.669 93.8458ZM72.5935 72.2789C71.7718 73.843 71.0558 75.4538 70.418 77.0957C70.281 77.4459 70.1128 77.8311 70.3123 78.2319C70.3319 78.2669 70.328 78.3136 70.3163 78.3564C70.3084 78.3797 70.3006 78.4031 70.2928 78.4225C70.2928 78.4264 70.2889 78.4303 70.2889 78.4342V78.4459H70.285C69.9172 79.2162 69.878 80.0333 69.7959 80.8582C69.6746 82.0644 69.6002 83.2744 69.5415 84.4845C69.4985 85.3988 69.4594 86.3093 69.4046 87.2197C69.3381 88.243 69.2794 89.4725 69.0759 90.1301C68.8881 90.7332 68.3168 91.379 67.859 91.8343C67.2604 92.4296 66.2744 92.9081 65.8518 93.0871C65.1827 93.3673 64.1028 93.8653 63.4807 94.161C62.1347 94.7952 60.8278 95.2699 59.4857 95.8924C58.4489 96.371 57.3415 96.6395 56.289 97.0636C55.3852 97.297 54.7356 97.8106 53.8748 98.1569C53.4875 98.3125 52.0867 98.6861 50.4786 98.6822C49.3712 98.6822 48.0331 98.4915 47.9157 98.367C47.5831 98.0168 47.3249 97.6044 47.0314 97.227C46.6871 96.7795 46.3702 96.3088 46.0219 95.8574C45.7872 95.3827 45.3881 94.9937 45.2941 94.445C45.212 93.9509 45.1181 93.4568 45.0242 92.9665C44.8168 92.8031 44.9694 92.5541 44.8794 92.3634H44.8833C44.9185 91.7604 44.6525 91.1962 44.6603 90.5892C44.6642 90.2001 44.5703 89.8033 44.5155 89.4103C44.4373 88.8772 44.3394 88.3481 44.2807 87.8111C44.2534 87.5038 44.2612 87.1964 44.1947 86.889C44.179 86.8073 44.1673 86.7295 44.1516 86.6517C44.1399 86.5816 44.1281 86.5116 44.1164 86.4454C44.0929 86.2742 44.0695 86.1031 44.046 85.9357C44.0381 85.8579 44.0264 85.7762 44.0147 85.7023V85.6906C44.0108 85.6556 44.0029 85.6206 43.999 85.5817C43.956 85.7179 44.0342 85.8813 43.9716 86.0136C43.9521 85.8852 43.9403 85.7568 43.9286 85.6284C43.733 85.1109 43.7369 84.5584 43.639 84.0214C43.5373 83.4651 43.4043 82.9087 43.326 82.3445C43.1852 81.3407 42.9621 80.3524 42.7626 79.3602C42.6022 78.5781 42.4691 77.7883 42.2461 77.014C42.1131 76.5705 41.9879 76.0841 41.9839 75.5978C41.9683 75.5394 41.9526 75.4849 41.9409 75.4266C41.9253 75.3526 41.9096 75.2787 41.9096 75.2048C41.9096 75.162 41.9135 75.1192 41.9253 75.0725C41.9566 74.9402 41.9018 74.8585 41.7492 74.8663C41.7453 74.8663 41.7374 74.8624 41.7335 74.8624C41.714 74.8585 41.6983 74.8468 41.6827 74.8313C41.6827 74.8274 41.6788 74.8235 41.6788 74.8196C41.6748 74.8157 41.6748 74.8118 41.6709 74.8079C41.6279 74.7223 41.5418 74.6717 41.4753 74.6095C41.3462 74.485 41.2679 74.555 41.2327 74.7029H41.1975C41.0605 74.7029 40.9705 74.625 40.9353 74.4928C40.8219 74.057 40.6145 73.6835 40.3015 73.3411C40.1645 73.1932 40.1176 72.9598 39.8828 72.8858C39.875 72.7847 39.8867 72.6913 39.8202 72.6018C39.5854 72.2711 39.3937 71.917 39.1902 71.5707C39.0533 71.3373 38.889 71.1855 38.5955 71.24C38.5407 71.2517 38.482 71.2439 38.4272 71.2439C38.302 71.2439 38.1964 71.2167 38.1181 71.17H38.1142C38.1142 71.17 38.1025 71.1622 38.0986 71.1583H38.0947C38.0947 71.1583 38.0829 71.1466 38.079 71.1427C37.9225 71.0299 37.8873 70.8237 37.9929 70.5669C38.0634 70.3918 38.2042 70.4112 38.3294 70.4463C39.4407 70.742 40.5714 70.9676 41.6983 71.1777C42.34 71.2984 42.9895 71.4345 43.639 71.5357C44.4294 71.6524 45.2355 71.7108 46.018 71.9053C46.241 71.9637 46.4875 71.9053 46.7223 71.9326C47.3875 72.0143 48.0526 72.061 48.7178 72.1388C49.07 72.1816 49.4573 72.1232 49.7899 72.3294C49.8603 72.3722 49.9425 72.3294 50.009 72.2827C50.5842 71.9715 51.1828 71.6991 51.6641 71.24C52.1689 70.7614 52.6932 70.3101 53.2057 69.8432C54.3365 68.8121 55.4634 67.7733 56.5981 66.7461C57.1302 66.2636 57.1263 66.2869 57.7133 66.6994C58.9145 67.5359 60.0766 68.423 61.3052 69.2168C61.8295 69.5553 62.3616 69.9015 62.8194 70.3179C63.0385 70.5124 63.3242 70.707 63.5863 70.9054L64.0363 71.2089L65.2062 71.9909L73.5678 70.4735C73.2313 71.0999 72.9026 71.6836 72.5935 72.2789ZM87.7398 56.1746L82.4928 64.1859C82.2502 64.5516 81.9215 64.8551 81.5302 65.0652L80.3173 65.7072L78.3805 66.7422C78.31 66.7811 78.2396 66.7811 78.1809 66.7616C78.0283 66.7149 77.9344 66.5321 78.0401 66.3725L78.9517 64.9991L84.8326 56.1279C84.9578 55.9334 85.1691 55.8128 85.4039 55.7972L86.1708 55.7427L87.4307 55.6532C87.7124 55.6338 87.8924 55.9412 87.7398 56.1746Z" fill="white"/>
<path d="M63.1559 84.4426C62.6394 84.715 62.1699 85.0613 61.7003 85.4075C61.489 85.5593 61.2269 85.6527 61.0743 85.8822C60.7691 86.1935 60.7143 86.6254 60.5382 86.9989C60.1 87.9094 59.6774 88.8198 59.3605 89.7809C59.2314 90.1777 59.4622 90.594 59.8105 90.7964C60.0296 90.9248 60.4013 90.7263 60.6008 90.3995C60.6674 90.2828 60.7026 90.1583 60.7534 90.0377C60.9569 89.5552 60.8278 88.9871 61.1408 88.5319C61.1721 88.5047 61.2112 88.4774 61.2308 88.4424C61.6573 87.6137 62.1581 86.851 63.0307 86.4075C63.1911 86.3258 63.3241 86.1857 63.4689 86.0729C63.5863 86.0106 63.6997 85.9367 63.8367 85.9134C63.8171 86.1235 63.6841 86.2752 63.6371 86.4581C63.6254 86.4542 63.6098 86.462 63.598 86.4814C63.4767 86.7732 63.3711 87.065 63.1559 87.3141C63.0502 87.4386 63.0111 87.6331 62.9837 87.8043C62.9485 88.0222 63.1402 88.1856 63.3359 88.0922C63.9776 87.8004 64.5879 87.458 64.9949 86.8472C65.0144 86.8277 65.0379 86.8082 65.0575 86.7849C65.3549 86.3336 65.6757 85.9056 65.7774 85.3414C65.887 84.7422 65.4801 84.1275 64.8618 84.0924C64.2632 84.0574 63.6919 84.1625 63.1559 84.4426Z" fill="white"/>
<path d="M51.4294 88.4136C51.2103 88.2658 50.9834 88.044 50.7369 88.0479C50.1108 88.0557 49.5865 87.7289 49.0153 87.581C48.5731 87.4643 48.1897 87.5188 47.8062 87.6277C47.1958 87.8028 46.9611 88.542 47.2271 89.2268C47.3171 89.4681 47.5284 89.6276 47.6341 89.8572C47.8923 90.4447 48.3697 90.791 48.9409 91.0516C49.2735 91.1995 49.5787 91.4057 49.97 91.2345C50.0991 91.18 50.2713 91.2073 50.3104 91.0244C50.3456 90.8493 50.2869 90.6859 50.1382 90.5925C49.7196 90.3279 49.5005 89.9038 49.2266 89.5225C49.1757 89.4564 49.1327 89.3825 49.1796 89.3124C49.2266 89.2424 49.3244 89.258 49.3948 89.2813C49.9504 89.472 50.4943 89.7288 50.8817 90.1567C51.4412 90.7793 52.0711 91.2968 52.7598 91.7598C52.838 91.9271 53.0102 91.9193 53.155 91.9699C53.6949 92.1566 53.8397 92.0399 53.7575 91.4796C53.8632 91.4213 53.9375 91.538 54.0353 91.5263C54.4814 91.787 54.9196 92.0555 55.3657 92.3123C55.6004 92.4446 55.847 92.4018 56.0582 92.2578C56.2578 92.1177 56.3556 91.8726 56.2695 91.6781C56.1717 91.4641 56.3947 91.5069 56.4182 91.4252C55.9291 91.1372 55.4713 90.8376 54.9861 90.5847C53.7458 89.9466 52.5837 89.1879 51.4294 88.4136Z" fill="white"/>
</g>
<defs>
<clipPath id="clip0_93_5968">
<rect width="115" height="152" fill="white"/>
</clipPath>
</defs>
</svg>
