<svg width="29" height="26" viewBox="0 0 29 26" fill="none" xmlns="http://www.w3.org/2000/svg">
<path d="M23.751 13.7469L15.3053 22.1787V25.045H18.1715L26.6033 16.5993M28.8017 13.3295L27.0207 11.5485C26.9537 11.4748 26.8721 11.4157 26.7811 11.375C26.6901 11.3343 26.5917 11.3129 26.492 11.312C26.2833 11.3259 26.0885 11.3955 25.9494 11.5485L24.558 12.9399L27.4103 15.7227L28.8017 14.3313C29.0661 14.053 29.0661 13.6078 28.8017 13.3295ZM12.5225 19.4794H2.78278V5.56555L13.9139 12.5225L25.045 5.56555V8.34833H27.8278V2.78278C27.8278 1.25225 26.5755 0 25.045 0H2.78278C1.25225 0 0 1.25225 0 2.78278V19.4794C0 21.01 1.25225 22.2622 2.78278 22.2622H12.5225V19.4794ZM25.045 2.78278L13.9139 9.73971L2.78278 2.78278H25.045Z" fill="black"/>
</svg>
