<svg width="283" height="348" viewBox="0 0 283 348" fill="none" xmlns="http://www.w3.org/2000/svg">
<mask id="mask0_150_5597" style="mask-type:alpha" maskUnits="userSpaceOnUse" x="0" y="0" width="283" height="348">
<rect x="0.618164" width="282" height="348" fill="black"/>
</mask>
<g mask="url(#mask0_150_5597)">
<path d="M295.119 172.446C292.096 169.313 284.419 161.391 283.508 160.717C282.76 160.141 274.395 152.682 267.629 148.593C267.723 148.012 267.833 147.436 267.905 146.865C268.445 142.913 269.173 138.996 269.821 135.049C269.306 132.474 269.705 129.849 269.24 127.238C268.805 124.839 269.232 122.333 268.672 119.922C268.645 119.803 268.617 119.684 268.584 119.58C268.586 119.526 268.566 119.483 268.562 119.445C268.549 119.24 268.504 119.023 268.453 118.822L268.437 118.816C268.437 118.816 268.444 118.655 268.436 118.579C268.412 117.59 268.338 116.636 268.27 115.665C268.252 115.568 268.251 115.477 268.265 115.391C268.079 112.96 267.839 110.526 267.561 108.096C267.274 105.499 267.218 102.918 266.861 100.312C266.179 95.2582 266.304 90.0952 265.498 85.0305C265.496 84.9391 265.489 84.8635 265.465 84.7819L265.483 84.7343C265.636 83.903 264.937 83.0552 265.523 82.1894C265.706 81.9504 265.191 81.863 264.964 81.7401C264.948 81.734 264.938 81.7121 264.922 81.706C264.776 81.3234 264.68 80.9054 264.616 80.4996C264.495 79.7636 264.466 79.0262 264.355 78.3121C264.344 78.1987 264.326 78.1012 264.33 77.994C264.336 77.9781 264.327 77.9562 264.339 77.9245L264.357 77.877C264.357 77.877 264.363 77.8611 264.369 77.8453C264.394 77.6368 264.504 77.4429 264.8 77.3379C265.287 77.1608 265.687 76.8777 265.992 76.5582C266.088 76.4496 266.178 76.3569 266.253 76.2581C266.259 76.2423 266.281 76.2325 266.287 76.2167C266.355 76.1337 266.407 76.0447 266.459 75.9557C266.718 75.5643 266.913 75.1485 267.108 74.7327C267.181 74.5425 267.264 74.3743 267.352 74.1902C267.473 73.8732 267.622 73.5306 267.565 73.2003C266.943 69.5676 266.371 65.8994 264.63 62.5661C264.39 62.0934 263.967 61.7683 263.701 61.2676C261.146 56.3346 258.326 51.5725 254.385 47.545C254.391 47.5291 254.359 47.517 254.333 47.489C253.156 46.4588 251.849 45.5786 250.711 44.4911C250.66 44.4351 250.618 44.401 250.582 44.351C250.489 44.2609 250.405 44.1927 250.328 44.1087C249.926 43.9188 249.594 43.5925 249.145 43.4758C248.97 43.4089 248.785 43.3201 248.615 43.2373L248.599 43.2313C248.341 43.0962 248.098 42.9672 247.799 42.8894C247.623 42.8225 247.448 42.7556 247.248 42.7521C246.899 42.7097 246.574 42.749 246.298 43.0429C246.242 43.0941 246.207 43.1356 246.183 43.199L245.692 42.8118C245.696 42.7046 245.685 42.5912 245.689 42.484C245.684 42.3548 245.678 42.2256 245.663 42.0745C245.837 40.9969 246.405 40.0336 246.439 38.9391C246.405 37.9275 246.931 37.0752 247.26 36.1657C247.427 35.7755 247.557 35.3891 247.612 34.9563C247.749 34.6454 247.854 34.3224 247.943 33.9932L247.955 33.9615C248.097 33.3983 248.191 32.8169 248.285 32.2354C248.291 32.2196 248.281 32.1976 248.287 32.1818C248.408 31.4833 248.528 30.7849 248.772 30.0973C248.679 29.4806 248.898 29.0015 249.291 28.4978C249.724 27.9368 250.176 27.3283 250.101 26.519C250.036 25.7317 250.352 24.999 250.535 24.2334C250.886 22.7877 251.275 21.3382 251.727 19.9131C252.307 18.01 252.754 16.0742 253.168 14.1263C253.306 13.5253 253.486 12.9584 253.688 12.3817C253.815 12.0489 253.904 11.7198 254.025 11.4028C254.43 10.3409 254.771 9.25466 254.95 8.06984C255.171 6.484 255.596 4.93944 256.053 3.40704C256.134 3.14737 256.215 2.88771 256.302 2.61219C256.627 1.51989 256.969 0.433661 257.256 -0.654957C257.293 -0.750052 257.329 -0.845151 257.333 -0.952409C257.416 -1.26571 257.487 -1.5473 257.554 -1.86668L257.578 -1.93008C257.578 -1.93008 257.578 -1.93009 257.575 -1.96787L257.599 -2.03126C257.73 -2.47136 257.852 -2.93338 257.967 -3.37955C258.157 -4.06954 258.332 -4.76561 258.49 -5.46777C258.6 -5.89809 258.709 -6.32842 258.802 -6.76482C258.877 -7.00864 258.936 -7.25854 258.995 -7.50844C259.094 -7.96069 259.194 -8.41295 259.309 -8.85913C259.447 -9.4601 259.579 -10.0452 259.711 -10.6304C259.835 -11.146 259.953 -11.6458 260.07 -12.1456C260.334 -13.3159 260.608 -14.4642 260.92 -15.6162C260.936 -15.7552 260.985 -15.882 261.017 -16.0149C261.054 -16.11 261.106 -16.199 261.136 -16.2782L261.209 -16.4684C261.261 -16.5574 261.275 -16.6427 261.289 -16.7281C261.419 -17.2596 261.264 -17.8091 261.431 -18.3443C261.597 -18.9709 261.779 -19.5914 261.946 -20.218C261.946 -20.218 261.944 -20.2306 261.942 -20.2558C261.984 -20.3667 262.016 -20.4996 262.049 -20.6325C263.271 -25.4136 264.048 -30.2736 265.114 -35.0777C265.356 -36.2382 266.486 -43.5056 266.984 -44.8589C267.137 -45.3088 267.195 -45.7951 267.275 -46.2912C267.277 -46.3449 267.279 -46.3985 267.287 -46.468C267.299 -46.4997 267.296 -46.5374 267.298 -46.5911C267.3 -46.6447 267.302 -46.6983 267.304 -46.752C267.317 -46.7837 267.335 -46.8312 267.337 -46.8848C267.363 -47.0019 267.384 -47.103 267.41 -47.2201C267.491 -47.6248 267.573 -48.0295 267.638 -48.4403C267.76 -49.0473 267.873 -49.6763 267.957 -50.2797C268.024 -50.5991 268.069 -50.9087 268.108 -51.2025C268.222 -51.8851 268.331 -52.5518 268.439 -53.2186C268.439 -53.2186 268.438 -53.2312 268.435 -53.2564C268.513 -53.6989 268.578 -54.1097 268.64 -54.5582C268.756 -55.2945 268.867 -56.0149 268.999 -56.7451L269.183 -57.8007C269.183 -57.8007 269.206 -57.9555 269.214 -58.025C269.22 -58.0408 269.226 -58.0567 269.232 -58.0725C269.235 -58.2712 269.263 -58.4418 269.324 -58.6003C269.457 -58.949 269.696 -59.2393 269.87 -59.5539L269.888 -59.6014C269.888 -59.6014 269.941 -59.6904 269.953 -59.7221C269.769 -60.6276 269.629 -61.5525 269.86 -62.4449C270.095 -63.4445 270.372 -64.41 270.29 -65.4398C270.243 -66.1296 270.387 -66.7465 270.856 -67.2575C270.862 -67.2733 270.884 -67.2831 270.896 -67.3148C270.896 -67.3148 270.914 -67.3624 270.952 -67.366C270.75 -70.185 271.096 -72.958 271.506 -75.7068C271.506 -75.7068 271.51 -75.814 271.512 -75.8677C271.604 -76.3955 271.668 -76.8977 271.754 -77.4096C271.911 -78.4933 272.035 -79.5355 271.684 -80.5773C271.517 -81.0951 271.479 -81.618 271.501 -82.1543C271.503 -82.2079 271.521 -82.2554 271.523 -82.3091C271.526 -82.3627 271.528 -82.4163 271.524 -82.4541C271.338 -83.8324 271.537 -85.2635 270.644 -86.512C269.28 -88.394 267.355 -88.4206 265.339 -88.2094C264.511 -87.6176 263.494 -87.4425 262.739 -86.6594C260.213 -84.0102 258.19 -81.0055 256.026 -78.1092C253.32 -74.5116 250.855 -70.7314 248.265 -67.0534C244.079 -61.0609 239.679 -55.2231 235.583 -49.1783C231.931 -43.8175 228.032 -38.6236 224.175 -33.3956C219.427 -26.9822 214.763 -20.5006 210.22 -13.9545C208.235 -11.0985 206.203 -8.26075 204.25 -5.39259C201.419 -1.22572 198.504 2.87295 195.531 6.93146C193.142 10.1778 190.89 13.4947 188.585 16.8092C188.159 17.4458 187.641 17.9922 186.815 17.8588C183.662 17.3639 180.637 18.1159 177.578 18.6192C171.546 19.6404 166.544 22.7973 161.591 26.0639C159.394 27.5136 157.704 29.6466 154.924 30.3288C152.547 30.9109 150.241 31.8828 147.933 32.7634C145.062 33.8284 142.151 34.8057 139.368 36.0681C135.685 37.731 131.995 39.4098 128.386 41.2103C125.741 42.5433 123.492 44.227 121.668 46.4723C119.478 49.1956 117.508 52.1113 115.286 54.8224C110.144 61.1216 104.876 67.3184 100.084 73.8964C98.2484 76.4098 96.3491 78.8989 93.9646 80.9849C87.835 77.956 69.8914 77.9907 68.6927 77.8783C67.472 77.7757 54.6668 78.6998 51.2838 78.9522C21.5435 64.8263 15.965 68.3445 14.5257 76.7103C9.7949 104.374 51.535 151.221 51.535 151.221C51.6976 151.465 51.8883 151.683 52.129 151.865C54.1405 153.341 56.0899 154.884 58.0854 156.353C59.295 157.251 60.5607 158.097 61.8165 158.921C63.3191 159.912 63.2656 161.871 64.512 163.054C65.2495 163.753 65.5248 164.802 65.8682 165.769C67.1649 169.405 67.1936 173.301 68.3925 176.954C69.8183 181.257 70.0619 185.834 71.7493 190.073C71.9251 190.522 72.0191 190.993 71.9393 191.489C71.6253 193.748 71.4887 196.02 71.0092 198.234C70.2938 201.592 69.8295 205.01 69.2697 208.391C68.365 213.729 67.3525 219.062 66.4159 224.388C66.2851 225.21 66.1344 225.987 65.9716 226.797C65.9595 226.828 65.9535 226.844 65.9414 226.876C65.9293 226.908 65.9271 226.961 65.915 226.993L62.3963 242.627C62.3638 242.76 62.3314 242.893 62.2989 243.026C61.7936 245.211 61.2624 247.369 60.6933 249.53C59.2874 254.986 58.0628 260.492 56.9239 266.013C56.4581 268.286 55.8247 270.568 55.5843 272.873C55.5843 272.873 55.5821 272.927 55.576 272.943L55.5156 273.101L55.5414 273.129C55.4297 274.14 55.4098 275.149 55.4977 276.163C55.7392 279.215 56.6815 282.152 57.5539 285.082C58.7121 288.937 59.5087 292.927 60.7927 296.74C62.9092 303.012 65.0037 309.295 67.5418 315.42C68.2594 317.128 68.5966 319.163 70.3702 320.257C77.9221 324.918 84.4427 331.038 92.2997 335.234C94.2909 336.284 99.3462 336.961 99.6023 337.294L104.125 337.931C106.52 337.156 108.831 336.077 111.199 335.183C118.095 332.567 124.773 329.468 131.511 326.501C138.32 323.489 145.166 320.527 151.987 317.483C153.395 316.858 155.09 316.434 156.031 315.213C157.076 313.814 158.387 312.771 159.877 312.214C162.343 311.303 163.626 309.378 164.579 307.309C165.414 305.503 166.454 303.83 167.29 302.024C169.34 297.704 171.68 293.532 173.826 289.248C175.147 286.648 176.11 283.838 177.636 281.369C179.248 278.771 180.161 275.851 181.764 273.231C183.324 270.721 184.452 267.956 185.759 265.296C186.96 262.867 188.043 260.411 189.349 258.041C190.925 255.156 191.801 251.95 194.018 249.346C201.943 240.06 210.561 231.401 218.943 222.543C219.851 221.6 220.62 221.404 221.854 221.711C223.696 222.196 224.78 222.464 225.646 222.395C225.836 222.377 226.009 222.353 226.173 222.306C233.061 221.339 305.451 210.541 313.488 189.478C316.276 182.171 310.763 177.671 295.134 172.452L295.119 172.446ZM235.347 186.061C231.944 187.995 228.508 189.916 225.099 191.865C221.871 193.72 218.709 195.691 215.475 197.562C211.158 200.072 206.713 202.389 202.497 205.065C199.66 206.852 196.652 208.373 193.877 210.237L183.159 208.036L180.475 204.542C181.067 204.187 181.681 203.822 182.327 203.469C188.352 200.122 194.392 196.78 200.413 193.394C207.18 189.585 213.953 185.76 220.69 181.885C223.172 180.453 228.408 177.258 233.346 174.222C237.398 171.738 241.236 169.335 243.24 168.102C244.443 167.344 245.5 167.875 246.455 168.148C250.016 169.199 253.663 169.882 257.287 170.72C257.64 170.8 258.165 170.765 258.159 171.307C258.133 171.805 257.909 172.247 257.43 172.5C253.709 174.403 241.226 182.712 237.607 184.781C236.861 185.205 236.093 185.638 235.347 186.061ZM55.2641 146.616C55.0036 146.39 52.5485 145.598 50.7306 143.089C49.6173 141.556 49.5249 142.229 48.2198 139.716C47.3779 138.142 49.4446 137.224 50.9633 136.641C55.771 134.808 69.4441 129.313 74.2243 127.36C80.2556 124.904 86.2831 122.411 92.2809 119.851C96.7237 117.97 101.107 115.957 105.52 114.009C107.042 113.609 108.312 114.493 109.444 115.162C110.842 115.949 112.344 116.558 113.768 117.229C115.664 118.098 117.445 119.268 119.424 119.968C119.797 120.092 120.305 120.195 120.281 120.64C120.285 120.678 120.279 120.694 120.273 120.71C120.205 121.174 119.672 121.279 119.291 121.37C115.327 122.236 111.663 123.943 107.859 125.251C101.48 127.374 95.2923 129.952 88.9648 132.131C83.7041 133.955 78.6869 136.289 73.4779 138.169C70.0712 139.393 66.753 140.959 63.4232 142.412C60.8349 143.549 58.2845 144.682 56.0232 146.397C55.817 146.555 55.5724 146.861 55.2641 146.616ZM98.483 87.3752C103.422 80.6533 108.475 74.0117 113.488 67.3361C117.347 62.1995 121.186 57.019 125.051 51.8665C126.958 49.308 129.161 47.1709 132.279 45.8912C136.61 44.112 140.863 42.1037 145.046 39.9956C146.197 39.4182 147.25 38.6215 148.666 38.3084C148.416 38.8668 148.159 39.2046 147.881 39.5522C144.64 43.8352 142.133 48.4893 140.398 53.5645C140.004 54.7398 139.692 55.8918 139.819 57.1385C139.872 57.431 139.903 57.7332 139.917 58.0294C139.965 58.5742 140.013 59.1189 140.186 59.6209C140.25 59.7903 140.345 59.9718 140.452 60.1217C140.676 60.4433 140.824 60.7722 140.887 61.0866C140.958 61.3316 140.985 61.596 140.964 61.8422C140.945 62.1798 140.85 62.5248 140.717 62.8735C140.668 63.0003 140.614 63.143 140.543 63.2795C140.306 63.8062 140.11 64.367 139.92 64.912L139.866 65.0546C139.731 65.4569 139.626 65.78 139.583 66.036C139.536 66.3992 139.606 66.6442 139.863 66.8329C139.947 66.9011 140.052 66.9595 140.18 67.0081C140.429 67.1213 140.769 67.2332 141.202 67.3437C142.051 67.5588 142.201 67.9792 141.917 68.7241C141.606 69.586 141.258 70.4516 141.027 71.344C140.374 73.9637 140.21 76.6428 139.821 79.2903C139.804 79.4293 139.766 79.578 139.755 79.7011C139.73 79.9096 139.69 80.1119 139.687 80.3106C139.657 80.9163 139.724 81.505 140.003 82.0654C140.003 82.0654 139.997 82.0813 140.013 82.0873C140.072 82.2189 140.158 82.3785 140.271 82.5125C140.443 82.7781 140.6 83.0376 140.719 83.3007C141.34 84.591 141.325 86.0194 141.014 87.4079C140.748 88.6318 140.847 89.7591 141.266 90.863C141.823 92.2739 142.496 93.6202 143.345 94.8883C144.482 96.6474 146.008 98.1015 147.257 99.7581C147.273 99.7641 147.267 99.78 147.267 99.78C147.594 100.214 147.916 100.663 148.187 101.148C148.684 101.809 149.168 102.503 149.758 103.109C153.592 106.987 158.035 110.08 162.597 113.055C166.858 115.861 171.539 117.902 176.057 120.225C180.358 122.447 185.005 124.002 189.63 125.422C192.311 126.245 195.097 126.982 197.899 127.343C199.832 127.59 201.699 128.248 203.67 128.346C208.686 128.645 213.628 128.424 218.513 127.056C220.964 126.375 223.087 125.406 224.365 123.061C224.582 122.636 224.943 122.265 225.353 122.004C228.572 119.837 230.866 116.79 233.27 113.84C233.33 113.682 233.445 113.526 233.527 113.357C234.548 111.64 235.888 110.137 237.03 108.484C237.425 107.927 237.811 107.348 238.19 106.784C238.19 106.784 238.194 106.774 238.202 106.753L238.36 106.577L238.415 106.434C239.494 104.849 240.516 103.224 241.433 101.54C241.445 101.508 241.479 101.467 241.497 101.419C241.626 101.178 241.76 100.92 241.889 100.679C241.917 100.653 241.929 100.622 241.941 100.59C242.685 99.1669 243.339 97.6916 243.882 96.1738C244.304 94.973 244.671 93.7697 244.953 92.5519C245.073 92.1435 245.178 91.8204 245.499 91.8884C245.537 91.8847 245.569 91.8969 245.6 91.9091L245.616 91.9152C245.728 91.9577 245.859 92.0442 246.026 92.1805C247.755 93.5845 249.466 93.1663 250.47 91.2069C250.638 90.9082 250.759 90.5912 250.976 90.3107L251.018 90.1997C251.055 90.1046 251.091 90.0096 251.117 89.8925C251.65 88.3528 252.015 86.8217 252.091 85.2347L253.156 84.2613C253.299 84.461 253.448 84.645 253.615 84.7813C253.918 85.0419 254.256 85.2074 254.653 85.2681L254.669 85.2741C255.415 85.3772 256.262 85.1193 257.114 84.4642C257.326 84.2909 257.496 84.2286 257.652 84.2517C257.791 84.2686 257.917 84.3709 258.066 84.5548C258.143 84.6389 258.205 84.7168 258.26 84.8106C258.421 85.1079 258.499 85.4284 258.622 85.7293C259.945 87.1421 260.283 88.8872 260.386 90.7238C260.534 93.1589 260.736 95.5964 260.846 98.0351C261.231 105.735 261.67 113.438 262.055 121.138C262.229 124.799 262.256 128.459 262.743 132.113C263.375 136.82 263.373 141.468 262.259 146.109C261.318 145.895 260.546 145.909 259.978 146.201C258.445 147.014 258.971 149.702 260.345 152.895C260.076 153.936 259.816 154.999 259.595 156.059C259.17 158.13 258.858 160.19 258.718 162.279C258.712 162.295 258.706 162.311 258.722 162.317C251.931 160.542 244.451 158.614 236.266 156.472C233.092 155.315 229.927 154.089 226.67 153.101C220.727 151.305 215.005 148.74 209.085 146.79C205.448 145.602 202.011 143.891 198.265 142.988C195.375 142.285 192.408 141.734 189.6 140.862C183.713 139.015 178.002 136.709 172.129 134.777C162.546 131.611 153.2 127.681 143.748 124.075C143.111 123.832 142.421 123.677 141.878 123.234C140.709 122.279 139.317 121.858 137.959 121.303C135.369 120.242 132.596 119.565 130.2 118.142C127.572 116.559 124.705 115.556 122.002 114.216C119.147 112.799 116.144 111.672 113.347 110.15C109.158 107.826 104.669 106.095 100.563 103.602C97.6724 101.846 94.6254 100.356 91.9479 98.2813C90.824 97.3985 90.7834 97.0744 91.5722 95.8684C93.5814 92.8039 96.3325 90.3313 98.483 87.3752ZM224.972 -25.6287C225.872 -25.9756 226.168 -26.7522 226.365 -27.6031C229.34 -31.7152 232.299 -35.8334 235.29 -39.9395C236.257 -41.2773 237.249 -42.587 238.21 -43.909C238.81 -44.7151 239.153 -44.6568 239.832 -43.853C242.392 -40.7519 245.689 -38.7678 249.557 -37.5642C252.088 -36.78 254.65 -36.3652 257.248 -35.9004C257.477 -35.8311 257.714 -35.6863 257.926 -35.7145C259.169 -35.9117 259.571 -35.5768 259.235 -34.2163C258.594 -31.6283 258.189 -28.9869 257.612 -26.3745C256.822 -22.7723 255.978 -19.1725 255.156 -15.5825C254.977 -14.7792 254.53 -14.4229 253.715 -14.1529C251.946 -13.6299 250.114 -13.7113 248.357 -13.3651C245.212 -12.7313 242.089 -13.0152 239.126 -14.055C236.822 -14.8613 234.527 -15.737 232.339 -16.9895C230.125 -18.2699 228.158 -19.7651 226.221 -21.3395C225.517 -21.935 225.655 -23.0625 224.852 -23.4957C223.285 -24.366 225.261 -24.9013 224.972 -25.6287ZM243.269 -51.1843C245.571 -54.3002 247.832 -57.4501 250.061 -60.6122C253.424 -65.3572 256.729 -70.1424 260.107 -74.8813C261.738 -77.1459 263.491 -79.346 265.211 -81.5582C265.428 -81.8387 265.818 -81.9987 266.302 -82.3586C266.119 -78.0524 265.724 -73.9545 265.7 -69.8239C265.701 -67.8629 265.228 -65.81 264.903 -63.8097C264.248 -59.7018 263.632 -55.5976 262.907 -51.4982C262.397 -48.5337 261.715 -45.5983 261.205 -42.6337C261.05 -41.7488 260.63 -41.5096 259.838 -41.5394C256.217 -41.6682 252.776 -42.3639 249.375 -43.7885C246.798 -44.881 245.089 -46.7676 243.193 -48.5443C242.372 -49.3115 242.589 -50.2636 243.269 -51.1843ZM209.15 -3.1599C210.314 -5.34857 211.898 -7.24992 213.298 -9.29373C215.381 -12.3119 217.575 -15.2875 219.674 -18.2996C220.18 -19.0508 220.439 -18.9157 220.927 -18.3298C224.121 -14.4967 228.213 -11.9185 232.783 -10.0658C236.275 -8.64252 239.818 -7.39965 243.67 -7.25518C246.651 -7.17097 249.598 -7.19033 252.404 -8.3711C253.337 -8.75941 253.824 -8.79147 253.492 -7.53828C252.799 -4.86124 252.16 -2.18181 251.483 0.501313C250.541 4.26328 249.614 8.03133 248.64 11.7811C248.359 12.8539 247.991 13.9121 247.656 14.9825C247.528 15.4604 247.24 15.641 246.709 15.6926C243.985 15.9421 241.258 16.2453 238.522 16.5265C238.076 16.2112 237.597 16.3188 237.11 16.3509C234.261 16.5896 231.428 16.5979 228.589 15.9505C227.451 15.6796 226.366 15.1746 225.205 15.0585C222.167 14.7891 219.753 13.1236 217.223 11.6679C215.035 10.4155 212.999 9.00323 211.014 7.41057C209.276 5.98471 207.936 4.3294 206.87 2.43377C206.412 1.62362 206.469 0.755779 207.249 -0.09068C208.056 -0.962756 208.798 -1.95057 209.15 -3.1599ZM179.682 70.0975C182.92 72.1865 186.098 74.4339 189.49 76.3094C193.2 78.3602 197.026 80.0563 200.995 81.4255C206.732 83.3785 212.69 84.2721 218.946 83.5725C221.878 83.257 224.76 82.5954 227.596 81.3353C227.92 81.2047 228.301 80.8777 228.576 81.2554C228.832 81.5891 228.663 82.0329 228.502 82.4072C226.869 86.305 226.174 90.4702 224.706 94.4129C223.908 96.505 222.976 99.9989 222.354 102.158C222.133 102.927 217.794 105.302 216.668 105.908C213.633 107.546 209.457 110.019 201.45 110.141C195.623 110.242 188.239 108.205 183.044 106.314C179.982 105.2 176.88 104.143 174.083 102.477C170.464 100.334 166.941 97.9364 163.937 94.7565C162.985 93.7578 161.841 92.9762 160.987 91.8154C160.936 91.6143 160.922 91.3181 160.802 91.2C158.932 89.4512 157.63 87.1207 156.444 84.7254C155.636 83.1099 154.983 81.281 154.97 79.3517C154.966 76.8263 155.81 74.4246 157.561 72.3695C158.536 71.2523 159.21 69.8209 160.013 68.5296C162.004 65.3677 164.044 62.224 165.978 59.0219C166.685 57.8391 167.034 58.263 167.483 58.9062C169.093 60.955 170.941 62.7135 172.87 64.3573C175.134 66.274 177.216 68.5211 179.682 70.0975ZM228.513 76.1108C225.84 76.2713 223.189 76.7122 220.536 76.9166C217.754 77.1259 214.967 77.0611 212.182 76.5611C207.63 75.7139 203.133 74.5791 198.94 72.5981C196.198 71.3156 193.482 69.9161 190.788 68.5068C188.337 67.2266 186.048 65.6634 183.699 64.2587C181.52 62.9368 179.49 61.3637 177.508 59.7174C175.624 58.1454 173.611 56.7234 171.835 55.0111C171.846 54.3615 171.363 53.9048 170.945 53.5639C170.341 53.0427 170.43 52.5685 170.776 52.0466C173.067 48.6724 175.552 45.4625 177.76 42.0201C179.236 39.7325 180.954 37.5739 182.503 35.3325C183.278 34.2118 183.641 34.1689 184.607 35.0822C187.488 37.7248 190.688 39.9625 194.112 41.8502C196.587 43.2121 199.108 44.5008 201.683 45.6469C203.48 46.4414 205.254 47.3907 207.226 47.7256C207.467 47.7631 207.731 47.791 207.978 47.8127C211.321 48.5256 214.612 49.4724 218.008 49.9512C223.254 50.7004 228.47 50.7658 233.714 50.134C234.836 50.0173 235.941 49.8946 237.046 49.6804C237.834 49.5275 238.037 49.7138 237.817 50.483C237.089 52.9651 236.399 55.4435 235.677 57.9097C234.123 63.2724 232.554 68.6291 231.033 74.004C230.655 75.3303 230.005 76.0268 228.513 76.1108ZM197.983 12.6604C199.126 11.0994 200.128 9.43009 201.256 7.86305C202.102 6.69721 202.332 6.76649 203.245 7.91389C205.185 10.3427 207.385 12.4714 209.95 14.2672C213.16 16.5268 216.458 18.6023 220.178 19.8584C225.973 21.8515 231.906 22.9536 238.047 22.1736C240.308 21.8928 242.636 22.1091 244.849 21.4285C245.838 21.134 245.802 21.7556 245.636 22.3822C244.761 25.6798 243.695 28.9044 242.922 32.2225C242.199 35.3603 241.254 38.4129 240.445 41.5362C240.111 42.843 239.626 43.493 238.02 43.8245C232.383 44.96 226.702 45.2069 221.013 44.7068C218.819 44.5232 216.555 44.3312 214.435 43.5224C212.066 42.6004 209.449 42.6182 207.145 41.4305C203.936 39.9339 200.758 38.358 197.598 36.7346C194.306 35.0247 191.438 32.7319 188.443 30.6269C186.917 29.5543 186.826 28.739 187.92 27.0684C191.112 22.1493 194.544 17.4127 197.983 12.6604ZM94.8139 173.364C93.3833 172.854 92.1615 171.988 90.8777 171.19C87.9357 169.377 84.9938 167.565 82.1261 165.654C81.5171 165.24 80.5954 165.215 80.0855 163.967C81.6628 164.714 83.0451 164.824 84.3797 164.389C86.4254 163.717 88.4652 163.061 90.4318 162.214C94.8109 160.308 99.2432 158.549 103.676 156.791C108.969 154.689 114.15 152.308 119.45 150.191C124.41 148.198 129.307 146.036 134.352 144.202C137.649 143.027 140.79 141.447 144.086 140.272C147.389 139.082 150.457 137.311 153.916 136.524C154.013 136.507 154.133 136.48 154.179 136.407C155.603 134.59 157.121 135.732 158.603 136.298C161.574 137.413 164.561 138.534 167.535 139.687C168.013 139.87 168.833 139.874 168.853 140.444C168.864 141.084 168.044 141.225 167.528 141.428C164.912 142.445 162.251 143.391 159.629 144.424C154.112 146.585 148.588 148.763 143.085 150.984C138.059 153.006 132.987 154.957 128.028 157.186C122.68 159.576 117.189 161.62 111.824 164.003C107.999 165.703 104.116 167.217 100.546 169.396C98.8737 170.428 96.9236 171.136 96.0797 173.157C95.8196 173.838 95.2821 173.524 94.8139 173.364ZM161.629 176.652C166.35 174.423 170.82 171.753 175.329 169.17C179.845 166.572 184.315 163.902 188.81 161.26C192.964 158.796 197.15 156.344 201.319 153.886C201.927 153.537 202.525 153.166 203.133 152.817C203.515 152.581 203.899 152.437 204.336 152.44C204.504 152.432 204.697 152.451 204.91 152.514C209.287 153.676 213.398 155.535 217.685 156.935C217.812 156.983 217.916 157.095 218.23 157.324C215.227 158.829 212.378 160.266 209.529 161.703C205.379 163.823 201.238 165.965 197.066 168.096C192.006 170.686 186.896 173.166 181.876 175.844C176.617 178.668 171.121 181.109 166.489 184.971C165.986 185.378 165.723 185.205 165.422 184.8C163.934 182.67 162.402 180.56 160.941 178.406C160.418 177.625 160.825 177.036 161.629 176.652ZM32.0084 115.591L29.4151 111.86L26.9488 108.323C26.3416 107.473 26.6335 106.278 27.5652 105.798L57.2734 90.77C58.2029 90.3439 59.2543 90.3638 60.1683 90.8397L65.4773 94.0093L70.0538 96.7541C71.153 97.3188 71.127 98.8704 70.0156 99.3905L35.6941 116.507C34.4107 117.143 32.8399 116.762 32.0084 115.591ZM157.8 307.609C157.169 308.258 154.915 309.667 154.681 309.85C144.611 317.864 130.97 318.778 125.046 322.963C121.973 325.131 117.384 326.104 115.517 326.881C110.115 329.123 107.328 329.058 101.337 330.93C100.254 331.279 96.662 330.98 95.7837 330.554C94.4295 329.892 93.2501 328.915 91.9036 328.329C90.091 327.528 88.6556 326.218 87.0475 325.168C83.5587 322.875 80.1623 320.435 76.9082 317.814C75.7475 316.644 74.5346 315.564 73.474 314.324C72.4529 313.172 71.2554 312.243 70.7911 310.541C70.4214 309.165 64.6403 300.15 69.4417 301.492C74.5459 302.95 76.1346 305.39 86.9383 307.606C94.1734 309.077 101.685 307.241 109.066 307.515C110.381 307.563 111.724 307.966 113.019 307.444C116.987 307.524 123.017 308.136 126.951 308.112C130.044 308.094 141.581 307.43 144.158 307.378C146.205 307.324 153.137 306.574 155.105 305.963C156.745 305.445 161.274 303.959 157.8 307.609ZM207.308 225.857C201.53 230.951 196.11 236.399 190.959 242.096C189.857 243.31 188.573 244.618 188.763 246.56C188.789 246.733 188.7 246.917 188.586 247.073C188.518 247.156 188.449 247.239 188.387 247.306C188.381 247.322 188.359 247.332 188.353 247.348L188.335 247.395L188.319 247.389C185.623 249.956 184.194 253.223 182.577 256.456C180.208 261.18 178.025 265.994 175.905 270.832C174.308 274.489 172.734 278.137 171.096 281.761C169.234 285.826 167.084 290.743 165.233 293.105C163.531 295.27 160.2 297.013 157.628 298.156C154.264 299.65 149.503 300.067 147.504 300.139C144.343 300.241 139.17 300.591 136.176 300.828C129.707 301.32 123.646 301.222 117.212 301.672C112.244 302.01 107.316 301.382 102.37 301.474C98.325 301.02 94.881 302.102 90.8363 302.175C89.0165 302.207 82.7299 301.551 76.1853 299.036C71.6747 297.315 66.5201 294.458 66.2354 293.769C65.4249 291.825 65.014 289.744 64.4053 287.75C63.6982 285.393 63.1389 282.982 62.4219 280.602C62.2034 278.304 61.1824 276.099 61.6526 273.718C62.0859 271.577 62.4715 269.419 62.8509 267.276C62.2602 266.288 63.2688 265.511 63.1986 264.594L63.2145 264.6C64.2953 262.198 64.0884 259.487 65.0637 257.026C65.6844 255.447 65.9187 253.685 66.3064 251.999C66.8161 249.706 67.2401 247.398 67.8356 245.12C68.2018 243.825 68.7114 242.585 68.9182 241.23C68.9815 240.873 69.0546 240.538 69.1118 240.196C69.1729 239.893 69.2339 239.589 69.2889 239.301C69.4594 238.568 69.6298 237.834 69.7942 237.116C69.8833 236.787 69.9625 236.436 70.0296 236.116L70.0477 236.069C70.0862 235.92 70.1088 235.765 70.1533 235.601C69.7663 236.088 69.8311 236.876 69.3705 237.317C69.4903 236.764 69.6421 236.223 69.7938 235.681C69.8012 233.269 70.6759 231.025 71.112 228.685C71.5624 226.261 71.8853 223.788 72.4435 221.368C73.4299 217.06 74.0575 212.688 74.7868 208.336C75.3489 204.901 76.0346 201.477 76.3296 197.976C76.4771 195.962 76.723 193.787 77.463 191.799C77.49 191.537 77.5109 191.291 77.5538 191.035C77.6049 190.71 77.6561 190.384 77.771 190.083C77.8375 189.909 77.92 189.741 78.0404 189.569C78.3735 189.078 78.2774 188.66 77.6437 188.455C77.6277 188.449 77.6019 188.421 77.586 188.415C77.5123 188.368 77.4667 188.297 77.4271 188.209C77.4332 188.193 77.4233 188.171 77.4293 188.155C77.4194 188.133 77.4255 188.117 77.4156 188.096C77.3733 187.68 77.1013 187.34 76.9271 186.983C76.5947 186.275 76.167 186.439 75.7938 186.986L75.6503 186.932C75.0925 186.719 74.8469 186.262 74.909 185.668C75.1241 183.717 74.86 181.873 74.1171 179.992C73.789 179.177 73.9606 178.153 73.1192 177.487C73.2446 177.062 73.4375 176.7 73.3057 176.232C72.8634 174.52 72.6328 172.78 72.3422 171.053C72.1472 169.889 71.7136 169.016 70.4336 168.782C70.1923 168.744 69.9653 168.621 69.7422 168.536C69.2322 168.341 68.8441 168.066 68.5979 167.754L68.582 167.748C68.582 167.748 68.5463 167.698 68.5364 167.676L68.5205 167.67C68.5205 167.67 68.4908 167.605 68.4809 167.583C68.0187 166.88 68.1958 165.985 69.0253 165.103C69.5843 164.499 70.1279 164.798 70.5835 165.135C74.6504 168.067 78.9058 170.743 83.1695 173.351C85.596 174.84 88.0301 176.404 90.5186 177.825C93.5568 179.529 96.7494 181.02 99.6347 183.029C100.452 183.613 101.547 183.758 102.461 184.234C105.044 185.601 107.681 186.825 110.269 188.176C111.637 188.898 113.306 189.262 114.34 190.619C114.561 190.903 114.962 190.856 115.305 190.769C118.132 190.395 120.994 190.216 123.668 189.094C126.468 187.929 129.305 186.906 132.119 185.801C138.328 183.358 144.533 180.878 150.751 178.457C153.669 177.319 153.617 177.408 155.366 180C158.959 185.275 162.314 190.695 166.085 195.838C167.695 198.032 169.324 200.269 170.542 202.677C171.132 203.81 171.993 205.046 172.753 206.262L174.114 208.198L177.664 213.202L214.083 220.017C211.739 222.046 209.493 223.912 207.308 225.857ZM294.037 183.799L260.211 208.277C258.655 209.389 256.844 210.115 254.924 210.362L248.985 211.092L239.487 212.298C239.139 212.347 238.853 212.237 238.644 212.067C238.095 211.64 237.996 210.749 238.675 210.263L244.523 206.085L282.267 179.09C283.079 178.492 284.128 178.329 285.108 178.631L288.317 179.601L293.588 181.194C294.766 181.553 295.021 183.085 294.037 183.799Z" fill="#FFCA00"/>
<path d="M149.954 260.737C147.427 261.043 144.976 261.724 142.525 262.405C141.429 262.695 140.216 262.667 139.237 263.365C137.51 264.159 136.616 265.833 135.318 267.081C132.118 270.108 128.981 273.16 126.197 276.583C125.054 277.998 125.347 280.053 126.451 281.419C127.144 282.282 128.967 282.052 130.287 281.03C130.74 280.658 131.077 280.206 131.472 279.794C133.05 278.145 133.407 275.63 135.39 274.262C135.56 274.2 135.761 274.15 135.895 274.037C138.921 271.324 142.146 268.996 146.39 268.546C147.171 268.462 147.93 268.099 148.695 267.864C149.27 267.793 149.847 267.668 150.441 267.786C150.035 268.611 149.257 269.023 148.782 269.695C148.74 269.66 148.664 269.668 148.586 269.729C147.639 270.729 146.755 271.753 145.491 272.433C144.867 272.776 144.405 273.508 144.028 274.163C143.546 274.996 144.073 275.959 145.015 275.883C148.082 275.692 151.101 275.246 153.708 273.39C153.818 273.341 153.944 273.298 154.06 273.233C155.972 271.857 157.945 270.612 159.236 268.472C160.613 266.202 159.911 263.065 157.448 261.962C155.063 260.889 152.573 260.429 149.954 260.737Z" fill="#FFCA00"/>
<path d="M96.0156 258.694C95.3528 257.751 94.7731 256.495 93.7629 256.128C91.2007 255.187 89.5729 253.04 87.4757 251.55C85.8561 250.387 84.2095 250.013 82.4782 249.861C79.7196 249.626 77.6143 252.272 77.6337 255.475C77.6254 256.598 78.2381 257.576 78.3116 258.675C78.4504 261.47 79.8566 263.622 81.7785 265.572C82.9034 266.691 83.8261 268.006 85.686 267.916C86.2967 267.895 86.9557 268.274 87.3993 267.59C87.8149 266.931 87.8298 266.174 87.3693 265.563C86.0751 263.834 85.8417 261.766 85.3187 259.787C85.2143 259.439 85.1539 259.071 85.454 258.858C85.7541 258.646 86.1284 258.862 86.379 259.066C88.3459 260.706 90.1622 262.598 91.0749 264.943C92.3865 268.349 94.1482 271.436 96.2337 274.392C96.2925 275.195 97.0059 275.431 97.517 275.862C99.4262 277.462 100.197 277.212 100.733 274.802C101.255 274.728 101.376 275.319 101.793 275.424C103.204 277.179 104.572 278.954 105.99 280.693C106.741 281.597 107.811 281.806 108.896 281.548C109.926 281.287 110.706 280.441 110.658 279.515C110.592 278.491 111.434 279.012 111.656 278.716C110.112 276.783 108.712 274.851 107.129 273.066C103.068 268.539 99.514 263.642 96.0156 258.694Z" fill="#FFCA00"/>
</g>
</svg>
