<svg width="64" height="61" viewBox="0 0 64 61" fill="none" xmlns="http://www.w3.org/2000/svg">
<path d="M11.2127 8.60095C12.0981 6.09101 13.7723 3.91217 16.0007 2.36978C18.2291 0.827392 20.9002 -0.00124327 23.6394 1.40013e-06H49.8892C53.3702 1.40013e-06 56.7086 1.3389 59.17 3.72217C61.6314 6.10543 63.0142 9.33782 63.0142 12.7083V38.1248C63.0142 43.7063 59.2972 48.4439 54.1312 50.157V52.0073C54.1312 53.7102 53.517 55.8859 52.0732 57.6803C50.556 59.5713 48.1463 60.9997 44.844 60.9997H14.5517C12.6385 61.0125 10.7418 60.657 8.9717 59.9539C7.20163 59.2508 5.59356 58.214 4.24094 56.9038C2.88832 55.5937 1.81813 54.0363 1.09258 52.3221C0.367029 50.608 0.000584056 48.7714 0.0145445 46.9189V17.6035C0.0145445 14.8128 1.04879 12.4897 2.88103 10.8783C4.66602 9.30753 7.00225 8.60604 9.30174 8.60604L11.2127 8.60095ZM10.5145 13.6843H9.30699C8.25122 13.6384 7.21642 13.9797 6.40901 14.6399C5.78951 15.1838 5.26451 16.0836 5.26451 17.5984V46.924C5.26451 51.9717 9.33849 55.9214 14.557 55.9214H44.844C46.4138 55.9214 47.3325 55.3064 47.931 54.5591C48.505 53.8205 48.8345 52.9308 48.876 52.0073V50.833H23.6394C20.1585 50.833 16.8201 49.4941 14.3587 47.1109C11.8973 44.7276 10.5145 41.4952 10.5145 38.1248V13.6843ZM31.5144 20.3332H38.3026L24.4059 33.7836C24.1618 34.02 23.9682 34.3005 23.8362 34.6093C23.7041 34.918 23.6361 35.2489 23.6361 35.5831C23.6361 35.9173 23.7041 36.2483 23.8362 36.557C23.9682 36.8658 24.1618 37.1463 24.4059 37.3826C24.65 37.6189 24.9397 37.8064 25.2586 37.9343C25.5775 38.0622 25.9192 38.128 26.2644 38.128C26.6095 38.128 26.9513 38.0622 27.2702 37.9343C27.5891 37.8064 27.8788 37.6189 28.1229 37.3826L42.0143 23.9271V30.4998C42.0143 31.1739 42.2908 31.8204 42.7831 32.2971C43.2754 32.7737 43.9431 33.0415 44.6393 33.0415C45.3355 33.0415 46.0031 32.7737 46.4954 32.2971C46.9877 31.8204 47.2643 31.1739 47.2643 30.4998V17.7916C47.2643 17.1175 46.9877 16.471 46.4954 15.9943C46.0031 15.5177 45.3355 15.2499 44.6393 15.2499H31.5144C30.8182 15.2499 30.1505 15.5177 29.6582 15.9943C29.1659 16.471 28.8894 17.1175 28.8894 17.7916C28.8894 18.4657 29.1659 19.1121 29.6582 19.5888C30.1505 20.0654 30.8182 20.3332 31.5144 20.3332Z" fill="#FFCA00"/>
</svg>
