<svg width="43" height="41" viewBox="0 0 43 41" fill="none" xmlns="http://www.w3.org/2000/svg">
<path d="M36.7317 32.021C37.9832 31.5635 39.0638 30.7325 39.8273 29.6403C40.5908 28.5482 41.0002 27.2479 41 25.9154V8.58203C41 6.85812 40.3152 5.20482 39.0962 3.98584C37.8772 2.76685 36.2239 2.08203 34.5 2.08203H8.5C6.77609 2.08203 5.12279 2.76685 3.90381 3.98584C2.68482 5.20482 2 6.85812 2 8.58203V25.9154C2 28.7689 3.84167 31.1934 6.39833 32.0687" stroke="#6F6F6F" stroke-width="4" stroke-linecap="round" stroke-linejoin="round"/>
<path d="M12.8333 38.9141C12.8333 37.7648 13.2898 36.6626 14.1025 35.8499C14.9151 35.0373 16.0173 34.5807 17.1666 34.5807H25.8333C26.9825 34.5807 28.0847 35.0373 28.8974 35.8499C29.71 36.6626 30.1666 37.7648 30.1666 38.9141M17.1666 23.7474C17.1666 24.8967 17.6231 25.9989 18.4358 26.8115C19.2484 27.6242 20.3506 28.0807 21.4999 28.0807C22.6492 28.0807 23.7514 27.6242 24.564 26.8115C25.3767 25.9989 25.8333 24.8967 25.8333 23.7474C25.8333 22.5981 25.3767 21.4959 24.564 20.6833C23.7514 19.8706 22.6492 19.4141 21.4999 19.4141C20.3506 19.4141 19.2484 19.8706 18.4358 20.6833C17.6231 21.4959 17.1666 22.5981 17.1666 23.7474Z" stroke="#6F6F6F" stroke-width="4" stroke-linecap="round" stroke-linejoin="round"/>
</svg>
