<?xml version="1.0" encoding="UTF-8"?>
<svg id="Capa_1" xmlns="http://www.w3.org/2000/svg" version="1.1" viewBox="0 0 1728 1094">
  <!-- Generator: Adobe Illustrator 29.2.1, SVG Export Plug-In . SVG Version: 2.1.0 Build 116)  -->
  <defs>
    <style>
      .st0 {
        opacity: .2;
      }

      .st1 {
        fill: #4481c9;
      }
    </style>
  </defs>
  <g class="st0">
    <path class="st1" d="M311.8,738.3h.3c-.4-.6-.8-1.1-1.3-1.7.1,1,0,.9.9,1.7Z"/>
    <path class="st1" d="M321.3,754.7c-.4-1.3,0-.7-.9-1.4-.1.6-.2,1.1-.3,1.7.2.1.4.2.6.3.2-.2.4-.5.6-.7Z"/>
    <path class="st1" d="M294.6,720.2l.3-.3c-.2-1.2-.1-1-.6-1.7-.2.3-.4.7-.6,1,.3.3.6.7.9,1Z"/>
    <path class="st1" d="M320.6,757.4v-1.7h-1.6v1.4c.2.1.4.2.6.3h.9Z"/>
    <path class="st1" d="M308.4,738.6c.2-.1.4-.2.6-.3-.2-1.2-.1-1-.6-1.7-.1.5-.2.9-.3,1.4.1.2.2.5.3.7Z"/>
    <path class="st1" d="M319.1,753.3v-.7h-1.3c.6.7.1.4,1.3.7Z"/>
    <path class="st1" d="M327.8,776.5c-.4-1,0-.4-.6-1,.2.3.4.7.6,1Z"/>
    <path class="st1" d="M337.3,771.4v-.3c-.3-.2-.6-.5-.9-.7v1h.9Z"/>
    <path class="st1" d="M317.2,747.2v1.4c.3.1.6.2.9.3h.3c-.4-1.4-.3-1-1.3-1.7Z"/>
    <path class="st1" d="M332.6,777.9c.2-.6.4-1.1.6-1.7-.1-.3-.2-.7-.3-1-.7-.2-1.5-.5-2.2-.7-.4.5-.8.9-1.3,1.4.2.6.4,1.1.6,1.7v.7c.8-.1,1.7-.2,2.5-.3h0Z"/>
    <path class="st1" d="M241.5,1086.8c.3.2.6.5.9.7.1-.1.2-.2.3-.3v-1.4h-.9c-.1.3-.2.7-.3,1Z"/>
    <path class="st1" d="M268.5,581.6c0-1.2.4-.5-.3-1.4-.1.2-.2.5-.3.7.2.2.4.5.6.7Z"/>
    <path class="st1" d="M271.3,519.8c-.2.6-.4,1.1-.6,1.7h.6v-1.7Z"/>
    <path class="st1" d="M270.1,520.5v-1c-.8-.1-1.7-.2-2.5-.3-.1.5-.2.9-.3,1.4h2.8Z"/>
    <path class="st1" d="M291.1,719.2c-.3-.2-.6-.5-.9-.7v1h.9v-.3Z"/>
    <path class="st1" d="M242.4,486.7c.2-.2.4-.5.6-.7v-.3h-.6c-.1.3-.2.7-.3,1h.3Z"/>
    <path class="st1" d="M341.7,793.3c-.5.6-1,1.1-1.6,1.7v1.4l.3.3c2-.3,3-2.1,1.3-3.4h0Z"/>
    <path class="st1" d="M487,1021.3c-.5.3-1,.7-1.6,1v1c3.1-.1,6.3-.2,9.4-.4.2-.4.4-.9.6-1.4-2.8-.1-5.7-.2-8.5-.3Z"/>
    <path class="st1" d="M287,720.9v.3c.2.1.4.2.6.3l.3-.3c-.2-.2-.4-.5-.6-.7-.1.1-.2.2-.3.3Z"/>
    <path class="st1" d="M287.7,697c-.1.3-.2.7-.3,1h.3c.3-1,.5-.2,0-1Z"/>
    <path class="st1" d="M279.8,690.8c-.2.3-.4.7-.6,1l.6.7c.4-1.2.7-.7,0-1.7Z"/>
    <path class="st1" d="M278.2,689.5h.3c.2-.3.4-.7.6-1h-.9v1Z"/>
    <path class="st1" d="M289.9,712.7c-.2.3-.4.7-.6,1l.6.7c.4-1.2.7-.7,0-1.7Z"/>
    <path class="st1" d="M67.9-13.4c5.8-1.9,11.5-3.9,17.3-5.8.1-.2.2-.5.3-.7-12-.1-24.1-.2-36.1-.3H15.5C2.2-14.1-15.5-13.5-31.3-10.3c-6.9,1.1-13.8,2.3-20.7,3.4V7.8C-33.5,4.8-15,1.9,3.6-1.1c21.4-4.1,42.9-8.2,64.4-12.3h0Z"/>
    <path class="st1" d="M89.9,17.7c14.4-3.9,28-8.7,41.1-13,12.1-4,23.9-6.6,34.8-11.6,6.7-3,11.9-8.9,18.2-11.6.4-.6.8-1.1,1.3-1.7h-88.5c2.2,3.9,9.4,3.9,13.2,6.1.3.2.6.5.9.7-.1.3-.2.7-.3,1C89.1-6.1,65.2-1.3,41.5,3.7c-12.1,1.7-24.3,3.4-36.4,5.1-19,2.8-38.1,5.7-57.1,8.5v20.5c8.7-1.7,20.3-1.4,29.2-2.7,38.2-5.9,77.2-7.8,112.7-17.4h0Z"/>
    <path class="st1" d="M136.3,33c14.4-1.5,28.9-3,43.3-4.4,5.5-.1,11.1-.2,16.6-.3h27c11.9,2.1,23.5,1.3,34.2,4.4,18.9,5.5,35.1,13.6,55.2,18.4,7.5,1.8,14.7.3,22.6,1.7,18.8,3.4,51.8,2.9,70.6-.3,8-.6,15.9-1.1,23.9-1.7,32.1-5.8,63.1-8.5,91.4-18.1,26.3-9,46.5-22.1,76-27.6,27,.1,54,.2,81,.3,24-4.2,49.3-.7,72.5-5.1,24.8-4.7,47.2-9.6,69.4-15.7,7.1-1.4,14.2-2.7,21.3-4.1h.6c.1-.2.2-.5.3-.7h-52.7c-7.3,2.2-14.7,4.3-22,6.5-15.4,4.1-32.5,3.9-49.3,6.8-6.5.2-13,.5-19.5.7-7.6.2-15.3.5-22.9.7-26.9-2.4-53.2-3.8-77.2-9.2-9.4-2.1-21.2-1.6-29.2-5.5h-65.6c5,4.8,15.4,2.3,18.2,9.6,3.4,8.7-6.8,15.6-10.7,18.4-15.8,11.4-33.8,15.6-56.5,20.1-27,5.4-66,6.5-92,0-21.3-5.3-37.5-16.2-56.5-22.5-9.3-3.1-20.2-1.9-30.1-3.1-.1-.2-.2-.5-.3-.7,1-10.7,24.9-10.6,35.2-12.6,21.9-4.3,55.2-3.7,72.8,3.8,14.7,6.2,23,15.5,41.1,19.8,10.9,2.6,45.2,1.4,44.3-9.6-.6-7.5-32.9-16.8-40.8-19.8-1.7-.6-2.3-2.6-3.5-3.4h-203.1v.3c1,.5,2.1.9,3.1,1.4,3,5.7-6.5,8.2-10.4,9.9-14.4,6.3-30.1,10.5-45.8,15.4-41.5,12.7-86.9,15.1-131.9,24.2-16.1,2-32.2,4.1-48.3,6.1-13.6,1.4-27.2,2.7-40.8,4.1v17.1c38.2-5.2,76.4-10.5,114.6-15.7,24.9-5,48.4-5.1,73.8-9.6h0ZM315.9,49.1c-1.2.5-3.3,0-4.4-.7,1.5.2,2.9.5,4.4.7Z"/>
    <path class="st1" d="M5.1,145.7c10.8,0,23.2-1.1,34.2-3.8,14.7-3.6,27.8-9.5,40.8-15,13.5-5.7,27.4-9.2,42.1-13.3,14.3-4,28.9-6.9,44.9-10.2,4.5-1,15.4-3.7,19.8-1.4.3.2.6.5.9.7v2c-4.4,3.3-14,4.6-20.1,5.5-.3.9-.6,1.8-.9,2.7,4.6,2.5,13.5.4,19.5.3,16.3-.3,33.5-1,48-4.4,19.4-4.4,38.7-8.9,58.1-13.3,14.3-2.3,28.7-4.6,43-6.8,25.7-5,54-2.7,78.8-7.5,33.1-6.4,65.7-9,96.7-17.1,32.3-9.3,64.7-18.7,97-28,24.1-5.8,49.5-5.5,75.3-10.2,17.4-1.1,34.7-2.3,52.1-3.4h67.2c25.7,4.6,56.3,3,81.9,9.6,35.3,9,66.9,19.9,101.1,29.4,44.9,12.4,108.9,17.4,160.1,7.5,15.6-3,43.3-4.7,48-18.4-5.9-11.7-37.8-14.2-52.4-17.7-19.1-4.6-39.7-6.8-60.3-10.6-10.9-.9-21.8-1.8-32.7-2.7-7.8-.3-15.7-.7-23.5-1-20.8-3.8-42-1.9-61.9-6.1-11.5-2.4-37.8-5.3-42.7-13.7-4.8-8.2,14-16.4,18.8-17.7.1-.2.2-.5.3-.7-6.8-.1-13.6-.2-20.4-.3h-19.1c-10.9,2.4-22.7,7.9-34.8,10.9-9.6,1.8-19.3,3.6-28.9,5.5-4.6,3.7,10.9,4.6,14.4,5.1,15.1,2.6,30.1,5.2,45.2,7.9,25.5,6.1,52.2,10.3,78.8,15.7,12.1,1.5,24.3,3,36.4,4.4,25.3,1.1,50.7,2.3,76,3.4,15.6,2.8,30.1,2.8,42.7,7.8,3.3,1.3,11.9,4.5,9.4,10.2-2.4,5.5-19.7,3.5-27,4.8-10.8,1.9-20.7.7-35.8.7-8-.1-15.9-.2-23.9-.3-14.7-2.6-28.7-2.3-42.4-5.5-37.4-8.6-72-17.6-109.6-26.6-24.1-5.8-48.4-5.8-74.1-10.6-11.5-2.1-22.2.2-34.5-2-11.6-2.1-31.2-.9-42.1,1-18.9,3.3-38.9.9-57.1,4.1-21.3,3.7-42.5,2.2-62.8,6.5-16.5,3-33.1,5.9-49.6,8.9-31.5,8-62.5,14.9-94.8,22.5-22.9,3.4-45.8,6.8-68.8,10.2-20.3,2.2-40.6,4.3-60.9,6.5-7.5.2-15.1.5-22.6.7-12.4,2.1-32.2,1.1-44-1.4-13.1-2.7-27.4-5.4-39.2-10.2-11.8-4.9-23.2-11.2-35.8-15.4-13.3-4.4-29.4-5-44.9-6.8-9.1.3-18.2.7-27.3,1-14.8-.5-32.4,2.2-46.5,4.8-31.6,5.8-63.3,5.6-92.9,13.3-11,2.8-23.9,5.6-35.8,8.9-6.3,1.4-12.6,2.7-18.8,4.1v20.5c6.5-1.7,13-3.4,19.5-5.1,10.7-2.3,21.4-4.6,32-6.8,7.4-1,14.9-2,22.3-3.1,24.4-5.1,50.9-6.8,77.9-6.8s57.1-2.3,65.9,8.9c-.7,5-7.5,7.1-11.3,8.9-13.7,6.5-28.2,10.5-44.6,14.7-8.2,2.1-29.5,6.4-38.9,2.4-5.9-2.5-9.5-9.5-14.8-13-5-3.3-12.4-3.5-19.5-4.8-5.9.3-11.7.7-17.6,1-14.5,2.6-26.6,3.6-39.6,7.2-10.5,3.1-20.9,6.1-31.4,9.2v59.4c13.6-2.2,23.7-13.6,36.4-16.7H5.1Z"/>
    <path class="st1" d="M1434.5-3.5c8.2,3.9,16.4,8.2,25.4,11.3,13.4,4.5,27.1,5.3,42.1,8.5,19.3,4.2,39.6,4.2,59.7,8.2,26.6,5.4,57.5,5.1,84.8,9.9,11.7.7,23.4,1.4,35.1,2,31.6,2.2,63.2,4.3,94.8,6.5v-10.2c-12.7-.2-25.3-.5-38-.7-10.1-.3-20.1-.7-30.1-1-14.5-.6-29.1-1.1-43.6-1.7-5.7-.1-11.3-.2-17-.3-11.7-.9-23.4-1.8-35.2-2.7-7.8-.6-15.7-1.1-23.6-1.7-19.6-2.7-39.1-5.5-58.7-8.2-10.8-2.4-21.6-4.8-32.3-7.2-12.2-4.2-24.5-8.4-36.7-12.6-1.7-2.7-.7-4.6.6-7.5,6.7-1.2,16.1.9,22.9,2,17.7,1.8,35.4,3.6,53.1,5.5,39.8,2.8,79.5,5.7,119.3,8.5h38.9c15.3-.5,30.6-.9,45.8-1.4,10.7-1.9,25.8-2.4,34.5.3v-24.3h-39.9v3.8c-9,11.1-43.7,8.5-63.4,8.5s-45.3-3.1-65.6-7.2c-12-2.4-24.6-2.1-35.5-5.1h-43.9v.3c6,3.7,24.5,3.9,33,5.5,25.9,4.8,54.8,4,81.3,8.5,9.9,1.7,22.3-.9,30.1,3.4h.6c-2.8.1-5.6.2-8.5.3-14.7,2.6-36.8,2.1-51.2-.3-11.6-.7-23.2-1.4-34.8-2-13-1.1-25.9-2.3-38.9-3.4-21.8-2.7-43.5-5.5-65.3-8.2-11.9-2.2-33.8-4.9-46.5-2.7-4.8.8-13.1-.3-14.1,4.4,3.1,5.7,14.9,8.2,20.7,10.9h0Z"/>
    <path class="st1" d="M1687.8,16.6c-11-.9-22-1.8-33-2.7-18.3-1.4-36.6-2.7-54.9-4.1-25-2.5-50-5-75-7.5-.6.6-.2,0-.6,1,5.2,7,46,9.1,58.4,11.6,21.6,4.3,45.3,3.2,67.8,7.2,7.5.3,15.1.7,22.6,1,12.6.7,25.1,1.4,37.7,2,7.3,1.6,16.4-.2,24.8,1.4,13.6.3,27.2.7,40.8,1v-7.2c-30.1,0-61.3.9-88.5-3.8h0Z"/>
    <path class="st1" d="M379,830.1c.1.2.2.5.3.7.9.4.5.2,1.3.3.1-1.5.3-2.1-1.3-2.7-.1.6-.2,1.1-.3,1.7h0Z"/>
    <path class="st1" d="M442.7,661.1c-.2-.5-.4-.9-.6-1.4v1.7c.2-.1.4-.2.6-.3Z"/>
    <path class="st1" d="M368.7,822.6c-.1-.5-.2-.9-.3-1.4h-1.3c.1.5.2.9.3,1.4v.7c.4-.2.8-.5,1.3-.7Z"/>
    <path class="st1" d="M363.6,815.4c.2.1.4.2.6.3.3-.3.6-.7.9-1-.3-1.5,0-1-.9-1.7-.2.8-.4,1.6-.6,2.4Z"/>
    <path class="st1" d="M345.1,797.7c-.3-.3-.6-.7-.9-1-.6.9-1.3,1.8-1.9,2.7.2.2.4.5.6.7,1.4-.7,1.7-.6,2.2-2.4h0Z"/>
    <path class="st1" d="M356.1,802.1v-.3c-.3-.2-.6-.5-.9-.7v1h.9Z"/>
    <path class="st1" d="M156.1,445.1c50.1-9.7,97.5,1.6,114,36.9,15.5,33.1,3,86.6-4.7,119.8-3.5,15-6.8,39.2-1.3,55,4.1,11.8,11,22.2,19.5,29.4,8.5,7.1,18.5,12.8,30.1,16.4,14.3,4.4,35.1,6,51.5,2.7,8.9-1.9,17.8-3.9,26.7-5.8,29.8-12.8,50-38.6,60-73.1,12.2-42.2,7-101.6-6.3-138.2-17.5-48.3-46.3-82.8-85.4-107.5-34.4-21.8-98.1-22.7-145.4-12.6-58,12.4-112.2,22.3-167.3,37.5-21.8,5.3-43.5,10.7-65.3,16-11.4,2.6-22.8,5.2-34.2,7.9v73.7c24.3-7.8,48.6-15.7,72.8-23.5,43.2-14.6,87.1-25.1,135.3-34.5h0Z"/>
    <path class="st1" d="M130.4,348.8c-.3-.2-.6-.5-.9-.7h-.9c-.2.6-.4,1.1-.6,1.7.4.5.8.9,1.3,1.4.9-.8,1-.7,1.3-2.4Z"/>
    <path class="st1" d="M272.3,346.4c.2-.1.4-.2.6-.3v-1c-.9-.6-.8-.8-2.2-1,.2,1.4,0,1,.6,1.7.3.2.6.5.9.7Z"/>
    <path class="st1" d="M458.4,673.1v-.3c-.3-.2-.6-.5-.9-.7.2.3.4.7.6,1h.3Z"/>
    <path class="st1" d="M324.1,755.4c.2-.1.4-.2.6-.3v-1.4c-.5-.1-1-.2-1.6-.3-.1.2-.2.5-.3.7.4.5.8.9,1.3,1.4Z"/>
    <path class="st1" d="M838,1044.2c-.4-1,0-.4-.6-1-.1.2-.2.5-.3.7.2.1.4.2.6.3h.3Z"/>
    <path class="st1" d="M838.3,1045.2h-.6c.6.3,0,.3.6,0Z"/>
    <path class="st1" d="M872.5,1058.2c-.1.2-.2.4-.3.7.3.2.6.5.9.7.3-.1.6-.2.9-.3.1-.2.2-.5.3-.7-.4-.2-.8-.5-1.3-.7-.2.1-.4.2-.6.3Z"/>
    <path class="st1" d="M877.6,1054.7c.6,1,0,.6,1.3,1-.6-1,0-.6-1.3-1Z"/>
    <path class="st1" d="M888.9,1065c.1.2.2.5.3.7.4-.7.2-.5.3-1-.2.1-.4.2-.6.3Z"/>
    <path class="st1" d="M877.6,1059.8c.3.3.6.7.9,1,.1-.1.2-.2.3-.3v-1.7h-.9c-.1.3-.2.7-.3,1Z"/>
    <path class="st1" d="M499.3,711.7v1.4h1.3v-1.4h-1.3Z"/>
    <path class="st1" d="M522.8,730.1h-1.3v1.4c.2.1.4.2.6.3.2-.1.4-.2.6-.3v-1.4Z"/>
    <path class="st1" d="M538.8,729.1c-.1.3-.2.7-.3,1,.4-.3.8-.7,1.3-1h-.9Z"/>
    <path class="st1" d="M580.6,679.9c-3,7.1-6.1,14.1-9.1,21.2v1c2.8-1.2,8.8-17.7,9.7-22.2h-.6Z"/>
    <path class="st1" d="M538.2,732.8c1.8.9,2.4.7,4.4,1,.2-.2.4-.5.6-.7-.1-.6-.2-1.1-.3-1.7-.7-1.4-1.3-1.6-3.1-1.7-.5.9-1,1.8-1.6,2.7v.3h0Z"/>
    <path class="st1" d="M955.4,377.5c12.4-1,24.9-2,37.4-3.1,28.9-5.9,58.4-6.9,85.4-13.3,33.2-7.9,86.3-16,102.3-40.6,8.2-12.6,0-26.4-6-35.2-16.2-23.8-41.8-37.8-58.7-60.8-6.4-8.8-13.6-17.3-19.2-27-8.9-15.4-16.1-32.3-29.5-42.7-12.1-9.4-26.8-14.8-41.8-21.2-37.7-15.9-79.9-23.2-125-32.1-24.2-3.3-48.3-6.6-72.5-9.9-14.3-3.3-28.4-5.9-40.8-11.3-10.3-4.4-20.3-10.1-31.7-13.3-7.9-2.2-17.5-2.1-26.4-2.7-5.6.3-11.3.7-17,1-12,2.2-33.1,3.7-37,14.7,3.7,11,21.4,10.4,33,13,35.3,8,74.2,6.4,111.1,13.3,56.1,10.5,119.2,13.7,156,45.4,16.4,14.1,23.9,39.4,35.2,59.1,9.9,16.2,19.9,32.3,29.8,48.5,3.2,6.3,7.2,15.3,2.8,23.2-8.6,15.4-31.2,19.9-49.3,24.9-43.1,11.9-123.4,19.9-171.4,7.2-18-4.8-35-9.7-44.6-23.6-16.2-23.2-3.8-51.3-10-82.6-6.3-31.5-25.9-42.6-54.9-49.5-37-8.7-88-7.5-126.2-.7-15.1,1.8-30.1,3.6-45.2,5.5-22.7,4.1-45.6,2.8-69.4,6.8-7.3.1-14.7.2-22,.3-35.6,0-73.9-7.6-84.8-36.5-6.5-17.2,6.4-22.2,6.9-32.4-6.9-5.3-22.5-3.5-32.7-2.4-21.1,2.3-64.7,8.5-72.2,23.9.2,6.7,19.2,28.7,23.5,35.8,10.2,16.7,19.9,31.5,37.7,39.9,25,11.9,63.9,12.2,95.1,6.5,36.7-6.7,71.7-9.5,107.1-16.7,7.1-.8,14.2-1.6,21.3-2.4,24-4.6,59.3-6,82.6.3,15.8,4.3,29.5,12.6,33.9,29.4,8.6,33.1-15.2,71.3-3.5,103.8,2.9,8,8.4,15.2,14.1,20.1,21.5,18.2,50.9,24.2,82.9,31.4,8.6,1,17.2,2,25.7,3.1,14.4,2.6,30.9,2.1,46.2,4.1,6.2.1,12.4.2,18.5.3,9.7,1.7,31.7,2,41.4.3h18.2c14.4-.7,28.9-1.4,43.3-2Z"/>
    <path class="st1" d="M1422.2,1093.7v.3h1.9c.1-.6.2-1.1.3-1.7-.4-.2-.8-.5-1.3-.7-.3.7-.6,1.4-.9,2.1Z"/>
    <path class="st1" d="M1672.8,72c-12.5,2.9-13.5,10.2-8.8,22.5,1.2,3.1,2,7,4.7,8.5,3.9,3.3,23.6,1.9,30.1,3.1,12.8,1.5,25.5,3,38.3,4.4,13.1,1.8,26.2,3.6,39.2,5.5v-40.3c-22.4-1.5-44.8-3-67.2-4.4-10.8-1.8-26.3-1.7-36.4.7h0Z"/>
    <path class="st1" d="M1776.4,821.9v-167.9c-12.3.5-28.7,6.3-39.9,9.9-30.6,9.9-57.7,19-81.6,35.5-21.4,14.7-36.2,34.2-65,41.6-17,4.4-41.9,3-58.4-.7-45.2-10-100.8-29.3-109.3-77.5-6.9-39.4,37.6-47.4,62.8-54.3,20.9-5.7,43.7-6.7,66.2-11.3,44-9,89.1-12.6,131.8-22.9,22.1-5.3,44.9-9,64.7-17.4,6.2-2.6,12.4-5.2,18.5-7.9,3.3-1.6,6.2-5.2,10.1-5.8v-82.3c-5.2-6-10.5-12.1-15.7-18.1-7.8-10.5-18.2-19.9-27.9-28.3-6.7-6.4-13.4-12.7-20.1-19.1-13.1-11-26.2-22.1-39.2-33.1-5-3.9-14.8-8.9-16-16.4v-.3c7.4-4.5,25.8,2,33.3,4.1,29.9,8.6,57.8,18.3,85.4,28.7h.3v-53.6c-13-.1-25.8-4.4-37.7-7.2-23.4-4.9-46.9-9.8-70.3-14.7-18.8-4.1-37.7-8.2-56.5-12.3-54.5-14.8-109.2-26.3-159.2-45.4-24.3-9.3-46.5-18.3-65.9-32.4-5.9-4.3-16.7-12.2-15.7-23.2,2.2-23.2,24.8-26.4,44.9-29.4,11.7-1.7,39.2,2,36.1,15.4-1.9,8-12,10.9-15.4,18.1,0,10.8,8.8,15.6,15.1,19.8,17.2,11.5,37,19.1,58.4,26.3,54.7,18.4,115.5,27.3,176.1,40.3,20.7,3,41.4,5.9,62.2,8.9,9.3.9,18.6,1.8,28,2.7v-52.6c-17.7,6.6-39.7,2.9-61.5,5.1-8.3.9-20.2-.2-28.9-1.7-8.7-.8-17.4-1.6-26-2.4-24.4-4.8-48.3-8.6-69.7-15.7-12.4-4.2-44.3-12.8-44.6-28,7.5-9.1,30.7-5.6,41.8-2,15.5,4.9,29.8,11.3,46.8,15.4,11.2,2.6,25,1.6,35.2,3.1,7.4,1,17.4.7,24.8-.7,14.7-2.7,32.9-4.4,36.1-19.5,2.1-9.8-6.5-21.8-.6-29,7-8.6,34.1-4.3,46.8-4.1v-28.7c-32.1,0-67.8-11.6-101.7-4.4-8.8,1.9-17.7,4.4-24.2,8.9-3.6,3.2-7.1,6.4-10.7,9.6-3.5,1-8.3-1.4-11-2.4-6.7-2.5-35.7-7.8-38-12.6-2-5.4,4.4-8.8,7.2-11.3,6.1-5.4,10.8-14.2,12.6-24.2,2.2-13-7.4-28.8-4.7-34.8,3.7-7.7,34.3-4.8,45.5-4.8,41.6,3,83.3,5.9,125,8.9v-11.3c-13,0-25.3-.4-37.1-2.4-7-.5-14-.9-21-1.4-17.9-1.2-35.8-2.5-53.7-3.8-21.6-1.2-43.1-2.5-64.7-3.8-9-.9-18-1.8-27-2.7-35.9-6.9-74.2-8.2-109.2-15.7-25.4-5.5-49.4-8.5-68.8-19.8-9.5-5.6-20.5-10.4-11.6-23.2h-36.4c-5.1,1.6-10.5,5.3-16.3,7.2-21.6,6.9-48.5,6.8-75.3,6.8h-24.2c-16.4-3-32.9-2-48-5.5-15.7-3.6-27.9-8.8-46.5-8.5v.3c5.2,5,16.1,5.7,23.6,7.8,21,6.2,44.3,5.8,68.4,9.9,25,1.7,50,3.4,75,5.1,6,.2,11.9.5,17.9.7,11,1.4,22,2.7,33,4.1,30.4,6.1,61.1,10,90.4,17.4,30.7,7.7,73.5,12.4,82.2,44,6.4,23.2-16.3,37.8-28.9,43.7-45.9,21.6-119.1,15.1-172.1,27.6-20.8,5-58.7,12.5-46.5,43.4,2.2,4.1,4.4,8.2,6.6,12.3,22,33.1,68.2,53.3,104.9,71,39.1,18.9,80.3,37.2,115.8,60.8,22.6,15,44.2,31.2,65,48.1,19.8,16.2,40.6,32.5,55.2,54.3,4.2,6.3,12.9,16.6,9.7,29-2.7,10.3-14.4,14.3-23.5,17.7-20.1,7.7-44.6,8.5-68.1,13-7.1.7-14.2,1.4-21.3,2-22.8,3.1-45.6,6.1-68.4,9.2-18.6,3.2-37.3,6.4-55.9,9.6-47.2,11.4-91.3,22.8-126.8,46.1-24.7,16.2-51.8,43.9-41.1,90.5,9.9,43.1,35.3,70,57.1,100,17.5,24,38.2,44.8,60.6,63.5,19.8,16.5,39.3,34.4,60.9,49.2,42.4,28.9,88.9,50,142.8,66.9,61.9,19.4,144.3,13.5,190.6-16,10.5-6.7,23.8-14.4,30.4-25.3,4.5-7.3,2.2-50.2,2.2-63.8h0Z"/>
    <path class="st1" d="M951.3,908.3v-.3c-.6-.1-1.3-.2-1.9-.3-.2.5-.4.9-.6,1.4v.3c.5.1,1,.2,1.6.3h.3c.2-.5.4-.9.6-1.4Z"/>
    <path class="st1" d="M914.6,1071.8c-.2.1-.4.2-.6.3.9,1,1.3.8,3.5.7v-.3c-.7-.6-1.3-.7-2.8-.7Z"/>
    <path class="st1" d="M903.3,1072.1h.9v-1.4h-.9v1.4Z"/>
    <path class="st1" d="M494.9,709.3l-1.3-.7v1.7h.6c.2-.1.4-.2.6-.3v-.7Z"/>
    <path class="st1" d="M1275,962.9c-42.6-67.8-90.3-127.9-133.7-194.6-26.5-40.6-54-80.4-60.9-142-4.2-37.5,23.4-76.4,41.1-91.1,7.9-6.6,15.2-14.6,23.9-20.5,45.2-30.7,98.5-49.7,158.2-65.2,18.8-3.4,37.7-6.8,56.5-10.2,29.6-3.2,59.2-6.4,88.8-9.6,16.7-3.1,36.9-2.7,45.2-14.7,7.4-10.7-1.3-23.5-6-30.4-15-22.3-38.9-38.7-60.6-53.6-60.6-41.7-133.4-69.9-188.7-117.4-8.8-7.5-16.5-17.9-22.3-28.7-7.1-13.3-8.8-23.2-18.2-34.5-8-9.7-19-17.3-29.5-24.2-5.8-3.8-13.8-6.6-17.6-12.6.2-1.4.4-2.7.6-4.1,1.9-3.9,6.9-2.6,11.6-3.4,11.4-1.6,22.8-3.2,34.2-4.8,33.5-7.6,67-15.2,100.5-22.9,13.5-3.3,37.2-6.5,43.6-16.7v-2c-16.4-15.9-49.5-15.6-74.7-21.5-20.4-3.5-40.8-7.1-61.2-10.6-34.6-7.5-69.1-12.7-102.4-21.2-12.8-2.2-25.5-4.3-38.3-6.5-6.5-1.2-14.7.2-19.8-2.7-1.8-1.1-2.1-3.3-1.9-6.5,4.6-3.6,21.3-10.5,30.1-8.5,6.7,3,13.4,5.9,20.1,8.9,7.6,3.1,15.1,4.6,23.6,6.8,38.7,10.5,81,13.2,122.7,21.2,27.8,5.3,56.3,5.9,82.6,11.6,22.1,4.8,41.7,8.9,59.3,17.4,5.1,2.4,14.9,6.8,13.8,15.4-1.6,12.8-27.8,18-39.6,21.5-40.8,12.1-91,15.9-122.7,38.6,0,.3.2.7.3,1,6.9,10.5,44.8-.3,53.7-3.1,45.6-14.4,107.6-8.7,152-24.9,11.5-4.2,39.8-18.2,27.6-36.9-10.3-15.8-48.8-21.2-70-26.3-19.6-4.7-41-6.9-61.8-10.9-12-1.4-24.1-2.7-36.1-4.1-14.2-1.5-28.5-3-42.7-4.4-22.6-4-45.2-3.8-66.6-7.8-24.2-4.6-48.1-5.2-68.1-13.7-7.2-3.1-17.6-5.6-21-12.6-40.3,0-90.7-4.9-117.7,9.9-.1,1.1-.2,2.3-.3,3.4,3.8,2.9,9.6,2.8,15.1,4.1,18.1,4.3,38.5,4.1,57.8,7.8,19.2,2.7,38.5,5.5,57.8,8.2,29.1,6.7,57,12.8,84.5,20.1,17.4,4.7,34.7,7.2,48.7,15,3.7,2.1,12.5,5.9,10,13-3.1,8.8-36.5,14.8-47.4,17.7-20.4,5.6-42.8,8-65,12.3-9,.8-18,1.6-27,2.4-11.4,2-32.3,2.7-44.3.7h-13.5c-9.7-1-19.5-2-29.2-3.1-28.1-5.6-55.6-9.4-81.3-17.7-25.2-8.9-50.4-17.7-75.7-26.6-15.2-5-31.8-6.9-48.3-10.2-14.1-2.9-26.7-.9-40.8-3.4-9.9-1.7-25.2-2.1-35.5-.3-5.2.1-10.5.2-15.7.3-12.1,1.1-24.3,2.3-36.4,3.4-18,3.2-35,3-52.1,6.8-64.5,14.6-135.1,33-180.8,67.9-7.7,5.9-13.6,19.2-1.9,25.9,11.6,6.7,42,7.9,59.3,4.8,17.6-1.8,35.2-3.6,52.7-5.5,13.1-1.4,26.2-2.7,39.2-4.1h9.1c19.2-3.4,42.2-.5,62.2-1,22.3-.6,52.7,1.8,74.7,6.8,30.3,6.9,56.8,14.2,70.3,39.3,14.8,27.4,10,71.8,37.4,85.7,18.2,9.3,74,14.2,84.8-5.5,3.2-5.9.4-15.1-1.6-20.5-6.6-14-13.2-28-19.8-42-6.2-15.3-13.8-28.8-25.4-38.2-31.1-25.3-86.8-32-132.5-41.3-12.6-1.6-25.1-3.2-37.7-4.8-16.1-1.4-32.2-2.7-48.3-4.1-7.4-.5-14.9-.9-22.3-1.4-18.2-3.3-37.2-4-54.6-7.5-9-1.8-24.4-1.5-28.3-8.9.3-13.3,34.1-19.7,45.8-23.2,23.6-7.1,49.3-10.8,75.7-16,12.7-2.5,24.9-.9,38.6-3.4,22-4.1,56.2-1,73.1,4.1,16.8,5.1,31.3,13.3,47.4,18.8,17.1,5.9,35.3,9.9,53.7,14.3,54.8,13.1,111,18.9,158.5,39.3,14.4,6.2,28.3,10.7,40.2,19.5,12,8.9,19.7,20.7,25.4,36.5,2.6,7.3,5.2,14.6,7.8,21.8,8.2,16.1,21,29.9,34.5,40.3,26.5,20.3,56.7,37,82.9,57.7,11.8,9.3,26.9,19.6,32.3,35.5,5.6,16.4-6.9,24.4-15.1,29.7-23.9,15.3-56.8,19.1-86,28.3-117.9,37.5-233.2,66.4-288.5,172-17.3,33.1-14.1,90.2-2.2,127,18.5,57.2,42.7,106.1,62.5,161.8.5,3.9,1,7.7,1.6,11.6,1.6,4.7,3.1,9.3,4.7,14,2.8,13.8,5.6,27.5,8.5,41.3,10.6,61.2-15.6,113.5-38.6,145.8-6.1,7.2-12.1,14.3-18.2,21.5-2,2.4-5.2,3.5-6.6,6.5h408.1c-1-15.6-7.6-31.5-12.2-44.4-11.6-32.3-23.3-60.4-39.9-86.7h0ZM1205.3,31.7c7.1.2,14.2,1.9,20.1,3.8-1.1.8-17.9-2.5-20.1-3.8Z"/>
    <path class="st1" d="M909.9,1070.1v.3c.3.2.6.4.9.7h1.6c.1-.4.2-.9.3-1.4v-.3c-.7-.2-1.5-.5-2.2-.7-.2.5-.4.9-.6,1.4Z"/>
    <path class="st1" d="M889.2,1060.5h.3v-.3c-.3-.2-.6-.4-.9-.7.2.3.4.7.6,1Z"/>
    <path class="st1" d="M812.6,1035.6c.2.3.4.7.6,1h.3c-.6-1.2.2-.4-.9-1Z"/>
    <path class="st1" d="M583.4,1073.2c.1.2.2.4.3.7.2-.5.4-.9.6-1.4h-.6c-.1.2-.2.5-.3.7Z"/>
    <path class="st1" d="M585,1074.9c1.5-.5,1.6-.6,1.9-2.4h-.9c-.3.8-.6,1.6-.9,2.4Z"/>
    <path class="st1" d="M616.7,1091.6v1.7c.1.2.2.4.3.7h2.2c-.2-.5-.4-.9-.6-1.4-.7-.9-.5-.8-1.9-1Z"/>
    <path class="st1" d="M564.6,1059.2c.3-.1.6-.2.9-.3l-.6-.7c-.1.3-.2.7-.3,1Z"/>
    <path class="st1" d="M651.5,950.3c.6-1,.5-.8.6-1.7h-.9c-.2,1.2-.2.8.3,1.7Z"/>
    <path class="st1" d="M510.6,1033.9c.9-.5.4,0,.9-.7h-.6c-.1.2-.2.5-.3.7Z"/>
    <path class="st1" d="M661.3,949.9c1.1-.6.4.2.9-1h-.6c-.1.3-.2.7-.3,1Z"/>
    <path class="st1" d="M500.5,1031.2c.3.1.6.2.9.3.1-.2.2-.5.3-.7-.3-.2-.6-.5-.9-.7-.1.3-.2.7-.3,1Z"/>
    <path class="st1" d="M527.2,1045.2h.3c.2-.1.4-.2.6-.3v-1.7h-1.6c.2,1.4.2,1.3.6,2.1Z"/>
    <path class="st1" d="M515.9,1038.3c.1.3.2.7.3,1h1.6c.1-1.1.2-2.3.3-3.4v-.3c-.8-.3-1.7-.7-2.5-1,.1,1.2.2,2.5.3,3.8h0Z"/>
    <path class="st1" d="M541,1053c.3.1.6.2.9.3.2-.1.4-.2.6-.3v-.3c-.4-.2-.8-.5-1.3-.7-.1.3-.2.7-.3,1Z"/>
    <path class="st1" d="M694.2,974.5c.1.5.2.9.3,1.4h.6c.2-.5.4-.9.6-1.4-.3-.1-.6-.2-.9-.3-.2.1-.4.2-.6.3Z"/>
    <path class="st1" d="M495.5,1023c-.1.3-.2.7-.3,1,.1.3.2.7.3,1,2.2-.1,3.1-.6,3.8-2.4v-.3c-.6-.1-1.3-.2-1.9-.3-.6.3-1.3.7-1.9,1h0Z"/>
    <path class="st1" d="M680.7,966.7v-.3c-.4-.1-.8-.2-1.3-.3.4.2.8.5,1.3.7Z"/>
    <path class="st1" d="M830.8,1044.2c.3-.1.6-.2.9-.3-.2-.2-.4-.5-.6-.7-.1.3-.2.7-.3,1Z"/>
    <path class="st1" d="M461,672.4c-.1.1-.2.2-.3.3v.3c.2.1.4.2.6.3l.3-.3c-.2-.2-.4-.5-.6-.7Z"/>
    <path class="st1" d="M747.9,432.1c-12-1.6-24.1-3.2-36.1-4.8-33.6-7.6-65.8-14.7-91.4-31.1-22.9-14.7-47.2-33.8-48.3-71.7-.9-27.9,9.8-48.1,17-67.9,4-11,4.3-22.6-4.4-28.3-23.6-15.6-81.3.6-104.2,6.8-30.8,8.4-62.4,12.7-94.8,19.8-11,1.1-22,2.3-33,3.4-8.6,1.5-18.2-.3-27.6,1.4h-37.4c-15.7-.6-31.4-1.1-47.1-1.7-12.4-2.2-31.1-.9-36.4-10.9-4.7-8.8,3.7-28.5,6-35.5,9.8-30.4,7.7-56.8-14.4-71-20.1-12.9-57.7-10.9-83.2-5.1-37,8.4-72.1,15.7-104.5,29.4-20,8.1-40,16.2-60,24.2v38.2c14.8-5.2,29.5-10.5,44.3-15.7,9.9-3.2,19.9-6.4,29.8-9.6,16.2-5.6,33-10.9,50.9-15,14.4-3.3,43.6-5.2,48.3,7.9,4.7,12.8-9.4,27.6-13.5,33.5-19.2,27.6-49.2,46.9-68.4,73.7-10.9,15.2-22.7,40.8,3.1,49.5,26.5,8.9,67.9-2.4,90.4-8.5,38.1-10.5,76.5-18.2,116.5-27,11.4-2.5,21.9-1.9,34.2-4.1,13.5-2.4,28.4-2.2,43.6-2.4h16.3c24.8,4.5,42.3,5.7,61.8,15,31.6,15.1,53.8,41.5,79.1,63.5,45.5,39.4,86.6,83.8,103.3,154.6,4.7,19.7,9.7,55.9,5.6,81.6-2.3,14.5-3.4,28.2-6.9,41.6-5.9,22.3-14.8,42-25.1,59.7-28,48.2-81.2,83.5-135.9,102.4-26.1,9-53.5,15.2-81.6,22.2-15.8,2.3-31.6,4.6-47.4,6.8-12.4.7-24.9,1.4-37.4,2h-22.9c-15.2-2.6-28.2-.3-42.4-3.4-46.6-10.2-80.2-24.6-100.8-62.8-8.5-15.8-7.5-44.1-2.5-63.2,10.8-41.8,28.9-78.2,43.6-117.1,6.8-17.9,18.1-51.8,4.4-70.7-11.2-15.5-40.7-19.9-65.9-14.7-32.2,6.6-60.7,14.7-89.2,24.9-11.8,5.1-23.7,10.2-35.5,15.4v526.4H62.8c2.1-1.3,5.2-.3,9.1-1,13.3-1.2,26.6-2.5,39.9-3.8,35.1-5,70.1-10,105.2-15,27.1-6.3,54.8-9.2,81.6-16.4,78.3-21.1,155.6-39.5,227-66.9,85.3-32.7,173.3-63.1,215.7-142.3,15-28.1,23.8-75.9,17.9-117.8-1.1-8,0-14.7-1.3-21.8-7.6-44.2-20.4-107.4-7.5-154.3,9.3-34,27.3-60.9,50.2-80.2,7.4-6.2,32.4-23.2,32.7-34.5-8.3-6-21.5-2.6-33.9-4.8-17.2-1-34.3-2-51.5-3.1h0Z"/>
    <path class="st1" d="M828,1038v1.4c.3.1.6.2.9.3,1.1-.8,1.1-.5,1.3-2.4h-1.9c-.1.2-.2.5-.3.7Z"/>
    <path class="st1" d="M474.5,687.4c-.1.1-.2.2-.3.3v.3c.2.1.4.2.6.3l.3-.3c-.2-.2-.4-.5-.6-.7Z"/>
    <path class="st1" d="M697.4,977.2h.3c.2-.2.4-.5.6-.7v-.3h-.6c-.1.3-.2.7-.3,1Z"/>
    <path class="st1" d="M777.7,1024.7c-.3.5-.6.9-.9,1.4.8-.7.8-.9.9-1.4Z"/>
    <path class="st1" d="M810.7,1037c.2-.2.4-.4.6-.7-.8-.7-.5-.7-1.9-1,.4.6.8,1.1,1.3,1.7Z"/>
    <path class="st1" d="M776.5,1020.9c.6.2,1.3.5,1.9.7.1-.1.2-.2.3-.3v-1c-.9-.6-.8-.8-2.2-1v1.7Z"/>
  </g>
</svg>