<svg width="1728" height="1094" viewBox="0 0 1728 1094" fill="none" xmlns="http://www.w3.org/2000/svg">
<path d="M311.835 738.289H312.148C311.731 737.722 311.313 737.154 310.895 736.586C311.028 737.536 310.895 737.453 311.835 738.289Z" fill="#FF3C3A"/>
<path d="M321.255 754.675C320.818 753.374 321.255 753.973 320.315 753.312C320.21 753.88 320.106 754.448 320.001 755.016C320.21 755.129 320.419 755.243 320.628 755.357C320.837 755.129 321.046 754.902 321.255 754.675Z" fill="#FF3C3A"/>
<path d="M294.565 720.2L294.879 719.86C294.66 718.631 294.755 718.827 294.252 718.156C294.043 718.497 293.834 718.838 293.625 719.178C293.939 719.519 294.252 719.86 294.565 720.2Z" fill="#FF3C3A"/>
<path d="M320.618 757.41V755.707H319.052V757.07C319.261 757.183 319.47 757.297 319.678 757.41H320.618Z" fill="#FF3C3A"/>
<path d="M308.38 738.63C308.589 738.516 308.798 738.403 309.007 738.289C308.788 737.061 308.883 737.257 308.38 736.586C308.276 737.04 308.171 737.494 308.067 737.949C308.171 738.176 308.276 738.403 308.38 738.63Z" fill="#FF3C3A"/>
<path d="M319.052 753.31V752.629H317.798C318.415 753.321 317.912 753.001 319.052 753.31Z" fill="#FF3C3A"/>
<path d="M327.844 776.518C327.436 775.496 327.854 776.105 327.218 775.496C327.427 775.837 327.636 776.177 327.844 776.518Z" fill="#FF3C3A"/>
<path d="M337.263 771.397V771.056C336.949 770.829 336.636 770.602 336.323 770.375V771.397H337.263Z" fill="#FF3C3A"/>
<path d="M317.172 747.168V748.531C317.485 748.644 317.799 748.758 318.112 748.871H318.425C317.979 747.509 318.131 747.849 317.172 747.168Z" fill="#FF3C3A"/>
<path d="M332.553 777.891C332.762 777.323 332.971 776.756 333.18 776.188C333.075 775.847 332.971 775.506 332.867 775.166C332.135 774.939 331.404 774.712 330.673 774.484C330.255 774.939 329.838 775.393 329.42 775.847C329.629 776.415 329.838 776.983 330.047 777.551V778.232C330.882 778.118 331.718 778.005 332.563 777.891H332.553Z" fill="#FF3C3A"/>
<path d="M241.509 1086.83C241.823 1087.05 242.136 1087.28 242.449 1087.51C242.554 1087.39 242.658 1087.28 242.763 1087.17V1085.8H241.823C241.718 1086.15 241.614 1086.49 241.509 1086.83Z" fill="#FF3C3A"/>
<path d="M268.51 581.601C268.577 580.434 268.89 581.105 268.197 580.238C268.093 580.465 267.989 580.693 267.884 580.92C268.093 581.147 268.302 581.374 268.51 581.601Z" fill="#FF3C3A"/>
<path d="M271.332 519.812C271.123 520.38 270.914 520.948 270.706 521.516H271.332V519.812Z" fill="#FF3C3A"/>
<path d="M270.077 520.496V519.474C269.241 519.36 268.406 519.246 267.561 519.133C267.456 519.587 267.352 520.041 267.248 520.496H270.077Z" fill="#FF3C3A"/>
<path d="M291.109 719.17C290.796 718.943 290.482 718.715 290.169 718.488V719.51H291.109V719.17Z" fill="#FF3C3A"/>
<path d="M242.448 486.706C242.657 486.479 242.866 486.251 243.075 486.024V485.684H242.448C242.344 486.024 242.239 486.365 242.135 486.706H242.448Z" fill="#FF3C3A"/>
<path d="M341.659 793.253C341.137 793.82 340.615 794.388 340.093 794.956V796.319L340.406 796.659C342.391 796.329 343.435 794.543 341.659 793.242V793.253Z" fill="#FF3C3A"/>
<path d="M487.014 1021.28C486.492 1021.62 485.969 1021.96 485.447 1022.3V1023.33C488.59 1023.21 491.723 1023.1 494.866 1022.98C495.075 1022.53 495.284 1022.08 495.493 1021.62C492.663 1021.51 489.843 1021.39 487.014 1021.28Z" fill="#FF3C3A"/>
<path d="M287.026 720.884V721.224C287.235 721.338 287.444 721.451 287.653 721.565L287.966 721.224C287.757 720.997 287.548 720.77 287.339 720.543C287.235 720.657 287.13 720.77 287.026 720.884Z" fill="#FF3C3A"/>
<path d="M287.662 696.984C287.557 697.325 287.453 697.666 287.349 698.006H287.662C287.975 697.036 288.174 697.841 287.662 696.984Z" fill="#FF3C3A"/>
<path d="M279.811 690.84C279.602 691.181 279.393 691.521 279.184 691.862L279.811 692.543C280.247 691.294 280.542 691.872 279.811 690.84Z" fill="#FF3C3A"/>
<path d="M278.244 689.479H278.557C278.766 689.138 278.975 688.798 279.184 688.457H278.244V689.479Z" fill="#FF3C3A"/>
<path d="M289.856 712.688C289.647 713.028 289.438 713.369 289.229 713.71L289.856 714.391C290.292 713.142 290.587 713.72 289.856 712.688Z" fill="#FF3C3A"/>
<path d="M67.8974 -13.3907C73.6512 -15.3213 79.4051 -17.2622 85.1684 -19.1928C85.2728 -19.4199 85.3772 -19.647 85.4817 -19.8742C73.4519 -19.9877 61.4125 -20.1013 49.3827 -20.2148L15.477 -20.2148C2.2034 -14.0824 -15.5043 -13.5456 -31.3035 -10.3142C-38.2062 -9.17855 -45.1183 -8.04292 -52.021 -6.89696L-52.021 7.78369C-33.4968 4.82071 -14.9726 1.86807 3.55166 -1.0949C25.0003 -5.19351 46.4583 -9.29211 67.9069 -13.3804L67.8974 -13.3907Z" fill="#FF3C3A"/>
<path d="M89.868 17.6637C104.234 13.7716 117.915 8.97094 130.999 4.69683C143.114 0.732435 154.878 -1.93114 165.845 -6.90728C172.501 -9.9322 177.732 -15.7859 184.056 -18.5114C184.473 -19.0792 184.891 -19.647 185.309 -20.2148L96.7802 -20.2148C99.0209 -16.364 106.189 -16.2711 109.968 -14.0721C110.282 -13.845 110.595 -13.6178 110.908 -13.3907C110.804 -13.05 110.699 -12.7093 110.595 -12.3686C89.1084 -6.08137 65.2292 -1.3117 41.5303 3.67476C29.396 5.37821 17.2523 7.09199 5.10853 8.79544C-13.9379 11.6448 -32.9843 14.4839 -52.0308 17.3333V37.816C-43.3431 36.1332 -31.7025 36.4636 -22.8345 35.0802C15.3249 29.1439 54.3767 27.2959 89.868 17.674V17.6637Z" fill="#FF3C3A"/>
<path d="M136.335 33.0321C150.777 31.5558 165.218 30.0692 179.66 28.5928C185.205 28.4793 190.749 28.3657 196.294 28.2522H223.297C235.156 30.3273 246.778 29.5426 257.516 32.6914C276.373 38.2148 292.637 46.2571 312.766 51.13C320.315 52.9573 327.417 51.4088 335.373 52.8335C354.182 56.1991 387.214 55.7242 406.014 52.4928C413.971 51.9249 421.918 51.3571 429.874 50.7893C461.966 45.0285 492.967 42.3237 521.233 32.7018C547.561 23.7406 567.747 10.5569 597.209 5.05426C624.203 5.16782 651.215 5.28138 678.209 5.39495C702.221 1.22407 727.487 4.71357 750.73 0.274273C775.52 -4.46442 797.956 -9.2857 820.108 -15.4284C827.219 -16.7912 834.34 -18.1643 841.452 -19.527H842.078C842.183 -19.7542 842.287 -19.9813 842.392 -20.2084L789.648 -20.2084C782.328 -18.0507 774.998 -15.8827 767.668 -13.725C752.268 -9.60574 735.158 -9.79157 718.381 -6.90087C711.896 -6.67374 705.402 -6.44661 698.917 -6.21949C691.274 -5.99236 683.64 -5.76523 675.997 -5.53811C649.07 -7.98488 622.769 -9.33732 598.766 -14.7574C589.348 -16.8841 577.603 -16.3989 569.57 -20.2187L503.952 -20.2187C508.975 -15.4491 519.362 -17.8752 522.163 -10.6588C525.553 -1.9144 515.355 4.97167 511.491 7.77978C495.739 19.2187 477.709 23.3483 454.978 27.9218C427.928 33.3625 388.99 34.3742 362.993 27.9218C341.678 22.6359 325.48 11.7442 306.481 5.39495C297.185 2.28744 286.285 3.46437 276.344 2.31841C276.24 2.09129 276.136 1.86416 276.031 1.63703C277.028 -9.09987 300.964 -8.96566 311.19 -10.9891C333.085 -15.3252 366.383 -14.7161 384.024 -7.23123C398.694 -1.0059 406.992 8.265 425.155 12.5701C436.074 15.1614 470.36 13.9741 469.42 3.01012C468.774 -4.53668 436.492 -13.8386 428.611 -16.7912C426.912 -17.4313 426.333 -19.3722 425.155 -20.2084L222.035 -20.2084V-19.8677C223.079 -19.4135 224.123 -18.9592 225.177 -18.505C228.225 -12.8475 218.635 -10.2768 214.819 -8.60432C200.444 -2.30671 184.739 1.9261 168.978 6.75771C127.458 19.4871 82.0443 21.8616 37.1247 30.9983C21.0122 33.0425 4.89014 35.0969 -11.2224 37.1411C-24.8284 38.5038 -38.4343 39.8769 -52.0308 41.2397L-52.0308 58.3051C-13.8335 53.0709 24.3638 47.8367 62.5611 42.6024C87.4658 37.5953 110.994 37.5127 136.335 33.0425V33.0321ZM315.909 49.0755C314.732 49.5917 312.595 49.0652 311.513 48.3942C312.975 48.6213 314.447 48.8484 315.909 49.0755Z" fill="#FF3C3A"/>
<path d="M5.10825 145.687C15.8658 145.656 28.3324 144.582 39.3273 141.929C54.0346 138.378 67.0898 132.421 80.1356 126.908C93.6371 121.209 107.537 117.699 122.207 113.59C136.544 109.584 151.147 106.735 167.098 103.349C171.608 102.388 182.536 99.6525 186.875 101.986C187.189 102.213 187.502 102.44 187.815 102.667V104.711C183.4 107.984 173.811 109.264 167.724 110.173C167.411 111.081 167.098 111.99 166.785 112.908C171.389 115.417 180.277 113.352 186.249 113.249C202.532 112.97 219.746 112.258 234.283 108.81C253.642 104.371 273.002 99.9313 292.362 95.492C306.699 93.2207 321.036 90.9391 335.373 88.6679C361.113 83.6917 389.388 85.932 414.17 81.1624C447.221 74.7925 479.873 72.1289 510.864 64.0969C543.194 54.764 575.542 45.4312 607.872 36.1087C631.969 30.2757 657.349 30.637 683.222 25.8673C700.588 24.7317 717.963 23.5961 735.338 22.4501L802.523 22.4501C828.216 27.0546 858.827 25.475 884.463 32.0101C919.726 41.0022 951.315 51.9043 985.553 61.3714C1030.44 73.7704 1094.45 78.7879 1145.66 68.8769C1161.27 65.8623 1188.99 64.1898 1193.7 50.4383C1187.75 38.731 1155.93 36.2532 1141.27 32.6915C1122.17 28.0457 1101.6 25.888 1080.98 22.1094C1070.1 21.2009 1059.21 20.2924 1048.33 19.3736C1040.48 19.0329 1032.64 18.6922 1024.79 18.3515C1004.01 14.5626 982.743 16.4312 962.937 12.2088C951.448 9.76198 925.119 6.89192 920.239 -1.44982C915.415 -9.69865 934.243 -17.8133 939.076 -19.1967C939.181 -19.4238 939.285 -19.6509 939.39 -19.8781C932.591 -19.9916 925.784 -20.1052 918.985 -20.2187L899.835 -20.2187C888.935 -17.7926 877.095 -12.3003 864.989 -9.29602C855.361 -7.47901 845.734 -5.65167 836.106 -3.83465C831.482 -0.10771 847.015 0.769823 850.547 1.28602C865.616 3.89798 880.684 6.52026 895.752 9.14254C921.293 15.2853 947.944 19.4665 974.549 24.8453C986.683 26.3216 998.827 27.8082 1010.97 29.2845C1036.29 30.4202 1061.62 31.5558 1086.95 32.7018C1102.51 35.4583 1117.06 35.5099 1129.65 40.548C1132.93 41.8591 1141.53 45.0492 1139.06 50.7893C1136.68 56.3333 1119.37 54.2478 1112.06 55.5693C1101.31 57.5102 1091.39 56.2507 1076.28 56.2507C1068.32 56.1371 1060.37 56.0236 1052.41 55.91C1037.74 53.298 1023.71 53.5871 1010.03 50.4486C972.659 41.8798 937.984 32.8153 900.461 23.8232C876.383 18.0521 852.105 18.0315 826.374 13.2411C814.885 11.1041 804.166 13.396 791.842 11.197C780.268 9.13222 760.689 10.3401 749.77 12.2191C730.876 15.4711 710.908 13.1379 692.631 16.3177C671.325 20.024 650.133 18.4857 629.842 22.8011C613.312 25.7641 596.772 28.7167 580.242 31.6797C548.71 39.6601 517.767 46.5565 485.428 54.2065C462.507 57.6238 439.587 61.0307 416.676 64.4479C396.377 66.6056 376.067 68.7736 355.768 70.9313C348.238 71.1585 340.699 71.3856 333.161 71.6127C320.799 73.6672 301.002 72.7277 289.21 70.2499C276.135 67.5038 261.798 64.8918 249.968 60.0086C238.137 55.1254 226.725 48.8175 214.182 44.6466C200.852 40.2073 184.824 39.5982 169.291 37.8225C160.186 38.1631 151.08 38.5038 141.975 38.8445C127.191 38.3386 109.607 41.0332 95.5076 43.6245C63.9091 49.4266 32.2157 49.2614 2.58265 56.9424C-8.40275 59.7918 -21.3346 62.5483 -33.203 65.821C-39.479 67.1837 -45.7645 68.5568 -52.0405 69.9196L-52.0405 90.4023C-45.5556 88.6988 -39.0612 86.9851 -32.5763 85.2816C-21.9043 83.0103 -11.2227 80.7288 -0.55061 78.4575C6.87427 77.4354 14.3086 76.4133 21.743 75.381C46.1065 70.2706 72.6443 68.5568 99.5998 68.5568C119.643 68.5568 156.663 66.2236 165.531 77.4354C164.876 82.4425 158.011 84.528 154.232 86.314C140.484 92.7974 126.024 96.7928 109.655 100.995C101.423 103.111 80.1831 107.375 70.7263 103.379C64.8016 100.881 61.2696 93.9021 55.9715 90.4126C50.9393 87.0883 43.5904 86.9231 36.5073 85.6326C30.6491 85.9733 24.7908 86.314 18.9231 86.6547C4.45312 89.215 -7.70014 90.2268 -20.632 93.8195C-31.0952 96.896 -41.5583 99.9623 -52.031 103.039L-52.031 162.432C-38.4346 160.244 -28.3322 148.805 -15.6092 145.708H5.10825V145.687Z" fill="#FF3C3A"/>
<path d="M1434.5 -3.49396C1442.69 0.356869 1450.86 4.74454 1459.93 7.76946C1473.31 12.2294 1487.04 13.0347 1502 16.3074C1521.33 20.5299 1541.55 20.4576 1561.65 24.5046C1588.28 29.8627 1619.17 29.584 1646.42 34.4052C1658.13 35.0866 1669.86 35.768 1681.57 36.4494C1713.17 38.6071 1744.78 40.7751 1776.39 42.9328V32.6915C1763.73 32.4643 1751.07 32.2372 1738.4 32.0101C1728.35 31.6694 1718.31 31.3287 1708.26 30.988C1693.72 30.4202 1679.17 29.8524 1664.63 29.2846C1658.98 29.171 1653.33 29.0574 1647.67 28.9439C1635.95 28.0354 1624.23 27.1269 1612.51 26.208C1604.66 25.6402 1596.81 25.0724 1588.96 24.5046C1569.39 21.779 1549.83 19.0432 1530.26 16.3074C1519.48 13.9225 1508.69 11.5274 1497.92 9.14254C1485.68 4.93038 1473.43 0.718204 1461.18 -3.48364C1459.44 -6.21948 1460.48 -8.08812 1461.81 -10.9891C1468.49 -12.1867 1477.89 -10.1219 1484.73 -8.945C1502.41 -7.12799 1520.11 -5.30065 1537.79 -3.48364C1577.55 -0.634232 1617.32 2.20485 1657.09 5.05426L1696.02 5.05426C1711.29 4.60001 1726.58 4.14576 1741.86 3.6915C1752.56 1.81254 1767.68 1.31699 1776.39 4.03219V-20.2187L1736.52 -20.2187V-16.4608C1727.51 -5.37292 1692.86 -7.92293 1673.1 -7.92293C1649.99 -7.92293 1627.79 -11.0201 1607.49 -15.0878C1595.47 -17.4932 1582.88 -17.2248 1572.01 -20.2084L1528.06 -20.2084V-19.8677C1534.02 -16.1305 1552.56 -15.9859 1561.03 -14.4064C1586.95 -9.58509 1615.88 -10.4523 1642.34 -5.86847C1652.24 -4.1547 1664.62 -6.77698 1672.48 -2.45124H1673.1C1670.28 -2.33768 1667.46 -2.22412 1664.63 -2.11055C1649.95 0.449785 1627.88 0.0161781 1613.45 -2.45124C1601.84 -3.13263 1590.22 -3.814 1578.6 -4.49539C1565.62 -5.63102 1552.65 -6.76665 1539.68 -7.91261C1517.91 -10.6381 1496.14 -13.374 1474.37 -16.1098C1462.43 -18.2675 1440.62 -21.024 1427.9 -18.8457C1423.09 -18.0198 1414.85 -19.1864 1413.78 -14.4064C1416.89 -8.71788 1428.7 -6.20916 1434.49 -3.48364L1434.5 -3.49396Z" fill="#FF3C3A"/>
<path d="M1687.85 16.6446C1676.87 15.7361 1665.87 14.8276 1654.89 13.9088C1636.57 12.546 1618.25 11.173 1599.95 9.81019C1574.94 7.3118 1549.92 4.80308 1524.91 2.30469C1524.28 2.92412 1524.67 2.30469 1524.29 3.32676C1529.46 10.347 1570.27 12.4738 1582.68 14.9309C1604.26 19.205 1627.97 18.1003 1650.49 22.0957C1658.02 22.4364 1665.56 22.7771 1673.1 23.1178C1685.65 23.7991 1698.21 24.4805 1710.77 25.1619C1718.03 26.8034 1727.22 25.007 1735.57 26.5247C1749.18 26.8653 1762.78 27.206 1776.38 27.5467V20.3819C1746.28 20.3406 1715.05 21.3007 1687.85 16.624V16.6446Z" fill="#FF3C3A"/>
<path d="M379.021 830.12C379.125 830.347 379.229 830.574 379.334 830.801C380.198 831.214 379.847 831.049 380.587 831.142C380.73 829.614 380.929 829.046 379.334 828.406C379.229 828.974 379.125 829.542 379.021 830.11V830.12Z" fill="#FF3C3A"/>
<path d="M442.749 661.136C442.54 660.682 442.332 660.228 442.123 659.773V661.477C442.332 661.363 442.54 661.25 442.749 661.136Z" fill="#FF3C3A"/>
<path d="M368.653 822.601C368.548 822.147 368.444 821.693 368.339 821.238H367.086C367.19 821.693 367.295 822.147 367.399 822.601V823.282C367.817 823.055 368.235 822.828 368.653 822.601Z" fill="#FF3C3A"/>
<path d="M363.629 815.44C363.838 815.553 364.047 815.667 364.256 815.78C364.569 815.44 364.883 815.099 365.196 814.758C364.854 813.292 365.101 813.798 364.256 813.055C364.047 813.85 363.838 814.645 363.629 815.44Z" fill="#FF3C3A"/>
<path d="M345.105 797.686C344.791 797.345 344.478 797.005 344.165 796.664C343.538 797.573 342.911 798.481 342.285 799.4C342.494 799.627 342.702 799.854 342.911 800.081C344.288 799.41 344.639 799.441 345.105 797.696V797.686Z" fill="#FF3C3A"/>
<path d="M356.101 802.12V801.779C355.788 801.552 355.474 801.325 355.161 801.098V802.12H356.101Z" fill="#FF3C3A"/>
<path d="M156.113 445.058C206.178 435.323 253.586 446.617 270.078 481.925C285.554 515.044 273.078 568.512 265.369 601.745C261.875 616.787 258.608 640.965 264.115 656.699C268.236 668.489 275.129 678.927 283.579 686.06C292.03 693.194 302.085 698.821 313.716 702.445C327.996 706.894 348.818 708.432 365.206 705.18C374.102 703.25 382.999 701.309 391.895 699.378C421.69 686.546 441.885 660.798 451.855 626.326C464.074 584.091 458.843 524.759 445.579 488.078C428.118 439.793 399.244 405.301 360.183 380.544C325.793 358.75 262.121 357.811 214.828 367.918C156.796 380.317 102.581 390.197 47.493 405.466C25.7311 410.814 3.95967 416.162 -17.8118 421.509C-29.2149 424.121 -40.6276 426.744 -52.0308 429.366L-52.0308 503.1C-27.7527 495.253 -3.47471 487.397 20.8033 479.551C64.0043 464.922 107.908 454.453 156.113 445.069V445.058Z" fill="#FF3C3A"/>
<path d="M130.373 348.799C130.059 348.571 129.746 348.344 129.433 348.117H128.493C128.284 348.685 128.075 349.253 127.866 349.821C128.284 350.275 128.702 350.729 129.12 351.183C130.031 350.368 130.116 350.461 130.373 348.799Z" fill="#FF3C3A"/>
<path d="M272.272 346.404C272.481 346.291 272.69 346.177 272.899 346.064V345.042C272.025 344.443 272.101 344.278 270.706 344.02C270.905 345.382 270.677 345.031 271.332 345.723C271.646 345.95 271.959 346.177 272.272 346.404Z" fill="#FF3C3A"/>
<path d="M458.444 673.096V672.756C458.131 672.528 457.818 672.301 457.504 672.074C457.713 672.415 457.922 672.756 458.131 673.096H458.444Z" fill="#FF3C3A"/>
<path d="M324.075 755.357C324.283 755.243 324.492 755.129 324.701 755.016V753.653C324.179 753.54 323.657 753.426 323.135 753.312C323.03 753.54 322.926 753.767 322.821 753.994C323.239 754.448 323.657 754.902 324.075 755.357Z" fill="#FF3C3A"/>
<path d="M838.006 1044.15C837.598 1043.12 838.016 1043.73 837.38 1043.12C837.275 1043.35 837.171 1043.58 837.066 1043.81C837.275 1043.92 837.484 1044.03 837.693 1044.15H838.006Z" fill="#FF3C3A"/>
<path d="M838.317 1045.18H837.691C838.251 1045.49 837.767 1045.51 838.317 1045.18Z" fill="#FF3C3A"/>
<path d="M872.537 1058.15C872.433 1058.37 872.329 1058.6 872.224 1058.83C872.537 1059.05 872.851 1059.28 873.164 1059.51C873.477 1059.39 873.791 1059.28 874.104 1059.17C874.209 1058.94 874.313 1058.71 874.417 1058.49C874 1058.26 873.582 1058.03 873.164 1057.8C872.955 1057.92 872.746 1058.03 872.537 1058.15Z" fill="#FF3C3A"/>
<path d="M877.561 1054.74C878.159 1055.76 877.618 1055.32 878.814 1055.76C878.216 1054.74 878.757 1055.18 877.561 1054.74Z" fill="#FF3C3A"/>
<path d="M888.859 1064.97C888.963 1065.2 889.067 1065.42 889.172 1065.65C889.618 1064.97 889.418 1065.12 889.485 1064.63C889.276 1064.74 889.068 1064.86 888.859 1064.97Z" fill="#FF3C3A"/>
<path d="M877.561 1059.85C877.874 1060.19 878.187 1060.53 878.501 1060.87C878.605 1060.76 878.709 1060.65 878.814 1060.53V1058.83H877.874C877.769 1059.17 877.665 1059.51 877.561 1059.85Z" fill="#FF3C3A"/>
<path d="M499.252 711.664V713.027H500.505V711.664H499.252Z" fill="#FF3C3A"/>
<path d="M522.799 730.102H521.545V731.464C521.754 731.578 521.963 731.691 522.172 731.805C522.381 731.691 522.59 731.578 522.799 731.464V730.102Z" fill="#FF3C3A"/>
<path d="M538.816 729.07C538.712 729.411 538.607 729.752 538.503 730.092C538.921 729.752 539.338 729.411 539.756 729.07H538.816Z" fill="#FF3C3A"/>
<path d="M580.565 679.914C577.527 686.965 574.498 694.027 571.459 701.078V702.1C574.298 700.872 580.28 684.374 581.192 679.914H580.565Z" fill="#FF3C3A"/>
<path d="M538.191 732.828C539.976 733.747 540.565 733.499 542.587 733.85C542.796 733.623 543.005 733.396 543.214 733.169C543.11 732.601 543.005 732.033 542.901 731.465C542.208 730.102 541.638 729.844 539.758 729.762C539.236 730.67 538.714 731.579 538.191 732.498V732.838V732.828Z" fill="#FF3C3A"/>
<path d="M955.416 377.467C967.864 376.445 980.321 375.423 992.778 374.39C1021.63 368.537 1051.13 367.535 1078.17 361.073C1111.34 353.154 1164.5 345.05 1180.52 320.448C1188.71 307.873 1180.48 294.008 1174.55 285.284C1158.36 261.457 1132.71 247.478 1115.85 224.518C1109.4 215.742 1102.29 207.204 1096.7 197.552C1087.81 182.2 1080.59 165.279 1067.19 154.883C1055.09 145.498 1040.39 140.037 1025.43 133.719C987.755 117.799 945.532 110.562 900.48 101.632C876.306 98.3282 852.133 95.0349 827.959 91.7312C813.688 88.4792 799.608 85.8053 787.151 80.4678C776.896 76.0801 766.86 70.3503 755.438 67.1499C747.548 64.9406 737.958 65.0851 729.071 64.4141C723.422 64.7548 717.773 65.0954 712.114 65.4361C700.112 67.6661 679.044 69.1734 675.065 80.1168C678.73 91.1324 696.504 90.482 708.031 93.0836C743.323 101.064 782.232 99.4948 819.167 106.402C875.3 116.88 938.335 120.143 975.194 151.806C991.639 165.929 999.063 191.171 1010.35 210.859C1020.29 227.016 1030.23 243.173 1040.18 259.33C1043.38 265.586 1047.4 274.62 1043.01 282.538C1034.46 297.931 1011.84 302.443 993.718 307.46C950.64 319.364 870.305 327.406 822.3 314.625C804.25 309.824 787.321 304.879 777.722 291.066C761.553 267.816 773.962 239.725 767.677 208.454C761.344 176.966 741.785 165.805 712.74 158.961C675.777 150.247 624.734 151.414 586.536 158.279C571.468 160.096 556.4 161.924 541.332 163.741C518.583 167.881 495.729 166.528 471.954 170.565C464.634 170.678 457.304 170.792 449.974 170.906C414.359 170.906 376.048 163.276 365.205 134.379C358.748 117.169 371.652 112.204 372.107 101.952C365.214 96.6144 349.652 98.4727 339.455 99.5671C318.329 101.828 274.758 108.022 267.248 123.467C267.494 130.188 286.465 152.209 290.795 159.312C300.963 175.995 310.743 190.779 328.47 199.255C353.46 211.19 392.35 211.458 423.597 205.738C460.285 199.028 495.339 196.199 530.65 189.014C537.762 188.219 544.883 187.424 551.995 186.629C575.988 182.035 611.28 180.62 634.561 186.97C650.398 191.285 664.099 199.565 668.466 216.331C677.088 249.398 653.237 287.607 665.01 320.107C667.897 328.067 673.366 335.356 679.138 340.249C700.597 358.44 730.04 364.438 762.018 371.655C770.601 372.677 779.184 373.699 787.758 374.731C802.2 377.333 818.635 376.827 833.912 378.83C840.084 378.943 846.265 379.057 852.436 379.17C862.121 380.853 884.111 381.173 893.881 379.511H912.092C926.533 378.83 940.975 378.148 955.416 377.467Z" fill="#FF3C3A"/>
<path d="M1422.25 1093.65V1093.99H1424.13C1424.24 1093.42 1424.34 1092.85 1424.45 1092.28C1424.03 1092.06 1423.61 1091.83 1423.19 1091.6C1422.88 1092.28 1422.57 1092.96 1422.25 1093.65Z" fill="#FF3C3A"/>
<path d="M1672.78 71.9503C1660.29 74.8513 1659.27 82.1194 1663.99 94.4771C1665.19 97.6156 1666 101.518 1668.7 103.015C1672.56 106.339 1692.31 104.956 1698.84 106.092C1711.61 107.568 1724.37 109.055 1737.14 110.531C1750.22 112.348 1763.31 114.175 1776.38 115.992V75.7082C1753.99 74.2319 1731.58 72.7453 1709.2 71.2689C1698.41 69.5035 1682.87 69.6068 1672.77 71.9503H1672.78Z" fill="#FF3C3A"/>
<path d="M1776.39 821.923V653.973C1764.08 654.469 1747.67 660.261 1736.52 663.874C1705.91 673.795 1678.82 682.922 1654.89 699.378C1633.46 714.121 1618.65 733.561 1589.91 741.025C1572.92 745.444 1548.05 744.019 1531.52 740.344C1486.35 730.298 1430.7 711.013 1422.26 662.852C1415.36 623.425 1459.84 615.403 1485.05 608.579C1505.95 602.922 1528.74 601.91 1551.3 597.316C1595.28 588.354 1640.41 584.731 1683.15 574.448C1705.26 569.121 1728.05 565.415 1747.82 557.042C1753.99 554.43 1760.17 551.808 1766.34 549.185C1769.67 547.585 1772.53 543.992 1776.39 543.383V461.112C1771.16 455.083 1765.92 449.053 1760.69 443.024C1752.87 432.494 1742.47 423.171 1732.75 414.695C1726.06 408.326 1719.35 401.956 1712.66 395.575C1699.58 384.539 1686.49 373.503 1673.42 362.467C1668.45 358.616 1658.6 353.609 1657.41 346.082V345.742C1664.85 341.199 1683.21 347.693 1690.69 349.84C1720.57 358.399 1748.5 368.186 1776.08 378.51H1776.4V324.918C1763.45 324.805 1750.56 320.541 1738.72 317.754C1715.28 312.86 1691.84 307.966 1668.39 303.073C1649.56 298.974 1630.72 294.876 1611.88 290.787C1557.35 276.014 1502.64 264.461 1452.71 245.383C1428.38 236.091 1406.21 227.047 1386.78 212.955C1380.91 208.702 1370.04 200.773 1371.09 189.747C1373.29 166.549 1395.9 163.38 1415.98 160.386C1427.63 158.651 1455.23 162.368 1452.08 175.748C1450.2 183.728 1440.1 186.65 1436.69 193.835C1436.73 204.665 1445.47 209.424 1451.76 213.637C1469.01 225.169 1488.74 232.695 1510.16 239.921C1564.85 258.37 1625.64 267.218 1686.28 280.205C1707 283.168 1727.73 286.121 1748.44 289.084C1757.76 289.993 1767.07 290.901 1776.39 291.82V239.25C1758.73 245.806 1736.71 242.12 1714.85 244.371C1706.56 245.228 1694.69 244.185 1685.97 242.668C1677.28 241.873 1668.59 241.078 1659.92 240.283C1635.52 235.513 1611.58 231.714 1590.22 224.58C1577.78 220.419 1545.89 211.768 1545.65 196.592C1553.11 187.517 1576.37 191.027 1587.4 194.548C1602.92 199.493 1617.18 205.883 1634.19 209.91C1645.36 212.553 1659.19 211.551 1669.34 212.986C1676.73 214.029 1686.73 213.668 1694.14 212.305C1708.86 209.59 1727.05 207.876 1730.25 192.844C1732.35 182.995 1723.73 171.081 1729.63 163.824C1736.65 155.183 1763.7 159.477 1776.41 159.725V131.055C1744.33 130.963 1708.63 119.441 1674.69 126.616C1665.92 128.474 1657.02 131.004 1650.52 135.495C1646.96 138.685 1643.39 141.865 1639.84 145.055C1636.37 146.077 1631.53 143.651 1628.86 142.67C1622.13 140.182 1593.21 134.917 1590.87 130.044C1588.9 124.686 1595.27 121.258 1598.1 118.78C1604.23 113.402 1608.91 104.616 1610.66 94.5397C1612.91 81.5109 1603.22 65.7668 1605.95 59.717C1609.62 51.9741 1640.24 54.8751 1651.47 54.937C1693.11 57.9 1734.77 60.8526 1776.42 63.8156V52.5522C1763.4 52.5522 1751.13 52.2012 1739.37 50.1674C1732.36 49.7131 1725.34 49.2589 1718.34 48.8046C1700.44 47.5554 1682.54 46.3062 1664.65 45.0467C1643.1 43.7975 1621.54 42.5483 1599.99 41.2888C1590.98 40.3803 1581.98 39.4718 1572.98 38.5529C1537.11 31.6565 1498.73 30.3867 1463.73 22.8502C1438.28 17.3682 1414.36 14.3949 1394.97 3.0489C1385.48 -2.50538 1374.43 -7.38861 1383.36 -20.1593L1346.94 -20.1593C1341.86 -18.5488 1336.44 -14.8425 1330.62 -12.9945C1309.02 -6.10844 1282.13 -6.16006 1255.27 -6.17038L1231.1 -6.17038C1214.66 -9.13335 1198.2 -8.13193 1183.06 -11.6317C1167.33 -15.2658 1155.2 -20.4381 1136.59 -20.1696V-19.829C1141.77 -14.8322 1152.68 -14.1611 1160.14 -11.9828C1181.17 -5.81937 1204.49 -6.222 1228.58 -2.0821C1253.59 -0.378653 1278.61 1.33512 1303.62 3.03857C1309.58 3.2657 1315.55 3.49283 1321.51 3.71995C1332.5 5.08271 1343.49 6.4558 1354.48 7.81856C1384.92 13.8994 1415.55 17.8431 1444.9 25.2247C1475.61 32.9574 1518.44 37.6341 1527.15 69.2563C1533.52 92.4129 1510.84 107.042 1498.27 112.947C1452.41 134.514 1379.22 128 1326.22 140.595C1305.4 145.55 1267.54 153.118 1279.76 183.945C1281.95 188.044 1284.15 192.142 1286.35 196.23C1308.39 229.298 1354.59 249.543 1391.21 267.239C1430.32 286.131 1471.54 304.477 1507.05 328.005C1529.69 343.006 1551.27 359.194 1572.03 376.135C1591.84 392.303 1612.64 408.646 1627.28 430.408C1631.52 436.706 1640.23 446.978 1637.01 459.429C1634.35 469.743 1622.64 473.686 1613.47 477.176C1593.35 484.847 1568.9 485.724 1545.34 490.143C1538.23 490.824 1531.11 491.506 1524 492.187C1501.18 495.263 1478.37 498.33 1455.56 501.406C1436.93 504.596 1418.3 507.776 1399.67 510.966C1352.51 522.415 1308.38 533.72 1272.84 557.052C1248.1 573.302 1221.06 600.95 1231.71 647.511C1241.57 690.592 1267.02 717.559 1288.85 747.529C1306.34 771.532 1327.02 792.335 1349.45 811.021C1369.29 827.56 1388.71 845.431 1410.36 860.174C1452.73 889.029 1499.24 910.193 1553.2 927.083C1615.05 946.44 1697.48 940.607 1743.77 911.04C1754.32 904.298 1767.56 896.627 1774.22 885.777C1778.7 878.499 1776.42 835.603 1776.42 821.944L1776.39 821.923Z" fill="#FF3C3A"/>
<path d="M951.335 908.295V907.954C950.708 907.84 950.081 907.727 949.455 907.613C949.246 908.068 949.037 908.522 948.828 908.976V909.317C949.35 909.43 949.873 909.544 950.395 909.657H950.708C950.917 909.203 951.126 908.749 951.335 908.295Z" fill="#FF3C3A"/>
<path d="M914.61 1071.8C914.401 1071.92 914.192 1072.03 913.983 1072.14C914.904 1073.17 915.284 1072.92 917.439 1072.83V1072.49C916.708 1071.85 916.101 1071.78 914.61 1071.8Z" fill="#FF3C3A"/>
<path d="M903.301 1072.14H904.241V1070.78H903.301V1072.14Z" fill="#FF3C3A"/>
<path d="M494.866 709.279C494.448 709.052 494.03 708.825 493.612 708.598V710.301H494.239C494.448 710.188 494.657 710.074 494.866 709.96V709.279Z" fill="#FF3C3A"/>
<path d="M1275.02 962.907C1232.43 895.141 1184.73 834.983 1141.28 768.332C1114.8 727.717 1087.25 687.97 1080.37 626.326C1076.18 588.809 1103.77 549.918 1121.5 535.186C1129.42 528.599 1136.69 520.578 1145.36 514.703C1190.58 484.052 1243.81 465.004 1303.59 449.508C1322.43 446.09 1341.26 442.684 1360.1 439.266C1389.71 436.076 1419.34 432.897 1448.94 429.706C1465.68 426.589 1485.82 427.043 1494.15 415.026C1501.58 404.31 1492.82 391.518 1488.18 384.642C1473.15 362.374 1449.29 345.979 1427.59 331.051C1366.99 289.373 1294.2 261.116 1238.91 213.626C1230.15 206.1 1222.37 195.725 1216.62 184.957C1209.53 171.68 1207.77 161.738 1198.41 150.475C1190.37 140.812 1179.37 133.182 1168.9 126.234C1163.11 122.404 1155.08 119.596 1151.31 113.608C1151.52 112.245 1151.73 110.872 1151.94 109.509C1153.8 105.617 1158.79 106.918 1163.55 106.092C1174.95 104.502 1186.37 102.902 1197.77 101.312C1231.26 93.6931 1264.75 86.0637 1298.23 78.4446C1311.74 75.1719 1335.38 71.9199 1341.87 61.7198V59.6757C1325.49 43.7975 1292.38 44.0865 1267.15 38.1709C1246.74 34.6401 1226.33 31.1197 1205.93 27.5889C1171.32 20.1247 1136.81 14.8491 1103.58 6.4248C1090.81 4.2671 1078.05 2.09907 1065.28 -0.0586338C1058.74 -1.25621 1050.55 0.189138 1045.5 -2.79448C1043.75 -3.88882 1043.45 -6.12911 1043.62 -9.27792C1048.22 -12.8294 1064.92 -19.8083 1073.76 -17.8158C1080.45 -14.8528 1087.16 -11.9002 1093.85 -8.93723C1101.4 -5.78842 1108.98 -4.38437 1117.4 -2.1131C1156.14 8.34505 1198.36 11.0499 1240.14 19.051C1267.98 24.3781 1296.48 24.9666 1322.71 30.6551C1344.82 35.4454 1364.38 39.575 1382.04 48.0613C1387.1 50.4874 1396.9 54.8647 1395.86 63.4233C1394.3 76.2353 1368.06 81.4489 1356.3 84.9281C1315.46 97.0277 1265.31 100.868 1233.56 123.498C1233.66 123.839 1233.76 124.18 1233.87 124.52C1240.81 134.989 1278.63 124.262 1287.55 121.444C1333.19 107.042 1395.17 112.751 1439.51 96.5218C1450.97 92.32 1479.36 78.3104 1467.14 59.655C1456.79 43.8697 1418.37 38.4187 1397.12 33.3703C1377.48 28.7039 1356.15 26.5049 1335.27 22.4476C1323.24 21.0848 1311.2 19.7117 1299.17 18.349C1284.94 16.8726 1270.71 15.386 1256.48 13.9097C1233.9 9.91429 1211.29 10.1208 1189.92 6.06346C1165.76 1.46931 1141.8 0.839548 1121.79 -7.59511C1114.54 -10.651 1104.2 -13.1597 1100.76 -20.2213C1060.49 -20.2213 1010.09 -25.1252 983.037 -10.3206C982.932 -9.185 982.828 -8.04937 982.723 -6.90341C986.569 -4.00238 992.294 -4.11594 997.791 -2.8048C1015.91 1.52093 1036.25 1.27315 1055.56 5.04139C1074.81 7.76691 1094.07 10.5028 1113.32 13.2386C1142.46 19.8975 1170.3 25.9887 1197.78 33.3806C1215.15 38.0574 1232.43 40.5351 1246.44 48.4019C1250.12 50.4667 1258.91 54.2763 1256.48 61.3688C1253.42 70.2164 1219.96 76.1321 1209.08 79.1157C1188.69 84.7113 1166.32 87.1271 1144.1 91.4012C1135.09 92.1961 1126.09 92.9911 1117.09 93.786C1105.68 95.7992 1084.83 96.4805 1072.83 94.4674H1059.33C1049.59 93.4453 1039.86 92.4232 1030.13 91.3908C1002 85.8159 974.491 82.0064 948.818 73.644C923.6 64.7654 898.372 55.8971 873.154 47.0185C857.982 41.9908 841.318 40.1221 824.807 36.7772C810.717 33.9175 798.155 35.8584 783.999 33.36C774.077 31.6152 758.828 31.3055 748.526 33.0193C743.295 33.1328 738.063 33.2464 732.831 33.36C720.697 34.4956 708.553 35.6312 696.41 36.7772C678.379 39.9879 661.374 39.7298 644.293 43.6013C579.805 58.251 509.193 76.576 463.456 111.533C455.718 117.448 449.889 130.777 461.577 137.477C473.179 144.136 503.562 145.385 520.909 142.257C538.484 140.44 556.068 138.613 573.652 136.796C586.736 135.433 599.82 134.06 612.894 132.697H622C641.179 129.321 664.223 132.232 684.161 131.675C706.417 131.055 736.886 133.482 758.885 138.499C789.183 145.416 815.645 152.746 829.212 177.751C844.053 205.13 839.248 249.533 866.574 263.429C884.785 272.7 940.538 277.655 951.343 257.968C954.571 252.093 951.742 242.905 949.777 237.485C943.187 223.486 936.588 209.497 929.999 195.497C923.799 180.166 916.156 166.663 904.572 157.268C873.429 132.005 817.781 125.295 772.083 115.962C759.531 114.372 746.969 112.772 734.408 111.182C718.295 109.819 702.173 108.446 686.06 107.083C678.636 106.629 671.201 106.175 663.767 105.72C645.546 102.458 626.538 101.735 609.144 98.215C600.143 96.3876 584.79 96.6973 580.887 89.3364C581.201 75.9978 614.992 69.6693 626.728 66.1282C650.351 58.984 676.006 55.288 702.391 50.0847C715.067 47.5864 727.334 49.1969 741.006 46.6675C762.968 42.6102 797.168 45.6558 814.154 50.7661C830.979 55.8249 845.458 64.0221 861.561 69.5454C878.623 75.399 896.881 79.4873 915.244 83.8853C970.067 97.0174 1026.29 102.737 1073.79 123.137C1088.21 129.331 1102.13 133.791 1113.97 142.598C1125.98 151.528 1133.67 163.276 1139.4 179.124C1142.02 186.402 1144.63 193.691 1147.25 200.969C1155.44 217.075 1168.27 230.898 1181.78 241.253C1208.28 261.54 1238.43 278.275 1264.66 298.943C1276.46 308.235 1291.56 318.518 1297 334.447C1302.6 350.862 1290.11 358.884 1281.93 364.149C1258.08 379.491 1225.11 383.207 1195.91 392.478C1078.01 429.934 962.718 458.841 907.392 564.527C890.055 597.656 893.34 654.758 905.199 691.511C923.657 748.758 947.878 797.621 967.674 853.318C968.196 857.19 968.719 861.061 969.241 864.922C970.807 869.589 972.383 874.255 973.95 878.922C976.78 892.684 979.6 906.456 982.429 920.228C992.997 981.469 966.82 1033.76 943.814 1065.99C937.747 1073.16 931.67 1080.33 925.603 1087.5C923.638 1089.87 920.4 1091.01 919.014 1093.98L1327.14 1093.98C1326.12 1078.38 1319.53 1062.51 1314.9 1049.61C1303.33 1017.31 1291.55 989.181 1275.03 962.897L1275.02 962.907ZM1205.32 31.6668C1212.37 31.9043 1219.54 33.5871 1225.41 35.4248C1224.28 36.23 1207.53 32.916 1205.32 31.6668Z" fill="#FF3C3A"/>
<path d="M909.899 1070.09V1070.43C910.212 1070.66 910.526 1070.88 910.839 1071.11H912.406C912.51 1070.66 912.614 1070.2 912.719 1069.75V1069.41C911.988 1069.18 911.257 1068.95 910.526 1068.73C910.317 1069.18 910.108 1069.64 909.899 1070.09Z" fill="#FF3C3A"/>
<path d="M889.173 1060.54H889.486V1060.2C889.173 1059.97 888.859 1059.75 888.546 1059.52C888.755 1059.86 888.964 1060.2 889.173 1060.54Z" fill="#FF3C3A"/>
<path d="M812.579 1035.62C812.787 1035.96 812.996 1036.3 813.205 1036.64H813.519C812.949 1035.43 813.699 1036.23 812.579 1035.62Z" fill="#FF3C3A"/>
<path d="M583.394 1073.17C583.498 1073.39 583.603 1073.62 583.707 1073.85C583.916 1073.39 584.125 1072.94 584.334 1072.48H583.707C583.603 1072.71 583.498 1072.94 583.394 1073.17Z" fill="#FF3C3A"/>
<path d="M584.961 1074.87C586.48 1074.38 586.518 1074.24 586.841 1072.48H585.901C585.588 1073.28 585.274 1074.07 584.961 1074.87Z" fill="#FF3C3A"/>
<path d="M616.673 1091.6V1093.31C616.778 1093.53 616.882 1093.76 616.987 1093.99H619.18C618.971 1093.53 618.762 1093.08 618.553 1092.62C617.889 1091.68 618.088 1091.83 616.673 1091.6Z" fill="#FF3C3A"/>
<path d="M564.556 1059.17C564.869 1059.05 565.183 1058.94 565.496 1058.83C565.287 1058.6 565.078 1058.37 564.869 1058.14C564.765 1058.49 564.661 1058.83 564.556 1059.17Z" fill="#FF3C3A"/>
<path d="M651.52 950.282C652.146 949.311 652.032 949.518 652.146 948.578H651.206C651.017 949.734 650.96 949.394 651.52 950.282Z" fill="#FF3C3A"/>
<path d="M510.56 1033.92C511.5 1033.47 510.94 1033.93 511.5 1033.23H510.873C510.769 1033.46 510.665 1033.69 510.56 1033.92Z" fill="#FF3C3A"/>
<path d="M661.251 949.928C662.362 949.309 661.631 950.124 662.191 948.906H661.564C661.46 949.247 661.355 949.588 661.251 949.928Z" fill="#FF3C3A"/>
<path d="M500.515 1031.18C500.828 1031.29 501.142 1031.41 501.455 1031.52C501.56 1031.29 501.664 1031.06 501.768 1030.84C501.455 1030.61 501.142 1030.38 500.828 1030.16C500.724 1030.5 500.62 1030.84 500.515 1031.18Z" fill="#FF3C3A"/>
<path d="M527.195 1045.18H527.508C527.717 1045.06 527.926 1044.95 528.135 1044.84V1043.13H526.568C526.739 1044.51 526.768 1044.4 527.195 1045.18Z" fill="#FF3C3A"/>
<path d="M515.897 1038.34C516.001 1038.68 516.105 1039.03 516.21 1039.37H517.777C517.881 1038.23 517.985 1037.09 518.09 1035.95V1035.61C517.254 1035.27 516.419 1034.93 515.574 1034.59C515.678 1035.84 515.783 1037.08 515.887 1038.34H515.897Z" fill="#FF3C3A"/>
<path d="M541.01 1053.02C541.323 1053.14 541.636 1053.25 541.95 1053.36C542.159 1053.25 542.368 1053.14 542.576 1053.02V1052.68C542.159 1052.45 541.741 1052.23 541.323 1052C541.219 1052.34 541.114 1052.68 541.01 1053.02Z" fill="#FF3C3A"/>
<path d="M694.217 974.513C694.322 974.967 694.426 975.421 694.531 975.875H695.157C695.366 975.421 695.575 974.967 695.784 974.513C695.471 974.399 695.157 974.285 694.844 974.172C694.635 974.285 694.426 974.399 694.217 974.513Z" fill="#FF3C3A"/>
<path d="M495.492 1022.98C495.388 1023.32 495.283 1023.66 495.179 1024.01C495.283 1024.35 495.388 1024.69 495.492 1025.03C497.657 1024.92 498.606 1024.41 499.261 1022.64V1022.3C498.635 1022.19 498.008 1022.07 497.381 1021.96C496.755 1022.3 496.128 1022.64 495.501 1022.98H495.492Z" fill="#FF3C3A"/>
<path d="M680.716 966.662V966.321C680.298 966.208 679.88 966.094 679.462 965.98C679.88 966.208 680.298 966.435 680.716 966.662Z" fill="#FF3C3A"/>
<path d="M830.78 1044.15C831.094 1044.03 831.407 1043.92 831.72 1043.81C831.511 1043.58 831.302 1043.35 831.094 1043.12C830.989 1043.47 830.885 1043.81 830.78 1044.15Z" fill="#FF3C3A"/>
<path d="M460.959 672.414C460.855 672.528 460.75 672.641 460.646 672.755V673.095C460.855 673.209 461.064 673.323 461.273 673.436L461.586 673.095C461.377 672.868 461.168 672.641 460.959 672.414Z" fill="#FF3C3A"/>
<path d="M747.901 432.091C735.871 430.501 723.831 428.901 711.792 427.311C678.171 419.733 645.984 412.651 620.434 396.246C597.542 381.555 573.264 362.404 572.087 324.556C571.213 296.682 581.876 276.468 589.044 256.625C593.013 245.63 593.298 234.026 584.648 228.296C561.082 212.686 503.354 228.884 480.415 235.12C449.624 243.493 417.987 247.86 385.601 254.921C374.615 256.057 363.62 257.193 352.635 258.339C344.042 259.846 334.481 258.06 325.005 259.701H287.644C271.949 259.134 256.245 258.566 240.55 257.998C228.102 255.778 209.417 257.048 204.128 247.075C199.447 238.248 207.821 218.622 210.091 211.571C219.88 181.188 217.772 154.748 195.649 140.563C175.539 127.679 137.959 129.671 112.456 135.442C75.4649 143.805 40.3818 151.156 7.90986 164.804C-12.0765 172.877 -32.0725 180.961 -52.0494 189.044L-52.0494 227.274C-37.2946 222.04 -22.5397 216.805 -7.78493 211.571C2.15605 208.381 12.097 205.201 22.038 202.011C38.2455 196.436 54.9942 191.14 72.9013 186.99C87.3428 183.645 116.454 181.766 121.248 194.846C125.948 207.658 111.83 222.453 107.747 228.296C88.5201 255.861 58.5832 275.229 39.3089 302.03C28.39 317.206 16.5975 342.809 42.4517 351.523C68.942 360.463 110.367 349.169 132.87 342.985C170.991 332.516 209.388 324.742 249.342 316.019C260.736 313.53 271.275 314.15 283.561 311.92C297.015 309.473 311.922 309.762 327.199 309.535H343.52C368.339 314.026 385.81 315.193 405.369 324.556C436.986 339.702 459.166 366.1 484.479 388.049C529.94 427.476 571.042 471.807 587.763 542.691C592.415 562.389 597.495 598.626 593.412 624.281C591.105 638.807 590.06 652.507 586.509 665.928C580.613 688.197 571.669 707.946 561.396 725.662C533.434 773.906 480.159 809.152 425.46 828.076C399.311 837.12 371.938 843.324 343.833 850.262C328.034 852.533 312.225 854.815 296.426 857.086C283.979 857.767 271.522 858.449 259.064 859.13H236.144C220.924 856.487 207.964 858.831 193.76 855.713C147.16 845.482 113.539 831.08 92.9826 792.902C84.4469 777.055 85.5293 748.829 90.4665 729.75C101.291 687.99 119.359 651.526 134.104 612.667C140.912 594.724 152.192 560.913 138.5 542.01C127.268 526.493 97.768 522.126 72.569 527.329C40.4103 533.978 11.8881 542.02 -16.596 552.251C-28.417 557.372 -40.2474 562.492 -52.0684 567.613L-52.0684 1094H62.8369C64.9352 1092.7 67.9925 1093.66 71.9423 1092.98C85.2349 1091.73 98.5276 1090.48 111.811 1089.22C146.865 1084.21 181.929 1079.21 216.984 1074.2C244.101 1067.85 271.806 1065.03 298.61 1057.81C376.942 1036.71 454.238 1018.3 525.591 990.905C610.854 958.168 698.879 927.784 741.273 848.558C756.323 820.426 765.096 772.677 759.171 730.793C758.032 722.772 759.142 716.113 757.918 708.948C750.35 664.782 737.542 601.527 750.379 554.656C759.703 520.629 777.686 493.725 800.606 474.439C808.021 468.204 832.983 451.221 833.258 439.957C824.979 433.928 811.762 437.335 799.353 435.177C782.196 434.155 765.029 433.133 747.863 432.101L747.901 432.091Z" fill="#FF3C3A"/>
<path d="M827.96 1038V1039.36C828.273 1039.48 828.587 1039.59 828.9 1039.71C829.992 1038.89 829.954 1039.23 830.153 1037.32H828.273C828.169 1037.55 828.064 1037.77 827.96 1038Z" fill="#FF3C3A"/>
<path d="M474.453 687.422C474.348 687.535 474.244 687.649 474.139 687.763V688.103C474.348 688.217 474.557 688.33 474.766 688.444L475.079 688.103C474.87 687.876 474.661 687.649 474.453 687.422Z" fill="#FF3C3A"/>
<path d="M697.36 977.249H697.674C697.883 977.021 698.091 976.794 698.3 976.567V976.227H697.674C697.569 976.567 697.465 976.908 697.36 977.249Z" fill="#FF3C3A"/>
<path d="M777.724 1024.7C777.411 1025.15 777.098 1025.6 776.784 1026.06C777.62 1025.37 777.553 1025.21 777.724 1024.7Z" fill="#FF3C3A"/>
<path d="M810.689 1036.98C810.898 1036.75 811.107 1036.53 811.315 1036.3C810.518 1035.59 810.841 1035.58 809.436 1035.28C809.853 1035.85 810.271 1036.41 810.689 1036.98Z" fill="#FF3C3A"/>
<path d="M776.469 1020.94C777.096 1021.16 777.723 1021.39 778.349 1021.62C778.454 1021.51 778.558 1021.39 778.663 1021.28V1020.26C777.789 1019.66 777.865 1019.49 776.469 1019.23V1020.94Z" fill="#FF3C3A"/>
</svg>
