<svg width="30" height="30" viewBox="0 0 30 30" fill="none" xmlns="http://www.w3.org/2000/svg">
<path d="M15 0C12.0333 0 9.13319 0.879734 6.66645 2.52796C4.19972 4.17618 2.27713 6.51885 1.14181 9.25974C0.00649926 12.0006 -0.290551 15.0166 0.288228 17.9263C0.867006 20.8361 2.29562 23.5088 4.3934 25.6066C6.49119 27.7044 9.16394 29.133 12.0737 29.7118C14.9834 30.2905 17.9994 29.9935 20.7403 28.8582C23.4811 27.7229 25.8238 25.8003 27.472 23.3335C29.1203 20.8668 30 17.9667 30 15C29.996 11.023 28.4144 7.20997 25.6022 4.39778C22.79 1.5856 18.977 0.00397107 15 0ZM23.9085 11.5695V12.5385C23.9085 12.6127 23.8937 12.6861 23.8649 12.7544C23.836 12.8227 23.7938 12.8846 23.7407 12.9363C23.6875 12.9881 23.6246 13.0286 23.5555 13.0556C23.4864 13.0826 23.4126 13.0955 23.3385 13.0935C21.7548 12.9812 20.2397 12.403 18.984 11.4315V18.5235C18.9838 19.3084 18.8272 20.0855 18.5233 20.8092C18.2194 21.5329 17.7743 22.1888 17.214 22.7385C16.6487 23.302 15.977 23.7473 15.2379 24.0486C14.4988 24.3499 13.7071 24.5011 12.909 24.4935C11.3039 24.4907 9.7634 23.8609 8.616 22.7385C7.88609 22.0026 7.36035 21.0893 7.0905 20.0886C6.82065 19.0878 6.816 18.0341 7.07701 17.031C7.31551 16.068 7.79701 15.183 8.47651 14.4615C8.98325 13.8421 9.62201 13.3438 10.3461 13.0031C11.0702 12.6623 11.8613 12.4877 12.6615 12.492H13.8915V15.0465C13.892 15.1207 13.8768 15.1941 13.8467 15.262C13.8166 15.3298 13.7724 15.3904 13.7171 15.4398C13.6617 15.4892 13.5965 15.5262 13.5257 15.5484C13.4549 15.5706 13.3802 15.5775 13.3065 15.5685C12.5923 15.354 11.8228 15.4251 11.1601 15.767C10.4973 16.1088 9.99322 16.6946 9.75397 17.4008C9.51472 18.1071 9.55904 18.8786 9.87758 19.5529C10.1961 20.2271 10.764 20.7513 11.4615 21.015C11.8665 21.2475 12.3195 21.384 12.7845 21.4155C13.1445 21.4305 13.5045 21.3855 13.8465 21.2775C14.4177 21.0853 14.9145 20.7194 15.2677 20.231C15.6208 19.7426 15.8125 19.1561 15.816 18.5535L15.816 5.631C15.8158 5.56016 15.8296 5.48997 15.8566 5.42446C15.8835 5.35896 15.9232 5.29942 15.9732 5.24925C16.0232 5.19909 16.0827 5.15929 16.1481 5.13213C16.2135 5.10498 16.2837 5.091 16.3545 5.091H18.477C18.615 5.09081 18.7478 5.14361 18.848 5.23851C18.9483 5.33342 19.0082 5.46318 19.0155 5.601C19.0931 6.26277 19.3034 6.90209 19.6339 7.4807C19.9643 8.05932 20.408 8.56534 20.9385 8.9685C21.6556 9.50683 22.5074 9.83694 23.4 9.9225C23.5337 9.93393 23.6587 9.99342 23.7519 10.0899C23.8452 10.1865 23.9002 10.3135 23.907 10.4475L23.9085 11.5695Z" fill="#FFCA00"/>
</svg>
