<svg width="30" height="30" viewBox="0 0 30 30" fill="none" xmlns="http://www.w3.org/2000/svg">
<path d="M25.6281 4.36507C24.2458 2.97623 22.5995 1.87503 20.7852 1.12562C18.9708 0.376218 17.0247 -0.00639474 15.0603 8.08425e-05C6.82914 8.08425e-05 0.120603 6.67506 0.120603 14.865C0.120603 17.49 0.81407 20.04 2.11055 22.29L0 30L7.91457 27.93C10.1005 29.115 12.5578 29.745 15.0603 29.745C23.2915 29.745 30 23.07 30 14.88C30 10.9051 28.4472 7.17006 25.6281 4.36507ZM15.0603 27.225C12.8291 27.225 10.6432 26.625 8.72864 25.5L8.27638 25.23L3.57286 26.46L4.82412 21.9L4.52261 21.435C3.28274 19.4656 2.62451 17.1889 2.62312 14.865C2.62312 8.05506 8.201 2.50507 15.0452 2.50507C18.3618 2.50507 21.4824 3.79507 23.8191 6.13506C24.9763 7.28086 25.8933 8.64387 26.517 10.145C27.1407 11.6462 27.4586 13.2557 27.4523 14.88C27.4824 21.69 21.9045 27.225 15.0603 27.225ZM21.8744 17.985C21.4975 17.805 19.6583 16.905 19.3266 16.77C18.9799 16.65 18.7387 16.59 18.4824 16.95C18.2261 17.325 17.5176 18.165 17.3065 18.405C17.0955 18.66 16.8693 18.69 16.4925 18.495C16.1156 18.315 14.9095 17.91 13.4925 16.65C12.3769 15.66 11.6382 14.445 11.4121 14.07C11.201 13.695 11.3819 13.5 11.5779 13.305C11.7437 13.14 11.9548 12.87 12.1357 12.66C12.3166 12.45 12.392 12.285 12.5126 12.045C12.6332 11.79 12.5729 11.5801 12.4824 11.4001C12.392 11.2201 11.6382 9.39006 11.3367 8.64006C11.0352 7.92006 10.7186 8.01006 10.4925 7.99506H9.76884C9.51256 7.99506 9.1206 8.08506 8.77387 8.46006C8.44221 8.83506 7.47739 9.73505 7.47739 11.565C7.47739 13.395 8.8191 15.165 9 15.405C9.1809 15.66 11.6382 19.41 15.3769 21.015C16.2663 21.405 16.9598 21.63 17.5025 21.795C18.392 22.08 19.206 22.035 19.8543 21.945C20.5779 21.84 22.0703 21.045 22.3719 20.175C22.6884 19.305 22.6884 18.57 22.5829 18.405C22.4774 18.24 22.2513 18.165 21.8744 17.985Z" fill="#FFFF00"/>
</svg>
