<svg width="62" height="62" viewBox="0 0 62 62" fill="none" xmlns="http://www.w3.org/2000/svg">
<path d="M38.3833 20.6677C41.6349 20.6675 44.8238 21.5621 47.6008 23.2537C50.3777 24.9452 52.6355 27.3684 54.1268 30.2578C55.6182 33.1471 56.2855 36.3912 56.0558 39.6346C55.8261 42.878 54.7081 45.9957 52.8243 48.646L61.1388 56.9632C61.6683 57.4946 61.9757 58.2076 61.9986 58.9573C62.0215 59.7071 61.7582 60.4375 61.262 61.0002C60.7659 61.5628 60.0742 61.9156 59.3274 61.9867C58.5807 62.0578 57.8348 61.8421 57.2414 61.3832L56.9638 61.1381L48.6465 52.8238C46.0421 54.675 42.9855 55.7874 39.8005 56.0431C36.6155 56.2988 33.4206 55.6884 30.5543 54.2764C27.6879 52.8644 25.2568 50.7035 23.5185 48.0225C21.7801 45.3415 20.7993 42.2403 20.6798 39.0473L20.668 38.383L20.6798 37.7186C20.8516 33.1384 22.7921 28.8031 26.0934 25.6235C29.3947 22.4439 33.7998 20.6676 38.3833 20.6677ZM38.3833 29.5253C37.6602 29.5254 36.9622 29.7909 36.4217 30.2715C35.8813 30.752 35.5361 31.4142 35.4514 32.1324L35.4308 32.4779V35.4304H32.4782L32.1328 35.4511C31.4151 35.5364 30.7537 35.882 30.2739 36.4224C29.794 36.9627 29.5289 37.6603 29.5289 38.383C29.5289 39.1056 29.794 39.8032 30.2739 40.3435C30.7537 40.8839 31.4151 41.2295 32.1328 41.3148L32.4782 41.3355H35.4308V44.288L35.4514 44.6335C35.5368 45.3511 35.8824 46.0125 36.4227 46.4923C36.9631 46.9722 37.6607 47.2373 38.3833 47.2373C39.106 47.2373 39.8036 46.9722 40.3439 46.4923C40.8843 46.0125 41.2299 45.3511 41.3152 44.6335L41.3359 44.288V41.3355H44.2885L44.6339 41.3148C45.3515 41.2295 46.0129 40.8839 46.4928 40.3435C46.9727 39.8032 47.2377 39.1056 47.2377 38.383C47.2377 37.6603 46.9727 36.9627 46.4928 36.4224C46.0129 35.882 45.3515 35.5364 44.6339 35.4511L44.2885 35.4304H41.3359V32.4779L41.3152 32.1324C41.2306 31.4142 40.8854 30.752 40.3449 30.2715C39.8045 29.7909 39.1065 29.5254 38.3833 29.5253ZM2.95256 35.4304C3.67575 35.4305 4.37374 35.696 4.91417 36.1766C5.45459 36.6571 5.79985 37.3193 5.88446 38.0375L5.90513 38.383V41.3355C5.90522 42.0587 6.17073 42.7566 6.65129 43.2971C7.13184 43.8375 7.79403 44.1827 8.51224 44.2674L8.85769 44.288H11.8103C12.5628 44.2889 13.2866 44.577 13.8339 45.0936C14.3811 45.6102 14.7104 46.3163 14.7545 47.0675C14.7986 47.8188 14.5542 48.5585 14.0711 49.1356C13.5881 49.7127 12.903 50.0835 12.1557 50.1724L11.8103 50.1931H8.85769C6.59836 50.1932 4.42437 49.33 2.78055 47.78C1.13672 46.2301 0.147311 44.1106 0.0147632 41.8551L1.37603e-08 41.3355V38.383C1.37603e-08 37.5999 0.311073 36.8489 0.864786 36.2952C1.4185 35.7415 2.1695 35.4304 2.95256 35.4304ZM2.95256 20.6677C3.67575 20.6678 4.37374 20.9333 4.91417 21.4139C5.45459 21.8944 5.79985 22.5566 5.88446 23.2748L5.90513 23.6203V26.5728C5.90429 27.3254 5.61613 28.0492 5.09953 28.5964C4.58292 29.1436 3.87686 29.4729 3.1256 29.517C2.37434 29.5611 1.6346 29.3167 1.05751 28.8337C0.480424 28.3507 0.109551 27.6655 0.0206679 26.9183L1.37603e-08 26.5728V23.6203C1.37603e-08 22.8372 0.311073 22.0862 0.864786 21.5325C1.4185 20.9788 2.1695 20.6677 2.95256 20.6677ZM11.8103 1.37601e-08C12.5628 0.000834717 13.2866 0.288992 13.8339 0.805594C14.3811 1.3222 14.7104 2.02825 14.7545 2.7795C14.7986 3.53075 14.5542 4.27049 14.0711 4.84757C13.5881 5.42465 12.903 5.79552 12.1557 5.8844L11.8103 5.90507H8.85769C8.13451 5.90516 7.43651 6.17067 6.89609 6.65122C6.35567 7.13177 6.01041 7.79395 5.9258 8.51216L5.90513 8.8576V11.8101C5.90429 12.5627 5.61613 13.2865 5.09953 13.8337C4.58292 14.3809 3.87686 14.7102 3.1256 14.7543C2.37434 14.7984 1.6346 14.554 1.05751 14.071C0.480424 13.588 0.109551 12.9029 0.0206679 12.1556L1.37603e-08 11.8101V8.8576C-0.000125843 6.59829 0.863109 4.42433 2.41308 2.78052C3.96306 1.13671 6.0826 0.147309 8.33804 0.014763L8.85769 1.37601e-08H11.8103ZM26.5731 1.37601e-08C27.3256 0.000834717 28.0495 0.288992 28.5967 0.805594C29.1439 1.3222 29.4732 2.02825 29.5173 2.7795C29.5614 3.53075 29.317 4.27049 28.834 4.84757C28.351 5.42465 27.6658 5.79552 26.9185 5.8844L26.5731 5.90507H23.6205C22.868 5.90423 22.1441 5.61608 21.5969 5.09948C21.0497 4.58287 20.7204 3.87682 20.6763 3.12557C20.6322 2.37432 20.8766 1.63458 21.3596 1.0575C21.8426 0.48042 22.5278 0.10955 23.2751 0.0206677L23.6205 1.37601e-08H26.5731ZM41.3359 1.37601e-08C43.5952 -0.000125842 45.7692 0.8631 47.413 2.41306C49.0569 3.96302 50.0463 6.08254 50.1788 8.33796L50.1936 8.8576V11.8101C50.1928 12.5627 49.9046 13.2865 49.388 13.8337C48.8714 14.3809 48.1653 14.7102 47.4141 14.7543C46.6628 14.7984 45.9231 14.554 45.346 14.071C44.7689 13.588 44.398 12.9029 44.3091 12.1556L44.2885 11.8101V8.8576C44.2884 8.13443 44.0229 7.43644 43.5423 6.89602C43.0617 6.35561 42.3996 6.01035 41.6814 5.92574L41.3359 5.90507H38.3833C37.6308 5.90423 36.907 5.61608 36.3597 5.09948C35.8125 4.58287 35.4832 3.87682 35.4391 3.12557C35.395 2.37432 35.6394 1.63458 36.1225 1.0575C36.6055 0.48042 37.2906 0.10955 38.0379 0.0206677L38.3833 1.37601e-08H41.3359Z" fill="black"/>
</svg>
